<svg width="45" height="24" viewBox="0 0 45 24" fill="none" xmlns="http://www.w3.org/2000/svg">
<g opacity="0.8">
<path opacity="0.4" d="M0 0H45V24H0V0Z" fill="black"/>
<path d="M14.6238 16.9999H8V15.3129H9.63551V13.5115H10.8037V11.876H11.9019V10.3784H13.0093V8.70781H9.61449V10.3597H8.01869V8.25687H9.36916V7.01855H13.1776V8.25687H14.6051V10.4905H13.4977V12.0279H12.3902V13.6424H11.222V15.3129H14.6238V16.9999Z" fill="#DEDEDE"/>
<path d="M22.3838 7V8.2757H23.6222V15.7523H22.3838V16.9907H18.1993V15.7523H16.9609V8.2757H18.1993V7H22.3838ZM21.9352 8.68925H18.6502V15.2944H21.9352V8.68925Z" fill="#DEDEDE"/>
<path d="M29.1463 7.03725V16.9999H27.457V8.70781H25.957V7.01855L29.1463 7.03725Z" fill="#DEDEDE"/>
<path d="M33.1199 16.9999H31.4844V15.1774H32.2718V13.5115H33.44V11.876H34.5288V10.3784H35.6549V8.70781H31.4867V7.01855H38.1105V8.70781H37.2461V10.4905H36.1222V12.0279H35.0334V13.6424H33.8652V15.3129H33.1152L33.1199 16.9999Z" fill="#DEDEDE"/>
</g>
</svg>
