<svg width="45" height="24" viewBox="0 0 45 24" fill="none" xmlns="http://www.w3.org/2000/svg">
<g opacity="0.8">
<path opacity="0.4" d="M0 0H45V24H0V0Z" fill="black"/>
<path d="M13.9706 16.9999H8V15.3129H9.47421V13.5115H10.5272V11.876H11.5171V10.3784H12.5153V8.70781H9.45526V10.3597H8.01685V8.25687H9.23413V7.01855H12.6669V8.25687H13.9537V10.4905H12.9555V12.0279H11.9572V13.6424H10.9042V15.3129H13.9706V16.9999Z" fill="#DEDEDE"/>
<path d="M20.9037 7V8.2757H22.0199V15.7523H20.9037V16.9907H17.1318V15.7523H16.0156V8.2757H17.1318V7H20.9037ZM20.4993 8.68925H17.5383V15.2944H20.4993V8.68925Z" fill="#DEDEDE"/>
<path d="M29.953 16.9999H23.9824V15.3129H25.4566V13.5115H26.5096V11.876H27.5079V10.3784H28.5062V8.70781H25.4356V10.3597H24.0056V8.25687H25.2229V7.01855H28.6557V8.25687H29.9425V10.4905H28.9379V12.0279H27.9396V13.6424H26.8866V15.3129H29.9488L29.953 16.9999Z" fill="#DEDEDE"/>
<path d="M36.8854 7V8.2757H38.0015V15.7523H36.8854V16.9907H33.1135V15.7523H32.0078V8.2757H33.124V7H36.8854ZM36.4789 8.68925H33.5305V15.2944H36.4789V8.68925Z" fill="#DEDEDE"/>
</g>
</svg>
