<svg width="159" height="51" viewBox="0 0 159 51" fill="none" xmlns="http://www.w3.org/2000/svg">
<rect x="1" y="1" width="157" height="49" fill="#E9E9E9" stroke="#818181" stroke-width="2"/>
<path d="M26.626 25.8V34.566H28.246V27.114H35.518V34.566H37.228V25.8H26.626ZM23.008 23.388V24.756H38.974V23.388H23.008ZM24.304 20.976V22.29H37.948V20.976H24.304ZM27.724 28.14V29.274H36.22V28.14H27.724ZM27.724 30.336V31.452H36.22V30.336H27.724ZM27.544 32.55V33.882H36.238V32.55H27.544ZM36.796 17.916C33.844 18.474 28.48 18.708 24.07 18.726C24.232 19.086 24.376 19.644 24.412 20.022C28.876 20.04 34.33 19.788 37.822 19.14L36.796 17.916ZM29.29 19.266C28.372 23.208 26.32 27.15 22.504 29.292C22.846 29.616 23.35 30.246 23.584 30.624C27.652 28.23 29.848 24.036 31.054 19.626L29.29 19.266ZM48.001 27.294C48.325 27.942 48.685 28.824 48.847 29.364L49.747 29.022C49.585 28.536 49.189 27.69 48.865 27.042L48.001 27.294ZM50.305 29.292V34.278H51.529V29.292H50.305ZM45.553 29.562V32.208H48.739V31.2H46.651V29.562H45.553ZM48.091 29.292V30.93C48.091 31.902 47.839 32.874 45.895 33.45C46.165 33.684 46.525 34.134 46.669 34.422C48.955 33.63 49.279 32.352 49.279 30.966V29.292H48.091ZM43.213 20.868V21.948H48.037V20.868H43.213ZM51.493 20.868V21.948H56.407V20.868H51.493ZM55.813 18.546V32.478C55.813 32.712 55.741 32.802 55.507 32.802C55.255 32.82 54.517 32.82 53.779 32.784C54.013 33.234 54.211 34.008 54.283 34.458C55.435 34.458 56.227 34.422 56.767 34.152C57.307 33.864 57.451 33.36 57.451 32.478V18.546H55.813ZM43.357 18.546V19.734H47.515V23.046H43.357V24.234H49.117V18.546H43.357ZM56.641 18.546H50.539V24.234H56.641V23.046H52.159V19.734H56.641V18.546ZM42.349 18.546V34.53H43.969V18.546H42.349ZM45.355 27.114C45.355 26.862 46.057 26.52 46.057 26.52V26.502C46.651 26.052 47.335 25.332 47.893 24.576L46.867 24.036C46.471 24.81 45.769 25.548 45.571 25.728C45.373 25.908 45.175 26.016 44.977 26.052C45.121 26.322 45.283 26.88 45.355 27.114ZM45.355 27.132C45.553 27.024 45.967 26.952 48.001 26.826C48.037 26.628 48.145 26.268 48.235 26.016L45.859 26.106L45.337 26.394L45.355 27.132ZM45.265 29.256C45.265 29.004 45.949 28.716 45.949 28.716V28.68C47.119 27.96 48.307 26.898 49.369 25.764L48.469 25.152C47.587 26.304 46.273 27.438 45.895 27.726C45.517 28.014 45.211 28.194 44.923 28.23C45.049 28.5 45.211 29.022 45.265 29.256ZM45.265 29.256C45.517 29.148 46.003 29.04 49.027 28.716C48.991 28.518 48.919 28.158 48.901 27.906L45.751 28.176L45.247 28.5L45.265 29.256ZM52.879 27.312C53.203 27.96 53.599 28.842 53.797 29.382L54.679 29.004C54.481 28.518 54.067 27.672 53.707 27.042L52.879 27.312ZM50.233 27.132C50.233 26.88 50.935 26.538 50.935 26.538V26.52C51.547 26.07 52.231 25.35 52.771 24.594L51.745 24.054C51.349 24.828 50.647 25.566 50.449 25.746C50.269 25.926 50.071 26.034 49.855 26.07C49.999 26.358 50.161 26.898 50.233 27.132ZM50.233 27.132C50.449 27.042 50.863 26.952 52.879 26.826C52.915 26.628 53.023 26.268 53.113 26.016L50.737 26.124L50.215 26.412L50.233 27.132ZM50.161 29.274C50.161 29.022 50.845 28.734 50.845 28.734V28.698C52.015 27.96 53.221 26.898 54.265 25.746L53.365 25.134C52.501 26.304 51.187 27.456 50.791 27.726C50.431 28.032 50.107 28.212 49.837 28.248C49.945 28.518 50.107 29.04 50.161 29.274ZM50.161 29.274C50.431 29.148 50.899 29.058 53.941 28.734C53.887 28.536 53.833 28.176 53.815 27.924L50.647 28.194L50.143 28.518L50.161 29.274ZM51.205 31.2V32.208H53.599V31.2H51.205ZM52.987 29.58V32.73H54.121V29.58H52.987ZM60.61 20.706V22.29H68.026V20.706H60.61ZM63.4 24.558V26.106H66.46V24.558H63.4ZM62.248 21.552C62.194 26.646 62.14 30.786 60.178 33.216C60.61 33.486 61.168 34.062 61.438 34.476C63.652 31.704 63.85 27.114 63.904 21.552H62.248ZM65.848 24.558V24.882C65.686 30.174 65.524 32.01 65.2 32.46C65.056 32.64 64.912 32.712 64.678 32.694C64.426 32.694 63.922 32.694 63.364 32.64C63.58 33.054 63.76 33.72 63.778 34.188C64.462 34.224 65.11 34.206 65.506 34.152C65.992 34.08 66.316 33.936 66.622 33.486C67.108 32.838 67.27 30.858 67.432 25.26C67.45 25.062 67.45 24.558 67.45 24.558H65.848ZM70.258 25.872C71.338 26.628 72.724 27.726 73.372 28.428L74.542 27.186C73.84 26.484 72.436 25.458 71.356 24.756L70.258 25.872ZM69.124 30.93C70.816 31.848 73.048 33.252 74.092 34.242L75.262 32.766C74.146 31.83 71.86 30.48 70.204 29.652L69.124 30.93ZM62.698 18.312C63.274 19.104 63.886 20.166 64.102 20.868L65.686 20.202C65.434 19.518 64.804 18.492 64.21 17.736L62.698 18.312ZM72.904 19.014L71.572 19.482C72.544 21.786 74.29 24.162 76.072 25.368C76.36 24.936 76.9 24.324 77.296 24C75.568 23.028 73.786 20.94 72.904 19.014ZM71.824 17.718C71.014 20.526 69.394 22.848 67.306 24.162C67.72 24.504 68.224 25.062 68.476 25.512C70.816 23.856 72.454 21.318 73.39 18.186L71.824 17.718ZM84.685 23.28V24.918H88.159V23.28H84.685ZM84.055 17.808V32.406L85.837 32.208V17.808H84.055ZM80.671 21.498V32.928L82.363 32.694V21.498H80.671ZM79.267 32.532L79.555 34.35C81.877 33.9 85.171 33.306 88.231 32.73L88.105 31.038C84.937 31.614 81.499 32.208 79.267 32.532ZM88.951 17.808V31.164C88.951 33.396 89.473 34.008 91.273 34.008C91.633 34.008 93.397 34.008 93.793 34.008C95.503 34.008 95.953 32.928 96.151 29.994C95.647 29.868 94.945 29.544 94.513 29.22C94.423 31.686 94.297 32.334 93.631 32.334C93.253 32.334 91.849 32.334 91.525 32.334C90.859 32.334 90.751 32.172 90.751 31.2V17.808H88.951ZM90.175 23.28V24.918H95.017V23.28H90.175ZM98.212 29.22V30.588H114.628V29.22H98.212ZM98.734 19.104V20.418H113.926V19.104H98.734ZM108.778 28.104V32.748C108.778 32.982 108.688 33.054 108.4 33.072C108.112 33.072 107.086 33.072 106.096 33.036C106.312 33.468 106.528 34.08 106.6 34.512C108.022 34.512 108.976 34.512 109.624 34.296C110.254 34.062 110.416 33.63 110.416 32.802V28.104H108.778ZM105.538 17.826V27.51H107.212V17.826H105.538ZM101.092 31.29C102.136 31.956 103.36 32.964 103.954 33.666L105.196 32.568C104.584 31.866 103.288 30.912 102.262 30.3L101.092 31.29ZM101.74 24.306H111.154V25.242H101.74V24.306ZM101.74 22.362H111.154V23.28H101.74V22.362ZM100.138 21.282V26.322H112.828V21.282H100.138ZM109.03 26.664C110.398 27.186 112.072 28.14 112.936 28.86L113.944 27.942C113.062 27.276 111.406 26.358 110.02 25.854L109.03 26.664ZM98.95 27.204L99.022 28.482C102.442 28.428 107.572 28.338 112.396 28.194L112.468 27.096C107.518 27.186 102.244 27.222 98.95 27.204ZM124.357 27.438V34.512H126.067V27.438H124.357ZM117.643 19.104V21.768H119.227V20.526H131.323V21.768H132.961V19.104H117.643ZM117.337 22.38V23.73H133.231V22.38H117.337ZM117.157 28.824V30.264H133.411V28.824H117.157ZM128.839 21.174C127.579 25.17 124.249 26.358 117.265 26.61C117.517 26.97 117.733 27.528 117.859 28.032C125.293 27.582 128.947 26.25 130.513 21.552L128.839 21.174ZM119.533 25.386C124.375 26.124 128.875 27.186 131.467 28.194L133.123 27.078C130.225 26.106 125.473 25.008 120.901 24.342L119.533 25.386ZM123.835 18.186C124.177 18.762 124.609 19.572 124.807 20.076L126.643 19.59C126.427 19.104 125.959 18.33 125.581 17.79L123.835 18.186ZM119.533 25.386H121.315C122.521 24.36 124.267 22.596 125.365 21.03L123.745 20.526C122.737 22.146 120.919 24.126 119.533 25.386ZM121.441 30.462C120.523 31.47 118.867 32.37 117.265 32.928C117.679 33.198 118.363 33.756 118.687 34.08C120.235 33.396 122.053 32.262 123.133 31.038L121.441 30.462ZM127.237 31.308C128.857 32.1 130.909 33.342 131.881 34.224L133.177 33.018C132.115 32.154 130.027 30.966 128.443 30.228L127.237 31.308Z" fill="#333333"/>
<rect x="5" y="47" width="151" height="2" fill="#C4C4C4"/>
<rect x="2" y="2" width="2" height="47" fill="white"/>
<rect x="155" y="2" width="2" height="47" fill="#C4C4C4"/>
<rect x="4" y="2" width="152" height="2" fill="white"/>
</svg>
