<svg width="54" height="24" viewBox="0 0 54 24" fill="none" xmlns="http://www.w3.org/2000/svg">
<g opacity="0.9">
<path opacity="0.4" d="M0 0H54V24H0V0Z" fill="black"/>
<path d="M15.1934 14.6489C15.1934 14.979 15.314 15.2393 15.5552 15.4297C15.7964 15.6201 16.082 15.7153 16.4121 15.7153C16.8141 15.7153 17.2035 15.6222 17.5801 15.436C18.2148 15.1271 18.5322 14.6214 18.5322 13.9189V12.9985C18.3926 13.0874 18.2127 13.1615 17.9927 13.2207C17.7726 13.2799 17.5568 13.3223 17.3452 13.3477L16.6533 13.4365C16.2386 13.4915 15.9276 13.5783 15.7202 13.6968C15.369 13.8957 15.1934 14.2131 15.1934 14.6489ZM17.9609 12.3384C18.2233 12.3045 18.3989 12.1945 18.4878 12.0083C18.5386 11.9067 18.564 11.7607 18.564 11.5703C18.564 11.181 18.4243 10.8996 18.145 10.7261C17.87 10.5483 17.4743 10.4595 16.958 10.4595C16.3613 10.4595 15.9382 10.6203 15.6885 10.9419C15.5488 11.1196 15.4578 11.3841 15.4155 11.7354H14.3491C14.3703 10.8975 14.6411 10.3156 15.1616 9.98975C15.6864 9.65967 16.2936 9.49463 16.9834 9.49463C17.7832 9.49463 18.4328 9.64697 18.9321 9.95166C19.4272 10.2563 19.6748 10.7303 19.6748 11.3735V15.29C19.6748 15.4085 19.6981 15.5037 19.7446 15.5757C19.7954 15.6476 19.8991 15.6836 20.0557 15.6836C20.1064 15.6836 20.1636 15.6815 20.2271 15.6772C20.2905 15.6688 20.3582 15.6582 20.4302 15.6455V16.4897C20.2524 16.5405 20.117 16.5723 20.0239 16.585C19.9308 16.5977 19.8039 16.604 19.6431 16.604C19.2495 16.604 18.9639 16.4644 18.7861 16.1851C18.693 16.0369 18.6274 15.8275 18.5894 15.5566C18.3566 15.8613 18.0223 16.1258 17.5864 16.3501C17.1506 16.5744 16.6702 16.6865 16.1455 16.6865C15.515 16.6865 14.9987 16.4961 14.5967 16.1152C14.1989 15.7301 14 15.2498 14 14.6743C14 14.0438 14.1968 13.555 14.5903 13.208C14.9839 12.861 15.5002 12.6473 16.1392 12.5669L17.9609 12.3384Z" fill="white"/>
<path d="M22.4894 8.625C22.5063 8.15104 22.5888 7.80404 22.7369 7.58398C23.0035 7.19466 23.5177 7 24.2794 7C24.3513 7 24.4254 7.00212 24.5016 7.00635C24.5777 7.01058 24.6645 7.01693 24.7618 7.02539V8.06641C24.6433 8.05794 24.5566 8.05371 24.5016 8.05371C24.4508 8.04948 24.4021 8.04736 24.3556 8.04736C24.0086 8.04736 23.8012 8.13835 23.7335 8.32031C23.6658 8.49805 23.6319 8.95508 23.6319 9.69141H24.7618V10.5928H23.6192V16.458H22.4894V10.5928H21.5436V9.69141H22.4894V8.625Z" fill="white"/>
<path d="M26.7004 7.76172H27.8557V9.65967H28.9411V10.5928H27.8557V15.0298C27.8557 15.2668 27.9361 15.4255 28.0969 15.5059C28.1857 15.5524 28.3339 15.5757 28.5412 15.5757C28.5962 15.5757 28.6555 15.5757 28.7189 15.5757C28.7824 15.5715 28.8565 15.5651 28.9411 15.5566V16.458C28.8099 16.4961 28.6724 16.5236 28.5285 16.5405C28.3889 16.5575 28.2365 16.5659 28.0715 16.5659C27.5383 16.5659 27.1765 16.4305 26.986 16.1597C26.7956 15.8846 26.7004 15.5291 26.7004 15.0933V10.5928H25.78V9.65967H26.7004V7.76172Z" fill="white"/>
<path d="M33.5711 9.50732C34.0535 9.50732 34.5211 9.62158 34.9739 9.8501C35.4267 10.0744 35.7716 10.3664 36.0086 10.7261C36.2371 11.0688 36.3895 11.4688 36.4656 11.9258C36.5333 12.2389 36.5672 12.7383 36.5672 13.4238H31.5843C31.6054 14.1136 31.7684 14.668 32.073 15.0869C32.3777 15.5016 32.8496 15.709 33.4886 15.709C34.0853 15.709 34.5613 15.5122 34.9168 15.1187C35.1199 14.8901 35.2638 14.6257 35.3484 14.3252H36.472C36.4424 14.5749 36.3429 14.8542 36.1736 15.1631C36.0086 15.4678 35.8224 15.7174 35.615 15.9121C35.268 16.2507 34.8385 16.4792 34.3265 16.5977C34.0514 16.6654 33.7404 16.6992 33.3934 16.6992C32.547 16.6992 31.8297 16.3924 31.2415 15.7788C30.6533 15.161 30.3592 14.2977 30.3592 13.189C30.3592 12.0972 30.6554 11.2106 31.2479 10.5293C31.8403 9.84798 32.6147 9.50732 33.5711 9.50732ZM35.3929 12.5161C35.3463 12.021 35.2384 11.6253 35.0691 11.3291C34.756 10.779 34.2334 10.5039 33.5013 10.5039C32.9765 10.5039 32.5364 10.6943 32.181 11.0752C31.8255 11.4518 31.6372 11.9321 31.616 12.5161H35.3929Z" fill="white"/>
<path d="M38.6581 9.65967H39.7436V10.834C39.8324 10.6055 40.0504 10.3283 40.3974 10.0024C40.7444 9.67236 41.1443 9.50732 41.5971 9.50732C41.6182 9.50732 41.6542 9.50944 41.705 9.51367C41.7558 9.5179 41.8425 9.52637 41.9652 9.53906V10.7451C41.8975 10.7324 41.8341 10.724 41.7748 10.7197C41.7198 10.7155 41.6584 10.7134 41.5907 10.7134C41.0152 10.7134 40.573 10.8996 40.2641 11.272C39.9551 11.6401 39.8007 12.0654 39.8007 12.5479V16.458H38.6581V9.65967Z" fill="white"/>
</g>
</svg>
