<svg width="27" height="19" viewBox="0 0 27 19" fill="none" xmlns="http://www.w3.org/2000/svg">
<g clip-path="url(#clip0_868:75307)">
<path d="M2.7011 10.7955L2.7011 13.4951L5.39944 13.4951L5.39944 10.7955L8.10055 10.7955L10.8017 10.7955L13.5 10.7955L16.2011 10.7955L18.8994 10.7955L21.6006 10.7955L24.3017 10.7955L27 10.7955L27 8.0958L24.3017 8.0958L21.6006 8.0958L18.8994 8.0958L16.2011 8.0958L13.5 8.0958L10.8017 8.0958L8.10055 8.0958L5.39944 8.0958L5.39944 5.39891L2.7011 5.39891L2.7011 8.0958L-1.43507e-06 8.0958L-1.67121e-06 10.7955L2.7011 10.7955Z" fill="#FFFBF0"/>
<path d="M5.39948 5.39844L8.10059 5.39844L8.10059 2.69878L5.39948 2.69878L5.39948 5.39844Z" fill="#FFFBF0"/>
<path d="M5.39948 16.1914L8.10059 16.1914L8.10059 13.4945L5.39948 13.4945L5.39948 16.1914Z" fill="#FFFBF0"/>
<path d="M8.10065 2.69922L10.8018 2.69922L10.8018 -0.000438929L8.10065 -0.000439165L8.10065 2.69922Z" fill="#FFFBF0"/>
<path d="M8.10065 18.8916L10.8018 18.8916L10.8018 16.1919L8.10065 16.1919L8.10065 18.8916Z" fill="#FFFBF0"/>
</g>
<defs>
<clipPath id="clip0_868:75307">
<rect width="27" height="19" fill="white"/>
</clipPath>
</defs>
</svg>
