<svg width="202" height="51" viewBox="0 0 202 51" fill="none" xmlns="http://www.w3.org/2000/svg">
<rect x="1" y="1" width="200" height="49" fill="#C4C4C4" stroke="#333333" stroke-width="2"/>
<rect x="4" y="47" width="196" height="2" fill="#818181"/>
<rect x="2" y="2" width="198" height="2" fill="#E9E9E9"/>
<rect x="2" y="2" width="2" height="47" fill="#E9E9E9"/>
<rect x="198" y="4" width="2" height="45" fill="#818181"/>
<path d="M34.2695 28.158V29.652H30.7235V28.158H34.2695ZM39.4355 29.652H35.8535V28.158H39.4355V29.652ZM35.8535 32.442V30.894H39.4355V32.442H35.8535ZM30.7235 32.442V30.894H34.2695V32.442H30.7235ZM29.0315 34.404H30.7235V33.792H39.4355V34.332H41.1995V26.808H29.0315V34.404ZM35.0075 18.816V20.274H36.9335C36.7355 22.182 36.2495 23.73 34.6655 24.756C34.3235 23.694 33.5135 22.146 32.7395 20.994L31.3715 21.534C31.6955 22.038 32.0375 22.65 32.3075 23.244L29.7335 23.874V20.382C31.2995 20.04 32.9555 19.59 34.2335 19.104L33.1355 17.862C31.9115 18.402 29.8775 18.996 28.0955 19.392V23.136C28.0955 24 27.6815 24.54 27.3935 24.81C27.6455 25.044 28.0955 25.692 28.2575 26.034V26.052C28.6175 25.8 29.2295 25.584 32.9195 24.594C33.0635 24.936 33.1895 25.26 33.2615 25.548L33.9275 25.26C34.2695 25.548 34.6295 26.034 34.7915 26.394C37.4195 25.134 38.1935 23.01 38.4995 20.274H40.8935C40.7675 22.992 40.6055 24.072 40.3715 24.378C40.2275 24.54 40.0655 24.576 39.7955 24.558C39.5255 24.576 38.8415 24.558 38.1215 24.504C38.3555 24.882 38.5355 25.512 38.5715 25.944C39.3635 25.98 40.1555 25.98 40.5695 25.944C41.0915 25.872 41.4155 25.746 41.7395 25.368C42.1715 24.846 42.3515 23.352 42.5315 19.482C42.5315 19.248 42.5495 18.816 42.5495 18.816H35.0075ZM61.8185 20.904V19.194H45.9245V20.904H52.6025V34.386H54.3845V25.332C56.3285 26.412 58.5785 27.816 59.7305 28.788L60.9545 27.258C59.5685 26.178 56.7425 24.576 54.6905 23.586L54.3845 23.946V20.904H61.8185ZM69.4235 18.888H65.0135V20.148H69.4235V18.888ZM75.7055 20.31H78.2075C77.9555 20.76 77.6855 21.228 77.4515 21.552L78.7655 22.02C79.2695 21.354 79.8815 20.31 80.3315 19.356L79.1795 18.978L78.9455 19.05H73.3295C73.4555 18.744 73.5635 18.456 73.6715 18.15L72.1775 17.826C71.7815 19.086 71.0435 20.328 70.1075 21.138C70.4855 21.318 71.0975 21.75 71.3675 21.984C71.8355 21.534 72.2855 20.958 72.6815 20.31H74.1755V20.544C74.1755 21.318 73.7615 22.326 69.8555 22.83V21.642H64.6355V22.956H69.2075C69.5135 23.262 69.8915 23.82 70.0535 24.198C73.1495 23.766 74.5715 22.992 75.2195 22.164C76.3535 23.208 77.9915 23.856 80.0435 24.144C80.2055 23.712 80.6195 23.118 80.9435 22.776C78.5675 22.632 76.6415 22.02 75.6695 21.03C75.7055 20.868 75.7055 20.724 75.7055 20.598V20.31ZM68.5955 29.4H77.0375V30.444H68.5955V29.4ZM68.5955 27.366H77.0375V28.374H68.5955V27.366ZM68.5955 25.332H77.0375V26.358H68.5955V25.332ZM78.7115 31.506V24.27H66.9755V31.506H69.8735C68.6315 32.208 66.5255 32.82 64.6895 33.18C65.0495 33.486 65.6435 34.098 65.9315 34.44C67.7315 33.936 69.9815 33.072 71.4395 32.19L69.9455 31.506H75.3275L74.2835 32.352C76.1375 32.982 78.0275 33.792 79.1255 34.386L80.6375 33.468C79.4135 32.874 77.4155 32.118 75.5615 31.506H78.7115ZM95.4425 21.228C94.8485 20.562 93.6065 19.662 92.5985 19.05L91.7525 20.184C92.7785 20.832 94.0025 21.804 94.5605 22.506L95.4425 21.228ZM94.6685 25.512C94.0385 24.882 92.7065 24.036 91.6625 23.478L90.8705 24.684C91.9325 25.26 93.2105 26.196 93.8405 26.862L94.6685 25.512ZM89.2865 18.978C89.0525 20.184 88.5845 21.966 88.1885 23.046L89.2685 23.37C89.7185 22.344 90.2765 20.67 90.7265 19.302L89.2865 18.978ZM85.6865 23.064C85.5785 21.966 85.2005 20.31 84.6965 19.032L83.4905 19.338C83.9405 20.616 84.3185 22.308 84.3905 23.388L85.6865 23.064ZM84.9305 26.304C84.6425 27.798 83.9225 29.634 83.1665 30.624C83.4545 31.164 83.8325 32.01 83.9585 32.568C85.0025 31.272 85.7585 28.752 86.1185 26.736L84.9305 26.304ZM87.7925 26.88V25.44H90.6005V23.874H87.7925V17.916H86.2265V23.874H83.4365V25.44H86.2265V34.422H87.7925V27.384C88.2605 28.374 89.0165 30.138 89.3045 31.056L90.4745 29.778C90.2045 29.22 88.9085 26.862 88.5305 26.34L87.7925 26.88ZM99.9425 29.058L99.7085 27.528L97.7105 27.87V17.916H96.1445V28.158L90.5465 29.166L90.8165 30.714L96.1445 29.742V34.422H97.7105V29.454L99.9425 29.058ZM116.529 21.21C115.719 20.31 114.081 19.05 112.821 18.204L111.579 18.816C112.065 19.14 112.569 19.536 113.073 19.914L107.547 20.094C108.411 19.626 109.257 19.086 110.031 18.528L108.555 17.79C107.475 18.726 105.963 19.572 105.477 19.788C105.063 20.022 104.667 20.166 104.343 20.22C104.505 20.598 104.739 21.336 104.811 21.624C105.477 21.408 106.377 21.426 114.405 21.084C114.729 21.39 114.981 21.66 115.197 21.912L116.529 21.21ZM114.801 29.472C112.821 31.524 108.807 32.604 104.469 33.09C104.793 33.45 105.117 34.044 105.243 34.44C109.797 33.81 113.901 32.532 116.169 30.138L114.801 29.472ZM112.767 27.69C111.147 28.986 108.051 29.994 105.315 30.516C105.639 30.84 105.999 31.362 106.179 31.704C109.041 31.056 112.155 29.904 114.045 28.32L112.767 27.69ZM110.841 25.998C109.599 26.934 107.223 27.816 105.387 28.266C105.729 28.554 106.089 28.986 106.305 29.292C108.249 28.734 110.553 27.744 112.047 26.61L110.841 25.998ZM118.383 25.044C118.041 24.252 117.231 23.136 116.475 22.326L115.287 22.83C115.503 23.082 115.737 23.352 115.935 23.64L113.919 23.748C114.297 23.28 114.675 22.758 114.963 22.254L113.469 21.642C113.181 22.47 112.587 23.28 112.407 23.478C112.245 23.712 112.029 23.856 111.831 23.91L111.885 24.018C111.615 23.784 111.381 23.55 111.165 23.316C111.273 23.136 111.381 22.956 111.471 22.776L109.941 22.326C109.581 22.992 109.095 23.604 108.555 24.18C108.303 23.658 107.943 23.1 107.637 22.632L106.449 23.01C106.611 23.244 106.773 23.496 106.917 23.766L105.207 23.838C105.675 23.352 106.143 22.758 106.539 22.2L105.045 21.57C104.595 22.452 103.875 23.316 103.641 23.532C103.443 23.766 103.191 23.928 102.975 23.964C103.155 24.342 103.407 25.026 103.497 25.332C103.821 25.206 104.361 25.134 107.475 24.954L107.529 25.08C106.053 26.232 104.181 27.078 102.147 27.636C102.453 27.96 102.903 28.626 103.083 28.95C105.927 28.014 108.501 26.556 110.301 24.45C112.209 26.412 115.071 28.014 117.879 28.824C118.131 28.428 118.581 27.816 118.941 27.51C116.943 27.006 114.909 26.142 113.253 25.08C113.883 25.008 114.909 24.936 116.727 24.792C116.889 25.098 117.033 25.35 117.123 25.602L118.383 25.044ZM125.287 21.192C125.305 20.202 125.305 19.176 125.305 18.15H123.649C123.649 19.194 123.649 20.202 123.631 21.192H121.309V22.83H123.595C123.469 27.186 122.965 30.894 120.841 33.234C121.237 33.486 121.813 34.044 122.083 34.422C124.459 31.794 125.071 27.636 125.233 22.83H127.573C127.429 29.31 127.285 31.668 126.907 32.154C126.745 32.424 126.583 32.46 126.295 32.46C125.989 32.46 125.269 32.442 124.477 32.406C124.765 32.856 124.945 33.576 124.963 34.08C125.791 34.116 126.583 34.116 127.087 34.044C127.663 33.954 128.005 33.774 128.365 33.252C128.923 32.442 129.049 29.778 129.193 22.002C129.211 21.786 129.211 21.192 129.211 21.192H125.287ZM132.073 31.218V21.66H135.025V31.218H132.073ZM130.471 20.04V34.116H132.073V32.82H135.025V33.972H136.717V20.04H130.471ZM145.761 25.602L143.889 26.124V22.956H145.761V21.408H143.889V17.916H142.287V21.408H139.947V22.956H142.287V26.556C141.315 26.808 140.415 27.042 139.695 27.222L140.109 28.842C140.793 28.644 141.513 28.428 142.287 28.212V32.568C142.287 32.838 142.179 32.91 141.945 32.91C141.729 32.928 140.973 32.928 140.217 32.892C140.433 33.324 140.649 34.008 140.703 34.404C141.909 34.422 142.683 34.368 143.205 34.116C143.709 33.864 143.889 33.432 143.889 32.586V27.726C144.573 27.528 145.257 27.33 145.959 27.114L145.761 25.602ZM151.881 31.506V28.212H154.383V31.506H151.881ZM147.885 28.212H150.297V31.506H147.885V28.212ZM150.297 23.55V26.664H147.885V23.55H150.297ZM154.383 23.55V26.664H151.881V23.55H154.383ZM151.881 21.948V17.934H150.297V21.948H146.301V34.386H147.885V33.108H154.383V34.26H156.057V21.948H151.881ZM161.556 24.612H162.798V28.086H164.31V17.952H162.798V20.778H161.088V18.348H159.684V22.092H162.798V23.298H158.892V24.612H160.062V24.666C160.062 25.368 159.882 26.7 158.784 27.546C159.162 27.726 159.774 28.068 160.08 28.302C161.286 27.276 161.556 25.602 161.556 24.72V24.612ZM172.41 19.788C171.96 20.274 171.384 20.706 170.718 21.084C170.322 20.634 169.836 20.184 169.332 19.788H172.41ZM175.218 30.66V29.274H172.014L172.41 28.86C172.086 28.518 171.474 28.05 170.916 27.654C171.42 27.636 171.816 27.6 172.14 27.474C172.644 27.276 172.788 26.952 172.788 26.232V24.738H174.948V23.604H172.788V22.344H171.204V23.604H166.038C169.62 23.046 172.914 21.876 174.426 19.212L173.544 18.744L173.274 18.798H170.34C170.646 18.582 170.898 18.366 171.168 18.15L169.764 17.826C168.81 18.6 167.154 19.32 164.994 19.824C165.282 20.04 165.678 20.472 165.858 20.778C166.65 20.544 167.388 20.292 168.072 20.022C168.648 20.472 169.242 21.066 169.674 21.552C168.252 22.128 166.578 22.488 164.886 22.668C165.102 22.902 165.372 23.298 165.498 23.604H164.94V24.738H166.902L166.182 25.296C166.866 25.746 167.676 26.448 168.054 26.97L169.134 26.088C168.81 25.674 168.18 25.134 167.55 24.738H171.204V26.178C171.204 26.376 171.132 26.412 170.934 26.43C170.736 26.448 170.034 26.448 169.314 26.412C169.512 26.79 169.71 27.276 169.764 27.672H170.412L169.836 28.23C170.25 28.518 170.772 28.914 171.15 29.274H167.712C167.748 29.076 167.748 28.896 167.748 28.716V27.546H166.092V28.68C166.092 28.86 166.074 29.058 166.038 29.274H158.82V30.66H165.264C164.328 31.614 162.438 32.55 158.676 33.126C159.018 33.504 159.432 34.116 159.63 34.494C164.58 33.684 166.56 32.154 167.334 30.66H168.036L167.478 31.506C169.764 32.352 172.932 33.648 174.498 34.422L175.29 33.09C173.814 32.424 171.15 31.416 169.026 30.66H175.218ZM168.36 20.868C167.226 20.94 166.272 21.012 165.444 21.048L165.588 21.984C166.47 21.894 167.388 21.822 168.378 21.714L168.36 20.868Z" fill="#333333"/>
</svg>
