<svg width="120" height="51" viewBox="0 0 120 51" fill="none" xmlns="http://www.w3.org/2000/svg">
<rect x="1" y="1" width="118" height="49" fill="#C4C4C4" stroke="#333333" stroke-width="2"/>
<path d="M32.818 27.906H28.984V24.234H32.818V27.906ZM27.4 22.758V29.364H34.492V22.758H27.4ZM25.222 31.884V20.292H36.724V31.884H25.222ZM23.494 18.582V34.422H25.222V33.45H36.724V34.422H38.524V18.582H23.494ZM50.179 31.866V25.17H56.677V23.496H50.179V18.15H48.379V31.866H41.809V33.558H57.919V31.866H50.179ZM60.556 25.062V26.898H76.936V25.062H60.556ZM95.431 24.792V23.208H88.753V21.192H93.955V19.608H88.753V17.916H86.971V23.208H83.929V19.194H82.237V23.208H79.663V24.792H86.791V30.264H88.123C85.873 31.56 82.993 32.334 79.537 32.784C79.879 33.216 80.221 33.882 80.383 34.368C87.187 33.36 91.759 31.11 94.261 26.358L92.623 25.584C91.687 27.456 90.337 28.896 88.573 29.994V24.792H95.431ZM83.659 25.44C82.831 26.844 81.427 28.23 80.059 29.112C80.437 29.4 81.049 30.048 81.319 30.372C82.705 29.31 84.289 27.636 85.279 26.016L83.659 25.44Z" fill="#333333"/>
<rect x="4" y="47" width="114" height="2" fill="#818181"/>
<rect x="2" y="2" width="2" height="47" fill="#E9E9E9"/>
<rect x="116" y="2" width="2" height="47" fill="#818181"/>
<rect x="4" y="2" width="114" height="2" fill="#E9E9E9"/>
</svg>
