<svg width="54" height="24" viewBox="0 0 54 24" fill="none" xmlns="http://www.w3.org/2000/svg">
<g opacity="0.9">
<path opacity="0.4" d="M0 0H54V24H0V0Z" fill="black"/>
<path d="M8 7.10156H9.11084V10.4849C9.36051 10.159 9.65885 9.91146 10.0059 9.74219C10.3529 9.56868 10.7295 9.48193 11.1357 9.48193C11.9821 9.48193 12.6676 9.77393 13.1924 10.3579C13.7214 10.9377 13.9858 11.7946 13.9858 12.9287C13.9858 14.0036 13.7256 14.8965 13.2051 15.6074C12.6846 16.3184 11.9631 16.6738 11.0405 16.6738C10.5243 16.6738 10.0884 16.549 9.73291 16.2993C9.52132 16.1512 9.29492 15.9142 9.05371 15.5884V16.458H8V7.10156ZM10.9707 15.6646C11.5885 15.6646 12.0498 15.4191 12.3545 14.9282C12.6634 14.4373 12.8179 13.7899 12.8179 12.9858C12.8179 12.2707 12.6634 11.6782 12.3545 11.2085C12.0498 10.7388 11.5991 10.5039 11.0024 10.5039C10.4819 10.5039 10.0249 10.6965 9.63135 11.0815C9.24202 11.4666 9.04736 12.1014 9.04736 12.9858C9.04736 13.6248 9.12777 14.1432 9.28857 14.541C9.58903 15.29 10.1497 15.6646 10.9707 15.6646Z" fill="white"/>
<path d="M18.8062 9.50732C19.2887 9.50732 19.7563 9.62158 20.2091 9.8501C20.6619 10.0744 21.0068 10.3664 21.2437 10.7261C21.4723 11.0688 21.6246 11.4688 21.7008 11.9258C21.7685 12.2389 21.8023 12.7383 21.8023 13.4238H16.8194C16.8406 14.1136 17.0035 14.668 17.3082 15.0869C17.6129 15.5016 18.0847 15.709 18.7237 15.709C19.3204 15.709 19.7965 15.5122 20.152 15.1187C20.3551 14.8901 20.499 14.6257 20.5836 14.3252H21.7071C21.6775 14.5749 21.5781 14.8542 21.4088 15.1631C21.2437 15.4678 21.0576 15.7174 20.8502 15.9121C20.5032 16.2507 20.0737 16.4792 19.5616 16.5977C19.2866 16.6654 18.9755 16.6992 18.6285 16.6992C17.7822 16.6992 17.0649 16.3924 16.4767 15.7788C15.8884 15.161 15.5943 14.2977 15.5943 13.189C15.5943 12.0972 15.8906 11.2106 16.483 10.5293C17.0755 9.84798 17.8499 9.50732 18.8062 9.50732ZM20.628 12.5161C20.5815 12.021 20.4736 11.6253 20.3043 11.3291C19.9911 10.779 19.4685 10.5039 18.7364 10.5039C18.2117 10.5039 17.7716 10.6943 17.4161 11.0752C17.0606 11.4518 16.8723 11.9321 16.8512 12.5161H20.628Z" fill="white"/>
<path d="M24.1472 8.625C24.1641 8.15104 24.2466 7.80404 24.3947 7.58398C24.6613 7.19466 25.1755 7 25.9372 7C26.0091 7 26.0832 7.00212 26.1594 7.00635C26.2355 7.01058 26.3223 7.01693 26.4196 7.02539V8.06641C26.3011 8.05794 26.2144 8.05371 26.1594 8.05371C26.1086 8.04948 26.0599 8.04736 26.0134 8.04736C25.6664 8.04736 25.459 8.13835 25.3913 8.32031C25.3236 8.49805 25.2897 8.95508 25.2897 9.69141H26.4196V10.5928H25.2771V16.458H24.1472V10.5928H23.2014V9.69141H24.1472V8.625Z" fill="white"/>
<path d="M30.8274 15.7217C31.5849 15.7217 32.1033 15.436 32.3826 14.8647C32.6661 14.2892 32.8079 13.6502 32.8079 12.9478C32.8079 12.313 32.7063 11.7967 32.5032 11.3989C32.1816 10.7726 31.6272 10.4595 30.8401 10.4595C30.1419 10.4595 29.6341 10.7261 29.3167 11.2593C28.9993 11.7925 28.8406 12.4357 28.8406 13.189C28.8406 13.9126 28.9993 14.5156 29.3167 14.998C29.6341 15.4805 30.1377 15.7217 30.8274 15.7217ZM30.8719 9.46289C31.7479 9.46289 32.4884 9.75488 33.0936 10.3389C33.6987 10.9229 34.0013 11.7819 34.0013 12.916C34.0013 14.012 33.7347 14.9176 33.2015 15.6328C32.6683 16.348 31.841 16.7056 30.7195 16.7056C29.7843 16.7056 29.0416 16.3903 28.4915 15.7598C27.9414 15.125 27.6663 14.2744 27.6663 13.208C27.6663 12.0654 27.9562 11.1556 28.5359 10.4785C29.1157 9.80143 29.8943 9.46289 30.8719 9.46289Z" fill="white"/>
<path d="M36.0478 9.65967H37.1332V10.834C37.2221 10.6055 37.44 10.3283 37.787 10.0024C38.134 9.67236 38.5339 9.50732 38.9867 9.50732C39.0079 9.50732 39.0438 9.50944 39.0946 9.51367C39.1454 9.5179 39.2322 9.52637 39.3549 9.53906V10.7451C39.2872 10.7324 39.2237 10.724 39.1645 10.7197C39.1094 10.7155 39.0481 10.7134 38.9804 10.7134C38.4049 10.7134 37.9626 10.8996 37.6537 11.272C37.3448 11.6401 37.1903 12.0654 37.1903 12.5479V16.458H36.0478V9.65967Z" fill="white"/>
<path d="M43.8262 9.50732C44.3086 9.50732 44.7762 9.62158 45.229 9.8501C45.6818 10.0744 46.0267 10.3664 46.2637 10.7261C46.4922 11.0688 46.6445 11.4688 46.7207 11.9258C46.7884 12.2389 46.8223 12.7383 46.8223 13.4238H41.8394C41.8605 14.1136 42.0234 14.668 42.3281 15.0869C42.6328 15.5016 43.1047 15.709 43.7437 15.709C44.3403 15.709 44.8164 15.5122 45.1719 15.1187C45.375 14.8901 45.5189 14.6257 45.6035 14.3252H46.7271C46.6974 14.5749 46.598 14.8542 46.4287 15.1631C46.2637 15.4678 46.0775 15.7174 45.8701 15.9121C45.5231 16.2507 45.0936 16.4792 44.5815 16.5977C44.3065 16.6654 43.9954 16.6992 43.6484 16.6992C42.8021 16.6992 42.0848 16.3924 41.4966 15.7788C40.9084 15.161 40.6143 14.2977 40.6143 13.189C40.6143 12.0972 40.9105 11.2106 41.5029 10.5293C42.0954 9.84798 42.8698 9.50732 43.8262 9.50732ZM45.6479 12.5161C45.6014 12.021 45.4935 11.6253 45.3242 11.3291C45.0111 10.779 44.4884 10.5039 43.7563 10.5039C43.2316 10.5039 42.7915 10.6943 42.436 11.0752C42.0806 11.4518 41.8923 11.9321 41.8711 12.5161H45.6479Z" fill="white"/>
</g>
</svg>
