<svg width="29" height="19" viewBox="0 0 29 19" fill="none" xmlns="http://www.w3.org/2000/svg">
<g clip-path="url(#clip0)">
<path d="M28.5004 17.1016H26.6016V19.0004H28.5004V17.1016Z" fill="#A1A1A1"/>
<path d="M28.5004 15.2002H26.6016V17.101H28.5004V15.2002Z" fill="#A1A1A1"/>
<path d="M28.5004 13.2998H26.6016V15.2006H28.5004V13.2998Z" fill="#A1A1A1"/>
<path d="M28.5004 11.4004H26.6016V13.2992H28.5004V11.4004Z" fill="#A1A1A1"/>
<path d="M28.5004 9.5H26.6016V11.4008H28.5004V9.5Z" fill="#A1A1A1"/>
<path d="M28.5004 7.60059H26.6016V9.49942H28.5004V7.60059Z" fill="#A1A1A1"/>
<path d="M28.5004 5.70117H26.6016V7.60195H28.5004V5.70117Z" fill="#A1A1A1"/>
<path d="M28.5004 3.7998H26.6016V5.70058H28.5004V3.7998Z" fill="#A1A1A1"/>
<path d="M28.5004 1.90137H26.6016V3.8002H28.5004V1.90137Z" fill="#A1A1A1"/>
<path d="M28.5004 0H26.6016V1.90078H28.5004V0Z" fill="#A1A1A1"/>
<path d="M26.6019 17.1016H24.7012V19.0004H26.6019V17.1016Z" fill="#A1A1A1"/>
<path d="M26.6019 0H24.7012V1.90078H26.6019V0Z" fill="#A1A1A1"/>
<path d="M24.6996 17.1016H22.7988V19.0004H24.6996V17.1016Z" fill="#A1A1A1"/>
<path d="M24.6996 13.2998H22.7988V15.2006H24.6996V13.2998Z" fill="#A1A1A1"/>
<path d="M24.6996 9.5H22.7988V11.4008H24.6996V9.5Z" fill="#A1A1A1"/>
<path d="M24.6996 5.70117H22.7988V7.60195H24.6996V5.70117Z" fill="#A1A1A1"/>
<path d="M24.6996 0H22.7988V1.90078H24.6996V0Z" fill="#A1A1A1"/>
<path d="M22.7992 17.1016H20.9004V19.0004H22.7992V17.1016Z" fill="#A1A1A1"/>
<path d="M22.7992 13.2998H20.9004V15.2006H22.7992V13.2998Z" fill="#A1A1A1"/>
<path d="M22.7992 9.5H20.9004V11.4008H22.7992V9.5Z" fill="#A1A1A1"/>
<path d="M22.7992 5.70117H20.9004V7.60195H22.7992V5.70117Z" fill="#A1A1A1"/>
<path d="M22.7992 0H20.9004V1.90078H22.7992V0Z" fill="#A1A1A1"/>
<path d="M20.9008 17.1016H19V19.0004H20.9008V17.1016Z" fill="#A1A1A1"/>
<path d="M20.9008 13.2998H19V15.2006H20.9008V13.2998Z" fill="#A1A1A1"/>
<path d="M20.9008 9.5H19V11.4008H20.9008V9.5Z" fill="#A1A1A1"/>
<path d="M20.9008 5.70117H19V7.60195H20.9008V5.70117Z" fill="#A1A1A1"/>
<path d="M20.9008 1.90137H19V3.8002H20.9008V1.90137Z" fill="#A1A1A1"/>
<path d="M20.9008 0H19V1.90078H20.9008V0Z" fill="#A1A1A1"/>
<path d="M19.0004 17.1016H17.1016V19.0004H19.0004V17.1016Z" fill="#A1A1A1"/>
<path d="M19.0004 13.2998H17.1016V15.2006H19.0004V13.2998Z" fill="#A1A1A1"/>
<path d="M19.0004 1.90137H17.1016V3.8002H19.0004V1.90137Z" fill="#A1A1A1"/>
<path d="M17.1019 17.1016H15.2012V19.0004H17.1019V17.1016Z" fill="#A1A1A1"/>
<path d="M17.1019 3.7998H15.2012V5.70058H17.1019V3.7998Z" fill="#A1A1A1"/>
<path d="M15.1996 17.1016H13.2988V19.0004H15.1996V17.1016Z" fill="#A1A1A1"/>
<path d="M15.1996 15.2002H13.2988V17.101H15.1996V15.2002Z" fill="#A1A1A1"/>
<path d="M15.1996 13.2998H13.2988V15.2006H15.1996V13.2998Z" fill="#A1A1A1"/>
<path d="M15.1996 11.4004H13.2988V13.2992H15.1996V11.4004Z" fill="#A1A1A1"/>
<path d="M15.1996 9.5H13.2988V11.4008H15.1996V9.5Z" fill="#A1A1A1"/>
<path d="M15.1996 7.60059H13.2988V9.49942H15.1996V7.60059Z" fill="#A1A1A1"/>
<path d="M15.1996 5.70117H13.2988V7.60195H15.1996V5.70117Z" fill="#A1A1A1"/>
<path d="M15.1996 3.7998H13.2988V5.70058H15.1996V3.7998Z" fill="#A1A1A1"/>
<path d="M13.2992 17.1016H11.4004V19.0004H13.2992V17.1016Z" fill="#A1A1A1"/>
<path d="M13.2992 3.7998H11.4004V5.70058H13.2992V3.7998Z" fill="#A1A1A1"/>
<path d="M11.4008 17.1016H9.5V19.0004H11.4008V17.1016Z" fill="#A1A1A1"/>
<path d="M11.4008 13.2998H9.5V15.2006H11.4008V13.2998Z" fill="#A1A1A1"/>
<path d="M11.4008 1.90137H9.5V3.8002H11.4008V1.90137Z" fill="#A1A1A1"/>
<path d="M9.50039 17.1016H7.60156V19.0004H9.50039V17.1016Z" fill="#A1A1A1"/>
<path d="M9.50039 13.2998H7.60156V15.2006H9.50039V13.2998Z" fill="#A1A1A1"/>
<path d="M9.50039 9.5H7.60156V11.4008H9.50039V9.5Z" fill="#A1A1A1"/>
<path d="M9.50039 5.70117H7.60156V7.60195H9.50039V5.70117Z" fill="#A1A1A1"/>
<path d="M9.50039 1.90137H7.60156V3.8002H9.50039V1.90137Z" fill="#A1A1A1"/>
<path d="M9.50039 0H7.60156V1.90078H9.50039V0Z" fill="#A1A1A1"/>
<path d="M7.60195 17.1016H5.70117V19.0004H7.60195V17.1016Z" fill="#A1A1A1"/>
<path d="M7.60195 13.2998H5.70117V15.2006H7.60195V13.2998Z" fill="#A1A1A1"/>
<path d="M7.60195 9.5H5.70117V11.4008H7.60195V9.5Z" fill="#A1A1A1"/>
<path d="M7.60195 5.70117H5.70117V7.60195H7.60195V5.70117Z" fill="#A1A1A1"/>
<path d="M7.60195 0H5.70117V1.90078H7.60195V0Z" fill="#A1A1A1"/>
<path d="M5.69961 17.1016H3.79883V19.0004H5.69961V17.1016Z" fill="#A1A1A1"/>
<path d="M5.69961 13.2998H3.79883V15.2006H5.69961V13.2998Z" fill="#A1A1A1"/>
<path d="M5.69961 9.5H3.79883V11.4008H5.69961V9.5Z" fill="#A1A1A1"/>
<path d="M5.69961 5.70117H3.79883V7.60195H5.69961V5.70117Z" fill="#A1A1A1"/>
<path d="M5.69961 0H3.79883V1.90078H5.69961V0Z" fill="#A1A1A1"/>
<path d="M3.79922 17.1016H1.90039V19.0004H3.79922V17.1016Z" fill="#A1A1A1"/>
<path d="M3.79922 0H1.90039V1.90078H3.79922V0Z" fill="#A1A1A1"/>
<path d="M1.90078 17.1016H0V19.0004H1.90078V17.1016Z" fill="#A1A1A1"/>
<path d="M1.90078 15.2002H0V17.101H1.90078V15.2002Z" fill="#A1A1A1"/>
<path d="M1.90078 13.2998H0V15.2006H1.90078V13.2998Z" fill="#A1A1A1"/>
<path d="M1.90078 11.4004H0V13.2992H1.90078V11.4004Z" fill="#A1A1A1"/>
<path d="M1.90078 9.5H0V11.4008H1.90078V9.5Z" fill="#A1A1A1"/>
<path d="M1.90078 7.60059H0V9.49942H1.90078V7.60059Z" fill="#A1A1A1"/>
<path d="M1.90078 5.70117H0V7.60195H1.90078V5.70117Z" fill="#A1A1A1"/>
<path d="M1.90078 3.7998H0V5.70058H1.90078V3.7998Z" fill="#A1A1A1"/>
<path d="M1.90078 1.90137H0V3.8002H1.90078V1.90137Z" fill="#A1A1A1"/>
<path d="M1.90078 0H0V1.90078H1.90078V0Z" fill="#A1A1A1"/>
<g clip-path="url(#clip1)">
<path d="M25.8232 8.1909V7.3428H24.9659V6.49469H24.1095V5.64746H23.2523H22.3959H21.5386H20.6814V6.49469H19.825V7.3428H18.9677V8.1909H18.1113V9.03813V9.88623V10.7335H18.9677H19.825V9.88623H20.6814V9.03813V8.1909H21.5386H22.3959H23.2523H24.1095V9.03813V9.88623V10.7335V11.5816H23.2523V12.4297H22.3959V13.2769H21.5386V14.125V14.9722V15.8203V16.6684H22.3959H23.2523H24.1095V15.8203V14.9722V14.125V13.2769H24.9659V12.4297H25.8232V11.5816H26.6804V10.7335V9.88623V9.03813V8.1909H25.8232Z" fill="#FFD551"/>
<path d="M22.3963 17.5156H21.5391V18.3637V19.211V20.0591H22.3963H23.2527H24.11V19.211V18.3637V17.5156H23.2527H22.3963Z" fill="#FFD551"/>
</g>
</g>
<defs>
<clipPath id="clip0">
<rect width="28.5" height="19" fill="white"/>
</clipPath>
<clipPath id="clip1">
<rect width="8.56908" height="14.4116" fill="white" transform="translate(18.1113 5.64746)"/>
</clipPath>
</defs>
</svg>
