<svg width="96" height="142" viewBox="0 0 96 142" fill="none" xmlns="http://www.w3.org/2000/svg">
<path d="M84.0009 44.1172H80.4531V47.7069H84.0009V44.1172Z" fill="#FFF9E6"/>
<path d="M84.0009 40.5312H80.4531V44.1173H84.0009V40.5312Z" fill="#FFF9E6"/>
<path d="M80.4518 47.707H76.9004V51.2931H80.4518V47.707Z" fill="#FFF9E6"/>
<path d="M80.4518 44.1172H76.9004V47.7069H80.4518V44.1172Z" fill="#FFF9E6"/>
<path d="M80.4518 29.7656H76.9004V33.3517H80.4518V29.7656Z" fill="#5D7A3F"/>
<path d="M80.4518 26.1758H76.9004V29.7655H80.4518V26.1758Z" fill="#5D7A3F"/>
<path d="M76.9011 62.0586H73.3496V65.6483H76.9011V62.0586Z" fill="#A3A550"/>
<path d="M76.9011 47.707H73.3496V51.2931H76.9011V47.707Z" fill="#FFF9E6"/>
<path d="M73.3486 69.2344H69.8008V72.8241H73.3486V69.2344Z" fill="#A3A550"/>
<path d="M73.3486 51.293H69.8008V54.8827H73.3486V51.293Z" fill="#FFF9E6"/>
<path d="M73.3486 29.7656H69.8008V33.3517H73.3486V29.7656Z" fill="#5D7A3F"/>
<path d="M73.3486 22.5898H69.8008V26.1759H73.3486V22.5898Z" fill="#5D7A3F"/>
<path d="M69.8015 40.5312H66.25V44.1173H69.8015V40.5312Z" fill="#C4C985"/>
<path d="M66.2509 51.293H62.7031V54.8827H66.2509V51.293Z" fill="#C4C985"/>
<path d="M62.7018 72.8242H59.1504V76.414H62.7018V72.8242Z" fill="#A3A550"/>
<path d="M62.7018 58.4727H59.1504V62.0587H62.7018V58.4727Z" fill="#FFF9E6"/>
<path d="M62.7018 29.7656H59.1504V33.3517H62.7018V29.7656Z" fill="#5D7A3F"/>
<path d="M59.1511 62.0586H55.5996V65.6483H59.1511V62.0586Z" fill="#FFF9E6"/>
<path d="M59.1511 58.4727H55.5996V62.0587H59.1511V58.4727Z" fill="#FFF9E6"/>
<path d="M59.1511 47.707H55.5996V51.2931H59.1511V47.707Z" fill="#C4C985"/>
<path d="M59.1511 40.5312H55.5996V44.1173H59.1511V40.5312Z" fill="#C4C985"/>
<path d="M55.5986 62.0586H52.0508V65.6483H55.5986V62.0586Z" fill="#FFF9E6"/>
<path d="M55.5986 54.8828H52.0508V58.4726H55.5986V54.8828Z" fill="#C4C985"/>
<path d="M52.0515 65.6484H48.5V69.2345H52.0515V65.6484Z" fill="#FFF9E6"/>
<path d="M48.499 72.8242H44.9512V76.414H48.499V72.8242Z" fill="#A3A550"/>
<path d="M48.499 65.6484H44.9512V69.2345H48.499V65.6484Z" fill="#FFF9E6"/>
<path d="M48.499 44.1172H44.9512V47.7069H48.499V44.1172Z" fill="#C4C985"/>
<path d="M44.9518 69.2344H41.4004V72.8241H44.9518V69.2344Z" fill="#FFF9E6"/>
<path d="M44.9518 65.6484H41.4004V69.2345H44.9518V65.6484Z" fill="#FFF9E6"/>
<path d="M44.9518 54.8828H41.4004V58.4726H44.9518V54.8828Z" fill="#C4C985"/>
<path d="M41.4011 69.2344H37.8496V72.8241H41.4011V69.2344Z" fill="#FFF9E6"/>
<path d="M41.4011 65.6484H37.8496V69.2345H41.4011V65.6484Z" fill="#FFF9E6"/>
<path d="M41.4011 62.0586H37.8496V65.6483H41.4011V62.0586Z" fill="#FFF9E6"/>
<path d="M37.8506 72.8242H34.3027V76.414H37.8506V72.8242Z" fill="#FFF9E6"/>
<path d="M37.8506 69.2344H34.3027V72.8241H37.8506V69.2344Z" fill="#FFF9E6"/>
<path d="M37.8506 62.0586H34.3027V65.6483H37.8506V62.0586Z" fill="#FFF9E6"/>
<path d="M37.8506 58.4727H34.3027V62.0587H37.8506V58.4727Z" fill="#FFF9E6"/>
<path d="M37.8506 44.1172H34.3027V47.7069H37.8506V44.1172Z" fill="#C4C985"/>
<path d="M80.4522 47.707V51.2931H73.3493V54.8829H66.25V58.4726H62.7022V62.0587H59.1507V65.6484H52.0515V69.2345H44.9522V72.8242H48.5V76.414H44.9522V72.8242H37.8493V76.414H30.75V80.0001H76.9007V76.414H80.4522V69.2345H84V47.707H80.4522ZM76.9007 65.6484H73.3493V62.0587H76.9007V65.6484ZM73.3493 72.8242H69.8015V69.2345H73.3493V72.8242ZM59.158 76.414V72.8242H62.7095V76.414H59.158Z" fill="#B9BF6A"/>
<path d="M34.3015 58.4727H30.75V62.0587H34.3015V58.4727Z" fill="#FFF9E6"/>
<path d="M34.3015 54.8828H30.75V58.4726H34.3015V54.8828Z" fill="#FFF9E6"/>
<path d="M34.3015 51.293H30.75V54.8827H34.3015V51.293Z" fill="#FFF9E6"/>
<path d="M34.3015 29.7656H30.75V33.3517H34.3015V29.7656Z" fill="#5D7A3F"/>
<path d="M30.7507 76.4141H27.1992V80.0001H30.7507V76.4141Z" fill="#FFF9E6"/>
<path d="M30.7507 51.293H27.1992V54.8827H30.7507V51.293Z" fill="#FFF9E6"/>
<path d="M30.7507 47.707H27.1992V51.2931H30.7507V47.707Z" fill="#FFF9E6"/>
<path d="M73.3496 29.7656V33.3517V36.9414H76.9011V33.3517V29.7656H73.3496Z" fill="#6D6D30"/>
<path d="M55.5996 33.3517V36.9414H59.1511V33.3517V29.7656H55.5996V33.3517Z" fill="#6D6D30"/>
<path d="M27.1992 36.9413V40.5311H30.7507V36.9413V33.3516H27.1992V36.9413Z" fill="#6D6D30"/>
<path d="M30.7507 29.7656H27.1992V33.3517H30.7507V29.7656Z" fill="#5D7A3F"/>
<path d="M27.1982 69.2344H23.6504V72.8241H27.1982V69.2344Z" fill="#BBBC7D"/>
<path d="M27.1982 65.6484H23.6504V69.2345H27.1982V65.6484Z" fill="#BBBC7D"/>
<path d="M27.1982 47.707H23.6504V51.2931H27.1982V47.707Z" fill="#FFF9E6"/>
<path d="M27.1982 44.1172H23.6504V47.7069H27.1982V44.1172Z" fill="#FFF9E6"/>
<path d="M76.9017 22.5897V19H73.3502H69.8024V22.5897H73.3502V26.1758H69.8024V22.5897H66.2509V26.1758V29.7656H62.7031V33.3516H66.2509H69.8024V29.7656H73.3502H76.9017V26.1758H80.4531V22.5897H76.9017Z" fill="#779659"/>
<path d="M62.7022 22.5897H59.1507V19H55.5993V22.5897H52.0515V26.1758H48.5V29.7656H52.0515V33.3516H55.5993V29.7656H59.1507H62.7022V26.1758V22.5897Z" fill="#779659"/>
<path d="M37.8506 29.7656H34.3027V33.3517H37.8506V29.7656Z" fill="#779659"/>
<path d="M34.3011 22.5897H30.7497V19H27.1982V22.5897V26.1758H23.6504V29.7656V33.3516H27.1982V29.7656H30.7497H34.3011V26.1758V22.5897Z" fill="#779659"/>
<path d="M23.6511 76.4141H20.0996V80.0001H23.6511V76.4141Z" fill="#BBBC7D"/>
<path d="M23.6511 69.2344H20.0996V72.8241H23.6511V69.2344Z" fill="#BBBC7D"/>
<path d="M23.6511 58.4727H20.0996V62.0587H23.6511V58.4727Z" fill="#BBBC7D"/>
<path d="M23.6511 44.1172H20.0996V47.7069H23.6511V44.1172Z" fill="#FFF9E6"/>
<path d="M80.4525 36.9414H30.7503V40.5312H27.1916V36.9414H20.0996V44.1172H27.1916V47.707H30.7431V51.2931H34.2945V58.4725H37.8423V62.0586H41.3938V65.6484H52.0445V62.0586H55.5923V58.4725H52.0445V54.8828H55.5923V58.4725H66.2431V54.8828H62.6952V51.2931H66.2431V54.8828H69.7945V51.2931H73.3423V47.707H76.8938V44.1172H80.4453V40.5312H83.9931V36.9414H80.4525ZM69.8018 40.5312V44.1172H66.2503V40.5312H69.8018ZM59.1511 40.5312V44.1172H55.5996V40.5312H59.1511ZM44.9598 47.707V44.1172H48.5076V47.707H44.9598ZM34.3018 44.1172H37.8496V47.707H34.3018V44.1172ZM41.4011 54.8828H44.9525V58.4725H41.4011V54.8828ZM55.5923 51.2931V47.707H59.1438V51.2931H55.5923Z" fill="#D9E0A2"/>
<path d="M20.0986 72.8242H16.5508V76.414H20.0986V72.8242Z" fill="#BBBC7D"/>
<path d="M20.0986 65.6484H16.5508V69.2345H20.0986V65.6484Z" fill="#BBBC7D"/>
<path d="M34.3015 65.6484V62.0587H30.75V54.8829H27.1913V51.2931H23.6507V47.707H20.0993V51.2931H16.5515V62.0587H13V80.0001H20.0993V76.414H16.5515V72.8242H20.0993V69.2345H16.5515V65.6484H20.0993V69.2345H23.6507V65.6484H27.1913V72.8242H20.0993V76.414H23.6507V80.0001H27.1913V76.414H34.3015V69.2345H37.8493V65.6484H34.3015ZM20.1102 62.0587V58.4726H23.6616V62.0587H20.1102Z" fill="#C7CC87"/>
<rect x="1" y="92" width="94" height="49" fill="#EAF3BF" stroke="#537E29" stroke-width="2"/>
<rect x="4" y="138" width="90" height="2" fill="#C7CC87"/>
<rect x="2" y="93" width="92" height="2" fill="#FBFDF0"/>
<path d="M65.949 119.75V121V122.25V123.5H64.7169H63.486H62.2538H61.0229H59.7908H58.5586V124.749H59.7908H61.0229H62.2538H63.486H64.7169H65.949H67.1812V123.5V122.25V121V119.75H65.949Z" fill="#537E29"/>
<path d="M64.7172 118.5H63.4863V119.75H64.7172V118.5Z" fill="#537E29"/>
<path d="M58.5588 121.001V119.75V118.5V117.25V116V114.75V113.5H59.7909H61.0231V114.75V116V117.25V118.5V119.75V121.001H62.254V119.75V118.5H63.4861V117.25H62.254V116V114.75V113.5V112.25H63.4861H64.717V113.5V114.75V116V117.25V118.5H65.9492V117.25V116V114.75V113.5V112.25V111.001V109.75H64.717V111.001H63.4861H62.254V109.75V108.5V107.25V106H61.0231V107.25V108.5V109.75V111.001V112.25H59.7909H58.5588V111.001V109.75V108.5H57.3279V109.75V111.001V112.25V113.5H56.0957V114.75H57.3279V116V117.25V118.5V119.75V121.001V122.25V123.5H58.5588V122.25V121.001Z" fill="#537E29"/>
<path d="M54.8636 112.25H53.6327V111.001V109.75V108.5V107.25V106H52.4006V107.25V108.5V109.75V111.001V112.25H51.1697H49.9375V113.5H51.1697H52.4006V114.75V116V117.25V118.5V119.75V121.001H53.6327H54.8636H56.0958V119.75H54.8636H53.6327V118.5V117.25V116V114.75V113.5H54.8636H56.0958V112.25H54.8636Z" fill="#537E29"/>
<path d="M49.9372 121.001H48.7051V122.25H49.9372V123.501H51.1694V122.25H52.4003V121.001H51.1694H49.9372Z" fill="#537E29"/>
<path d="M43.7795 114.749H42.5473H41.3164H40.0842H38.8533H37.6212H36.389H35.1581H33.926H32.6951H31.4629V116V117.25V118.499V119.75V121H32.6951H33.926H35.1581V122.249V123.5V124.749V126H36.389V124.749H37.6212V123.5H36.389V122.249V121H37.6212H38.8533H40.0842V122.249H41.3164V121H42.5473H43.7795H45.0116H46.2425V119.75H45.0116H43.7795H42.5473H41.3164H40.0842H38.8533H37.6212H36.389H35.1581H33.926H32.6951V118.499V117.25V116H33.926H35.1581H36.389H37.6212H38.8533H40.0842H41.3164H42.5473H43.7795H45.0116H46.2425V114.749H45.0116H43.7795Z" fill="#537E29"/>
<path d="M43.779 124.749V126H45.0112V124.749H46.2421V123.5H45.0112H43.779H42.5469V124.749H43.779Z" fill="#537E29"/>
<path d="M42.5471 117.25H41.3162H40.0841H38.8532H37.621H36.3888H35.1579H33.9258V118.499H35.1579H36.3888H37.621H38.8532H40.0841H41.3162H42.5471H43.7793H45.0114V117.25H43.7793H42.5471Z" fill="#537E29"/>
<path d="M42.5473 122.25H41.3164V123.5H42.5473V122.25Z" fill="#537E29"/>
<path d="M38.8533 122.25H37.6211V123.5H38.8533V122.25Z" fill="#537E29"/>
<path d="M35.1584 113.5H45.0119V107.25H41.3166V106H40.0845V107.25H37.6214V106H36.3893V107.25H32.6953V113.5H35.1584ZM38.8536 112.25H37.6214V110.997H40.0845V112.246L38.8536 112.25ZM43.7772 112.25H41.3166V110.997H43.7797L43.7772 112.25ZM42.545 108.5H43.7772V109.75H41.3166V108.5H42.545ZM38.8511 108.5H40.0845V109.75H37.6214V108.5H38.8511ZM33.9275 108.5H36.3893V109.75H33.9237L33.9275 108.5ZM33.9237 110.997H36.3893V112.246H33.9237V110.997Z" fill="#537E29"/>
<path d="M30.2305 122.25V123.501H31.4626V122.25V121.001H30.2305V122.25Z" fill="#537E29"/>
<path d="M30.2309 123.5H29V124.749H30.2309V123.5Z" fill="#537E29"/>
<rect x="2" y="93" width="2" height="47" fill="#FBFDF0"/>
<rect x="92" y="95" width="2" height="45" fill="#C7CC87"/>
</svg>
