<svg width="96" height="142" viewBox="0 0 96 142" fill="none" xmlns="http://www.w3.org/2000/svg">
<path d="M64.1984 26.295V22.5287H60.3969V18.7624H56.5992V15H52.7977H49H45.1984H41.3969V18.7624H37.5992V22.5287H33.7977V26.295H30V30.0575V33.8238V37.5862H33.7977H37.5992V33.8238H41.3969V30.0575V26.295H45.1984H49H52.7977H56.5992V30.0575V33.8238V37.5862V41.3525H52.7977V45.1188H49V48.8812H45.1984V52.6475V56.4099V60.1762V63.9425H49H52.7977H56.5992V60.1762V56.4099V52.6475V48.8812H60.3969V45.1188H64.1984V41.3525H68V37.5862V33.8238V30.0575V26.295H64.1984Z" fill="#A1A1A1"/>
<path d="M49.0008 67.7051H45.1992V71.4714V75.2338V79.0001H49.0008H52.7984H56.6V75.2338V71.4714V67.7051H52.7984H49.0008Z" fill="#A1A1A1"/>
<rect x="1" y="92" width="94" height="49" fill="#C4C4C4" stroke="#333333" stroke-width="2"/>
<rect x="4" y="138" width="90" height="2" fill="#818181"/>
<rect x="2" y="93" width="92" height="2" fill="#E9E9E9"/>
<g clip-path="url(#clip0_815:71772)">
<path d="M75.6083 123.521H74.3749H73.1403H71.9057H70.6724H69.4378H68.2045H66.9699H65.7353H64.502V124.771H65.7353H66.9699H68.2045H69.4378H70.6724H71.9057H73.1403H74.3749H75.6083H76.8429V123.521H75.6083Z" fill="#333333"/>
<path d="M73.1389 106.021H71.9043V107.272H73.1389V106.021Z" fill="#333333"/>
<path d="M68.2036 112.277H65.7344V122.271H66.969V121.021H73.1394V122.271H74.374V112.277H69.4407V111.021H68.2074L68.2036 112.277ZM73.1369 119.778H66.969V118.521H73.1394L73.1369 119.778ZM73.1369 117.277H66.969V116.021H73.1394L73.1369 117.277ZM70.6715 113.521H73.1394V114.771H66.969V113.521H70.6715Z" fill="#333333"/>
<path d="M68.2034 106.021H66.9688V107.272H68.2034V106.021Z" fill="#333333"/>
<path d="M66.9699 109.772H68.2045H69.4378V111.021H70.6724V109.772H71.9057H73.1403H74.3749H75.6083V108.522H74.3749H73.1403H71.9057V107.272H70.6724V108.522H69.4378V107.272H68.2045V108.522H66.9699H65.7353H64.502V109.772H65.7353H66.9699Z" fill="#333333"/>
<path d="M64.5002 122.271H63.2656V123.521H64.5002V122.271Z" fill="#333333"/>
<path d="M63.2679 119.772V118.522V117.271V116.022V114.772V113.522H62.0346H60.8H59.5654H58.332V114.772H59.5654H60.8H62.0346V116.022V117.271V118.522V119.772V121.021V122.272H63.2679V121.021V119.772Z" fill="#333333"/>
<path d="M62.0332 111.021H63.2665V109.772V108.521H62.0332V109.772V111.021Z" fill="#333333"/>
<path d="M62.0334 122.271H60.7988V123.521H62.0334V122.271Z" fill="#333333"/>
<path d="M62.0334 107.272H60.7988V108.522H62.0334V107.272Z" fill="#333333"/>
<path d="M60.799 123.521H59.5645V124.771H60.799V123.521Z" fill="#333333"/>
<path d="M54.5541 108.5H50.8516V123.499H52.0862V122.25H55.7887V123.499H57.022V108.5H54.5541ZM55.7887 110.997V120.991H52.0862V109.75H55.7887V110.997Z" fill="#333333"/>
<path d="M47.1504 123.499H48.385V122.25V120.999H47.1504V122.25V123.499Z" fill="#333333"/>
<path d="M47.1499 116H45.9166V114.75V113.5V112.25V110.999H47.1499H48.3845V109.75H47.1499H45.9166H44.682H43.4486V108.5V107.25V106H42.214V107.25V108.5V109.75V110.999H43.4486H44.682V112.25V113.5V114.75V116H43.4486H42.214H40.9794H39.7461V117.249H40.9794H42.214H43.4486H44.682V118.5H45.9166V117.249H47.1499H48.3845H49.6191V116H48.3845H47.1499Z" fill="#333333"/>
<path d="M45.916 121H47.1493V119.75V118.5H45.916V119.75V121Z" fill="#333333"/>
<path d="M43.4492 119.75V121H44.6826V119.75V118.5H43.4492V119.75Z" fill="#333333"/>
<path d="M42.2129 122.25V123.499H43.4475V122.25V120.999H42.2129V122.25Z" fill="#333333"/>
<path d="M42.2151 123.499H40.9805V124.75H42.2151V123.499Z" fill="#333333"/>
<path d="M42.2151 111H40.9805V112.25H42.2151V111Z" fill="#333333"/>
<path d="M40.9794 124.75H39.7461V126H40.9794V124.75Z" fill="#333333"/>
<path d="M40.9794 112.25H39.7461V113.5H40.9794V112.25Z" fill="#333333"/>
<path d="M36.0435 107.251H34.8089H33.5755H32.3409H31.1076H29.873H28.6384H27.4051H26.1705H24.9371H23.7025H22.4679H21.2346H20V108.5H21.2346H22.4679H23.7025H24.9371H26.1705H27.4051H28.6384H29.873V109.751V111H31.1076V109.751V108.5H32.3409H33.5755H34.8089H36.0435H37.278H38.5114V107.251H37.278H36.0435Z" fill="#333333"/>
<path d="M36.0441 116H34.8095H33.5762V117.249H34.8095V118.5H36.0441V119.75H37.2787V118.5V117.249H36.0441V116Z" fill="#333333"/>
<path d="M33.5764 114.749H32.3418V116H33.5764V114.749Z" fill="#333333"/>
<path d="M32.3408 113.5H31.1074V114.749H32.3408V113.5Z" fill="#333333"/>
<path d="M28.6376 112.25V113.501H27.4043V114.75H28.6376V116.001V117.25V118.5V119.751V121V122.25V123.5V124.75V126.001H29.8722V124.75V123.5V122.25V121V119.751V118.5V117.25V116.001V114.75V113.501V112.25V111H28.6376V112.25Z" fill="#333333"/>
<path d="M27.4045 114.749H26.1699V116H27.4045V114.749Z" fill="#333333"/>
<path d="M26.1708 116H24.9375V117.249H26.1708V116Z" fill="#333333"/>
<path d="M24.9377 117.249H23.7031V118.5H24.9377V117.249Z" fill="#333333"/>
<path d="M23.7033 118.5H22.4688V119.75H23.7033V118.5Z" fill="#333333"/>
<path d="M22.4677 119.75H21.2344V120.999H22.4677V119.75Z" fill="#333333"/>
</g>
<rect x="2" y="93" width="2" height="47" fill="#E9E9E9"/>
<rect x="92" y="95" width="2" height="45" fill="#818181"/>
<defs>
<clipPath id="clip0_815:71772">
<rect width="56.8421" height="20" fill="white" transform="translate(20 106)"/>
</clipPath>
</defs>
</svg>
