<svg width="40" height="40" viewBox="0 0 40 40" fill="none" xmlns="http://www.w3.org/2000/svg">
<rect width="40" height="40" fill="#C9EAF9"/>
<rect width="2.22222" height="40" fill="#006788"/>
<rect x="37.7773" width="2.22222" height="40" fill="#006788"/>
<rect x="2.22266" y="2.22266" width="2.22222" height="35.5556" fill="white"/>
<rect x="35.5557" y="2.22266" width="2.22222" height="36.6667" fill="#ACD7EB"/>
<rect x="4.44434" y="2.22266" width="33.3333" height="2.22222" fill="white"/>
<rect x="4.44434" y="35.5557" width="33.3333" height="2.22222" fill="#ACD7EB"/>
<rect x="1.11133" y="40" width="2.22222" height="38.8889" transform="rotate(-90 1.11133 40)" fill="#006788"/>
<rect x="1.11133" y="2.22266" width="2.22222" height="38.8889" transform="rotate(-90 1.11133 2.22266)" fill="#006788"/>
<path fill-rule="evenodd" clip-rule="evenodd" d="M27.7772 12.2217H25.555V14.4439L23.3328 14.4439V16.6661H21.1106L21.1106 18.8883H18.8883V16.6661L16.6661 16.6661V14.4439H14.4446V12.2223H12.2223V14.4446H14.4439V16.6661H16.6661L16.6661 18.8883H18.8883V21.1106L16.6661 21.1106V23.3328H14.4439V25.555H12.2217V27.7772H14.4439L14.4439 25.555H16.6661L16.6661 23.3328H18.8883V21.1106H21.1106L21.1106 23.3328H23.3328V25.555H25.555V27.7772H27.7772V25.555H25.555V23.3328H23.3328V21.1106L21.1106 21.1106V18.8883H23.3328V16.6661L25.555 16.6661V14.4439H27.7772V12.2217Z" fill="#006788"/>
</svg>
