<svg width="96" height="142" viewBox="0 0 96 142" fill="none" xmlns="http://www.w3.org/2000/svg">
<g clip-path="url(#clip0_815:71761)">
<path d="M85.0007 76.4082H81.4492V80.0005H85.0007V76.4082Z" fill="#006788"/>
<path d="M85.0007 72.8193H81.4492V76.4079H85.0007V72.8193Z" fill="#006788"/>
<path d="M85.0007 69.2266H81.4492V72.8188H85.0007V69.2266Z" fill="#006788"/>
<path d="M85.0007 65.6348H81.4492V69.227H85.0007V65.6348Z" fill="#006788"/>
<path d="M85.0007 62.0459H81.4492V65.6345H85.0007V62.0459Z" fill="#006788"/>
<path d="M85.0007 58.4541H81.4492V62.0463H85.0007V58.4541Z" fill="#006788"/>
<path d="M81.4482 76.4082H77.9004V80.0005H81.4482V76.4082Z" fill="#006788"/>
<path d="M81.4482 72.8193H77.9004V76.4079H81.4482V72.8193Z" fill="#006788"/>
<path d="M81.4482 69.2266H77.9004V72.8188H81.4482V69.2266Z" fill="#006788"/>
<path d="M81.4482 65.6348H77.9004V69.227H81.4482V65.6348Z" fill="#006788"/>
<path d="M81.4482 62.0459H77.9004V65.6345H81.4482V62.0459Z" fill="#006788"/>
<path d="M81.4482 58.4541H77.9004V62.0463H81.4482V58.4541Z" fill="#006788"/>
<path d="M81.4482 54.8652H77.9004V58.4538H81.4482V54.8652Z" fill="#006788"/>
<path d="M81.4482 51.2734H77.9004V54.8657H81.4482V51.2734Z" fill="#006788"/>
<path d="M81.4482 47.6807H77.9004V51.2729H81.4482V47.6807Z" fill="#006788"/>
<path d="M77.9011 76.4082H74.3496V80.0005H77.9011V76.4082Z" fill="#006788"/>
<path d="M77.9011 72.8193H74.3496V76.4079H77.9011V72.8193Z" fill="#006788"/>
<path d="M77.9011 69.2266H74.3496V72.8188H77.9011V69.2266Z" fill="#006788"/>
<path d="M77.9011 65.6348H74.3496V69.227H77.9011V65.6348Z" fill="#C7CC87"/>
<path d="M77.9011 62.0459H74.3496V65.6345H77.9011V62.0459Z" fill="#C7CC87"/>
<path d="M77.9011 58.4541H74.3496V62.0463H77.9011V58.4541Z" fill="#006788"/>
<path d="M77.9011 54.8652H74.3496V58.4538H77.9011V54.8652Z" fill="#006788"/>
<path d="M77.9011 51.2734H74.3496V54.8657H77.9011V51.2734Z" fill="#006788"/>
<path d="M77.9011 47.6807H74.3496V51.2729H77.9011V47.6807Z" fill="#006788"/>
<path d="M77.9011 44.0918H74.3496V47.6804H77.9011V44.0918Z" fill="#006788"/>
<path d="M77.9011 40.5H74.3496V44.0922H77.9011V40.5Z" fill="#006788"/>
<path d="M77.9011 36.9111H74.3496V40.4997H77.9011V36.9111Z" fill="#006788"/>
<path d="M77.9011 33.3193H74.3496V36.9116H77.9011V33.3193Z" fill="#006788"/>
<path d="M77.9011 29.7275H74.3496V33.3198H77.9011V29.7275Z" fill="#006788"/>
<path d="M77.9011 26.1387H74.3496V29.7272H77.9011V26.1387Z" fill="#006788"/>
<path d="M77.9011 22.5459H74.3496V26.1381H77.9011V22.5459Z" fill="#006788"/>
<path d="M77.9011 18.958H74.3496V22.5466H77.9011V18.958Z" fill="#CCE9E9"/>
<path d="M74.3503 76.4082H70.7988V80.0005H74.3503V76.4082Z" fill="#006788"/>
<path d="M74.3503 72.8193H70.7988V76.4079H74.3503V72.8193Z" fill="#006788"/>
<path d="M74.3503 69.2266H70.7988V72.8188H74.3503V69.2266Z" fill="#006788"/>
<path d="M74.3503 65.6348H70.7988V69.227H74.3503V65.6348Z" fill="#C7CC87"/>
<path d="M74.3503 62.0459H70.7988V65.6345H74.3503V62.0459Z" fill="#C7CC87"/>
<path d="M74.3503 58.4541H70.7988V62.0463H74.3503V58.4541Z" fill="#006788"/>
<path d="M74.3503 54.8652H70.7988V58.4538H74.3503V54.8652Z" fill="#006788"/>
<path d="M74.3503 51.2734H70.7988V54.8657H74.3503V51.2734Z" fill="#006788"/>
<path d="M74.3503 47.6807H70.7988V51.2729H74.3503V47.6807Z" fill="#006788"/>
<path d="M74.3503 44.0918H70.7988V47.6804H74.3503V44.0918Z" fill="#006788"/>
<path d="M74.3503 40.5H70.7988V44.0922H74.3503V40.5Z" fill="#006788"/>
<path d="M74.3503 36.9111H70.7988V40.4997H74.3503V36.9111Z" fill="#006788"/>
<path d="M74.3503 33.3193H70.7988V36.9116H74.3503V33.3193Z" fill="#006788"/>
<path d="M74.3503 29.7275H70.7988V33.3198H74.3503V29.7275Z" fill="#006788"/>
<path d="M74.3503 26.1387H70.7988V29.7272H74.3503V26.1387Z" fill="#006788"/>
<path d="M70.7978 76.4082H67.25V80.0005H70.7978V76.4082Z" fill="#006788"/>
<path d="M70.7978 72.8193H67.25V76.4079H70.7978V72.8193Z" fill="#006788"/>
<path d="M70.7978 69.2266H67.25V72.8188H70.7978V69.2266Z" fill="#006788"/>
<path d="M70.7978 65.6348H67.25V69.227H70.7978V65.6348Z" fill="#006788"/>
<path d="M70.7978 62.0459H67.25V65.6345H70.7978V62.0459Z" fill="#006788"/>
<path d="M70.7978 58.4541H67.25V62.0463H70.7978V58.4541Z" fill="#006788"/>
<path d="M70.7978 54.8652H67.25V58.4538H70.7978V54.8652Z" fill="#006788"/>
<path d="M70.7978 51.2734H67.25V54.8657H70.7978V51.2734Z" fill="#006788"/>
<path d="M70.7978 47.6807H67.25V51.2729H70.7978V47.6807Z" fill="#006788"/>
<path d="M70.7978 15.3652H67.25V18.9575H70.7978V15.3652Z" fill="#82BDD1"/>
<path d="M70.7978 11.7734H67.25V15.3657H70.7978V11.7734Z" fill="#82BDD1"/>
<path d="M67.2507 76.4082H63.6992V80.0005H67.2507V76.4082Z" fill="#006788"/>
<path d="M67.2507 72.8193H63.6992V76.4079H67.2507V72.8193Z" fill="#006788"/>
<path d="M67.2507 69.2266H63.6992V72.8188H67.2507V69.2266Z" fill="#006788"/>
<path d="M67.2507 65.6348H63.6992V69.227H67.2507V65.6348Z" fill="#006788"/>
<path d="M67.2507 62.0459H63.6992V65.6345H67.2507V62.0459Z" fill="#006788"/>
<path d="M67.2507 58.4541H63.6992V62.0463H67.2507V58.4541Z" fill="#006788"/>
<path d="M67.2507 15.3652H63.6992V18.9575H67.2507V15.3652Z" fill="#82BDD1"/>
<path d="M67.2507 11.7734H63.6992V15.3657H67.2507V11.7734Z" fill="#82BDD1"/>
<path d="M67.2507 8.18457H63.6992V11.7731H67.2507V8.18457Z" fill="#CCE9E9"/>
<path d="M63.6982 76.4082H60.1504V80.0005H63.6982V76.4082Z" fill="#006788"/>
<path d="M63.6982 72.8193H60.1504V76.4079H63.6982V72.8193Z" fill="#006788"/>
<path d="M63.6982 69.2266H60.1504V72.8188H63.6982V69.2266Z" fill="#006788"/>
<path d="M63.6982 65.6348H60.1504V69.227H63.6982V65.6348Z" fill="#006788"/>
<path d="M63.6982 62.0459H60.1504V65.6345H63.6982V62.0459Z" fill="#006788"/>
<path d="M63.6982 58.4541H60.1504V62.0463H63.6982V58.4541Z" fill="#006788"/>
<path d="M63.6982 54.8652H60.1504V58.4538H63.6982V54.8652Z" fill="#006788"/>
<path d="M63.6982 51.2734H60.1504V54.8657H63.6982V51.2734Z" fill="#006788"/>
<path d="M63.6982 47.6807H60.1504V51.2729H63.6982V47.6807Z" fill="#006788"/>
<path d="M63.6982 18.958H60.1504V22.5466H63.6982V18.958Z" fill="#82BDD1"/>
<path d="M63.6982 15.3652H60.1504V18.9575H63.6982V15.3652Z" fill="#82BDD1"/>
<path d="M63.6982 11.7734H60.1504V15.3657H63.6982V11.7734Z" fill="#CCE9E9"/>
<path d="M63.6982 8.18457H60.1504V11.7731H63.6982V8.18457Z" fill="#CCE9E9"/>
<path d="M63.6982 4.59277H60.1504V8.18502H63.6982V4.59277Z" fill="#CCE9E9"/>
<path d="M60.1511 76.4082H56.5996V80.0005H60.1511V76.4082Z" fill="#006788"/>
<path d="M60.1511 72.8193H56.5996V76.4079H60.1511V72.8193Z" fill="#006788"/>
<path d="M60.1511 69.2266H56.5996V72.8188H60.1511V69.2266Z" fill="#006788"/>
<path d="M60.1511 65.6348H56.5996V69.227H60.1511V65.6348Z" fill="#C7CC87"/>
<path d="M60.1511 62.0459H56.5996V65.6345H60.1511V62.0459Z" fill="#C7CC87"/>
<path d="M60.1511 58.4541H56.5996V62.0463H60.1511V58.4541Z" fill="#006788"/>
<path d="M60.1511 54.8652H56.5996V58.4538H60.1511V54.8652Z" fill="#006788"/>
<path d="M60.1511 51.2734H56.5996V54.8657H60.1511V51.2734Z" fill="#006788"/>
<path d="M60.1511 47.6807H56.5996V51.2729H60.1511V47.6807Z" fill="#006788"/>
<path d="M60.1511 18.958H56.5996V22.5466H60.1511V18.958Z" fill="#CCE9E9"/>
<path d="M60.1511 15.3652H56.5996V18.9575H60.1511V15.3652Z" fill="#82BDD1"/>
<path d="M60.1511 11.7734H56.5996V15.3657H60.1511V11.7734Z" fill="#CCE9E9"/>
<path d="M60.1511 8.18457H56.5996V11.7731H60.1511V8.18457Z" fill="#CCE9E9"/>
<path d="M60.1511 4.59277H56.5996V8.18502H60.1511V4.59277Z" fill="#CCE9E9"/>
<path d="M56.6003 76.4082H53.0488V80.0005H56.6003V76.4082Z" fill="#006788"/>
<path d="M56.6003 72.8193H53.0488V76.4079H56.6003V72.8193Z" fill="#006788"/>
<path d="M56.6003 69.2266H53.0488V72.8188H56.6003V69.2266Z" fill="#006788"/>
<path d="M56.6003 65.6348H53.0488V69.227H56.6003V65.6348Z" fill="#C7CC87"/>
<path d="M56.6003 62.0459H53.0488V65.6345H56.6003V62.0459Z" fill="#C7CC87"/>
<path d="M56.6003 58.4541H53.0488V62.0463H56.6003V58.4541Z" fill="#006788"/>
<path d="M56.6003 54.8652H53.0488V58.4538H56.6003V54.8652Z" fill="#006788"/>
<path d="M56.6003 51.2734H53.0488V54.8657H56.6003V51.2734Z" fill="#006788"/>
<path d="M56.6003 22.5459H53.0488V26.1381H56.6003V22.5459Z" fill="#82BDD1"/>
<path d="M56.6003 18.958H53.0488V22.5466H56.6003V18.958Z" fill="#CCE9E9"/>
<path d="M56.6003 15.3652H53.0488V18.9575H56.6003V15.3652Z" fill="#CCE9E9"/>
<path d="M56.6003 11.7734H53.0488V15.3657H56.6003V11.7734Z" fill="#CCE9E9"/>
<path d="M56.6003 8.18457H53.0488V11.7731H56.6003V8.18457Z" fill="#CCE9E9"/>
<path d="M53.0478 76.4082H49.5V80.0005H53.0478V76.4082Z" fill="#006788"/>
<path d="M53.0478 72.8193H49.5V76.4079H53.0478V72.8193Z" fill="#006788"/>
<path d="M53.0478 69.2266H49.5V72.8188H53.0478V69.2266Z" fill="#006788"/>
<path d="M53.0478 65.6348H49.5V69.227H53.0478V65.6348Z" fill="#C7CC87"/>
<path d="M53.0478 62.0459H49.5V65.6345H53.0478V62.0459Z" fill="#C7CC87"/>
<path d="M53.0478 58.4541H49.5V62.0463H53.0478V58.4541Z" fill="#006788"/>
<path d="M53.0478 54.8652H49.5V58.4538H53.0478V54.8652Z" fill="#006788"/>
<path d="M53.0478 22.5459H49.5V26.1381H53.0478V22.5459Z" fill="#82BDD1"/>
<path d="M53.0478 18.958H49.5V22.5466H53.0478V18.958Z" fill="#CCE9E9"/>
<path d="M53.0478 15.3652H49.5V18.9575H53.0478V15.3652Z" fill="#CCE9E9"/>
<path d="M53.0478 11.7734H49.5V15.3657H53.0478V11.7734Z" fill="#CCE9E9"/>
<path d="M53.0478 8.18457H49.5V11.7731H53.0478V8.18457Z" fill="#CCE9E9"/>
<path d="M53.0478 4.59277H49.5V8.18502H53.0478V4.59277Z" fill="#CCE9E9"/>
<path d="M49.5007 76.4082H45.9492V80.0005H49.5007V76.4082Z" fill="#006788"/>
<path d="M49.5007 72.8193H45.9492V76.4079H49.5007V72.8193Z" fill="#006788"/>
<path d="M49.5007 69.2266H45.9492V72.8188H49.5007V69.2266Z" fill="#006788"/>
<path d="M49.5007 65.6348H45.9492V69.227H49.5007V65.6348Z" fill="#006788"/>
<path d="M49.5007 62.0459H45.9492V65.6345H49.5007V62.0459Z" fill="#006788"/>
<path d="M49.5007 58.4541H45.9492V62.0463H49.5007V58.4541Z" fill="#006788"/>
<path d="M49.5007 18.958H45.9492V22.5466H49.5007V18.958Z" fill="#CCE9E9"/>
<path d="M49.5007 15.3652H45.9492V18.9575H49.5007V15.3652Z" fill="#CCE9E9"/>
<path d="M49.5007 11.7734H45.9492V15.3657H49.5007V11.7734Z" fill="#CCE9E9"/>
<path d="M49.5007 8.18457H45.9492V11.7731H49.5007V8.18457Z" fill="#CCE9E9"/>
<path d="M49.5007 4.59277H45.9492V8.18502H49.5007V4.59277Z" fill="#CCE9E9"/>
<path d="M49.5007 1H45.9492V4.59225H49.5007V1Z" fill="#CCE9E9"/>
<path d="M45.9482 76.4082H42.4004V80.0005H45.9482V76.4082Z" fill="#006788"/>
<path d="M45.9482 72.8193H42.4004V76.4079H45.9482V72.8193Z" fill="#006788"/>
<path d="M45.9482 69.2266H42.4004V72.8188H45.9482V69.2266Z" fill="#006788"/>
<path d="M45.9482 65.6348H42.4004V69.227H45.9482V65.6348Z" fill="#006788"/>
<path d="M45.9482 62.0459H42.4004V65.6345H45.9482V62.0459Z" fill="#006788"/>
<path d="M45.9482 58.4541H42.4004V62.0463H45.9482V58.4541Z" fill="#006788"/>
<path d="M45.9482 11.7734H42.4004V15.3657H45.9482V11.7734Z" fill="#CCE9E9"/>
<path d="M45.9482 8.18457H42.4004V11.7731H45.9482V8.18457Z" fill="#CCE9E9"/>
<path d="M45.9482 4.59277H42.4004V8.18502H45.9482V4.59277Z" fill="#CCE9E9"/>
<path d="M45.9482 1H42.4004V4.59225H45.9482V1Z" fill="#CCE9E9"/>
<path d="M42.4011 76.4082H38.8496V80.0005H42.4011V76.4082Z" fill="#006788"/>
<path d="M42.4011 72.8193H38.8496V76.4079H42.4011V72.8193Z" fill="#006788"/>
<path d="M42.4011 69.2266H38.8496V72.8188H42.4011V69.2266Z" fill="#006788"/>
<path d="M42.4011 65.6348H38.8496V69.227H42.4011V65.6348Z" fill="#C7CC87"/>
<path d="M42.4011 62.0459H38.8496V65.6345H42.4011V62.0459Z" fill="#C7CC87"/>
<path d="M42.4011 58.4541H38.8496V62.0463H42.4011V58.4541Z" fill="#006788"/>
<path d="M42.4011 54.8652H38.8496V58.4538H42.4011V54.8652Z" fill="#006788"/>
<path d="M42.4011 51.2734H38.8496V54.8657H42.4011V51.2734Z" fill="#006788"/>
<path d="M42.4011 47.6807H38.8496V51.2729H42.4011V47.6807Z" fill="#006788"/>
<path d="M42.4011 26.1387H38.8496V29.7272H42.4011V26.1387Z" fill="#82BDD1"/>
<path d="M42.4011 22.5459H38.8496V26.1381H42.4011V22.5459Z" fill="#CCE9E9"/>
<path d="M42.4011 11.7734H38.8496V15.3657H42.4011V11.7734Z" fill="#CCE9E9"/>
<path d="M42.4011 8.18457H38.8496V11.7731H42.4011V8.18457Z" fill="#CCE9E9"/>
<path d="M42.4011 4.59277H38.8496V8.18502H42.4011V4.59277Z" fill="#CCE9E9"/>
<path d="M38.8483 76.4082H35.2969V80.0005H38.8483V76.4082Z" fill="#006788"/>
<path d="M38.8483 72.8193H35.2969V76.4079H38.8483V72.8193Z" fill="#006788"/>
<path d="M38.8483 69.2266H35.2969V72.8188H38.8483V69.2266Z" fill="#006788"/>
<path d="M38.8483 65.6348H35.2969V69.227H38.8483V65.6348Z" fill="#C7CC87"/>
<path d="M38.8483 62.0459H35.2969V65.6345H38.8483V62.0459Z" fill="#C7CC87"/>
<path d="M38.8483 58.4541H35.2969V62.0463H38.8483V58.4541Z" fill="#006788"/>
<path d="M38.8483 54.8652H35.2969V58.4538H38.8483V54.8652Z" fill="#006788"/>
<path d="M38.8483 51.2734H35.2969V54.8657H38.8483V51.2734Z" fill="#006788"/>
<path d="M38.8483 47.6807H35.2969V51.2729H38.8483V47.6807Z" fill="#006788"/>
<path d="M38.8483 29.7275H35.2969V33.3198H38.8483V29.7275Z" fill="#82BDD1"/>
<path d="M38.8483 26.1387H35.2969V29.7272H38.8483V26.1387Z" fill="#82BDD1"/>
<path d="M38.8483 22.5459H35.2969V26.1381H38.8483V22.5459Z" fill="#CCE9E9"/>
<path d="M38.8483 18.958H35.2969V22.5466H38.8483V18.958Z" fill="#CCE9E9"/>
<path d="M38.8483 15.3652H35.2969V18.9575H38.8483V15.3652Z" fill="#CCE9E9"/>
<path d="M38.8483 8.18457H35.2969V11.7731H38.8483V8.18457Z" fill="#CCE9E9"/>
<path d="M35.2978 76.4082H31.75V80.0005H35.2978V76.4082Z" fill="#006788"/>
<path d="M35.2978 72.8193H31.75V76.4079H35.2978V72.8193Z" fill="#006788"/>
<path d="M35.2978 69.2266H31.75V72.8188H35.2978V69.2266Z" fill="#006788"/>
<path d="M35.2978 65.6348H31.75V69.227H35.2978V65.6348Z" fill="#C7CC87"/>
<path d="M35.2978 62.0459H31.75V65.6345H35.2978V62.0459Z" fill="#C7CC87"/>
<path d="M35.2978 58.4541H31.75V62.0463H35.2978V58.4541Z" fill="#006788"/>
<path d="M35.2978 54.8652H31.75V58.4538H35.2978V54.8652Z" fill="#006788"/>
<path d="M35.2978 51.2734H31.75V54.8657H35.2978V51.2734Z" fill="#006788"/>
<path d="M35.2978 29.7275H31.75V33.3198H35.2978V29.7275Z" fill="#82BDD1"/>
<path d="M35.2978 26.1387H31.75V29.7272H35.2978V26.1387Z" fill="#82BDD1"/>
<path d="M35.2978 22.5459H31.75V26.1381H35.2978V22.5459Z" fill="#CCE9E9"/>
<path d="M35.2978 18.958H31.75V22.5466H35.2978V18.958Z" fill="#CCE9E9"/>
<path d="M35.2978 15.3652H31.75V18.9575H35.2978V15.3652Z" fill="#CCE9E9"/>
<path d="M31.7507 76.4082H28.1992V80.0005H31.7507V76.4082Z" fill="#006788"/>
<path d="M31.7507 72.8193H28.1992V76.4079H31.7507V72.8193Z" fill="#006788"/>
<path d="M31.7507 69.2266H28.1992V72.8188H31.7507V69.2266Z" fill="#006788"/>
<path d="M31.7507 65.6348H28.1992V69.227H31.7507V65.6348Z" fill="#006788"/>
<path d="M31.7507 62.0459H28.1992V65.6345H31.7507V62.0459Z" fill="#006788"/>
<path d="M31.7507 58.4541H28.1992V62.0463H31.7507V58.4541Z" fill="#006788"/>
<path d="M31.7507 54.8652H28.1992V58.4538H31.7507V54.8652Z" fill="#006788"/>
<path d="M31.7507 26.1387H28.1992V29.7272H31.7507V26.1387Z" fill="#CCE9E9"/>
<path d="M31.7507 22.5459H28.1992V26.1381H31.7507V22.5459Z" fill="#CCE9E9"/>
<path d="M31.7507 18.958H28.1992V22.5466H31.7507V18.958Z" fill="#CCE9E9"/>
<path d="M31.7507 15.3652H28.1992V18.9575H31.7507V15.3652Z" fill="#CCE9E9"/>
<path d="M28.1979 76.4082H24.6465V80.0005H28.1979V76.4082Z" fill="#006788"/>
<path d="M28.1979 72.8193H24.6465V76.4079H28.1979V72.8193Z" fill="#006788"/>
<path d="M28.1979 69.2266H24.6465V72.8188H28.1979V69.2266Z" fill="#006788"/>
<path d="M28.1979 65.6348H24.6465V69.227H28.1979V65.6348Z" fill="#006788"/>
<path d="M28.1979 62.0459H24.6465V65.6345H28.1979V62.0459Z" fill="#006788"/>
<path d="M28.1979 58.4541H24.6465V62.0463H28.1979V58.4541Z" fill="#006788"/>
<path d="M28.1979 29.7275H24.6465V33.3198H28.1979V29.7275Z" fill="#82BDD1"/>
<path d="M28.1979 26.1387H24.6465V29.7272H28.1979V26.1387Z" fill="#CCE9E9"/>
<path d="M28.1979 22.5459H24.6465V26.1381H28.1979V22.5459Z" fill="#CCE9E9"/>
<path d="M28.1979 18.958H24.6465V22.5466H28.1979V18.958Z" fill="#CCE9E9"/>
<path d="M24.6474 76.4082H21.0996V80.0005H24.6474V76.4082Z" fill="#006788"/>
<path d="M24.6474 29.7275H21.0996V33.3198H24.6474V29.7275Z" fill="#82BDD1"/>
<path d="M24.6474 26.1387H21.0996V29.7272H24.6474V26.1387Z" fill="#CCE9E9"/>
<path d="M24.6474 22.5459H21.0996V26.1381H24.6474V22.5459Z" fill="#CCE9E9"/>
<path d="M21.0983 76.4082H17.5469V80.0005H21.0983V76.4082Z" fill="#006788"/>
<path d="M21.0983 26.1387H17.5469V29.7272H21.0983V26.1387Z" fill="#CCE9E9"/>
<path d="M21.0983 22.5459H17.5469V26.1381H21.0983V22.5459Z" fill="#CCE9E9"/>
<path d="M21.0983 18.958H17.5469V22.5466H21.0983V18.958Z" fill="#CCE9E9"/>
<path d="M17.5478 22.5459H14V26.1381H17.5478V22.5459Z" fill="#CCE9E9"/>
<path d="M17.5478 18.958H14V22.5466H17.5478V18.958Z" fill="#CCE9E9"/>
</g>
<rect x="1" y="92" width="94" height="49" fill="#CCE9E9" stroke="#2B4754" stroke-width="2"/>
<rect x="4" y="138" width="90" height="2" fill="#82BDD1"/>
<rect x="2" y="93" width="92" height="2" fill="#EFFFFC"/>
<g clip-path="url(#clip1_815:71761)">
<path d="M65.8258 111H64.5554H63.2863H62.016H60.7456V109.751H59.4766V111V112.251H60.7456V113.5V114.75V116.001H62.016V114.75V113.5V112.251H63.2863V113.5V114.75V116.001V117.25V118.5H64.5554V117.25V116.001V114.75V113.5V112.251H65.8258V113.5V114.75V116.001V117.25V118.5V119.751V121V122.251V123.5H67.0948V122.251V121V119.751V118.5V117.25V116.001V114.75V113.5V112.251V111H65.8258Z" fill="#2B4754"/>
<path d="M65.827 123.499H64.5566V124.75H65.827V123.499Z" fill="#2B4754"/>
<path d="M64.5562 124.75H63.2871V126H64.5562V124.75Z" fill="#2B4754"/>
<path d="M63.286 123.499H62.0156V124.75H63.286V123.499Z" fill="#2B4754"/>
<path d="M63.286 119.75V118.5H62.0156V119.75V121H63.286V119.75Z" fill="#2B4754"/>
<path d="M62.0165 120.999H60.7461V122.25V123.499H62.0165V122.25V120.999Z" fill="#2B4754"/>
<path d="M62.0165 108.5V107.249V106H60.7461V107.249V108.5V109.75H62.0165V108.5Z" fill="#2B4754"/>
<path d="M60.7456 123.499H59.4766V124.75H60.7456V123.499Z" fill="#2B4754"/>
<path d="M59.4766 117.249V118.5H60.7456V117.249V116H59.4766V117.249Z" fill="#2B4754"/>
<path d="M59.4774 124.75H58.207V126H59.4774V124.75Z" fill="#2B4754"/>
<path d="M58.207 119.75V121H59.4774V119.75V118.5H58.207V119.75Z" fill="#2B4754"/>
<path d="M59.4774 112.25H58.207V113.499H59.4774V112.25Z" fill="#2B4754"/>
<path d="M58.2065 120.999H56.9375V122.25H58.2065V120.999Z" fill="#2B4754"/>
<path d="M58.2065 113.499H56.9375V114.75H58.2065V113.499Z" fill="#2B4754"/>
<path d="M56.9379 110.999H55.6676V109.75V108.5V107.249V106H54.3972V107.249V108.5V109.75V110.999H53.1281H51.8578V109.75V108.5H50.5874V109.75V110.999V112.25V113.499H51.8578V112.25H53.1281H54.3972V113.499V114.75V116V117.249H53.1281H51.8578H50.5874H49.3184V118.5H50.5874V119.75H51.8578V118.5H53.1281H54.3972V119.75V120.999V122.25V123.499V124.75V126H55.6676V124.75V123.499V122.25V120.999V119.75V118.5V117.249H56.9379H58.207V116H56.9379H55.6676V114.75V113.499V112.25H56.9379H58.207V110.999H56.9379Z" fill="#2B4754"/>
<path d="M50.5874 113.499H49.3184V114.75H50.5874V113.499Z" fill="#2B4754"/>
<path d="M45.5081 110.997V108.5H41.6983V106H40.4293V108.5H36.6195V109.75H40.4293V110.997H35.353V112.247H40.4293V113.496H36.6195V114.747H40.4293V115.997H36.6195V117.249H40.4293V119.75H35.353V120.999H40.4293V123.499H34.0762V124.75H48.0475V123.499H41.6983V120.999H46.7746V119.75H41.6983V117.249H45.5081V116H41.6983V114.75H45.5081V112.25H48.0475V110.997H45.5081ZM41.6983 109.75H44.2378V110.997H41.6983V109.75ZM44.2378 113.499H41.6983V112.25H44.2378V113.499Z" fill="#2B4754"/>
<path d="M35.3503 116V114.75V113.499H34.0813H32.8109V112.25H31.5405V113.499H30.2715V114.75H31.5405H32.8109H34.0813V116V117.249H35.3503V116Z" fill="#2B4754"/>
<path d="M35.3492 109.75V108.5H34.0801H32.8098H31.5394H30.2704H29V109.75H30.2704H31.5394H32.8098H34.0801V111H35.3492V109.75Z" fill="#2B4754"/>
<path d="M34.0809 122.25H32.8105V123.499H34.0809V122.25Z" fill="#2B4754"/>
<path d="M34.0809 118.499V117.249H32.8105V118.499V119.75H34.0809V118.499Z" fill="#2B4754"/>
<path d="M34.0809 111H32.8105V112.25H34.0809V111Z" fill="#2B4754"/>
<path d="M32.8094 119.75H31.5391V120.999V122.25H32.8094V120.999V119.75Z" fill="#2B4754"/>
<path d="M30.2715 123.499V124.75H31.5405V123.499V122.25H30.2715V123.499Z" fill="#2B4754"/>
<path d="M31.5405 117.249H30.2715V118.499V119.75H31.5405V118.499V117.249Z" fill="#2B4754"/>
<path d="M30.2704 124.75H29V126H30.2704V124.75Z" fill="#2B4754"/>
</g>
<rect x="2" y="93" width="2" height="47" fill="#EFFFFC"/>
<rect x="92" y="95" width="2" height="45" fill="#82BDD1"/>
<defs>
<clipPath id="clip0_815:71761">
<rect width="71" height="79" fill="white" transform="translate(14 1)"/>
</clipPath>
<clipPath id="clip1_815:71761">
<rect width="38.0952" height="20" fill="white" transform="translate(29 106)"/>
</clipPath>
</defs>
</svg>
