<svg width="96" height="142" viewBox="0 0 96 142" fill="none" xmlns="http://www.w3.org/2000/svg">
<g clip-path="url(#clip0_815:71736)">
<path d="M83.999 65.6484H80.4512V69.2345H83.999V65.6484Z" fill="#B9BF6A"/>
<path d="M83.999 62.0586H80.4512V65.6483H83.999V62.0586Z" fill="#B9BF6A"/>
<path d="M83.999 58.4727H80.4512V62.0587H83.999V58.4727Z" fill="#B9BF6A"/>
<path d="M83.999 54.8828H80.4512V58.4726H83.999V54.8828Z" fill="#B9BF6A"/>
<path d="M83.999 51.293H80.4512V54.8827H83.999V51.293Z" fill="#B9BF6A"/>
<path d="M83.999 47.707H80.4512V51.2931H83.999V47.707Z" fill="#B9BF6A"/>
<path d="M83.999 44.1172H80.4512V47.7069H83.999V44.1172Z" fill="#FFF9E6"/>
<path d="M83.999 40.5312H80.4512V44.1173H83.999V40.5312Z" fill="#FFF9E6"/>
<path d="M83.999 36.9414H80.4512V40.5312H83.999V36.9414Z" fill="#D9E0A2"/>
<path d="M80.4518 72.8242H76.9004V76.414H80.4518V72.8242Z" fill="#B9BF6A"/>
<path d="M80.4518 69.2344H76.9004V72.8241H80.4518V69.2344Z" fill="#B9BF6A"/>
<path d="M80.4518 65.6484H76.9004V69.2345H80.4518V65.6484Z" fill="#B9BF6A"/>
<path d="M80.4518 62.0586H76.9004V65.6483H80.4518V62.0586Z" fill="#B9BF6A"/>
<path d="M80.4518 58.4727H76.9004V62.0587H80.4518V58.4727Z" fill="#B9BF6A"/>
<path d="M80.4518 54.8828H76.9004V58.4726H80.4518V54.8828Z" fill="#B9BF6A"/>
<path d="M80.4518 51.293H76.9004V54.8827H80.4518V51.293Z" fill="#B9BF6A"/>
<path d="M80.4518 47.707H76.9004V51.2931H80.4518V47.707Z" fill="#FFF9E6"/>
<path d="M80.4518 44.1172H76.9004V47.7069H80.4518V44.1172Z" fill="#FFF9E6"/>
<path d="M80.4518 40.5312H76.9004V44.1173H80.4518V40.5312Z" fill="#D9E0A2"/>
<path d="M80.4518 36.9414H76.9004V40.5312H80.4518V36.9414Z" fill="#D9E0A2"/>
<path d="M80.4518 29.7656H76.9004V33.3517H80.4518V29.7656Z" fill="#5D7A3F"/>
<path d="M80.4518 26.1758H76.9004V29.7655H80.4518V26.1758Z" fill="#5D7A3F"/>
<path d="M80.4518 22.5898H76.9004V26.1759H80.4518V22.5898Z" fill="#779659"/>
<path d="M76.9011 76.4141H73.3496V80.0001H76.9011V76.4141Z" fill="#B9BF6A"/>
<path d="M76.9011 72.8242H73.3496V76.414H76.9011V72.8242Z" fill="#B9BF6A"/>
<path d="M76.9011 69.2344H73.3496V72.8241H76.9011V69.2344Z" fill="#B9BF6A"/>
<path d="M76.9011 65.6484H73.3496V69.2345H76.9011V65.6484Z" fill="#B9BF6A"/>
<path d="M76.9011 62.0586H73.3496V65.6483H76.9011V62.0586Z" fill="#A3A550"/>
<path d="M76.9011 58.4727H73.3496V62.0587H76.9011V58.4727Z" fill="#B9BF6A"/>
<path d="M76.9011 54.8828H73.3496V58.4726H76.9011V54.8828Z" fill="#B9BF6A"/>
<path d="M76.9011 51.293H73.3496V54.8827H76.9011V51.293Z" fill="#B9BF6A"/>
<path d="M76.9011 47.707H73.3496V51.2931H76.9011V47.707Z" fill="#FFF9E6"/>
<path d="M76.9011 44.1172H73.3496V47.7069H76.9011V44.1172Z" fill="#D9E0A2"/>
<path d="M76.9011 40.5312H73.3496V44.1173H76.9011V40.5312Z" fill="#D9E0A2"/>
<path d="M76.9011 36.9414H73.3496V40.5312H76.9011V36.9414Z" fill="#D9E0A2"/>
<path d="M76.9011 33.3516H73.3496V36.9413H76.9011V33.3516Z" fill="#6D6D30"/>
<path d="M76.9011 29.7656H73.3496V33.3517H76.9011V29.7656Z" fill="#6D6D30"/>
<path d="M76.9011 26.1758H73.3496V29.7655H76.9011V26.1758Z" fill="#779659"/>
<path d="M76.9011 22.5898H73.3496V26.1759H76.9011V22.5898Z" fill="#779659"/>
<path d="M76.9011 19H73.3496V22.5897H76.9011V19Z" fill="#779659"/>
<path d="M73.3486 76.4141H69.8008V80.0001H73.3486V76.4141Z" fill="#B9BF6A"/>
<path d="M73.3486 72.8242H69.8008V76.414H73.3486V72.8242Z" fill="#B9BF6A"/>
<path d="M73.3486 69.2344H69.8008V72.8241H73.3486V69.2344Z" fill="#A3A550"/>
<path d="M73.3486 65.6484H69.8008V69.2345H73.3486V65.6484Z" fill="#B9BF6A"/>
<path d="M73.3486 62.0586H69.8008V65.6483H73.3486V62.0586Z" fill="#B9BF6A"/>
<path d="M73.3486 58.4727H69.8008V62.0587H73.3486V58.4727Z" fill="#B9BF6A"/>
<path d="M73.3486 54.8828H69.8008V58.4726H73.3486V54.8828Z" fill="#B9BF6A"/>
<path d="M73.3486 51.293H69.8008V54.8827H73.3486V51.293Z" fill="#FFF9E6"/>
<path d="M73.3486 47.707H69.8008V51.2931H73.3486V47.707Z" fill="#D9E0A2"/>
<path d="M73.3486 44.1172H69.8008V47.7069H73.3486V44.1172Z" fill="#D9E0A2"/>
<path d="M73.3486 40.5312H69.8008V44.1173H73.3486V40.5312Z" fill="#D9E0A2"/>
<path d="M73.3486 36.9414H69.8008V40.5312H73.3486V36.9414Z" fill="#D9E0A2"/>
<path d="M73.3486 29.7656H69.8008V33.3517H73.3486V29.7656Z" fill="#5D7A3F"/>
<path d="M73.3486 26.1758H69.8008V29.7655H73.3486V26.1758Z" fill="#779659"/>
<path d="M73.3486 22.5898H69.8008V26.1759H73.3486V22.5898Z" fill="#5D7A3F"/>
<path d="M73.3486 19H69.8008V22.5897H73.3486V19Z" fill="#779659"/>
<path d="M69.8015 76.4141H66.25V80.0001H69.8015V76.4141Z" fill="#B9BF6A"/>
<path d="M69.8015 72.8242H66.25V76.414H69.8015V72.8242Z" fill="#B9BF6A"/>
<path d="M69.8015 69.2344H66.25V72.8241H69.8015V69.2344Z" fill="#B9BF6A"/>
<path d="M69.8015 65.6484H66.25V69.2345H69.8015V65.6484Z" fill="#B9BF6A"/>
<path d="M69.8015 62.0586H66.25V65.6483H69.8015V62.0586Z" fill="#B9BF6A"/>
<path d="M69.8015 58.4727H66.25V62.0587H69.8015V58.4727Z" fill="#B9BF6A"/>
<path d="M69.8015 54.8828H66.25V58.4726H69.8015V54.8828Z" fill="#B9BF6A"/>
<path d="M69.8015 51.293H66.25V54.8827H69.8015V51.293Z" fill="#D9E0A2"/>
<path d="M69.8015 47.707H66.25V51.2931H69.8015V47.707Z" fill="#D9E0A2"/>
<path d="M69.8015 44.1172H66.25V47.7069H69.8015V44.1172Z" fill="#D9E0A2"/>
<path d="M69.8015 40.5312H66.25V44.1173H69.8015V40.5312Z" fill="#C4C985"/>
<path d="M69.8015 36.9414H66.25V40.5312H69.8015V36.9414Z" fill="#D9E0A2"/>
<path d="M69.8015 29.7656H66.25V33.3517H69.8015V29.7656Z" fill="#779659"/>
<path d="M69.8015 26.1758H66.25V29.7655H69.8015V26.1758Z" fill="#779659"/>
<path d="M69.8015 22.5898H66.25V26.1759H69.8015V22.5898Z" fill="#779659"/>
<path d="M66.2509 76.4141H62.7031V80.0001H66.2509V76.4141Z" fill="#B9BF6A"/>
<path d="M66.2509 72.8242H62.7031V76.414H66.2509V72.8242Z" fill="#B9BF6A"/>
<path d="M66.2509 69.2344H62.7031V72.8241H66.2509V69.2344Z" fill="#B9BF6A"/>
<path d="M66.2509 65.6484H62.7031V69.2345H66.2509V65.6484Z" fill="#B9BF6A"/>
<path d="M66.2509 62.0586H62.7031V65.6483H66.2509V62.0586Z" fill="#B9BF6A"/>
<path d="M66.2509 58.4727H62.7031V62.0587H66.2509V58.4727Z" fill="#B9BF6A"/>
<path d="M66.2509 54.8828H62.7031V58.4726H66.2509V54.8828Z" fill="#D9E0A2"/>
<path d="M66.2509 51.293H62.7031V54.8827H66.2509V51.293Z" fill="#C4C985"/>
<path d="M66.2509 47.707H62.7031V51.2931H66.2509V47.707Z" fill="#D9E0A2"/>
<path d="M66.2509 44.1172H62.7031V47.7069H66.2509V44.1172Z" fill="#D9E0A2"/>
<path d="M66.2509 40.5312H62.7031V44.1173H66.2509V40.5312Z" fill="#D9E0A2"/>
<path d="M66.2509 36.9414H62.7031V40.5312H66.2509V36.9414Z" fill="#D9E0A2"/>
<path d="M66.2509 29.7656H62.7031V33.3517H66.2509V29.7656Z" fill="#779659"/>
<path d="M62.7018 76.4141H59.1504V80.0001H62.7018V76.4141Z" fill="#B9BF6A"/>
<path d="M62.7018 72.8242H59.1504V76.414H62.7018V72.8242Z" fill="#A3A550"/>
<path d="M62.7018 69.2344H59.1504V72.8241H62.7018V69.2344Z" fill="#B9BF6A"/>
<path d="M62.7018 65.6484H59.1504V69.2345H62.7018V65.6484Z" fill="#B9BF6A"/>
<path d="M62.7018 62.0586H59.1504V65.6483H62.7018V62.0586Z" fill="#B9BF6A"/>
<path d="M62.7018 58.4727H59.1504V62.0587H62.7018V58.4727Z" fill="#FFF9E6"/>
<path d="M62.7018 54.8828H59.1504V58.4726H62.7018V54.8828Z" fill="#D9E0A2"/>
<path d="M62.7018 51.293H59.1504V54.8827H62.7018V51.293Z" fill="#D9E0A2"/>
<path d="M62.7018 47.707H59.1504V51.2931H62.7018V47.707Z" fill="#D9E0A2"/>
<path d="M62.7018 44.1172H59.1504V47.7069H62.7018V44.1172Z" fill="#D9E0A2"/>
<path d="M62.7018 40.5312H59.1504V44.1173H62.7018V40.5312Z" fill="#D9E0A2"/>
<path d="M62.7018 36.9414H59.1504V40.5312H62.7018V36.9414Z" fill="#D9E0A2"/>
<path d="M62.7018 29.7656H59.1504V33.3517H62.7018V29.7656Z" fill="#5D7A3F"/>
<path d="M62.7018 26.1758H59.1504V29.7655H62.7018V26.1758Z" fill="#779659"/>
<path d="M62.7018 22.5898H59.1504V26.1759H62.7018V22.5898Z" fill="#779659"/>
<path d="M59.1511 76.4141H55.5996V80.0001H59.1511V76.4141Z" fill="#B9BF6A"/>
<path d="M59.1511 72.8242H55.5996V76.414H59.1511V72.8242Z" fill="#B9BF6A"/>
<path d="M59.1511 69.2344H55.5996V72.8241H59.1511V69.2344Z" fill="#B9BF6A"/>
<path d="M59.1511 65.6484H55.5996V69.2345H59.1511V65.6484Z" fill="#B9BF6A"/>
<path d="M59.1511 62.0586H55.5996V65.6483H59.1511V62.0586Z" fill="#FFF9E6"/>
<path d="M59.1511 58.4727H55.5996V62.0587H59.1511V58.4727Z" fill="#FFF9E6"/>
<path d="M59.1511 54.8828H55.5996V58.4726H59.1511V54.8828Z" fill="#D9E0A2"/>
<path d="M59.1511 51.293H55.5996V54.8827H59.1511V51.293Z" fill="#D9E0A2"/>
<path d="M59.1511 47.707H55.5996V51.2931H59.1511V47.707Z" fill="#C4C985"/>
<path d="M59.1511 44.1172H55.5996V47.7069H59.1511V44.1172Z" fill="#D9E0A2"/>
<path d="M59.1511 40.5312H55.5996V44.1173H59.1511V40.5312Z" fill="#C4C985"/>
<path d="M59.1511 36.9414H55.5996V40.5312H59.1511V36.9414Z" fill="#D9E0A2"/>
<path d="M59.1511 33.3516H55.5996V36.9413H59.1511V33.3516Z" fill="#6D6D30"/>
<path d="M59.1511 29.7656H55.5996V33.3517H59.1511V29.7656Z" fill="#6D6D30"/>
<path d="M59.1511 26.1758H55.5996V29.7655H59.1511V26.1758Z" fill="#779659"/>
<path d="M59.1511 22.5898H55.5996V26.1759H59.1511V22.5898Z" fill="#779659"/>
<path d="M59.1511 19H55.5996V22.5897H59.1511V19Z" fill="#779659"/>
<path d="M55.5986 76.4141H52.0508V80.0001H55.5986V76.4141Z" fill="#B9BF6A"/>
<path d="M55.5986 72.8242H52.0508V76.414H55.5986V72.8242Z" fill="#B9BF6A"/>
<path d="M55.5986 69.2344H52.0508V72.8241H55.5986V69.2344Z" fill="#B9BF6A"/>
<path d="M55.5986 65.6484H52.0508V69.2345H55.5986V65.6484Z" fill="#B9BF6A"/>
<path d="M55.5986 62.0586H52.0508V65.6483H55.5986V62.0586Z" fill="#FFF9E6"/>
<path d="M55.5986 58.4727H52.0508V62.0587H55.5986V58.4727Z" fill="#D9E0A2"/>
<path d="M55.5986 54.8828H52.0508V58.4726H55.5986V54.8828Z" fill="#C4C985"/>
<path d="M55.5986 51.293H52.0508V54.8827H55.5986V51.293Z" fill="#D9E0A2"/>
<path d="M55.5986 47.707H52.0508V51.2931H55.5986V47.707Z" fill="#D9E0A2"/>
<path d="M55.5986 44.1172H52.0508V47.7069H55.5986V44.1172Z" fill="#D9E0A2"/>
<path d="M55.5986 40.5312H52.0508V44.1173H55.5986V40.5312Z" fill="#D9E0A2"/>
<path d="M55.5986 36.9414H52.0508V40.5312H55.5986V36.9414Z" fill="#D9E0A2"/>
<path d="M55.5986 29.7656H52.0508V33.3517H55.5986V29.7656Z" fill="#779659"/>
<path d="M55.5986 26.1758H52.0508V29.7655H55.5986V26.1758Z" fill="#779659"/>
<path d="M55.5986 22.5898H52.0508V26.1759H55.5986V22.5898Z" fill="#779659"/>
<path d="M52.0515 76.4141H48.5V80.0001H52.0515V76.4141Z" fill="#B9BF6A"/>
<path d="M52.0515 72.8242H48.5V76.414H52.0515V72.8242Z" fill="#B9BF6A"/>
<path d="M52.0515 69.2344H48.5V72.8241H52.0515V69.2344Z" fill="#B9BF6A"/>
<path d="M52.0515 65.6484H48.5V69.2345H52.0515V65.6484Z" fill="#FFF9E6"/>
<path d="M52.0515 62.0586H48.5V65.6483H52.0515V62.0586Z" fill="#D9E0A2"/>
<path d="M52.0515 58.4727H48.5V62.0587H52.0515V58.4727Z" fill="#D9E0A2"/>
<path d="M52.0515 54.8828H48.5V58.4726H52.0515V54.8828Z" fill="#D9E0A2"/>
<path d="M52.0515 51.293H48.5V54.8827H52.0515V51.293Z" fill="#D9E0A2"/>
<path d="M52.0515 47.707H48.5V51.2931H52.0515V47.707Z" fill="#D9E0A2"/>
<path d="M52.0515 44.1172H48.5V47.7069H52.0515V44.1172Z" fill="#D9E0A2"/>
<path d="M52.0515 40.5312H48.5V44.1173H52.0515V40.5312Z" fill="#D9E0A2"/>
<path d="M52.0515 36.9414H48.5V40.5312H52.0515V36.9414Z" fill="#D9E0A2"/>
<path d="M52.0515 26.1758H48.5V29.7655H52.0515V26.1758Z" fill="#779659"/>
<path d="M48.5009 76.4141H44.9531V80.0001H48.5009V76.4141Z" fill="#B9BF6A"/>
<path d="M48.5009 72.8242H44.9531V76.414H48.5009V72.8242Z" fill="#A3A550"/>
<path d="M48.5009 69.2344H44.9531V72.8241H48.5009V69.2344Z" fill="#B9BF6A"/>
<path d="M48.5009 65.6484H44.9531V69.2345H48.5009V65.6484Z" fill="#FFF9E6"/>
<path d="M48.5009 62.0586H44.9531V65.6483H48.5009V62.0586Z" fill="#D9E0A2"/>
<path d="M48.5009 58.4727H44.9531V62.0587H48.5009V58.4727Z" fill="#D9E0A2"/>
<path d="M48.5009 54.8828H44.9531V58.4726H48.5009V54.8828Z" fill="#D9E0A2"/>
<path d="M48.5009 51.293H44.9531V54.8827H48.5009V51.293Z" fill="#D9E0A2"/>
<path d="M48.5009 47.707H44.9531V51.2931H48.5009V47.707Z" fill="#D9E0A2"/>
<path d="M48.5009 44.1172H44.9531V47.7069H48.5009V44.1172Z" fill="#C4C985"/>
<path d="M48.5009 40.5312H44.9531V44.1173H48.5009V40.5312Z" fill="#D9E0A2"/>
<path d="M48.5009 36.9414H44.9531V40.5312H48.5009V36.9414Z" fill="#D9E0A2"/>
<path d="M44.9518 76.4141H41.4004V80.0001H44.9518V76.4141Z" fill="#B9BF6A"/>
<path d="M44.9518 72.8242H41.4004V76.414H44.9518V72.8242Z" fill="#B9BF6A"/>
<path d="M44.9518 69.2344H41.4004V72.8241H44.9518V69.2344Z" fill="#FFF9E6"/>
<path d="M44.9518 65.6484H41.4004V69.2345H44.9518V65.6484Z" fill="#FFF9E6"/>
<path d="M44.9518 62.0586H41.4004V65.6483H44.9518V62.0586Z" fill="#D9E0A2"/>
<path d="M44.9518 58.4727H41.4004V62.0587H44.9518V58.4727Z" fill="#D9E0A2"/>
<path d="M44.9518 54.8828H41.4004V58.4726H44.9518V54.8828Z" fill="#C4C985"/>
<path d="M44.9518 51.293H41.4004V54.8827H44.9518V51.293Z" fill="#D9E0A2"/>
<path d="M44.9518 47.707H41.4004V51.2931H44.9518V47.707Z" fill="#D9E0A2"/>
<path d="M44.9518 44.1172H41.4004V47.7069H44.9518V44.1172Z" fill="#D9E0A2"/>
<path d="M44.9518 40.5312H41.4004V44.1173H44.9518V40.5312Z" fill="#D9E0A2"/>
<path d="M44.9518 36.9414H41.4004V40.5312H44.9518V36.9414Z" fill="#D9E0A2"/>
<path d="M41.4011 76.4141H37.8496V80.0001H41.4011V76.4141Z" fill="#B9BF6A"/>
<path d="M41.4011 72.8242H37.8496V76.414H41.4011V72.8242Z" fill="#B9BF6A"/>
<path d="M41.4011 69.2344H37.8496V72.8241H41.4011V69.2344Z" fill="#FFF9E6"/>
<path d="M41.4011 65.6484H37.8496V69.2345H41.4011V65.6484Z" fill="#FFF9E6"/>
<path d="M41.4011 62.0586H37.8496V65.6483H41.4011V62.0586Z" fill="#FFF9E6"/>
<path d="M41.4011 58.4727H37.8496V62.0587H41.4011V58.4727Z" fill="#D9E0A2"/>
<path d="M41.4011 54.8828H37.8496V58.4726H41.4011V54.8828Z" fill="#D9E0A2"/>
<path d="M41.4011 51.293H37.8496V54.8827H41.4011V51.293Z" fill="#D9E0A2"/>
<path d="M41.4011 47.707H37.8496V51.2931H41.4011V47.707Z" fill="#D9E0A2"/>
<path d="M41.4011 44.1172H37.8496V47.7069H41.4011V44.1172Z" fill="#D9E0A2"/>
<path d="M41.4011 40.5312H37.8496V44.1173H41.4011V40.5312Z" fill="#D9E0A2"/>
<path d="M41.4011 36.9414H37.8496V40.5312H41.4011V36.9414Z" fill="#D9E0A2"/>
<path d="M37.8486 76.4141H34.3008V80.0001H37.8486V76.4141Z" fill="#B9BF6A"/>
<path d="M37.8486 72.8242H34.3008V76.414H37.8486V72.8242Z" fill="#FFF9E6"/>
<path d="M37.8486 69.2344H34.3008V72.8241H37.8486V69.2344Z" fill="#FFF9E6"/>
<path d="M37.8486 65.6484H34.3008V69.2345H37.8486V65.6484Z" fill="#C7CC87"/>
<path d="M37.8486 62.0586H34.3008V65.6483H37.8486V62.0586Z" fill="#FFF9E6"/>
<path d="M37.8486 58.4727H34.3008V62.0587H37.8486V58.4727Z" fill="#FFF9E6"/>
<path d="M37.8486 54.8828H34.3008V58.4726H37.8486V54.8828Z" fill="#D9E0A2"/>
<path d="M37.8486 51.293H34.3008V54.8827H37.8486V51.293Z" fill="#D9E0A2"/>
<path d="M37.8486 47.707H34.3008V51.2931H37.8486V47.707Z" fill="#D9E0A2"/>
<path d="M37.8486 44.1172H34.3008V47.7069H37.8486V44.1172Z" fill="#C4C985"/>
<path d="M37.8486 40.5312H34.3008V44.1173H37.8486V40.5312Z" fill="#D9E0A2"/>
<path d="M37.8486 36.9414H34.3008V40.5312H37.8486V36.9414Z" fill="#D9E0A2"/>
<path d="M37.8486 29.7656H34.3008V33.3517H37.8486V29.7656Z" fill="#779659"/>
<path d="M34.3015 76.4141H30.75V80.0001H34.3015V76.4141Z" fill="#B9BF6A"/>
<path d="M34.3015 72.8242H30.75V76.414H34.3015V72.8242Z" fill="#C7CC87"/>
<path d="M34.3015 69.2344H30.75V72.8241H34.3015V69.2344Z" fill="#C7CC87"/>
<path d="M34.3015 65.6484H30.75V69.2345H34.3015V65.6484Z" fill="#C7CC87"/>
<path d="M34.3015 62.0586H30.75V65.6483H34.3015V62.0586Z" fill="#C7CC87"/>
<path d="M34.3015 58.4727H30.75V62.0587H34.3015V58.4727Z" fill="#FFF9E6"/>
<path d="M34.3015 54.8828H30.75V58.4726H34.3015V54.8828Z" fill="#FFF9E6"/>
<path d="M34.3015 51.293H30.75V54.8827H34.3015V51.293Z" fill="#FFF9E6"/>
<path d="M34.3015 47.707H30.75V51.2931H34.3015V47.707Z" fill="#D9E0A2"/>
<path d="M34.3015 44.1172H30.75V47.7069H34.3015V44.1172Z" fill="#D9E0A2"/>
<path d="M34.3015 40.5312H30.75V44.1173H34.3015V40.5312Z" fill="#D9E0A2"/>
<path d="M34.3015 36.9414H30.75V40.5312H34.3015V36.9414Z" fill="#D9E0A2"/>
<path d="M34.3015 29.7656H30.75V33.3517H34.3015V29.7656Z" fill="#5D7A3F"/>
<path d="M34.3015 26.1758H30.75V29.7655H34.3015V26.1758Z" fill="#779659"/>
<path d="M34.3015 22.5898H30.75V26.1759H34.3015V22.5898Z" fill="#779659"/>
<path d="M30.7507 76.4141H27.1992V80.0001H30.7507V76.4141Z" fill="#FFF9E6"/>
<path d="M30.7507 72.8242H27.1992V76.414H30.7507V72.8242Z" fill="#C7CC87"/>
<path d="M30.7507 69.2344H27.1992V72.8241H30.7507V69.2344Z" fill="#C7CC87"/>
<path d="M30.7507 65.6484H27.1992V69.2345H30.7507V65.6484Z" fill="#C7CC87"/>
<path d="M30.7507 62.0586H27.1992V65.6483H30.7507V62.0586Z" fill="#C7CC87"/>
<path d="M30.7507 58.4727H27.1992V62.0587H30.7507V58.4727Z" fill="#C7CC87"/>
<path d="M30.7507 54.8828H27.1992V58.4726H30.7507V54.8828Z" fill="#C7CC87"/>
<path d="M30.7507 51.293H27.1992V54.8827H30.7507V51.293Z" fill="#FFF9E6"/>
<path d="M30.7507 47.707H27.1992V51.2931H30.7507V47.707Z" fill="#FFF9E6"/>
<path d="M30.7507 44.1172H27.1992V47.7069H30.7507V44.1172Z" fill="#D9E0A2"/>
<path d="M30.7507 40.5312H27.1992V44.1173H30.7507V40.5312Z" fill="#D9E0A2"/>
<path d="M30.7507 36.9414H27.1992V40.5312H30.7507V36.9414Z" fill="#6D6D30"/>
<path d="M30.7507 33.3516H27.1992V36.9413H30.7507V33.3516Z" fill="#6D6D30"/>
<path d="M30.7507 29.7656H27.1992V33.3517H30.7507V29.7656Z" fill="#5D7A3F"/>
<path d="M30.7507 26.1758H27.1992V29.7655H30.7507V26.1758Z" fill="#779659"/>
<path d="M30.7507 22.5898H27.1992V26.1759H30.7507V22.5898Z" fill="#779659"/>
<path d="M30.7507 19H27.1992V22.5897H30.7507V19Z" fill="#779659"/>
<path d="M27.1982 76.4141H23.6504V80.0001H27.1982V76.4141Z" fill="#C7CC87"/>
<path d="M27.1982 72.8242H23.6504V76.414H27.1982V72.8242Z" fill="#C7CC87"/>
<path d="M27.1982 69.2344H23.6504V72.8241H27.1982V69.2344Z" fill="#BBBC7D"/>
<path d="M27.1982 65.6484H23.6504V69.2345H27.1982V65.6484Z" fill="#BBBC7D"/>
<path d="M27.1982 62.0586H23.6504V65.6483H27.1982V62.0586Z" fill="#C7CC87"/>
<path d="M27.1982 58.4727H23.6504V62.0587H27.1982V58.4727Z" fill="#C7CC87"/>
<path d="M27.1982 54.8828H23.6504V58.4726H27.1982V54.8828Z" fill="#C7CC87"/>
<path d="M27.1982 51.293H23.6504V54.8827H27.1982V51.293Z" fill="#C7CC87"/>
<path d="M27.1982 47.707H23.6504V51.2931H27.1982V47.707Z" fill="#FFF9E6"/>
<path d="M27.1982 44.1172H23.6504V47.7069H27.1982V44.1172Z" fill="#FFF9E6"/>
<path d="M27.1982 40.5312H23.6504V44.1173H27.1982V40.5312Z" fill="#D9E0A2"/>
<path d="M27.1982 36.9414H23.6504V40.5312H27.1982V36.9414Z" fill="#D9E0A2"/>
<path d="M27.1982 29.7656H23.6504V33.3517H27.1982V29.7656Z" fill="#779659"/>
<path d="M27.1982 26.1758H23.6504V29.7655H27.1982V26.1758Z" fill="#779659"/>
<path d="M23.6511 76.4141H20.0996V80.0001H23.6511V76.4141Z" fill="#BBBC7D"/>
<path d="M23.6511 72.8242H20.0996V76.414H23.6511V72.8242Z" fill="#C7CC87"/>
<path d="M23.6511 69.2344H20.0996V72.8241H23.6511V69.2344Z" fill="#BBBC7D"/>
<path d="M23.6511 65.6484H20.0996V69.2345H23.6511V65.6484Z" fill="#C7CC87"/>
<path d="M23.6511 62.0586H20.0996V65.6483H23.6511V62.0586Z" fill="#C7CC87"/>
<path d="M23.6511 58.4727H20.0996V62.0587H23.6511V58.4727Z" fill="#BBBC7D"/>
<path d="M23.6511 54.8828H20.0996V58.4726H23.6511V54.8828Z" fill="#C7CC87"/>
<path d="M23.6511 51.293H20.0996V54.8827H23.6511V51.293Z" fill="#C7CC87"/>
<path d="M23.6511 47.707H20.0996V51.2931H23.6511V47.707Z" fill="#C7CC87"/>
<path d="M23.6511 44.1172H20.0996V47.7069H23.6511V44.1172Z" fill="#FFF9E6"/>
<path d="M23.6511 40.5312H20.0996V44.1173H23.6511V40.5312Z" fill="#D9E0A2"/>
<path d="M23.6511 36.9414H20.0996V40.5312H23.6511V36.9414Z" fill="#D9E0A2"/>
<path d="M20.0986 76.4141H16.5508V80.0001H20.0986V76.4141Z" fill="#C7CC87"/>
<path d="M20.0986 72.8242H16.5508V76.414H20.0986V72.8242Z" fill="#BBBC7D"/>
<path d="M20.0986 69.2344H16.5508V72.8241H20.0986V69.2344Z" fill="#C7CC87"/>
<path d="M20.0986 65.6484H16.5508V69.2345H20.0986V65.6484Z" fill="#BBBC7D"/>
<path d="M20.0986 62.0586H16.5508V65.6483H20.0986V62.0586Z" fill="#C7CC87"/>
<path d="M20.0986 58.4727H16.5508V62.0587H20.0986V58.4727Z" fill="#C7CC87"/>
<path d="M20.0986 54.8828H16.5508V58.4726H20.0986V54.8828Z" fill="#C7CC87"/>
<path d="M20.0986 51.293H16.5508V54.8827H20.0986V51.293Z" fill="#C7CC87"/>
<path d="M16.5515 76.4141H13V80.0001H16.5515V76.4141Z" fill="#C7CC87"/>
<path d="M16.5515 72.8242H13V76.414H16.5515V72.8242Z" fill="#C7CC87"/>
<path d="M16.5515 69.2344H13V72.8241H16.5515V69.2344Z" fill="#C7CC87"/>
<path d="M16.5515 65.6484H13V69.2345H16.5515V65.6484Z" fill="#C7CC87"/>
<path d="M16.5515 62.0586H13V65.6483H16.5515V62.0586Z" fill="#C7CC87"/>
</g>
<rect x="1" y="92" width="94" height="49" fill="#EAF3BF" stroke="#537E29" stroke-width="2"/>
<rect x="4" y="138" width="90" height="2" fill="#C7CC87"/>
<rect x="2" y="93" width="92" height="2" fill="#FBFDF0"/>
<g clip-path="url(#clip1_815:71736)">
<path d="M65.949 119.75V121V122.25V123.5H64.7169H63.486H62.2538H61.0229H59.7908H58.5586V124.749H59.7908H61.0229H62.2538H63.486H64.7169H65.949H67.1812V123.5V122.25V121V119.75H65.949Z" fill="#537E29"/>
<path d="M64.7172 118.5H63.4863V119.75H64.7172V118.5Z" fill="#537E29"/>
<path d="M58.5588 121.001V119.75V118.5V117.25V116V114.75V113.5H59.7909H61.0231V114.75V116V117.25V118.5V119.75V121.001H62.254V119.75V118.5H63.4861V117.25H62.254V116V114.75V113.5V112.25H63.4861H64.717V113.5V114.75V116V117.25V118.5H65.9492V117.25V116V114.75V113.5V112.25V111.001V109.75H64.717V111.001H63.4861H62.254V109.75V108.5V107.25V106H61.0231V107.25V108.5V109.75V111.001V112.25H59.7909H58.5588V111.001V109.75V108.5H57.3279V109.75V111.001V112.25V113.5H56.0957V114.75H57.3279V116V117.25V118.5V119.75V121.001V122.25V123.5H58.5588V122.25V121.001Z" fill="#537E29"/>
<path d="M54.8636 112.25H53.6327V111.001V109.75V108.5V107.25V106H52.4006V107.25V108.5V109.75V111.001V112.25H51.1697H49.9375V113.5H51.1697H52.4006V114.75V116V117.25V118.5V119.75V121.001H53.6327H54.8636H56.0958V119.75H54.8636H53.6327V118.5V117.25V116V114.75V113.5H54.8636H56.0958V112.25H54.8636Z" fill="#537E29"/>
<path d="M49.9372 121.001H48.7051V122.25H49.9372V123.501H51.1694V122.25H52.4003V121.001H51.1694H49.9372Z" fill="#537E29"/>
<path d="M43.7795 114.749H42.5473H41.3164H40.0842H38.8533H37.6212H36.389H35.1581H33.926H32.6951H31.4629V116V117.25V118.499V119.75V121H32.6951H33.926H35.1581V122.249V123.5V124.749V126H36.389V124.749H37.6212V123.5H36.389V122.249V121H37.6212H38.8533H40.0842V122.249H41.3164V121H42.5473H43.7795H45.0116H46.2425V119.75H45.0116H43.7795H42.5473H41.3164H40.0842H38.8533H37.6212H36.389H35.1581H33.926H32.6951V118.499V117.25V116H33.926H35.1581H36.389H37.6212H38.8533H40.0842H41.3164H42.5473H43.7795H45.0116H46.2425V114.749H45.0116H43.7795Z" fill="#537E29"/>
<path d="M43.779 124.749V126H45.0112V124.749H46.2421V123.5H45.0112H43.779H42.5469V124.749H43.779Z" fill="#537E29"/>
<path d="M42.5471 117.251H41.3162H40.0841H38.8532H37.621H36.3888H35.1579H33.9258V118.5H35.1579H36.3888H37.621H38.8532H40.0841H41.3162H42.5471H43.7793H45.0114V117.251H43.7793H42.5471Z" fill="#537E29"/>
<path d="M42.5473 122.25H41.3164V123.5H42.5473V122.25Z" fill="#537E29"/>
<path d="M38.8533 122.25H37.6211V123.5H38.8533V122.25Z" fill="#537E29"/>
<path d="M35.1584 113.5H45.0119V107.25H41.3166V106H40.0845V107.25H37.6214V106H36.3893V107.25H32.6953V113.5H35.1584ZM38.8536 112.25H37.6214V110.997H40.0845V112.246L38.8536 112.25ZM43.7772 112.25H41.3166V110.997H43.7797L43.7772 112.25ZM42.545 108.5H43.7772V109.75H41.3166V108.5H42.545ZM38.8511 108.5H40.0845V109.75H37.6214V108.5H38.8511ZM33.9275 108.5H36.3893V109.75H33.9237L33.9275 108.5ZM33.9237 110.997H36.3893V112.246H33.9237V110.997Z" fill="#537E29"/>
<path d="M30.2305 122.25V123.501H31.4626V122.25V121.001H30.2305V122.25Z" fill="#537E29"/>
<path d="M30.2309 123.5H29V124.749H30.2309V123.5Z" fill="#537E29"/>
</g>
<rect x="2" y="93" width="2" height="47" fill="#FBFDF0"/>
<rect x="92" y="95" width="2" height="45" fill="#C7CC87"/>
<defs>
<clipPath id="clip0_815:71736">
<rect width="71" height="61" fill="white" transform="translate(13 19)"/>
</clipPath>
<clipPath id="clip1_815:71736">
<rect width="38.1818" height="20" fill="white" transform="translate(29 106)"/>
</clipPath>
</defs>
</svg>
