<svg width="96" height="142" viewBox="0 0 96 142" fill="none" xmlns="http://www.w3.org/2000/svg">
<path d="M74.3483 62.0459H70.7969V65.6345V69.2267H74.3483H77.8998V65.6345V62.0459H74.3483Z" fill="#D9E0A2"/>
<path d="M53.0478 62.0459H49.5V65.6345V69.2267H53.0478H56.5993H60.1507V65.6345V62.0459H56.5993H53.0478Z" fill="#D9E0A2"/>
<path d="M35.2978 62.0459H31.75V65.6345V69.2267H35.2978H38.8493H42.4007V65.6345V62.0459H38.8493H35.2978Z" fill="#D9E0A2"/>
<path d="M67.2503 11.7734H63.6989V15.3657H60.1511H56.5996V18.9579H60.1511V22.5465H63.6989V18.9579H67.2503H70.7981V15.3657V11.7734H67.2503Z" fill="#79A9BA"/>
<path d="M49.5 22.5459V26.1381H53.0478H56.5993V22.5459H53.0478H49.5Z" fill="#79A9BA"/>
<path d="M35.2978 26.1387H31.75V29.7272V33.3195H35.2978H38.8493V29.7272H42.4007V26.1387H38.8493H35.2978Z" fill="#79A9BA"/>
<path d="M21.0996 29.7266V33.3188H24.6474H28.1989V29.7266H24.6474H21.0996Z" fill="#79A9BA"/>
<path d="M81.4476 58.4537V47.6806H77.8998V22.5459H74.3483V26.1381H70.7969V47.6806H67.2491V58.4537H63.6976V47.6806H56.5983V51.2728H53.0469V54.8651H49.4991V58.4537H42.3998V47.6806H35.2969V51.2728H31.7491V54.8651H28.1903V58.4537H24.6461V76.4075H17.5469V79.9998H84.9991V58.4537H81.4476ZM77.8998 65.6345V69.2267H70.7969V62.0459H77.8998V65.6345ZM53.0469 62.0459H60.1498V69.2267H49.4991V62.0459H53.0469ZM42.3998 65.6345V69.2267H31.7491V62.0459H42.3998V65.6345Z" fill="#107393"/>
<path d="M77.9011 18.958H74.3496V22.5466H77.9011V18.958Z" fill="#A9CBDA"/>
<path d="M63.6976 4.59225H60.1498H56.5983V8.1845H53.0469V4.59225H49.4991V1H45.9476H42.3998V4.59225H38.8483V8.1845H35.2969V11.7731H38.8483V15.3653H42.3998H45.9476V18.9576V22.5461H49.4991H53.0469H56.5983H60.1498V18.9576H56.5983V15.3653H60.1498H63.6976V11.7731H67.2491V8.1845H63.6976V4.59225Z" fill="#A9CBDA"/>
<path d="M31.75 15.3652H28.1985V18.9575H24.6471V22.5461H21.0993V18.9575H17.5478H14V22.5461V26.1383H17.5478V29.7269H21.0993H24.6471H28.1985H31.75V26.1383H35.2978H38.8493H42.4007V22.5461H38.8493V18.9575V15.3652H35.2978H31.75Z" fill="#A9CBDA"/>
<rect x="1" y="92" width="94" height="49" fill="#CCE9E9" stroke="#2B4754" stroke-width="2"/>
<rect x="4" y="138" width="90" height="2" fill="#82BDD1"/>
<rect x="2" y="93" width="92" height="2" fill="#EFFFFC"/>
<path d="M65.8258 111H64.5554H63.2863H62.016H60.7456V109.751H59.4766V111V112.251H60.7456V113.5V114.75V116.001H62.016V114.75V113.5V112.251H63.2863V113.5V114.75V116.001V117.25V118.5H64.5554V117.25V116.001V114.75V113.5V112.251H65.8258V113.5V114.75V116.001V117.25V118.5V119.751V121V122.251V123.5H67.0948V122.251V121V119.751V118.5V117.25V116.001V114.75V113.5V112.251V111H65.8258Z" fill="#2B4754"/>
<path d="M65.827 123.499H64.5566V124.75H65.827V123.499Z" fill="#2B4754"/>
<path d="M64.5562 124.75H63.2871V126H64.5562V124.75Z" fill="#2B4754"/>
<path d="M63.286 123.499H62.0156V124.75H63.286V123.499Z" fill="#2B4754"/>
<path d="M63.286 119.75V118.5H62.0156V119.75V121H63.286V119.75Z" fill="#2B4754"/>
<path d="M62.0165 120.999H60.7461V122.25V123.499H62.0165V122.25V120.999Z" fill="#2B4754"/>
<path d="M62.0165 108.5V107.249V106H60.7461V107.249V108.5V109.75H62.0165V108.5Z" fill="#2B4754"/>
<path d="M60.7456 123.499H59.4766V124.75H60.7456V123.499Z" fill="#2B4754"/>
<path d="M59.4766 117.249V118.5H60.7456V117.249V116H59.4766V117.249Z" fill="#2B4754"/>
<path d="M59.4774 124.75H58.207V126H59.4774V124.75Z" fill="#2B4754"/>
<path d="M58.207 119.75V121H59.4774V119.75V118.5H58.207V119.75Z" fill="#2B4754"/>
<path d="M59.4774 112.25H58.207V113.499H59.4774V112.25Z" fill="#2B4754"/>
<path d="M58.2065 120.999H56.9375V122.25H58.2065V120.999Z" fill="#2B4754"/>
<path d="M58.2065 113.499H56.9375V114.75H58.2065V113.499Z" fill="#2B4754"/>
<path d="M56.9379 110.999H55.6676V109.75V108.5V107.249V106H54.3972V107.249V108.5V109.75V110.999H53.1281H51.8578V109.75V108.5H50.5874V109.75V110.999V112.25V113.499H51.8578V112.25H53.1281H54.3972V113.499V114.75V116V117.249H53.1281H51.8578H50.5874H49.3184V118.5H50.5874V119.75H51.8578V118.5H53.1281H54.3972V119.75V120.999V122.25V123.499V124.75V126H55.6676V124.75V123.499V122.25V120.999V119.75V118.5V117.249H56.9379H58.207V116H56.9379H55.6676V114.75V113.499V112.25H56.9379H58.207V110.999H56.9379Z" fill="#2B4754"/>
<path d="M50.5874 113.499H49.3184V114.75H50.5874V113.499Z" fill="#2B4754"/>
<path d="M45.5081 110.997V108.5H41.6983V106H40.4293V108.5H36.6195V109.75H40.4293V110.997H35.353V112.247H40.4293V113.496H36.6195V114.747H40.4293V115.997H36.6195V117.249H40.4293V119.75H35.353V120.999H40.4293V123.499H34.0762V124.75H48.0475V123.499H41.6983V120.999H46.7746V119.75H41.6983V117.249H45.5081V116H41.6983V114.75H45.5081V112.25H48.0475V110.997H45.5081ZM41.6983 109.75H44.2378V110.997H41.6983V109.75ZM44.2378 113.499H41.6983V112.25H44.2378V113.499Z" fill="#2B4754"/>
<path d="M35.3503 116V114.75V113.499H34.0813H32.8109V112.25H31.5405V113.499H30.2715V114.75H31.5405H32.8109H34.0813V116V117.249H35.3503V116Z" fill="#2B4754"/>
<path d="M35.3492 109.75V108.5H34.0801H32.8098H31.5394H30.2704H29V109.75H30.2704H31.5394H32.8098H34.0801V111H35.3492V109.75Z" fill="#2B4754"/>
<path d="M34.0809 122.25H32.8105V123.499H34.0809V122.25Z" fill="#2B4754"/>
<path d="M34.0809 118.499V117.249H32.8105V118.499V119.75H34.0809V118.499Z" fill="#2B4754"/>
<path d="M34.0809 111H32.8105V112.25H34.0809V111Z" fill="#2B4754"/>
<path d="M32.8094 119.75H31.5391V120.999V122.25H32.8094V120.999V119.75Z" fill="#2B4754"/>
<path d="M30.2715 123.499V124.75H31.5405V123.499V122.25H30.2715V123.499Z" fill="#2B4754"/>
<path d="M31.5405 117.249H30.2715V118.499V119.75H31.5405V118.499V117.249Z" fill="#2B4754"/>
<path d="M30.2704 124.75H29V126H30.2704V124.75Z" fill="#2B4754"/>
<rect x="2" y="93" width="2" height="47" fill="#EFFFFC"/>
<rect x="92" y="95" width="2" height="45" fill="#82BDD1"/>
</svg>
