<svg width="92" height="38" viewBox="0 0 92 38" fill="none" xmlns="http://www.w3.org/2000/svg">
<rect y="36" width="90" height="2" fill="black"/>
<rect x="0.5" y="0.5" width="89" height="35" fill="#9E3F00" stroke="white"/>
<path fill-rule="evenodd" clip-rule="evenodd" d="M70.5987 11H72.6996V13.1313H70.5987V11ZM72.6997 13.1316H74.8006V15.2607L76.8991 15.2607V17.392H79V19.5233H76.8991V21.6525H74.8006V23.7835H72.6997V21.6522H74.8004V19.5233H72.6996H70.5987H68.5H66.3991H64.3004H62.1996H60.0987H58V17.392H60.0987H62.1996H64.3004H66.3991H68.5H70.5987H72.6996H74.8004V15.2607L72.6997 15.2607V13.1316ZM72.6996 23.7838H70.5987V25.9151H72.6996V23.7838Z" fill="white"/>
<rect x="90" width="2" height="38" fill="black"/>
<path fill-rule="evenodd" clip-rule="evenodd" d="M19.9451 9V10.125V11.2512H18.9594V10.125V9H19.9451ZM48.7124 10.125H47.7258H46.7401H45.7535V9H44.7678V10.125H43.7811H42.7945H41.8088H40.8222V11.2512H41.8088H42.7945H43.7811H44.7678V12.3762H43.7811H42.7945H41.8088V13.5023H42.7945H43.7811H44.7678H45.7535H46.7401H47.7258H48.7124V12.3762H47.7258H46.7401H45.7535V11.2512H46.7401H47.7258H48.7124H49.6991V10.125H48.7124ZM48.7124 25.8855H47.7258V27.0105H48.7124V25.8855ZM40.8222 14.6286H47.7258H49.6991V18.0002H48.7124V24.7548H47.7258V25.881H46.7401V24.7548H43.7811V25.881H42.7945V24.7548H41.8088V18.0002H40.8222V14.6286ZM45.7535 16.8798V15.7536H44.7678V16.8798H45.7535ZM43.7811 15.7536H41.8109L41.8088 16.8798H43.7811V15.7536ZM42.7945 23.6344H47.7278L47.7258 22.5083H42.7945V23.6344ZM42.7945 21.3821H47.7278L47.7258 20.2571H42.7945V21.3821ZM42.7945 19.131H47.7278L47.7258 18.0002H42.7945V19.131ZM46.7401 16.8798H48.7144L48.7124 15.7536H46.7401V16.8798ZM42.7941 25.8855H41.8084V27.0105H42.7941V25.8855ZM39.8355 24.7594V23.6344V22.5082H40.8222V23.6344V24.7594V25.8855H39.8355V24.7594ZM39.8355 18.0046H38.8499V19.1307H37.8632H36.8776V18.0046H35.8909V19.1307H34.9042V20.2569H35.8909V21.3819H36.8776V20.2569H37.8632H38.8499H39.8355V21.3819H40.8222V20.2569V19.1307H39.8355V18.0046ZM39.8355 12.3764V13.5025V14.6287H38.8499V13.5025V12.3764H39.8355ZM37.8636 23.6344V24.7594V25.8855H38.8503V24.7594V23.6344V22.5082H37.8636V23.6344ZM38.8499 14.6284V15.7534V16.8796L37.8636 16.8796V18.0046H36.878V16.8796L37.8632 16.8796V15.7534H36.8776H35.8909H34.9042V14.6284H35.8909V13.5023H36.8776V14.6284H37.8632H38.8499ZM38.8503 10.125V9H37.8636V10.125V11.2512H38.8503V10.125ZM37.8636 12.3764V11.2514H36.878V12.3764V13.5025H37.8636V12.3764ZM35.8914 24.7594V23.6344V22.5082H36.878V23.6344V24.7594H35.8914ZM35.8909 24.7592H34.9042V25.8853H35.8909V24.7592ZM28.8219 12.3762H29.8076V11.2512H30.7942V12.3762V13.5023H29.8076V14.6285H30.7942V15.7535V16.8796V18.0046H29.8076V19.1308H28.8219V18.0046H27.8353H26.8486H25.863V19.1308H24.8763V18.0046H23.8907H22.904V19.1308V20.2569V21.3819V22.5081V23.6342V24.7592V25.8854H23.8907H24.8763H25.863V24.7592H24.8763H23.8907V23.6342V22.5081H24.8759V21.3821H23.8902V20.2571V19.1309H24.8759V20.2571H25.8625V21.3821V22.5083H24.8763V23.6342H25.863V22.5081H26.8486V23.6342V24.7592V25.8854H27.8353H28.8219H29.8076V24.7592H28.8219H27.8353V23.6342V22.5081H28.8211V21.3821H27.8344V20.2571V19.1309H28.8211V20.2571H29.8067H30.7934V21.3821H29.8067V22.5083H28.8219V23.6342H29.8076V22.5081H30.7942V23.6342V24.7592V25.8854V27.0104H29.8076H28.8219H27.8353H26.8486H25.863H24.8763H23.8907H22.904H21.9173V25.8854V24.7592V23.6342V22.5081V21.3819V20.2569V19.1308V18.0046V16.8796V15.7535V14.6285V13.5023V12.3762V11.2512V10.125H22.904V11.2512V12.3762V13.5023V14.6285V15.7535V16.8796H23.8907H24.8763H25.863V15.7535H24.8763H23.8907V14.6285V13.5023H24.8759V12.3762H23.8902V11.2512V10.125H24.8759V11.2512H25.8625H26.8482V12.3762H25.8625V13.5023H24.8763V14.6285H25.863V13.5023H26.8486V14.6285V15.7535V16.8796H27.8353H28.8219H29.8076V15.7535H28.8219H27.8353V14.6285H28.8219V13.5023H27.8353V12.3762V11.2512H28.8215V10.125V9H29.8072V10.125V11.2512H28.8219V12.3762ZM25.8625 10.125H24.8759V9H25.8625V10.125ZM19.9451 24.7594V23.6344V22.5082H20.9317V23.6344V24.7594V25.8855H19.9451V24.7594ZM19.9451 13.5025V14.6287H20.9317V13.5025V12.3764H19.9451V13.5025ZM17.9723 23.6344V24.7594V25.8855H18.9589V24.7594V23.6344V22.5082H17.9723V23.6344ZM17.9723 16.8796H18.9589V18.0046H17.9723V19.1307H18.959H19.9446V18.0046H20.9313V19.1307V20.2569V21.3819H19.9446V20.2569H18.959H17.9723V21.3819H16.9856V20.2569H16V19.1307H16.9856V18.0046H17.9723V16.8796ZM17.9723 13.5025V14.6284H18.959H19.9446V15.7534V16.8796H18.959V15.7534H17.9723H16.9856H16V14.6284H16.9856V13.5023H17.9723V12.3764V11.2514H18.9589V12.3764V13.5025H17.9723ZM16 24.7594V23.6344V22.5082H16.9856V23.6344V24.7594V25.8855H16V24.7594Z" fill="white"/>
</svg>
