<svg width="92" height="38" viewBox="0 0 92 38" fill="none" xmlns="http://www.w3.org/2000/svg">
<rect y="36" width="90" height="2" fill="black"/>
<rect x="0.5" y="0.5" width="89" height="35" fill="#9E3F00" stroke="white"/>
<path d="M76.8991 17.3921V15.2607H74.8004V17.3921H72.6996H70.5987H68.5H66.3991H64.3004H62.1996H60.0987H58V19.5234H60.0987H62.1996H64.3004H66.3991H68.5H70.5987H72.6996H74.8004V21.6525H76.8991V19.5234H79V17.3921H76.8991Z" fill="white"/>
<path d="M74.8011 21.6523H72.7002V23.7837H74.8011V21.6523Z" fill="white"/>
<path d="M74.8011 13.1318H72.7002V15.261H74.8011V13.1318Z" fill="white"/>
<path d="M72.6995 23.7842H70.5986V25.9155H72.6995V23.7842Z" fill="white"/>
<path d="M72.6995 11H70.5986V13.1313H72.6995V11Z" fill="white"/>
<rect x="90" width="2" height="38" fill="black"/>
<g clip-path="url(#clip0)">
<path d="M48.7125 10.125H47.7259H46.7402H45.7535V9H44.7679V10.125H43.7812H42.7946H41.8089H40.8223V11.2512H41.8089H42.7946H43.7812H44.7679V12.3762H43.7812H42.7946H41.8089V13.5023H42.7946H43.7812H44.7679H45.7535H46.7402H47.7259H48.7125V12.3762H47.7259H46.7402H45.7535V11.2512H46.7402H47.7259H48.7125H49.6992V10.125H48.7125Z" fill="white"/>
<path d="M48.7122 25.8857H47.7256V27.0107H48.7122V25.8857Z" fill="white"/>
<path d="M47.7259 14.6279H40.8223V17.9995H41.8089V24.7541H42.7946V25.8802H43.7812V24.7541H46.7402V25.8802H47.7259V24.7541H48.7125V17.9995H49.6992V14.6279H47.7259ZM45.7535 15.7529V16.8791H44.7679V15.7529H45.7535ZM41.8109 15.7529H43.7812V16.8791H41.8089L41.8109 15.7529ZM47.7279 23.6337H42.7946V22.5075H47.7259L47.7279 23.6337ZM47.7279 21.3814H42.7946V20.2564H47.7259L47.7279 21.3814ZM47.7279 19.1302H42.7946V17.9995H47.7259L47.7279 19.1302ZM48.7145 16.8791H46.7402V15.7529H48.7125L48.7145 16.8791Z" fill="white"/>
<path d="M42.7942 25.8857H41.8086V27.0107H42.7942V25.8857Z" fill="white"/>
<path d="M39.8359 23.634V24.759V25.8851H40.8226V24.759V23.634V22.5078H39.8359V23.634Z" fill="white"/>
<path d="M39.8356 18.0049H38.8499V19.131H37.8633H36.8776V18.0049H35.891V19.131H34.9043V20.2572H35.891V21.3822H36.8776V20.2572H37.8633H38.8499H39.8356V21.3822H40.8222V20.2572V19.131H39.8356V18.0049Z" fill="white"/>
<path d="M39.8352 13.5021V12.376H38.8496V13.5021V14.6283H39.8352V13.5021Z" fill="white"/>
<path d="M37.8633 23.634V24.759V25.8851H38.8499V24.759V23.634V22.5078H37.8633V23.634Z" fill="white"/>
<path d="M38.8499 15.7541V14.6291H37.8633H36.8776V13.5029H35.891V14.6291H34.9043V15.7541H35.891H36.8776H37.8633V16.8802H38.8499V15.7541Z" fill="white"/>
<path d="M38.8499 10.125V9H37.8633V10.125V11.2512H38.8499V10.125Z" fill="white"/>
<path d="M37.8636 16.8799H36.8779V18.0049H37.8636V16.8799Z" fill="white"/>
<path d="M37.8636 12.376V11.251H36.8779V12.376V13.5021H37.8636V12.376Z" fill="white"/>
<path d="M35.8916 23.634V24.759H36.8783V23.634V22.5078H35.8916V23.634Z" fill="white"/>
<path d="M35.891 24.7588H34.9043V25.8849H35.891V24.7588Z" fill="white"/>
<path d="M29.8072 12.3762H28.8216V11.2512H27.8349V12.3762V13.5023H28.8216V14.6285H27.8349V15.7535H28.8216H29.8072V16.8796H28.8216H27.8349H26.8483V15.7535V14.6285V13.5023H25.8626V14.6285H24.876V13.5023H23.8903V14.6285V15.7535H24.876H25.8626V16.8796H24.876H23.8903H22.9037V15.7535V14.6285V13.5023V12.3762V11.2512V10.125H21.917V11.2512V12.3762V13.5023V14.6285V15.7535V16.8796V18.0046V19.1308V20.2569V21.3819V22.5081V23.6342V24.7592V25.8854V27.0104H22.9037H23.8903H24.876H25.8626H26.8483H27.8349H28.8216H29.8072H30.7939V25.8854V24.7592V23.6342V22.5081H29.8072V23.6342H28.8216V22.5081H27.8349V23.6342V24.7592H28.8216H29.8072V25.8854H28.8216H27.8349H26.8483V24.7592V23.6342V22.5081H25.8626V23.6342H24.876V22.5081H23.8903V23.6342V24.7592H24.876H25.8626V25.8854H24.876H23.8903H22.9037V24.7592V23.6342V22.5081V21.3819V20.2569V19.1308V18.0046H23.8903H24.876V19.1308H25.8626V18.0046H26.8483H27.8349H28.8216V19.1308H29.8072V18.0046H30.7939V16.8796V15.7535V14.6285H29.8072V13.5023H30.7939V12.3762V11.2512H29.8072V12.3762Z" fill="white"/>
<path d="M29.8069 10.125V9H28.8213V10.125V11.2512H29.8069V10.125Z" fill="white"/>
<path d="M27.834 20.257V21.382H28.8206V22.5082H29.8063V21.382H30.7929V20.257H29.8063H28.8206V19.1309H27.834V20.257Z" fill="white"/>
<path d="M25.8629 20.257H24.8763V19.1309H23.8906V20.257V21.382H24.8763V22.5082H25.8629V21.382V20.257Z" fill="white"/>
<path d="M25.8629 12.3762H26.8486V11.2512H25.8629H24.8763V10.125H23.8906V11.2512V12.3762H24.8763V13.5023H25.8629V12.3762Z" fill="white"/>
<path d="M25.8626 9H24.876V10.125H25.8626V9Z" fill="white"/>
<path d="M19.9453 23.634V24.759V25.8851H20.932V24.759V23.634V22.5078H19.9453V23.634Z" fill="white"/>
<path d="M19.9453 13.5021V14.6283H20.932V13.5021V12.376H19.9453V13.5021Z" fill="white"/>
<path d="M19.9446 10.125V9H18.959V10.125V11.2512H19.9446V10.125Z" fill="white"/>
<path d="M17.9727 23.634V24.759V25.8851H18.9593V24.759V23.634V22.5078H17.9727V23.634Z" fill="white"/>
<path d="M18.9593 16.8799H17.9727V18.0049H18.9593V16.8799Z" fill="white"/>
<path d="M17.9723 14.6291V13.5029H16.9856V14.6291H16V15.7541H16.9856H17.9723H18.959V16.8802H19.9446V15.7541V14.6291H18.959H17.9723Z" fill="white"/>
<path d="M18.9593 12.376V11.251H17.9727V12.376V13.5021H18.9593V12.376Z" fill="white"/>
<path d="M16.9856 19.131H16V20.2572H16.9856V21.3822H17.9723V20.2572H18.959H19.9446V21.3822H20.9313V20.2572V19.131V18.0049H19.9446V19.131H18.959H17.9723V18.0049H16.9856V19.131Z" fill="white"/>
<path d="M16 23.634V24.759V25.8851H16.9856V24.759V23.634V22.5078H16V23.634Z" fill="white"/>
</g>
<defs>
<clipPath id="clip0">
<rect width="34.8768" height="18" fill="white" transform="translate(16 9)"/>
</clipPath>
</defs>
</svg>
