<svg width="113" height="35" viewBox="0 0 113 35" fill="none" xmlns="http://www.w3.org/2000/svg">
<g clip-path="url(#clip0_1502_76869)">
<path fill-rule="evenodd" clip-rule="evenodd" d="M20.0053 8.01757H15.9877H12.0111H8.03534V12.0349H4.01777V8.01736H7.99356V4H12.0111H15.9877H20.0053V8.01757ZM24.0236 8.01736H20.0061V12.0349H23.9819V16.0117V19.9883V24.0056H20.0061V28.0232H24.0236V24.0059H27.9994V19.9883V16.0117V11.9941H24.0236V8.01736ZM4.01757 11.9941V16.0117V19.9883V24.0059H0V19.9883V16.0117V11.9941H4.01757ZM8.03534 24.0056H4.01777V28.0232H7.99356V32H12.0111H15.9877H20.0053V27.9824H15.9877H12.0111H8.03534V24.0056Z" fill="#C4DE50"/>
</g>
<path d="M57.088 11.656L55.672 12.784C56.512 13.552 57.496 14.68 57.976 15.424L59.584 14.08C59.104 13.384 58.144 12.376 57.328 11.656H62.752V9.688H55.84C56.032 9.232 56.2 8.776 56.344 8.32L54.088 7.744C53.56 9.496 52.528 11.2 51.304 12.328C51.784 12.712 52.648 13.528 53.032 13.984C53.656 13.36 54.256 12.544 54.808 11.656H57.088ZM51.904 11.656V9.688H46.216C46.432 9.232 46.648 8.824 46.792 8.368L44.608 7.72C43.84 9.76 42.472 11.752 40.984 13.048C41.44 13.48 42.16 14.512 42.472 14.944C43.384 14.08 44.32 12.928 45.112 11.656H51.904ZM45.472 12.904C46.288 13.696 47.272 14.824 47.704 15.568L49.336 14.2C48.856 13.456 47.872 12.424 47.032 11.68L45.472 12.904ZM56.824 24.208V27.088H47.2V24.208H56.824ZM45.064 29.896H47.2V29.032H56.824V29.8H59.032V22.288H45.064V29.896ZM48.784 18.784C49.936 18.04 50.992 17.176 51.928 16.288C52.936 17.08 54.256 17.968 55.72 18.784H48.784ZM51.616 13.432C49.576 16.24 45.496 18.64 40.96 20.104C41.416 20.488 42.088 21.4 42.376 21.904C44.08 21.304 45.688 20.56 47.2 19.72V20.632H56.92V19.432C58.48 20.272 60.16 21.04 61.768 21.568C62.104 20.992 62.824 20.056 63.304 19.624C59.68 18.592 55.48 16.6 53.152 14.92C53.344 14.728 53.488 14.536 53.656 14.32L51.616 13.432ZM69.588 18.16L71.004 17.344C70.716 16.624 69.972 15.616 69.3 14.824H74.004C73.668 15.808 73.02 17.2 72.492 18.16H69.588ZM87.3 14.104H85.212V7.912H83.052V14.104H77.628V12.976H74.244V12.112L75.132 12.64C75.924 11.896 76.908 10.744 77.82 9.688L76.044 8.704C75.612 9.448 74.892 10.456 74.244 11.248V7.888H72.444V12.976H70.932V7.888H69.156V11.08C68.7 10.288 67.98 9.352 67.284 8.656L65.916 9.568C66.732 10.456 67.62 11.752 67.98 12.592L69.156 11.8V12.976H65.7V14.824H68.964L67.62 15.544C68.292 16.312 69.012 17.392 69.324 18.16H66.444V20.008H70.668V22.072H66.972V23.896H70.668V26.272C68.772 26.512 67.02 26.704 65.628 26.848L65.94 28.936C69.012 28.528 73.452 28 77.628 27.424L77.58 25.456C75.972 25.672 74.34 25.864 72.732 26.032V23.896H76.5V22.072H72.732V20.008H76.932V18.16H74.508C74.964 17.344 75.468 16.408 75.948 15.496L74.076 14.824H77.604V16.192H83.052V27.256C83.052 27.664 82.908 27.784 82.5 27.808C82.116 27.808 80.868 27.832 79.524 27.784C79.836 28.336 80.172 29.32 80.292 29.896C82.212 29.896 83.388 29.824 84.156 29.464C84.924 29.104 85.212 28.504 85.212 27.256V16.192H87.3V14.104ZM82.02 23.2C81.804 21.76 80.916 19.552 79.932 17.848L78.084 18.496C78.996 20.224 79.836 22.504 80.004 23.896L82.02 23.2ZM100.016 22.048H101.984L102.536 13.216L102.608 10.048H99.392L99.464 13.216L100.016 22.048ZM101 28.168C102.008 28.168 102.8 27.424 102.8 26.344C102.8 25.264 102.008 24.52 101 24.52C99.992 24.52 99.2 25.264 99.2 26.344C99.2 27.424 99.992 28.168 101 28.168Z" fill="#C4DE50"/>
<defs>
<clipPath id="clip0_1502_76869">
<rect width="28" height="28" fill="white" transform="translate(0 4)"/>
</clipPath>
</defs>
</svg>
