<svg width="28" height="28" viewBox="0 0 28 28" fill="none" xmlns="http://www.w3.org/2000/svg">
<rect x="12" y="20" width="4" height="4" transform="rotate(-180 12 20)" fill="#65431D"/>
<rect x="4" y="20" width="4" height="4" transform="rotate(-180 4 20)" fill="#65431D"/>
<rect x="28" y="20" width="4" height="4" transform="rotate(-180 28 20)" fill="#65431D"/>
<rect x="12" y="12" width="4" height="4" transform="rotate(-180 12 12)" fill="#65431D"/>
<rect x="4" y="12" width="4" height="4" transform="rotate(-180 4 12)" fill="#65431D"/>
<rect x="28" y="12" width="4" height="4" transform="rotate(-180 28 12)" fill="#65431D"/>
<rect x="20" y="12" width="4" height="4" transform="rotate(-180 20 12)" fill="#65431D"/>
<rect x="16" y="4" width="4" height="4" transform="rotate(-180 16 4)" fill="#65431D"/>
<rect x="16" y="28" width="4" height="4" transform="rotate(-180 16 28)" fill="#65431D"/>
<rect x="20" y="20" width="4" height="4" transform="rotate(-180 20 20)" fill="#65431D"/>
<rect x="16" y="16" width="4" height="4" transform="rotate(-180 16 16)" fill="#65431D"/>
</svg>
