<svg width="100" height="102" viewBox="0 0 100 102" fill="none" xmlns="http://www.w3.org/2000/svg">
<rect x="14" y="75" width="73" height="11" fill="#3A2C1E"/>
<rect x="21" y="63" width="70" height="12" fill="#3A2C1E"/>
<rect y="90" width="100" height="4" fill="#3A2C1E"/>
<rect x="4" y="86" width="96" height="4" fill="#3A2C1E"/>
<rect x="4" y="94" width="92" height="4" fill="#3A2C1E"/>
<rect x="44" y="51" width="44" height="4" fill="#3A2C1E"/>
<rect x="66" y="47" width="18" height="4" fill="#3A2C1E"/>
<rect x="70" y="43" width="13" height="4" fill="#3A2C1E"/>
<rect x="73" y="40" width="9" height="4" fill="#3A2C1E"/>
<rect x="10" y="98" width="80" height="4" fill="#3A2C1E"/>
<rect x="42" y="55" width="46" height="4" fill="#3A2C1E"/>
<rect x="29" y="59" width="55" height="4" fill="#3A2C1E"/>
<g clip-path="url(#clip0_784:110090)">
<path d="M96.0001 87.8164H91.8984V91.9998H96.0001V87.8164Z" fill="#006788"/>
<path d="M96.0001 83.6377H91.8984V87.8168H96.0001V83.6377Z" fill="#006788"/>
<path d="M96.0001 79.4541H91.8984V83.6375H96.0001V79.4541Z" fill="#006788"/>
<path d="M96.0001 75.2705H91.8984V79.4539H96.0001V75.2705Z" fill="#006788"/>
<path d="M96.0001 71.0918H91.8984V75.2709H96.0001V71.0918Z" fill="#006788"/>
<path d="M96.0001 66.9082H91.8984V71.0916H96.0001V66.9082Z" fill="#006788"/>
<path d="M91.8983 87.8164H87.8008V91.9998H91.8983V87.8164Z" fill="#006788"/>
<path d="M91.8983 83.6377H87.8008V87.8168H91.8983V83.6377Z" fill="#006788"/>
<path d="M91.8983 79.4541H87.8008V83.6375H91.8983V79.4541Z" fill="#006788"/>
<path d="M91.8983 75.2705H87.8008V79.4539H91.8983V75.2705Z" fill="#006788"/>
<path d="M91.8983 71.0918H87.8008V75.2709H91.8983V71.0918Z" fill="#006788"/>
<path d="M91.8983 66.9082H87.8008V71.0916H91.8983V66.9082Z" fill="#006788"/>
<path d="M91.8983 62.7295H87.8008V66.9086H91.8983V62.7295Z" fill="#006788"/>
<path d="M91.8983 58.5459H87.8008V62.7293H91.8983V58.5459Z" fill="#006788"/>
<path d="M91.8983 54.3623H87.8008V58.5457H91.8983V54.3623Z" fill="#006788"/>
<path d="M87.8009 87.8164H83.6992V91.9998H87.8009V87.8164Z" fill="#006788"/>
<path d="M87.8009 83.6377H83.6992V87.8168H87.8009V83.6377Z" fill="#006788"/>
<path d="M87.8009 79.4541H83.6992V83.6375H87.8009V79.4541Z" fill="#006788"/>
<path d="M87.8009 75.2705H83.6992V79.4539H87.8009V75.2705Z" fill="#C7CC87"/>
<path d="M87.8009 71.0918H83.6992V75.2709H87.8009V71.0918Z" fill="#C7CC87"/>
<path d="M87.8009 66.9082H83.6992V71.0916H87.8009V66.9082Z" fill="#006788"/>
<path d="M87.8009 62.7295H83.6992V66.9086H87.8009V62.7295Z" fill="#006788"/>
<path d="M87.8009 58.5459H83.6992V62.7293H87.8009V58.5459Z" fill="#006788"/>
<path d="M87.8009 54.3623H83.6992V58.5457H87.8009V54.3623Z" fill="#006788"/>
<path d="M87.8009 50.1836H83.6992V54.3627H87.8009V50.1836Z" fill="#006788"/>
<path d="M87.8009 46H83.6992V50.1834H87.8009V46Z" fill="#006788"/>
<path d="M87.8009 41.8213H83.6992V46.0004H87.8009V41.8213Z" fill="#006788"/>
<path d="M87.8009 37.6377H83.6992V41.8211H87.8009V37.6377Z" fill="#006788"/>
<path d="M87.8009 33.4541H83.6992V37.6375H87.8009V33.4541Z" fill="#006788"/>
<path d="M87.8009 29.2754H83.6992V33.4545H87.8009V29.2754Z" fill="#006788"/>
<path d="M87.8009 25.0918H83.6992V29.2752H87.8009V25.0918Z" fill="#006788"/>
<path d="M87.8009 20.9121H83.6992V25.0912H87.8009V20.9121Z" fill="#CCE9E9"/>
<path d="M83.6993 87.8164H79.5977V91.9998H83.6993V87.8164Z" fill="#006788"/>
<path d="M83.6993 83.6377H79.5977V87.8168H83.6993V83.6377Z" fill="#006788"/>
<path d="M83.6993 79.4541H79.5977V83.6375H83.6993V79.4541Z" fill="#006788"/>
<path d="M83.6993 75.2705H79.5977V79.4539H83.6993V75.2705Z" fill="#C7CC87"/>
<path d="M83.6993 71.0918H79.5977V75.2709H83.6993V71.0918Z" fill="#C7CC87"/>
<path d="M83.6993 66.9082H79.5977V71.0916H83.6993V66.9082Z" fill="#006788"/>
<path d="M83.6993 62.7295H79.5977V66.9086H83.6993V62.7295Z" fill="#006788"/>
<path d="M83.6993 58.5459H79.5977V62.7293H83.6993V58.5459Z" fill="#006788"/>
<path d="M83.6993 54.3623H79.5977V58.5457H83.6993V54.3623Z" fill="#006788"/>
<path d="M83.6993 50.1836H79.5977V54.3627H83.6993V50.1836Z" fill="#006788"/>
<path d="M83.6993 46H79.5977V50.1834H83.6993V46Z" fill="#006788"/>
<path d="M83.6993 41.8213H79.5977V46.0004H83.6993V41.8213Z" fill="#006788"/>
<path d="M83.6993 37.6377H79.5977V41.8211H83.6993V37.6377Z" fill="#006788"/>
<path d="M83.6993 33.4541H79.5977V37.6375H83.6993V33.4541Z" fill="#006788"/>
<path d="M83.6993 29.2754H79.5977V33.4545H83.6993V29.2754Z" fill="#006788"/>
<path d="M79.5975 87.8164H75.5V91.9998H79.5975V87.8164Z" fill="#006788"/>
<path d="M79.5975 83.6377H75.5V87.8168H79.5975V83.6377Z" fill="#006788"/>
<path d="M79.5975 79.4541H75.5V83.6375H79.5975V79.4541Z" fill="#006788"/>
<path d="M79.5975 75.2705H75.5V79.4539H79.5975V75.2705Z" fill="#006788"/>
<path d="M79.5975 71.0918H75.5V75.2709H79.5975V71.0918Z" fill="#006788"/>
<path d="M79.5975 66.9082H75.5V71.0916H79.5975V66.9082Z" fill="#006788"/>
<path d="M79.5975 62.7295H75.5V66.9086H79.5975V62.7295Z" fill="#006788"/>
<path d="M79.5975 58.5459H75.5V62.7293H79.5975V58.5459Z" fill="#006788"/>
<path d="M79.5975 54.3623H75.5V58.5457H79.5975V54.3623Z" fill="#006788"/>
<path d="M79.5975 16.7295H75.5V20.9129H79.5975V16.7295Z" fill="#82BDD1"/>
<path d="M79.5975 12.5459H75.5V16.7293H79.5975V12.5459Z" fill="#82BDD1"/>
<path d="M75.5001 87.8164H71.3984V91.9998H75.5001V87.8164Z" fill="#006788"/>
<path d="M75.5001 83.6377H71.3984V87.8168H75.5001V83.6377Z" fill="#006788"/>
<path d="M75.5001 79.4541H71.3984V83.6375H75.5001V79.4541Z" fill="#006788"/>
<path d="M75.5001 75.2705H71.3984V79.4539H75.5001V75.2705Z" fill="#006788"/>
<path d="M75.5001 71.0918H71.3984V75.2709H75.5001V71.0918Z" fill="#006788"/>
<path d="M75.5001 66.9082H71.3984V71.0916H75.5001V66.9082Z" fill="#006788"/>
<path d="M75.5001 16.7295H71.3984V20.9129H75.5001V16.7295Z" fill="#82BDD1"/>
<path d="M75.5001 12.5459H71.3984V16.7293H75.5001V12.5459Z" fill="#82BDD1"/>
<path d="M75.5001 8.36719H71.3984V12.5463H75.5001V8.36719Z" fill="#CCE9E9"/>
<path d="M71.3983 87.8164H67.3008V91.9998H71.3983V87.8164Z" fill="#006788"/>
<path d="M71.3983 83.6377H67.3008V87.8168H71.3983V83.6377Z" fill="#006788"/>
<path d="M71.3983 79.4541H67.3008V83.6375H71.3983V79.4541Z" fill="#006788"/>
<path d="M71.3983 75.2705H67.3008V79.4539H71.3983V75.2705Z" fill="#006788"/>
<path d="M71.3983 71.0918H67.3008V75.2709H71.3983V71.0918Z" fill="#006788"/>
<path d="M71.3983 66.9082H67.3008V71.0916H71.3983V66.9082Z" fill="#006788"/>
<path d="M71.3983 62.7295H67.3008V66.9086H71.3983V62.7295Z" fill="#006788"/>
<path d="M71.3983 58.5459H67.3008V62.7293H71.3983V58.5459Z" fill="#006788"/>
<path d="M71.3983 54.3623H67.3008V58.5457H71.3983V54.3623Z" fill="#006788"/>
<path d="M71.3983 20.9121H67.3008V25.0912H71.3983V20.9121Z" fill="#82BDD1"/>
<path d="M71.3983 16.7295H67.3008V20.9129H71.3983V16.7295Z" fill="#82BDD1"/>
<path d="M71.3983 12.5459H67.3008V16.7293H71.3983V12.5459Z" fill="#CCE9E9"/>
<path d="M71.3983 8.36719H67.3008V12.5463H71.3983V8.36719Z" fill="#CCE9E9"/>
<path d="M71.3983 4.18359H67.3008V8.36697H71.3983V4.18359Z" fill="#CCE9E9"/>
<path d="M67.3009 87.8164H63.1992V91.9998H67.3009V87.8164Z" fill="#006788"/>
<path d="M67.3009 83.6377H63.1992V87.8168H67.3009V83.6377Z" fill="#006788"/>
<path d="M67.3009 79.4541H63.1992V83.6375H67.3009V79.4541Z" fill="#006788"/>
<path d="M67.3009 75.2705H63.1992V79.4539H67.3009V75.2705Z" fill="#C7CC87"/>
<path d="M67.3009 71.0918H63.1992V75.2709H67.3009V71.0918Z" fill="#C7CC87"/>
<path d="M67.3009 66.9082H63.1992V71.0916H67.3009V66.9082Z" fill="#006788"/>
<path d="M67.3009 62.7295H63.1992V66.9086H67.3009V62.7295Z" fill="#006788"/>
<path d="M67.3009 58.5459H63.1992V62.7293H67.3009V58.5459Z" fill="#006788"/>
<path d="M67.3009 54.3623H63.1992V58.5457H67.3009V54.3623Z" fill="#006788"/>
<path d="M67.3009 20.9121H63.1992V25.0912H67.3009V20.9121Z" fill="#CCE9E9"/>
<path d="M67.3009 16.7295H63.1992V20.9129H67.3009V16.7295Z" fill="#82BDD1"/>
<path d="M67.3009 12.5459H63.1992V16.7293H67.3009V12.5459Z" fill="#CCE9E9"/>
<path d="M67.3009 8.36719H63.1992V12.5463H67.3009V8.36719Z" fill="#CCE9E9"/>
<path d="M67.3009 4.18359H63.1992V8.36697H67.3009V4.18359Z" fill="#CCE9E9"/>
<path d="M63.1993 87.8164H59.0977V91.9998H63.1993V87.8164Z" fill="#006788"/>
<path d="M63.1993 83.6377H59.0977V87.8168H63.1993V83.6377Z" fill="#006788"/>
<path d="M63.1993 79.4541H59.0977V83.6375H63.1993V79.4541Z" fill="#006788"/>
<path d="M63.1993 75.2705H59.0977V79.4539H63.1993V75.2705Z" fill="#C7CC87"/>
<path d="M63.1993 71.0918H59.0977V75.2709H63.1993V71.0918Z" fill="#C7CC87"/>
<path d="M63.1993 66.9082H59.0977V71.0916H63.1993V66.9082Z" fill="#006788"/>
<path d="M63.1993 62.7295H59.0977V66.9086H63.1993V62.7295Z" fill="#006788"/>
<path d="M63.1993 58.5459H59.0977V62.7293H63.1993V58.5459Z" fill="#006788"/>
<path d="M63.1993 25.0918H59.0977V29.2752H63.1993V25.0918Z" fill="#82BDD1"/>
<path d="M63.1993 20.9121H59.0977V25.0912H63.1993V20.9121Z" fill="#CCE9E9"/>
<path d="M63.1993 16.7295H59.0977V20.9129H63.1993V16.7295Z" fill="#CCE9E9"/>
<path d="M63.1993 12.5459H59.0977V16.7293H63.1993V12.5459Z" fill="#CCE9E9"/>
<path d="M63.1993 8.36719H59.0977V12.5463H63.1993V8.36719Z" fill="#CCE9E9"/>
<path d="M59.0975 87.8164H55V91.9998H59.0975V87.8164Z" fill="#006788"/>
<path d="M59.0975 83.6377H55V87.8168H59.0975V83.6377Z" fill="#006788"/>
<path d="M59.0975 79.4541H55V83.6375H59.0975V79.4541Z" fill="#006788"/>
<path d="M59.0975 75.2705H55V79.4539H59.0975V75.2705Z" fill="#C7CC87"/>
<path d="M59.0975 71.0918H55V75.2709H59.0975V71.0918Z" fill="#C7CC87"/>
<path d="M59.0975 66.9082H55V71.0916H59.0975V66.9082Z" fill="#006788"/>
<path d="M59.0975 62.7295H55V66.9086H59.0975V62.7295Z" fill="#006788"/>
<path d="M59.0975 25.0918H55V29.2752H59.0975V25.0918Z" fill="#82BDD1"/>
<path d="M59.0975 20.9121H55V25.0912H59.0975V20.9121Z" fill="#CCE9E9"/>
<path d="M59.0975 16.7295H55V20.9129H59.0975V16.7295Z" fill="#CCE9E9"/>
<path d="M59.0975 12.5459H55V16.7293H59.0975V12.5459Z" fill="#CCE9E9"/>
<path d="M59.0975 8.36719H55V12.5463H59.0975V8.36719Z" fill="#CCE9E9"/>
<path d="M59.0975 4.18359H55V8.36697H59.0975V4.18359Z" fill="#CCE9E9"/>
<path d="M55.0001 87.8164H50.8984V91.9998H55.0001V87.8164Z" fill="#006788"/>
<path d="M55.0001 83.6377H50.8984V87.8168H55.0001V83.6377Z" fill="#006788"/>
<path d="M55.0001 79.4541H50.8984V83.6375H55.0001V79.4541Z" fill="#006788"/>
<path d="M55.0001 75.2705H50.8984V79.4539H55.0001V75.2705Z" fill="#006788"/>
<path d="M55.0001 71.0918H50.8984V75.2709H55.0001V71.0918Z" fill="#006788"/>
<path d="M55.0001 66.9082H50.8984V71.0916H55.0001V66.9082Z" fill="#006788"/>
<path d="M55.0001 20.9121H50.8984V25.0912H55.0001V20.9121Z" fill="#CCE9E9"/>
<path d="M55.0001 16.7295H50.8984V20.9129H55.0001V16.7295Z" fill="#CCE9E9"/>
<path d="M55.0001 12.5459H50.8984V16.7293H55.0001V12.5459Z" fill="#CCE9E9"/>
<path d="M55.0001 8.36719H50.8984V12.5463H55.0001V8.36719Z" fill="#CCE9E9"/>
<path d="M55.0001 4.18359H50.8984V8.36697H55.0001V4.18359Z" fill="#CCE9E9"/>
<path d="M55.0001 0H50.8984V4.18338H55.0001V0Z" fill="#CCE9E9"/>
<path d="M50.8983 87.8164H46.8008V91.9998H50.8983V87.8164Z" fill="#006788"/>
<path d="M50.8983 83.6377H46.8008V87.8168H50.8983V83.6377Z" fill="#006788"/>
<path d="M50.8983 79.4541H46.8008V83.6375H50.8983V79.4541Z" fill="#006788"/>
<path d="M50.8983 75.2705H46.8008V79.4539H50.8983V75.2705Z" fill="#006788"/>
<path d="M50.8983 71.0918H46.8008V75.2709H50.8983V71.0918Z" fill="#006788"/>
<path d="M50.8983 66.9082H46.8008V71.0916H50.8983V66.9082Z" fill="#006788"/>
<path d="M50.8983 12.5459H46.8008V16.7293H50.8983V12.5459Z" fill="#CCE9E9"/>
<path d="M50.8983 8.36719H46.8008V12.5463H50.8983V8.36719Z" fill="#CCE9E9"/>
<path d="M50.8983 4.18359H46.8008V8.36697H50.8983V4.18359Z" fill="#CCE9E9"/>
<path d="M50.8983 0H46.8008V4.18338H50.8983V0Z" fill="#CCE9E9"/>
<path d="M46.8009 87.8164H42.6992V91.9998H46.8009V87.8164Z" fill="#006788"/>
<path d="M46.8009 83.6377H42.6992V87.8168H46.8009V83.6377Z" fill="#006788"/>
<path d="M46.8009 79.4541H42.6992V83.6375H46.8009V79.4541Z" fill="#006788"/>
<path d="M46.8009 75.2705H42.6992V79.4539H46.8009V75.2705Z" fill="#C7CC87"/>
<path d="M46.8009 71.0918H42.6992V75.2709H46.8009V71.0918Z" fill="#C7CC87"/>
<path d="M46.8009 66.9082H42.6992V71.0916H46.8009V66.9082Z" fill="#006788"/>
<path d="M46.8009 62.7295H42.6992V66.9086H46.8009V62.7295Z" fill="#006788"/>
<path d="M46.8009 58.5459H42.6992V62.7293H46.8009V58.5459Z" fill="#006788"/>
<path d="M46.8009 54.3623H42.6992V58.5457H46.8009V54.3623Z" fill="#006788"/>
<path d="M46.8009 29.2754H42.6992V33.4545H46.8009V29.2754Z" fill="#82BDD1"/>
<path d="M46.8009 25.0918H42.6992V29.2752H46.8009V25.0918Z" fill="#CCE9E9"/>
<path d="M46.8009 12.5459H42.6992V16.7293H46.8009V12.5459Z" fill="#CCE9E9"/>
<path d="M46.8009 8.36719H42.6992V12.5463H46.8009V8.36719Z" fill="#CCE9E9"/>
<path d="M46.8009 4.18359H42.6992V8.36697H46.8009V4.18359Z" fill="#CCE9E9"/>
<path d="M42.6993 87.8164H38.5977V91.9998H42.6993V87.8164Z" fill="#006788"/>
<path d="M42.6993 83.6377H38.5977V87.8168H42.6993V83.6377Z" fill="#006788"/>
<path d="M42.6993 79.4541H38.5977V83.6375H42.6993V79.4541Z" fill="#006788"/>
<path d="M42.6993 75.2705H38.5977V79.4539H42.6993V75.2705Z" fill="#C7CC87"/>
<path d="M42.6993 71.0918H38.5977V75.2709H42.6993V71.0918Z" fill="#C7CC87"/>
<path d="M42.6993 66.9082H38.5977V71.0916H42.6993V66.9082Z" fill="#006788"/>
<path d="M42.6993 62.7295H38.5977V66.9086H42.6993V62.7295Z" fill="#006788"/>
<path d="M42.6993 58.5459H38.5977V62.7293H42.6993V58.5459Z" fill="#006788"/>
<path d="M42.6993 54.3623H38.5977V58.5457H42.6993V54.3623Z" fill="#006788"/>
<path d="M42.6993 33.4541H38.5977V37.6375H42.6993V33.4541Z" fill="#82BDD1"/>
<path d="M42.6993 29.2754H38.5977V33.4545H42.6993V29.2754Z" fill="#82BDD1"/>
<path d="M42.6993 25.0918H38.5977V29.2752H42.6993V25.0918Z" fill="#CCE9E9"/>
<path d="M42.6993 20.9121H38.5977V25.0912H42.6993V20.9121Z" fill="#CCE9E9"/>
<path d="M42.6993 16.7295H38.5977V20.9129H42.6993V16.7295Z" fill="#CCE9E9"/>
<path d="M42.6993 8.36719H38.5977V12.5463H42.6993V8.36719Z" fill="#CCE9E9"/>
<path d="M38.5975 87.8164H34.5V91.9998H38.5975V87.8164Z" fill="#006788"/>
<path d="M38.5975 83.6377H34.5V87.8168H38.5975V83.6377Z" fill="#006788"/>
<path d="M38.5975 79.4541H34.5V83.6375H38.5975V79.4541Z" fill="#006788"/>
<path d="M38.5975 75.2705H34.5V79.4539H38.5975V75.2705Z" fill="#C7CC87"/>
<path d="M38.5975 71.0918H34.5V75.2709H38.5975V71.0918Z" fill="#C7CC87"/>
<path d="M38.5975 66.9082H34.5V71.0916H38.5975V66.9082Z" fill="#006788"/>
<path d="M38.5975 62.7295H34.5V66.9086H38.5975V62.7295Z" fill="#006788"/>
<path d="M38.5975 58.5459H34.5V62.7293H38.5975V58.5459Z" fill="#006788"/>
<path d="M38.5975 33.4541H34.5V37.6375H38.5975V33.4541Z" fill="#82BDD1"/>
<path d="M38.5975 29.2754H34.5V33.4545H38.5975V29.2754Z" fill="#82BDD1"/>
<path d="M38.5975 25.0918H34.5V29.2752H38.5975V25.0918Z" fill="#CCE9E9"/>
<path d="M38.5975 20.9121H34.5V25.0912H38.5975V20.9121Z" fill="#CCE9E9"/>
<path d="M38.5975 16.7295H34.5V20.9129H38.5975V16.7295Z" fill="#CCE9E9"/>
<path d="M34.5001 87.8164H30.3984V91.9998H34.5001V87.8164Z" fill="#006788"/>
<path d="M34.5001 83.6377H30.3984V87.8168H34.5001V83.6377Z" fill="#006788"/>
<path d="M34.5001 79.4541H30.3984V83.6375H34.5001V79.4541Z" fill="#006788"/>
<path d="M34.5001 75.2705H30.3984V79.4539H34.5001V75.2705Z" fill="#006788"/>
<path d="M34.5001 71.0918H30.3984V75.2709H34.5001V71.0918Z" fill="#006788"/>
<path d="M34.5001 66.9082H30.3984V71.0916H34.5001V66.9082Z" fill="#006788"/>
<path d="M34.5001 62.7295H30.3984V66.9086H34.5001V62.7295Z" fill="#006788"/>
<path d="M34.5001 29.2754H30.3984V33.4545H34.5001V29.2754Z" fill="#CCE9E9"/>
<path d="M34.5001 25.0918H30.3984V29.2752H34.5001V25.0918Z" fill="#CCE9E9"/>
<path d="M34.5001 20.9121H30.3984V25.0912H34.5001V20.9121Z" fill="#CCE9E9"/>
<path d="M34.5001 16.7295H30.3984V20.9129H34.5001V16.7295Z" fill="#CCE9E9"/>
<path d="M30.3986 87.8164H26.2969V91.9998H30.3986V87.8164Z" fill="#006788"/>
<path d="M30.3986 83.6377H26.2969V87.8168H30.3986V83.6377Z" fill="#006788"/>
<path d="M30.3986 79.4541H26.2969V83.6375H30.3986V79.4541Z" fill="#006788"/>
<path d="M30.3986 75.2705H26.2969V79.4539H30.3986V75.2705Z" fill="#006788"/>
<path d="M30.3986 71.0918H26.2969V75.2709H30.3986V71.0918Z" fill="#006788"/>
<path d="M30.3986 66.9082H26.2969V71.0916H30.3986V66.9082Z" fill="#006788"/>
<path d="M30.3986 33.4541H26.2969V37.6375H30.3986V33.4541Z" fill="#82BDD1"/>
<path d="M30.3986 29.2754H26.2969V33.4545H30.3986V29.2754Z" fill="#CCE9E9"/>
<path d="M30.3986 25.0918H26.2969V29.2752H30.3986V25.0918Z" fill="#CCE9E9"/>
<path d="M30.3986 20.9121H26.2969V25.0912H30.3986V20.9121Z" fill="#CCE9E9"/>
<path d="M26.2967 87.8164H22.1992V91.9998H26.2967V87.8164Z" fill="#006788"/>
<path d="M26.2967 33.4541H22.1992V37.6375H26.2967V33.4541Z" fill="#82BDD1"/>
<path d="M26.2967 29.2754H22.1992V33.4545H26.2967V29.2754Z" fill="#CCE9E9"/>
<path d="M26.2967 25.0918H22.1992V29.2752H26.2967V25.0918Z" fill="#CCE9E9"/>
<path d="M22.1993 87.8164H18.0977V91.9998H22.1993V87.8164Z" fill="#006788"/>
<path d="M22.1993 29.2754H18.0977V33.4545H22.1993V29.2754Z" fill="#CCE9E9"/>
<path d="M22.1993 25.0918H18.0977V29.2752H22.1993V25.0918Z" fill="#CCE9E9"/>
<path d="M22.1993 20.9121H18.0977V25.0912H22.1993V20.9121Z" fill="#CCE9E9"/>
<path d="M18.0975 25.0918H14V29.2752H18.0975V25.0918Z" fill="#CCE9E9"/>
<path d="M18.0975 20.9121H14V25.0912H18.0975V20.9121Z" fill="#CCE9E9"/>
</g>
<defs>
<clipPath id="clip0_784:110090">
<rect width="82" height="92" fill="white" transform="translate(14)"/>
</clipPath>
</defs>
</svg>
