<svg width="100" height="102" viewBox="0 0 100 102" fill="none" xmlns="http://www.w3.org/2000/svg">
<rect x="14" y="75" width="73" height="11" fill="#3A2C1E"/>
<rect x="21" y="63" width="70" height="12" fill="#3A2C1E"/>
<rect y="90" width="100" height="4" fill="#3A2C1E"/>
<rect x="4" y="86" width="96" height="4" fill="#3A2C1E"/>
<rect x="4" y="94" width="92" height="4" fill="#3A2C1E"/>
<rect x="44" y="51" width="44" height="4" fill="#3A2C1E"/>
<rect x="66" y="47" width="18" height="4" fill="#3A2C1E"/>
<rect x="70" y="43" width="13" height="4" fill="#3A2C1E"/>
<rect x="73" y="40" width="9" height="4" fill="#3A2C1E"/>
<rect x="10" y="98" width="80" height="4" fill="#3A2C1E"/>
<rect x="42" y="55" width="46" height="4" fill="#3A2C1E"/>
<rect x="29" y="59" width="55" height="4" fill="#3A2C1E"/>
<g clip-path="url(#clip0_1328:145641)">
<path d="M83.6993 71.0918H79.5977V75.2709V79.4543H83.6993H87.801V75.2709V71.0918H83.6993Z" fill="#D9E0A2"/>
<path d="M59.0975 71.0918H55V75.2709V79.4543H59.0975H63.1992H67.3008V75.2709V71.0918H63.1992H59.0975Z" fill="#D9E0A2"/>
<path d="M38.5975 71.0918H34.5V75.2709V79.4543H38.5975H42.6992H46.8008V75.2709V71.0918H42.6992H38.5975Z" fill="#D9E0A2"/>
<path d="M75.5001 12.5459H71.3984V16.7293H67.3009H63.1992V20.9127H67.3009V25.0917H71.3984V20.9127H75.5001H79.5975V16.7293V12.5459H75.5001Z" fill="#79A9BA"/>
<path d="M55 25.0918V29.2752H59.0975H63.1992V25.0918H59.0975H55Z" fill="#79A9BA"/>
<path d="M38.5975 29.2754H34.5V33.4545V37.6379H38.5975H42.6992V33.4545H46.8008V29.2754H42.6992H38.5975Z" fill="#79A9BA"/>
<path d="M22.1992 33.4541V37.6375H26.2967H30.3984V33.4541H26.2967H22.1992Z" fill="#79A9BA"/>
<path d="M91.8985 66.9084V54.3626H87.801V25.0918H83.6993V29.2752H79.5977V54.3626H75.5002V66.9084H71.3985V54.3626H63.1993V58.546H59.0977V62.7293H55.0002V66.9084H46.801V54.3626H38.5977V58.546H34.5002V62.7293H30.3901V66.9084H26.2968V87.8167H18.0977V92.0001H96.0002V66.9084H91.8985ZM87.801 75.2709V79.4543H79.5977V71.0918H87.801V75.2709ZM59.0977 71.0918H67.301V79.4543H55.0002V71.0918H59.0977ZM46.801 75.2709V79.4543H34.5002V71.0918H46.801V75.2709Z" fill="#107393"/>
<path d="M87.8009 20.9131H83.6992V25.0922H87.8009V20.9131Z" fill="#A9CBDA"/>
<path d="M71.3985 4.18338H67.301H63.1993V8.36675H59.0977V4.18338H55.0002V0H50.8985H46.801V4.18338H42.6993V8.36675H38.5977V12.5458H42.6993V16.7292H46.801H50.8985V20.9126V25.0917H55.0002H59.0977H63.1993H67.301V20.9126H63.1993V16.7292H67.301H71.3985V12.5458H75.5002V8.36675H71.3985V4.18338Z" fill="#A9CBDA"/>
<path d="M34.5 16.7295H30.3983V20.9129H26.2966V25.092H22.1992V20.9129H18.0975H14V25.092V29.2753H18.0975V33.4544H22.1992H26.2966H30.3983H34.5V29.2753H38.5975H42.6992H46.8008V25.092H42.6992V20.9129V16.7295H38.5975H34.5Z" fill="#A9CBDA"/>
</g>
<defs>
<clipPath id="clip0_1328:145641">
<rect width="82" height="92" fill="white" transform="translate(14)"/>
</clipPath>
</defs>
</svg>
