<svg width="110" height="51" viewBox="0 0 110 51" fill="none" xmlns="http://www.w3.org/2000/svg">
<rect width="110" height="51" fill="#EAF3BF"/>
<rect width="2" height="51" fill="#537E29"/>
<rect x="108" width="2" height="51" fill="#537E29"/>
<rect x="2" y="2" width="2" height="47" fill="white"/>
<rect x="106" y="4" width="2" height="45" fill="#C7CC87"/>
<rect x="4" y="2" width="104" height="2" fill="white"/>
<rect x="4" y="47" width="104" height="2" fill="#C7CC87"/>
<rect y="51" width="2" height="110" transform="rotate(-90 0 51)" fill="#537E29"/>
<rect y="2" width="2" height="110" transform="rotate(-90 0 2)" fill="#537E29"/>
<path d="M26.297 21.194H26.164L24.986 22.448V31.834H26.297V22.391H34.999V21.194H26.297ZM25.613 24.31V25.45H34.486V24.31H25.613ZM25.651 27.426V28.566H34.486V27.426H25.651ZM25.613 30.618V31.834H35.436V30.618H25.613ZM29.622 21.688V31.226H30.895V21.688H29.622ZM26.487 18.173C25.632 20.662 24.245 23.151 22.725 24.785C22.972 25.051 23.371 25.64 23.523 25.906C25.176 24.082 26.715 21.289 27.703 18.515L26.487 18.173ZM29.109 18.667C29.66 19.636 30.268 20.928 30.496 21.707L31.75 21.308C31.503 20.51 30.876 19.256 30.287 18.325L29.109 18.667ZM19.077 18.705C19.913 19.636 20.977 20.966 21.49 21.764L22.592 20.985C22.06 20.206 21.015 18.99 20.141 18.078L19.077 18.705ZM18.393 22.429V23.626H22.554V22.429H18.393ZM21.775 31.15L20.825 31.587C22.25 34.722 24.739 35.254 29.185 35.254C31.275 35.254 33.669 35.197 35.455 35.102C35.531 34.703 35.721 34.038 35.93 33.734C33.992 33.886 31.199 33.981 29.204 33.981C25.423 33.981 22.953 33.639 21.775 31.15ZM22.041 27.179V27.426C21.509 30.903 20.046 33.316 18.032 34.589C18.298 34.798 18.773 35.273 18.963 35.577C21.091 34.152 22.668 31.473 23.333 27.407L22.611 27.141L22.364 27.179H22.041ZM18.659 28.604C18.792 28.452 19.286 28.338 19.78 28.338H22.497L22.516 27.179H19.343L18.659 27.521V28.604ZM18.659 28.604C18.659 28.243 19.723 27.711 19.723 27.711C20.844 26.495 22.611 24.082 23.542 22.79L22.592 22.334L22.155 22.524V22.581C21.509 23.588 19.647 26.153 19.039 26.742C18.716 27.122 18.412 27.236 18.127 27.312C18.279 27.616 18.564 28.281 18.659 28.604ZM41.813 19.199V20.643H47.19V19.199H41.813ZM46.468 19.199C46.468 22.771 47.095 30.865 54.695 35.463C54.961 35.121 55.531 34.513 55.854 34.266C48.349 29.82 47.931 22.6 47.931 19.199H46.468ZM45.936 22.923C44.777 28.3 42.402 32.138 38.184 34.342C38.564 34.608 39.21 35.197 39.476 35.501C43.675 33.031 46.183 29.022 47.551 23.227L45.936 22.923ZM60.882 25.83V26.989H65.67V25.83H60.882ZM59.039 20.035V21.289H64.834V20.035H59.039ZM58.241 23.151V24.405H67.456V23.151H58.241ZM61.547 18.04V23.816H62.896V18.04H61.547ZM66.221 18.477C64.625 22.448 61.737 25.602 58.108 27.464C58.412 27.711 58.925 28.262 59.134 28.547C62.763 26.457 65.765 23.17 67.551 18.876L66.221 18.477ZM62.269 28.68V34C62.269 34.209 62.193 34.266 61.946 34.285C61.68 34.285 60.882 34.304 59.932 34.266C60.122 34.646 60.312 35.14 60.369 35.52C61.604 35.52 62.421 35.501 62.953 35.292C63.466 35.102 63.618 34.741 63.618 34.019V28.68H62.269ZM65.271 25.83V26.058C64.625 26.894 63.352 28.015 62.269 28.68C62.497 28.851 62.82 29.193 62.991 29.421C64.245 28.699 65.689 27.502 66.658 26.362L65.822 25.754L65.556 25.83H65.271ZM58.279 30.485L58.45 31.796C60.787 31.473 64.188 30.998 67.399 30.561L67.361 29.326C64.017 29.763 60.521 30.219 58.279 30.485ZM68.976 21.593V22.923H75.74V21.593H68.976ZM69.489 18.04C68.919 21.308 67.912 24.443 66.373 26.419C66.696 26.647 67.304 27.141 67.551 27.388C69.128 25.222 70.268 21.84 70.914 18.268L69.489 18.04ZM73.137 22.315C72.358 28.357 70.534 32.176 66.012 34.304C66.297 34.608 66.715 35.254 66.867 35.577C71.655 33.107 73.669 29.041 74.581 22.467L73.137 22.315ZM69.698 22.714L68.406 22.923C69.356 28.68 71.161 33.316 74.885 35.501C75.094 35.102 75.55 34.57 75.892 34.285C72.358 32.404 70.534 27.939 69.698 22.714ZM78.507 30.599V31.796H95.512V30.599H78.507ZM82.041 27.255V28.338H91.028V27.255H82.041ZM86.468 29.763V33.962C86.468 34.228 86.392 34.285 86.088 34.304C85.784 34.304 84.701 34.304 83.542 34.266C83.732 34.627 83.941 35.121 84.017 35.482C85.537 35.482 86.506 35.482 87.095 35.292C87.703 35.083 87.874 34.741 87.874 34V29.763H86.468ZM90.667 27.255V27.502C89.774 28.281 87.988 29.231 86.468 29.763C86.677 29.934 87.019 30.295 87.171 30.523C88.881 29.915 90.819 28.927 92.168 27.901L91.313 27.179L91.009 27.255H90.667ZM78.906 24.861V28.338H80.274V25.963H93.726V28.338H95.132V24.861H78.906ZM92.719 18.762C92.624 20.89 92.434 23.74 92.206 25.469H93.574C93.764 23.778 93.954 20.947 94.068 18.762H92.719ZM89.641 18.762V19.75H93.289V18.762H89.641ZM83.751 18.211C82.801 18.496 81.167 18.971 80.065 19.142L80.597 19.978C81.718 19.807 83.295 19.522 84.397 19.085L83.751 18.211ZM80.825 20.795V21.764H84.283V20.795H80.825ZM80.92 22.809V23.797H84.378V22.809H80.92ZM89.736 20.795V21.764H93.137V20.795H89.736ZM89.622 22.809V23.797H92.985V22.809H89.622ZM87.912 18.23C87.152 19.218 85.841 20.149 84.53 20.776C84.777 20.928 85.176 21.289 85.347 21.479C86.639 20.776 88.045 19.674 88.919 18.496L87.912 18.23ZM84.891 19.085C86.164 19.674 87.684 20.605 88.425 21.308L89.166 20.605C88.387 19.921 86.848 19.009 85.594 18.458L84.891 19.085ZM87.95 21.422C87.171 22.486 85.765 23.455 84.416 24.082C84.644 24.253 85.043 24.652 85.195 24.842C86.563 24.12 88.045 22.961 88.957 21.726L87.95 21.422ZM84.834 22.277C86.145 22.923 87.722 23.949 88.463 24.709L89.223 23.987C88.444 23.246 86.848 22.258 85.556 21.65L84.834 22.277ZM80.065 19.142L80.464 25.412H81.813L81.433 19.522L80.065 19.142Z" fill="#537E29"/>
</svg>
