<svg width="96" height="51" viewBox="0 0 96 51" fill="none" xmlns="http://www.w3.org/2000/svg">
<rect x="1" y="1" width="94" height="49" fill="#D9E0A2" stroke="#537E29" stroke-width="2"/>
<rect x="4" y="47" width="90" height="2" fill="#C7CC87"/>
<rect x="2" y="2" width="92" height="2" fill="#FFF9E6"/>
<path d="M75.3143 20.0002H74.0638H72.8146H71.5641H70.3137V18.751H69.0645V20.0002V21.2507H70.3137V22.4999V23.7503V25.0008H71.5641V23.7503V22.4999V21.2507H72.8146V22.4999V23.7503V25.0008V26.25V27.5005H74.0638V26.25V25.0008V23.7503V22.4999V21.2507H75.3143V22.4999V23.7503V25.0008V26.25V27.5005V28.751V30.0002V31.2507V32.4999H76.5635V31.2507V30.0002V28.751V27.5005V26.25V25.0008V23.7503V22.4999V21.2507V20.0002H75.3143Z" fill="#537E29"/>
<path d="M75.3149 32.499H74.0645V33.7495H75.3149V32.499Z" fill="#537E29"/>
<path d="M74.0637 33.75H72.8145V35.0005H74.0637V33.75Z" fill="#537E29"/>
<path d="M72.8149 32.499H71.5645V33.7495H72.8149V32.499Z" fill="#537E29"/>
<path d="M72.8149 28.7505V27.5H71.5645V28.7505V29.9997H72.8149V28.7505Z" fill="#537E29"/>
<path d="M71.563 29.999H70.3125V31.2495V32.4987H71.563V31.2495V29.999Z" fill="#537E29"/>
<path d="M71.563 17.4997V16.2492V15H70.3125V16.2492V17.4997V18.7502H71.563V17.4997Z" fill="#537E29"/>
<path d="M70.3137 32.499H69.0645V33.7495H70.3137V32.499Z" fill="#537E29"/>
<path d="M69.0645 26.2492V27.4997H70.3137V26.2492V25H69.0645V26.2492Z" fill="#537E29"/>
<path d="M69.063 33.75H67.8125V35.0005H69.063V33.75Z" fill="#537E29"/>
<path d="M67.8125 28.7505V29.9997H69.063V28.7505V27.5H67.8125V28.7505Z" fill="#537E29"/>
<path d="M69.063 21.25H67.8125V22.4992H69.063V21.25Z" fill="#537E29"/>
<path d="M67.8137 29.999H66.5645V31.2495H67.8137V29.999Z" fill="#537E29"/>
<path d="M67.8137 22.499H66.5645V23.7495H67.8137V22.499Z" fill="#537E29"/>
<path d="M66.5648 19.9994H65.3143V18.7502V17.4997V16.2492V15H64.0638V16.2492V17.4997V18.7502V19.9994H62.8146H61.5641V18.7502V17.4997H60.3137V18.7502V19.9994V21.2498V22.499H61.5641V21.2498H62.8146H64.0638V22.499V23.7495V25V26.2492H62.8146H61.5641H60.3137H59.0645V27.4997H60.3137V28.7502H61.5641V27.4997H62.8146H64.0638V28.7502V29.9994V31.2498V32.499V33.7495V35H65.3143V33.7495V32.499V31.2498V29.9994V28.7502V27.4997V26.2492H66.5648H67.814V25H66.5648H65.3143V23.7495V22.499V21.2498H66.5648H67.814V19.9994H66.5648Z" fill="#537E29"/>
<path d="M60.3137 22.499H59.0645V23.7495H60.3137V22.499Z" fill="#537E29"/>
<path d="M55.3137 19.9968V17.4997H51.5635V15H50.3143V17.4997H46.5641V18.7502H50.3143V19.9968H45.3175V21.2473H50.3143V22.4965H46.5641V23.747H50.3143V24.9974H46.5641V26.2492H50.3143V28.7502H45.3175V29.9994H50.3143V32.499H44.0645V33.7495H57.8133V32.499H51.5635V29.9994H56.5603V28.7502H51.5635V26.2492H55.3137V25H51.5635V23.7495H55.3137V21.2498H57.8133V19.9968H55.3137ZM54.0632 22.4965H51.5635V21.2498H54.0632V22.4965ZM54.0632 19.9968H51.5635V18.7502H54.0632V19.9968Z" fill="#537E29"/>
<path d="M45.3138 25.0002V23.7497V22.4992H44.0646H42.8141V21.25H41.5637V22.4992H40.3145V23.7497H41.5637H42.8141H44.0646V25.0002V26.2494H45.3138V25.0002Z" fill="#537E29"/>
<path d="M45.3143 18.7505V17.5H44.0651H42.8146H41.5641H40.3149H39.0645V18.7505H40.3149H41.5641H42.8146H44.0651V19.9997H45.3143V18.7505Z" fill="#537E29"/>
<path d="M44.0649 31.25H42.8145V32.4992H44.0649V31.25Z" fill="#537E29"/>
<path d="M44.0649 27.4995V26.249H42.8145V27.4995V28.75H44.0649V27.4995Z" fill="#537E29"/>
<path d="M44.0649 20H42.8145V21.2505H44.0649V20Z" fill="#537E29"/>
<path d="M42.813 28.75H41.5625V29.9992V31.2497H42.813V29.9992V28.75Z" fill="#537E29"/>
<path d="M40.3145 32.4992V33.7497H41.5637V32.4992V31.25H40.3145V32.4992Z" fill="#537E29"/>
<path d="M41.5637 26.249H40.3145V27.4995V28.75H41.5637V27.4995V26.249Z" fill="#537E29"/>
<path d="M40.3149 33.75H39.0645V35.0005H40.3149V33.75Z" fill="#537E29"/>
<path d="M35.2498 17.4997H27.7508V15H26.5003V17.4997H19V18.7489H25.2498V21.2498H23.9968V23.7495H22.7502V24.9936H23.9968V34.9936H25.246V29.9968H32.7463V33.747H33.9968V21.2498H26.5003V18.7489H37.7495V17.4997H35.2498ZM32.7502 27.4997V28.7489H25.2498V26.2492H32.7502V27.4997ZM27.7534 22.5029H32.7502V24.9936H25.2498V22.499H27.7508L27.7534 22.5029Z" fill="#537E29"/>
<rect x="2" y="2" width="2" height="47" fill="#FFF9E6"/>
<rect x="92" y="4" width="2" height="45" fill="#C7CC87"/>
</svg>
