<svg width="114" height="60" viewBox="0 0 114 60" fill="none" xmlns="http://www.w3.org/2000/svg">
<rect y="33" width="112" height="23" fill="#3A2C1E"/>
<rect x="5" y="21" width="109" height="12" fill="#3A2C1E"/>
<rect x="7" y="56" width="100" height="4" fill="#3A2C1E"/>
<rect x="12" y="1" width="94" height="49" fill="#CCE9E9" stroke="#2B4754" stroke-width="2"/>
<rect x="15" y="47" width="90" height="2" fill="#82BDD1"/>
<rect x="13" y="2" width="92" height="2" fill="#EFFFFC"/>
<g clip-path="url(#clip0_815:73932)">
<path d="M46.2509 17.4998H38.7514V15H37.5008V17.4998H30V18.7491H36.2502V21.2502H34.9971V23.7501H33.7504V24.9942H34.9971V34.9949H36.2464V29.9978H43.7472V33.7482H44.9978V21.2502H37.5008V18.7491H48.7507V17.4998H46.2509ZM43.751 27.5005V28.7498H36.2502V26.2499H43.751V27.5005ZM38.7539 22.5034H43.751V24.9942H36.2502V22.4995H38.7514L38.7539 22.5034Z" fill="#2B4754"/>
<path d="M43.7515 33.751H42.501V35.0003H43.7515V33.751Z" fill="#2B4754"/>
<path d="M42.5007 32.5H41.2515V33.7506H42.5007V32.5Z" fill="#2B4754"/>
<path d="M33.7506 24.999H32.5V26.2496H33.7506V24.999Z" fill="#2B4754"/>
<path d="M32.5003 26.25H31.251V27.5006H32.5003V26.25Z" fill="#2B4754"/>
<path d="M31.2506 27.501H30V28.7502H31.2506V27.501Z" fill="#2B4754"/>
<path d="M83.7579 23.7501H86.2577V21.2502H88.7588V19.9971H86.2577V17.4998H82.5086V15H81.2529V17.4998H77.5076V18.7491H81.2529V19.9971H76.2558V21.2477H81.2529V22.497H77.5076V23.7475H81.2529V24.9942H77.5076V26.2499H81.2529V28.7498H76.2558V30.0003H81.2529V32.5002H75.0078V33.7507H88.7588V32.5002H82.5086V30.0003H87.5057V28.7498H82.5086V26.2499H86.2577V24.9942H82.5086V23.7501H83.7579ZM82.5086 18.753H85.0085V19.9971H82.5086V18.753ZM82.5086 21.2541H85.0085V22.5034H82.5086V21.2541Z" fill="#2B4754"/>
<path d="M76.2565 24.9991V23.7498V22.4993H75.0072H73.7567V21.25H72.5074V22.4993H71.2568V23.7498H72.5074H73.7567H75.0072V24.9991V26.2497H76.2565V24.9991Z" fill="#2B4754"/>
<path d="M76.2561 18.7493V17.5H75.0068H73.7563H72.507H71.2564H70.0059V18.7493H71.2564H72.507H73.7563H75.0068V19.9998H76.2561V18.7493Z" fill="#2B4754"/>
<path d="M75.0074 31.251H73.7568V32.5003H75.0074V31.251Z" fill="#2B4754"/>
<path d="M75.0074 27.5006V26.25H73.7568V27.5006V28.7498H75.0074V27.5006Z" fill="#2B4754"/>
<path d="M75.0074 20H73.7568V21.2506H75.0074V20Z" fill="#2B4754"/>
<path d="M73.7566 28.75H72.5073V30.0006V31.2511H73.7566V30.0006V28.75Z" fill="#2B4754"/>
<path d="M71.2568 32.5003V33.7508H72.5074V32.5003V31.251H71.2568V32.5003Z" fill="#2B4754"/>
<path d="M72.5074 26.25H71.2568V27.5006V28.7498H72.5074V27.5006V26.25Z" fill="#2B4754"/>
<path d="M71.2564 33.751H70.0059V35.0003H71.2564V33.751Z" fill="#2B4754"/>
<path d="M67.5066 33.751H66.2573V35.0003H67.5066V33.751Z" fill="#2B4754"/>
<path d="M66.2616 17.4998H63.7566V16.2493H62.5073V17.4998H56.2571V19.9971H53.7572V15H52.5067V19.9971H50.0068V21.2477H52.5067V26.2448H51.2561V27.4954H52.5067V33.7456H53.7572V26.2499H55.0065V24.9942H53.7572V21.2502H56.2571V23.7501H55.0065V24.9942H56.2571V33.7456H57.5064V23.7514H62.5035V24.9942H58.7569V31.2458H61.2568V32.495H62.5073V31.2458H63.7566V32.495H65.0072V31.2458H67.507V24.9942H63.7566V23.7501H68.7537V22.4995H66.2616V21.2502H67.5109V19.9971H66.2616V18.7491H68.7614V17.4998H66.2616ZM60.0075 19.9971H58.7569V21.2477H60.0075V22.497H57.5064V18.7491H60.0075V19.9971ZM62.5073 29.9914H60.0075V28.7408H62.5073V29.9914ZM62.5073 27.4915H60.0075V26.2499H62.5073V27.4915ZM66.2616 30.0003H63.7566V28.7498H66.2616V30.0003ZM65.0072 26.2499H66.2616V27.5005H63.7566V26.2499H65.0072ZM65.0072 22.4995H61.2568V21.2502H65.0072V22.4995ZM65.0072 19.9997H61.2568V18.7491H65.0072V19.9997Z" fill="#2B4754"/>
<path d="M66.2574 32.5H65.0068V33.7506H66.2574V32.5Z" fill="#2B4754"/>
<path d="M62.5064 15H61.2559V16.2493H62.5064V15Z" fill="#2B4754"/>
<path d="M61.2561 32.5H60.0068V33.7506H61.2561V32.5Z" fill="#2B4754"/>
<path d="M60.0074 33.751H58.7568V35.0003H60.0074V33.751Z" fill="#2B4754"/>
<path d="M56.2564 33.751H55.0059V35.0003H56.2564V33.751Z" fill="#2B4754"/>
<path d="M52.5064 33.751H51.2559V35.0003H52.5064V33.751Z" fill="#2B4754"/>
<path d="M51.2561 32.5H50.0068V33.7506H51.2561V32.5Z" fill="#2B4754"/>
<path d="M51.2561 27.501H50.0068V28.7502H51.2561V27.501Z" fill="#2B4754"/>
</g>
<rect x="13" y="2" width="2" height="47" fill="#EFFFFC"/>
<rect x="103" y="4" width="2" height="45" fill="#82BDD1"/>
<defs>
<clipPath id="clip0_815:73932">
<rect width="58.7584" height="20" fill="white" transform="translate(30 15)"/>
</clipPath>
</defs>
</svg>
