<svg width="114" height="63" viewBox="0 0 114 63" fill="none" xmlns="http://www.w3.org/2000/svg">
<rect y="36" width="112" height="23" fill="#3A2C1E"/>
<rect x="5" y="24" width="109" height="12" fill="#3A2C1E"/>
<rect x="7" y="59" width="100" height="4" fill="#3A2C1E"/>
<rect x="12" y="1" width="94" height="49" fill="#D9E0A2" stroke="#537E29" stroke-width="2"/>
<rect x="15" y="47" width="90" height="2" fill="#C7CC87"/>
<rect x="13" y="2" width="92" height="2" fill="#FFF9E6"/>
<path d="M86.3143 20.0002H85.0638H83.8146H82.5641H81.3137V18.751H80.0645V20.0002V21.2507H81.3137V22.4999V23.7503V25.0008H82.5641V23.7503V22.4999V21.2507H83.8146V22.4999V23.7503V25.0008V26.25V27.5005H85.0638V26.25V25.0008V23.7503V22.4999V21.2507H86.3143V22.4999V23.7503V25.0008V26.25V27.5005V28.751V30.0002V31.2507V32.4999H87.5635V31.2507V30.0002V28.751V27.5005V26.25V25.0008V23.7503V22.4999V21.2507V20.0002H86.3143Z" fill="#537E29"/>
<path d="M86.314 32.499H85.0635V33.7495H86.314V32.499Z" fill="#537E29"/>
<path d="M85.0637 33.75H83.8145V35.0005H85.0637V33.75Z" fill="#537E29"/>
<path d="M83.814 32.499H82.5635V33.7495H83.814V32.499Z" fill="#537E29"/>
<path d="M83.814 28.7505V27.5H82.5635V28.7505V29.9997H83.814V28.7505Z" fill="#537E29"/>
<path d="M82.564 29.999H81.3135V31.2495V32.4987H82.564V31.2495V29.999Z" fill="#537E29"/>
<path d="M82.564 17.4997V16.2492V15H81.3135V16.2492V17.4997V18.7502H82.564V17.4997Z" fill="#537E29"/>
<path d="M81.3137 32.499H80.0645V33.7495H81.3137V32.499Z" fill="#537E29"/>
<path d="M80.0645 26.2492V27.4997H81.3137V26.2492V25H80.0645V26.2492Z" fill="#537E29"/>
<path d="M80.064 33.75H78.8135V35.0005H80.064V33.75Z" fill="#537E29"/>
<path d="M78.8135 28.7505V29.9997H80.064V28.7505V27.5H78.8135V28.7505Z" fill="#537E29"/>
<path d="M80.064 21.25H78.8135V22.4992H80.064V21.25Z" fill="#537E29"/>
<path d="M78.8137 29.999H77.5645V31.2495H78.8137V29.999Z" fill="#537E29"/>
<path d="M78.8137 22.499H77.5645V23.7495H78.8137V22.499Z" fill="#537E29"/>
<path d="M77.5638 19.9994H76.3133V18.7502V17.4997V16.2492V15H75.0628V16.2492V17.4997V18.7502V19.9994H73.8136H72.5632V18.7502V17.4997H71.3127V18.7502V19.9994V21.2498V22.499H72.5632V21.2498H73.8136H75.0628V22.499V23.7495V25V26.2492H73.8136H72.5632H71.3127H70.0635V27.4997H71.3127V28.7502H72.5632V27.4997H73.8136H75.0628V28.7502V29.9994V31.2498V32.499V33.7495V35H76.3133V33.7495V32.499V31.2498V29.9994V28.7502V27.4997V26.2492H77.5638H78.813V25H77.5638H76.3133V23.7495V22.499V21.2498H77.5638H78.813V19.9994H77.5638Z" fill="#537E29"/>
<path d="M71.3127 22.499H70.0635V23.7495H71.3127V22.499Z" fill="#537E29"/>
<path d="M66.3137 19.9968V17.4997H62.5635V15H61.3143V17.4997H57.5641V18.7502H61.3143V19.9968H56.3175V21.2473H61.3143V22.4965H57.5641V23.747H61.3143V24.9974H57.5641V26.2492H61.3143V28.7502H56.3175V29.9994H61.3143V32.499H55.0645V33.7495H68.8133V32.499H62.5635V29.9994H67.5603V28.7502H62.5635V26.2492H66.3137V25H62.5635V23.7495H66.3137V21.2498H68.8133V19.9968H66.3137ZM65.0632 22.4965H62.5635V21.2498H65.0632V22.4965ZM65.0632 19.9968H62.5635V18.7502H65.0632V19.9968Z" fill="#537E29"/>
<path d="M56.3138 25.0002V23.7497V22.4992H55.0646H53.8141V21.25H52.5637V22.4992H51.3145V23.7497H52.5637H53.8141H55.0646V25.0002V26.2494H56.3138V25.0002Z" fill="#537E29"/>
<path d="M56.3143 18.7505V17.5H55.0651H53.8146H52.5641H51.3149H50.0645V18.7505H51.3149H52.5641H53.8146H55.0651V19.9997H56.3143V18.7505Z" fill="#537E29"/>
<path d="M55.0649 31.25H53.8145V32.4992H55.0649V31.25Z" fill="#537E29"/>
<path d="M55.0649 27.4995V26.249H53.8145V27.4995V28.75H55.0649V27.4995Z" fill="#537E29"/>
<path d="M55.0649 20H53.8145V21.2505H55.0649V20Z" fill="#537E29"/>
<path d="M53.814 28.75H52.5635V29.9992V31.2497H53.814V29.9992V28.75Z" fill="#537E29"/>
<path d="M51.3145 32.4992V33.7497H52.5637V32.4992V31.25H51.3145V32.4992Z" fill="#537E29"/>
<path d="M52.5637 26.249H51.3145V27.4995V28.75H52.5637V27.4995V26.249Z" fill="#537E29"/>
<path d="M51.3149 33.75H50.0645V35.0005H51.3149V33.75Z" fill="#537E29"/>
<path d="M46.2498 17.4997H38.7508V15H37.5003V17.4997H30V18.7489H36.2498V21.2498H34.9968V23.7495H33.7502V24.9936H34.9968V34.9936H36.246V29.9968H43.7463V33.747H44.9968V21.2498H37.5003V18.7489H48.7495V17.4997H46.2498ZM43.7502 27.4997V28.7489H36.2498V26.2492H43.7502V27.4997ZM38.7534 22.5029H43.7502V24.9936H36.2498V22.499H38.7508L38.7534 22.5029Z" fill="#537E29"/>
<rect x="13" y="2" width="2" height="47" fill="#FFF9E6"/>
<rect x="103" y="4" width="2" height="45" fill="#C7CC87"/>
</svg>
