<svg width="96" height="51" viewBox="0 0 96 51" fill="none" xmlns="http://www.w3.org/2000/svg">
<rect x="1" y="1" width="94" height="49" fill="#CCE9E9" stroke="#2B4754" stroke-width="2"/>
<rect x="4" y="47" width="90" height="2" fill="#82BDD1"/>
<rect x="2" y="2" width="92" height="2" fill="#EFFFFC"/>
<g clip-path="url(#clip0_784:101598)">
<path d="M35.2509 17.4998H27.7514V15H26.5008V17.4998H19V18.7491H25.2502V21.2502H23.9971V23.7501H22.7504V24.9942H23.9971V34.9949H25.2464V29.9978H32.7472V33.7482H33.9978V21.2502H26.5008V18.7491H37.7507V17.4998H35.2509ZM32.751 27.5005V28.7498H25.2502V26.2499H32.751V27.5005ZM27.7539 22.5034H32.751V24.9942H25.2502V22.4995H27.7514L27.7539 22.5034Z" fill="#2B4754"/>
<path d="M32.7515 33.751H31.501V35.0003H32.7515V33.751Z" fill="#2B4754"/>
<path d="M31.5012 32.5H30.252V33.7506H31.5012V32.5Z" fill="#2B4754"/>
<path d="M22.7506 24.999H21.5V26.2496H22.7506V24.999Z" fill="#2B4754"/>
<path d="M21.5003 26.25H20.251V27.5006H21.5003V26.25Z" fill="#2B4754"/>
<path d="M20.2506 27.5H19V28.7493H20.2506V27.5Z" fill="#2B4754"/>
<path d="M72.7579 23.7501H75.2577V21.2502H77.7588V19.9971H75.2577V17.4998H71.5086V15H70.2529V17.4998H66.5076V18.7491H70.2529V19.9971H65.2558V21.2477H70.2529V22.497H66.5076V23.7475H70.2529V24.9942H66.5076V26.2499H70.2529V28.7498H65.2558V30.0003H70.2529V32.5002H64.0078V33.7507H77.7588V32.5002H71.5086V30.0003H76.5057V28.7498H71.5086V26.2499H75.2577V24.9942H71.5086V23.7501H72.7579ZM71.5086 18.753H74.0085V19.9971H71.5086V18.753ZM71.5086 21.2541H74.0085V22.5034H71.5086V21.2541Z" fill="#2B4754"/>
<path d="M65.2565 24.9991V23.7498V22.4993H64.0072H62.7567V21.25H61.5074V22.4993H60.2568V23.7498H61.5074H62.7567H64.0072V24.9991V26.2497H65.2565V24.9991Z" fill="#2B4754"/>
<path d="M65.2561 18.7493V17.5H64.0068H62.7563H61.507H60.2564H59.0059V18.7493H60.2564H61.507H62.7563H64.0068V19.9998H65.2561V18.7493Z" fill="#2B4754"/>
<path d="M64.0074 31.251H62.7568V32.5003H64.0074V31.251Z" fill="#2B4754"/>
<path d="M64.0074 27.5006V26.25H62.7568V27.5006V28.7498H64.0074V27.5006Z" fill="#2B4754"/>
<path d="M64.0074 20H62.7568V21.2506H64.0074V20Z" fill="#2B4754"/>
<path d="M62.7571 28.75H61.5078V30.0006V31.2511H62.7571V30.0006V28.75Z" fill="#2B4754"/>
<path d="M60.2568 32.5003V33.7508H61.5074V32.5003V31.251H60.2568V32.5003Z" fill="#2B4754"/>
<path d="M61.5074 26.25H60.2568V27.5006V28.7498H61.5074V27.5006V26.25Z" fill="#2B4754"/>
<path d="M60.2564 33.751H59.0059V35.0003H60.2564V33.751Z" fill="#2B4754"/>
<path d="M56.5071 33.751H55.2578V35.0003H56.5071V33.751Z" fill="#2B4754"/>
<path d="M55.2616 17.4998H52.7566V16.2493H51.5073V17.4998H45.2571V19.9971H42.7572V15H41.5067V19.9971H39.0068V21.2477H41.5067V26.2448H40.2561V27.4954H41.5067V33.7456H42.7572V26.2499H44.0065V24.9942H42.7572V21.2502H45.2571V23.7501H44.0065V24.9942H45.2571V33.7456H46.5064V23.7514H51.5035V24.9942H47.7569V31.2458H50.2568V32.495H51.5073V31.2458H52.7566V32.495H54.0072V31.2458H56.507V24.9942H52.7566V23.7501H57.7537V22.4995H55.2616V21.2502H56.5109V19.9971H55.2616V18.7491H57.7614V17.4998H55.2616ZM49.0075 19.9971H47.7569V21.2477H49.0075V22.497H46.5064V18.7491H49.0075V19.9971ZM51.5073 29.9914H49.0075V28.7408H51.5073V29.9914ZM51.5073 27.4915H49.0075V26.2499H51.5073V27.4915ZM55.2616 30.0003H52.7566V28.7498H55.2616V30.0003ZM54.0072 26.2499H55.2616V27.5005H52.7566V26.2499H54.0072ZM54.0072 22.4995H50.2568V21.2502H54.0072V22.4995ZM54.0072 19.9997H50.2568V18.7491H54.0072V19.9997Z" fill="#2B4754"/>
<path d="M55.2574 32.5H54.0068V33.7506H55.2574V32.5Z" fill="#2B4754"/>
<path d="M51.5064 15H50.2559V16.2493H51.5064V15Z" fill="#2B4754"/>
<path d="M50.2561 32.5H49.0068V33.7506H50.2561V32.5Z" fill="#2B4754"/>
<path d="M49.0074 33.751H47.7568V35.0003H49.0074V33.751Z" fill="#2B4754"/>
<path d="M45.2564 33.751H44.0059V35.0003H45.2564V33.751Z" fill="#2B4754"/>
<path d="M41.5064 33.751H40.2559V35.0003H41.5064V33.751Z" fill="#2B4754"/>
<path d="M40.2561 32.5H39.0068V33.7506H40.2561V32.5Z" fill="#2B4754"/>
<path d="M40.2561 27.5H39.0068V28.7493H40.2561V27.5Z" fill="#2B4754"/>
</g>
<rect x="2" y="2" width="2" height="47" fill="#EFFFFC"/>
<rect x="92" y="4" width="2" height="45" fill="#82BDD1"/>
<defs>
<clipPath id="clip0_784:101598">
<rect width="58.7584" height="20" fill="white" transform="translate(19 15)"/>
</clipPath>
</defs>
</svg>
