<svg width="375" height="47" viewBox="0 0 375 47" fill="none" xmlns="http://www.w3.org/2000/svg">
<rect width="375" height="47" fill="#3A342F"/>
<g clip-path="url(#clip0)">
<path d="M246.999 34.4365H245.398V35.9996H246.999V34.4365Z" fill="#E9E9E9"/>
<path d="M243.799 34.4371H245.399V32.8756V31.3125H243.799V32.8756V34.4371Z" fill="#E9E9E9"/>
<path d="M243.798 29.749H242.199V31.3121H243.798V29.749Z" fill="#E9E9E9"/>
<path d="M240.6 32.8756V34.4371H242.2V32.8756V31.3125H240.6V32.8756Z" fill="#E9E9E9"/>
<path d="M240.6 18.8122V20.3753V21.9368H239.001H237.4H235.799H234.2V20.3753V18.8122V17.2491V15.6876H235.799H237.4H239.001H240.6H242.2V17.2491V18.8122H243.799V17.2491V15.6876H245.4H247.001V14.1245H245.4H243.799H242.2H240.6H239.001H237.4V12.563H235.799V14.1245H234.2H232.6H231.001H229.4H227.799H226.2H224.6V15.6876V17.2491V18.8122V20.3753V21.9368V23.4999V25.0614V26.6245V28.1876V29.7491V31.3122V32.8753H226.2V31.3122V29.7491V28.1876V26.6245V25.0614V23.4999V21.9368V20.3753V18.8122V17.2491V15.6876H227.799H229.4H231.001H232.6V17.2491V18.8122V20.3753V21.9368H231.001H229.4H227.799V23.4999V25.0614V26.6245V28.1876V29.7491V31.3122V32.8753V34.4368V35.9999H229.4V34.4368V32.8753V31.3122V29.7491V28.1876V26.6245V25.0614V23.4999H231.001H232.6H234.2H235.799H237.4V25.0614V26.6245V28.1876V29.7491V31.3122V32.8753V34.4368H239.001V32.8753V31.3122V29.7491V28.1876V26.6245V25.0614V23.4999H240.6V25.0614V26.6245V28.1876V29.7491H242.2V28.1876V26.6245V25.0614V23.4999V21.9368H243.799V23.4999V25.0614V26.6245V28.1876V29.7491H245.4V28.1876V26.6245V25.0614V23.4999V21.9368H247.001V20.3753H245.4H243.799H242.2V18.8122H240.6Z" fill="#E9E9E9"/>
<path d="M240.599 34.4365H239V35.9996H240.599V34.4365Z" fill="#E9E9E9"/>
<path d="M238.999 17.249H237.398V18.8121H238.999V17.249Z" fill="#E9E9E9"/>
<path d="M237.399 34.4365H235.799V35.9996H237.399V34.4365Z" fill="#E9E9E9"/>
<path d="M237.399 18.8125H235.799V20.3756H237.399V18.8125Z" fill="#E9E9E9"/>
<path d="M235.798 32.8755H234.199V34.437H235.798V32.8755Z" fill="#E9E9E9"/>
<path d="M235.799 31.3122V26.6245H231V31.3122H235.799ZM232.606 29.7491V28.1876H234.206V29.7491H232.606Z" fill="#E9E9E9"/>
<path d="M235.798 11H234.199V12.5631H235.798V11Z" fill="#E9E9E9"/>
<path d="M230.999 18.8125H229.398V20.3756H230.999V18.8125Z" fill="#E9E9E9"/>
<path d="M229.399 17.249H227.799V18.8121H229.399V17.249Z" fill="#E9E9E9"/>
<path d="M224.599 32.8755H223V34.437H224.599V32.8755Z" fill="#E9E9E9"/>
<path d="M167.4 15.6877H169V14.1246H167.4H165.801H164.198H162.598H160.999H159.398H157.799V12.5615H156.2V14.1246H154.6H153.001H151.398H149.798H148.199H146.6V15.6877V17.2492H148.199V15.6877H149.798H151.398H153.001H154.6H156.2H157.799H159.398H160.999H162.598H164.198H165.801V17.2492H167.4V15.6877Z" fill="#E9E9E9"/>
<path d="M165.8 32.874V34.4371H167.399V32.874H168.999V31.3125H167.399H165.8H164.197V32.874H165.8Z" fill="#E9E9E9"/>
<path d="M164.197 17.249V18.8121H162.597H160.998H159.397H157.798H156.199H154.598H152.999H151.397H149.796H148.197V20.3736H149.796H151.397H152.999V21.9367H154.598V20.3736H156.199H157.798H159.397H160.998H162.597H164.197H165.799H167.398V18.8121H165.799V17.249H164.197Z" fill="#E9E9E9"/>
<path d="M164.198 25.0616V23.5001V21.937H162.597V23.5001H160.998V25.0616H162.597H164.198Z" fill="#E9E9E9"/>
<path d="M162.597 31.3121H164.198V29.749H162.597H160.998V31.3121H162.597Z" fill="#E9E9E9"/>
<path d="M160.999 28.186H159.398V29.7491H160.999V28.186Z" fill="#E9E9E9"/>
<path d="M160.999 25.0615H159.398V26.6246H160.999V25.0615Z" fill="#E9E9E9"/>
<path d="M156.2 34.4365H154.6V35.998H156.2V34.4365Z" fill="#E9E9E9"/>
<path d="M154.6 25.0616H156.2V26.6247V28.1862H154.6V29.7493H156.2V31.3124V32.8739V34.437H157.799V32.8739V31.3124V29.7493V28.1862H159.398V26.6247H157.799V25.0616V23.5001H156.2V21.937H154.6V23.5001V25.0616Z" fill="#E9E9E9"/>
<path d="M156.2 11H154.6V12.5615H156.2V11Z" fill="#E9E9E9"/>
<path d="M154.599 32.874H153V34.4371H154.599V32.874Z" fill="#E9E9E9"/>
<path d="M154.599 29.749H153V31.3121H154.599V29.749Z" fill="#E9E9E9"/>
<path d="M154.599 25.0615H153V26.6246H154.599V25.0615Z" fill="#E9E9E9"/>
<path d="M151.398 31.3125H149.797V32.874H151.398H153V31.3125H151.398Z" fill="#E9E9E9"/>
<path d="M149.797 26.6245V28.186H151.398H153V26.6245H151.398H149.797Z" fill="#E9E9E9"/>
<path d="M149.797 21.937V23.5001H151.398H153V21.937H151.398H149.797Z" fill="#E9E9E9"/>
<path d="M146.6 32.874V34.4371H148.199H149.798V32.874H148.199H146.6Z" fill="#E9E9E9"/>
<path d="M146.6 28.186V29.7491H148.199H149.798V28.186H148.199H146.6Z" fill="#E9E9E9"/>
<path d="M146.6 23.5V25.0615H148.199H149.798V23.5H148.199H146.6Z" fill="#E9E9E9"/>
<path d="M146.599 17.249H145V18.8121H146.599V17.249Z" fill="#E9E9E9"/>
<path d="M219.287 34.4367V35.9998H221.001V34.4367V32.8752V31.3121V29.7506V28.1875H219.287V29.7506V31.3121V32.8752H217.572V34.4367H219.287Z" fill="#E9E9E9"/>
<path d="M219.287 21.9385H217.572V23.5H219.287V21.9385Z" fill="#E9E9E9"/>
<path d="M219.288 18.8125H221.001V17.251H219.288H217.572H215.857V18.8125H217.572H219.288Z" fill="#E9E9E9"/>
<path d="M217.572 15.6876H219.287V14.1261V12.563H217.572V14.1261V15.6876Z" fill="#E9E9E9"/>
<path d="M217.572 31.3125H215.857V32.8756H217.572V31.3125Z" fill="#E9E9E9"/>
<path d="M217.572 23.5H215.857V25.0631H217.572V23.5Z" fill="#E9E9E9"/>
<path d="M217.572 11H215.857V12.5631H217.572V11Z" fill="#E9E9E9"/>
<path d="M214.143 31.3121H215.856V29.7506V28.1875H214.143V29.7506V31.3121Z" fill="#E9E9E9"/>
<path d="M212.428 28.1876H214.143V26.6245H215.856V25.063H214.143H212.428V26.6245V28.1876Z" fill="#E9E9E9"/>
<path d="M212.428 28.1875H210.715V29.7506H212.428V28.1875Z" fill="#E9E9E9"/>
<path d="M212.429 21.9385V20.3754H214.144H215.857V18.8123H214.144H212.429V17.2508V15.6877V14.1262V12.5631V11H210.715V12.5631V14.1262V15.6877V17.2508V18.8123H209H207.285V20.3754H209H210.715V21.9385V23.5V25.0631H212.429V23.5V21.9385Z" fill="#E9E9E9"/>
<path d="M210.715 29.751H209V31.3125H210.715V29.751Z" fill="#E9E9E9"/>
<path d="M209 31.3125H207.285V32.8756H209V31.3125Z" fill="#E9E9E9"/>
<path d="M207.286 32.8755H205.572V34.437H207.286V32.8755Z" fill="#E9E9E9"/>
<path d="M205.572 17.2508H203.857V15.6877V14.1262V12.5631V11H202.142V12.5631V14.1262V15.6877V17.2508H200.428H198.713H197V18.8123H198.713H200.428H202.142V20.3754V21.9385V23.5H200.428V25.0631H202.142V26.6246V28.1877V29.7508V31.3123V32.8754V34.4369H203.857V32.8754V31.3123V29.7508V28.1877V26.6246V25.0631V23.5H205.572H207.285V21.9385H205.572H203.857V20.3754V18.8123H205.572H207.285V17.2508H205.572Z" fill="#E9E9E9"/>
<path d="M202.141 34.4365H200.428V35.9996H202.141V34.4365Z" fill="#E9E9E9"/>
<path d="M200.428 32.8755H198.713V34.437H200.428V32.8755Z" fill="#E9E9E9"/>
<path d="M197 25.063V26.6245H198.713H200.428V25.063H198.713H197Z" fill="#E9E9E9"/>
<path d="M191.074 31.3125V32.8756H192.617V31.3125V29.751H191.074H189.529V31.3125H191.074Z" fill="#E9E9E9"/>
<path d="M191.074 23.5H189.529V25.0631H191.074V23.5Z" fill="#E9E9E9"/>
<path d="M189.53 21.9385H187.986V23.5H189.53V21.9385Z" fill="#E9E9E9"/>
<path d="M187.986 29.7506H189.529V28.1875H187.986H186.441V29.7506H187.986Z" fill="#E9E9E9"/>
<path d="M187.986 20.3756V18.8125V17.251H186.441V18.8125V20.3756V21.9387H187.986V20.3756Z" fill="#E9E9E9"/>
<path d="M186.441 26.6245H184.896V28.1876H186.441V26.6245Z" fill="#E9E9E9"/>
<path d="M186.441 21.9385H184.896V23.5H186.441V21.9385Z" fill="#E9E9E9"/>
<path d="M183.354 20.3754V18.8123V17.2508V15.6877H184.897H186.442H187.986H189.53H191.074H192.618V14.1262H191.074H189.53H187.986H186.442H184.897H183.354V12.5631V11H181.809V12.5631V14.1262H180.266H178.721H177.176H175.633H174.088H172.545V15.6877H174.088H175.633H177.176H178.721H180.266H181.809V17.2508V18.8123V20.3754V21.9385V23.5H180.266V25.0631V26.6246H181.809V28.1877V29.7508V31.3123V32.8754V34.4369V36H183.354V34.4369V32.8754V31.3123V29.7508V28.1877V26.6246H184.897V25.0631V23.5H183.354V21.9385V20.3754Z" fill="#E9E9E9"/>
<path d="M180.265 26.6245H178.721V28.1876H180.265V26.6245Z" fill="#E9E9E9"/>
<path d="M180.265 21.9385H178.721V23.5H180.265V21.9385Z" fill="#E9E9E9"/>
<path d="M178.721 28.1875H177.176V29.7506H178.721V28.1875Z" fill="#E9E9E9"/>
<path d="M178.721 18.8125V17.251H177.176V18.8125V20.3756V21.9387H178.721V20.3756V18.8125Z" fill="#E9E9E9"/>
<path d="M177.176 21.9385H175.633V23.5H177.176V21.9385Z" fill="#E9E9E9"/>
<path d="M174.088 29.751V31.3125H175.633H177.176V29.751H175.633H174.088Z" fill="#E9E9E9"/>
<path d="M175.633 23.5H174.088V25.0631H175.633V23.5Z" fill="#E9E9E9"/>
<path d="M171 31.3125V32.8756H172.545H174.088V31.3125H172.545H171Z" fill="#E9E9E9"/>
<path d="M192.9 31.3125V32.8756H193.951H195V31.3125H193.951H192.9Z" fill="#E9E9E9"/>
<path d="M139.8 32.874V34.4371H141.399V32.874H143V31.3125H141.399H139.8H138.199V32.874H139.8Z" fill="#E9E9E9"/>
<path d="M138.201 29.749H136.602V31.3121H138.201V29.749Z" fill="#E9E9E9"/>
<path d="M136.601 28.186H135V29.7491H136.601V28.186Z" fill="#E9E9E9"/>
<path d="M133.398 28.1861H134.999V26.6246V25.0615H133.398V26.6246V28.1861Z" fill="#E9E9E9"/>
<path d="M131.801 25.0616H133.4V23.5001V21.937H131.801V23.5001V25.0616Z" fill="#E9E9E9"/>
<path d="M133.399 20.3738H135H136.601H138.2H139.8H141.399H143V18.8123H141.399H139.8H138.2H136.601H135H133.399H131.8V17.2492V15.6877V14.1246V12.5615V11H130.2V12.5615V14.1246V15.6877V17.2492V18.8123H128.601H127H125.399H123.8H122.2H120.601H119V20.3738H120.601H122.2H123.8H125.399H127H128.601H130.2V21.9369H131.8V20.3738H133.399Z" fill="#E9E9E9"/>
<path d="M128.602 23.5001V25.0616V26.6247H130.201V25.0616V23.5001V21.937H128.602V23.5001Z" fill="#E9E9E9"/>
<path d="M127 28.186V29.7491H128.601V28.186V26.6245H127V28.186Z" fill="#E9E9E9"/>
<path d="M126.999 29.749H125.398V31.3121H126.999V29.749Z" fill="#E9E9E9"/>
<path d="M125.4 31.3125H123.801V32.874H125.4V31.3125Z" fill="#E9E9E9"/>
<path d="M123.8 32.874H122.199V34.4371H123.8V32.874Z" fill="#E9E9E9"/>
<path d="M122.201 34.4365H120.602V35.998H122.201V34.4365Z" fill="#E9E9E9"/>
</g>
<g clip-path="url(#clip1)">
<path d="M364.5 31.1011H362.602V32.9999H364.5V31.1011Z" fill="#A1A1A1"/>
<path d="M364.5 29.2002H362.602V31.101H364.5V29.2002Z" fill="#A1A1A1"/>
<path d="M364.5 27.2998H362.602V29.2006H364.5V27.2998Z" fill="#A1A1A1"/>
<path d="M364.5 25.4009H362.602V27.2997H364.5V25.4009Z" fill="#A1A1A1"/>
<path d="M364.5 23.5H362.602V25.4008H364.5V23.5Z" fill="#A1A1A1"/>
<path d="M364.5 21.6011H362.602V23.4999H364.5V21.6011Z" fill="#A1A1A1"/>
<path d="M364.5 19.7002H362.602V21.601H364.5V19.7002Z" fill="#A1A1A1"/>
<path d="M364.5 17.7998H362.602V19.7006H364.5V17.7998Z" fill="#A1A1A1"/>
<path d="M364.5 15.9009H362.602V17.7997H364.5V15.9009Z" fill="#A1A1A1"/>
<path d="M364.5 14H362.602V15.9008H364.5V14Z" fill="#A1A1A1"/>
<path d="M362.602 31.1011H360.701V32.9999H362.602V31.1011Z" fill="#A1A1A1"/>
<path d="M362.602 14H360.701V15.9008H362.602V14Z" fill="#A1A1A1"/>
<path d="M360.7 31.1011H358.799V32.9999H360.7V31.1011Z" fill="#A1A1A1"/>
<path d="M360.7 27.2998H358.799V29.2006H360.7V27.2998Z" fill="#A1A1A1"/>
<path d="M360.7 23.5H358.799V25.4008H360.7V23.5Z" fill="#A1A1A1"/>
<path d="M360.7 19.7002H358.799V21.601H360.7V19.7002Z" fill="#A1A1A1"/>
<path d="M360.7 14H358.799V15.9008H360.7V14Z" fill="#A1A1A1"/>
<path d="M358.799 31.1011H356.9V32.9999H358.799V31.1011Z" fill="#A1A1A1"/>
<path d="M358.799 27.2998H356.9V29.2006H358.799V27.2998Z" fill="#A1A1A1"/>
<path d="M358.799 23.5H356.9V25.4008H358.799V23.5Z" fill="#A1A1A1"/>
<path d="M358.799 19.7002H356.9V21.601H358.799V19.7002Z" fill="#A1A1A1"/>
<path d="M358.799 14H356.9V15.9008H358.799V14Z" fill="#A1A1A1"/>
<path d="M356.901 31.1011H355V32.9999H356.901V31.1011Z" fill="#A1A1A1"/>
<path d="M356.901 27.2998H355V29.2006H356.901V27.2998Z" fill="#A1A1A1"/>
<path d="M356.901 23.5H355V25.4008H356.901V23.5Z" fill="#A1A1A1"/>
<path d="M356.901 19.7002H355V21.601H356.901V19.7002Z" fill="#A1A1A1"/>
<path d="M356.901 15.9009H355V17.7997H356.901V15.9009Z" fill="#A1A1A1"/>
<path d="M356.901 14H355V15.9008H356.901V14Z" fill="#A1A1A1"/>
<path d="M355 31.1011H353.102V32.9999H355V31.1011Z" fill="#A1A1A1"/>
<path d="M355 27.2998H353.102V29.2006H355V27.2998Z" fill="#A1A1A1"/>
<path d="M355 15.9009H353.102V17.7997H355V15.9009Z" fill="#A1A1A1"/>
<path d="M353.102 31.1011H351.201V32.9999H353.102V31.1011Z" fill="#A1A1A1"/>
<path d="M353.102 17.7998H351.201V19.7006H353.102V17.7998Z" fill="#A1A1A1"/>
<path d="M351.2 31.1011H349.299V32.9999H351.2V31.1011Z" fill="#A1A1A1"/>
<path d="M351.2 29.2002H349.299V31.101H351.2V29.2002Z" fill="#A1A1A1"/>
<path d="M351.2 27.2998H349.299V29.2006H351.2V27.2998Z" fill="#A1A1A1"/>
<path d="M351.2 25.4009H349.299V27.2997H351.2V25.4009Z" fill="#A1A1A1"/>
<path d="M351.2 23.5H349.299V25.4008H351.2V23.5Z" fill="#A1A1A1"/>
<path d="M351.2 21.6011H349.299V23.4999H351.2V21.6011Z" fill="#A1A1A1"/>
<path d="M351.2 19.7002H349.299V21.601H351.2V19.7002Z" fill="#A1A1A1"/>
<path d="M351.2 17.7998H349.299V19.7006H351.2V17.7998Z" fill="#A1A1A1"/>
<path d="M349.299 31.1011H347.4V32.9999H349.299V31.1011Z" fill="#A1A1A1"/>
<path d="M349.299 17.7998H347.4V19.7006H349.299V17.7998Z" fill="#A1A1A1"/>
<path d="M347.401 31.1011H345.5V32.9999H347.401V31.1011Z" fill="#A1A1A1"/>
<path d="M347.401 27.2998H345.5V29.2006H347.401V27.2998Z" fill="#A1A1A1"/>
<path d="M347.401 15.9009H345.5V17.7997H347.401V15.9009Z" fill="#A1A1A1"/>
<path d="M345.5 31.1011H343.602V32.9999H345.5V31.1011Z" fill="#A1A1A1"/>
<path d="M345.5 27.2998H343.602V29.2006H345.5V27.2998Z" fill="#A1A1A1"/>
<path d="M345.5 23.5H343.602V25.4008H345.5V23.5Z" fill="#A1A1A1"/>
<path d="M345.5 19.7002H343.602V21.601H345.5V19.7002Z" fill="#A1A1A1"/>
<path d="M345.5 15.9009H343.602V17.7997H345.5V15.9009Z" fill="#A1A1A1"/>
<path d="M345.5 14H343.602V15.9008H345.5V14Z" fill="#A1A1A1"/>
<path d="M343.602 31.1011H341.701V32.9999H343.602V31.1011Z" fill="#A1A1A1"/>
<path d="M343.602 27.2998H341.701V29.2006H343.602V27.2998Z" fill="#A1A1A1"/>
<path d="M343.602 23.5H341.701V25.4008H343.602V23.5Z" fill="#A1A1A1"/>
<path d="M343.602 19.7002H341.701V21.601H343.602V19.7002Z" fill="#A1A1A1"/>
<path d="M343.602 14H341.701V15.9008H343.602V14Z" fill="#A1A1A1"/>
<path d="M341.7 31.1011H339.799V32.9999H341.7V31.1011Z" fill="#A1A1A1"/>
<path d="M341.7 27.2998H339.799V29.2006H341.7V27.2998Z" fill="#A1A1A1"/>
<path d="M341.7 23.5H339.799V25.4008H341.7V23.5Z" fill="#A1A1A1"/>
<path d="M341.7 19.7002H339.799V21.601H341.7V19.7002Z" fill="#A1A1A1"/>
<path d="M341.7 14H339.799V15.9008H341.7V14Z" fill="#A1A1A1"/>
<path d="M339.799 31.1011H337.9V32.9999H339.799V31.1011Z" fill="#A1A1A1"/>
<path d="M339.799 14H337.9V15.9008H339.799V14Z" fill="#A1A1A1"/>
<path d="M337.901 31.1011H336V32.9999H337.901V31.1011Z" fill="#A1A1A1"/>
<path d="M337.901 29.2002H336V31.101H337.901V29.2002Z" fill="#A1A1A1"/>
<path d="M337.901 27.2998H336V29.2006H337.901V27.2998Z" fill="#A1A1A1"/>
<path d="M337.901 25.4009H336V27.2997H337.901V25.4009Z" fill="#A1A1A1"/>
<path d="M337.901 23.5H336V25.4008H337.901V23.5Z" fill="#A1A1A1"/>
<path d="M337.901 21.6011H336V23.4999H337.901V21.6011Z" fill="#A1A1A1"/>
<path d="M337.901 19.7002H336V21.601H337.901V19.7002Z" fill="#A1A1A1"/>
<path d="M337.901 17.7998H336V19.7006H337.901V17.7998Z" fill="#A1A1A1"/>
<path d="M337.901 15.9009H336V17.7997H337.901V15.9009Z" fill="#A1A1A1"/>
<path d="M337.901 14H336V15.9008H337.901V14Z" fill="#A1A1A1"/>
<g clip-path="url(#clip2)">
<path d="M363.501 22.1914V21.3433H362.644V20.4952H361.787V19.6479H360.93H360.074H359.216H358.359V20.4952H357.503V21.3433H356.645V22.1914H355.789V23.0386V23.8867V24.7339H356.645H357.503V23.8867H358.359V23.0386V22.1914H359.216H360.074H360.93H361.787V23.0386V23.8867V24.7339V25.5821H360.93V26.4302H360.074V27.2774H359.216V28.1255V28.9727V29.8208V30.6689H360.074H360.93H361.787V29.8208V28.9727V28.1255V27.2774H362.644V26.4302H363.501V25.5821H364.358V24.7339V23.8867V23.0386V22.1914H363.501Z" fill="#FFD551"/>
<path d="M360.074 31.5161H359.217V32.3642V33.2114V34.0595H360.074H360.93H361.788V33.2114V32.3642V31.5161H360.93H360.074Z" fill="#FFD551"/>
</g>
</g>
<rect x="325" width="2" height="47" fill="#626262"/>
<rect x="325" width="50" height="2" fill="#626262"/>
<rect x="323" width="2" height="47" fill="black"/>
<rect x="373" y="2" width="2" height="45" fill="black"/>
<rect x="327" y="45" width="46" height="2" fill="black"/>
<rect y="45" width="323" height="2" fill="black"/>
<defs>
<clipPath id="clip0">
<rect width="144" height="25" fill="white" transform="translate(115 11)"/>
</clipPath>
<clipPath id="clip1">
<rect width="28.5" height="19" fill="white" transform="translate(336 14)"/>
</clipPath>
<clipPath id="clip2">
<rect width="8.56908" height="14.4116" fill="white" transform="translate(355.789 19.6479)"/>
</clipPath>
</defs>
</svg>
