<svg width="110" height="51" viewBox="0 0 110 51" fill="none" xmlns="http://www.w3.org/2000/svg">
<rect width="110" height="51" fill="#C9EAF9"/>
<rect width="2" height="51" fill="#006788"/>
<rect x="108" width="2" height="51" fill="#006788"/>
<rect x="2" y="2" width="2" height="47" fill="white"/>
<rect x="106" y="4" width="2" height="45" fill="#ACD7EB"/>
<rect x="4" y="2" width="104" height="2" fill="white"/>
<rect x="4" y="47" width="104" height="2" fill="#ACD7EB"/>
<rect y="51" width="2" height="110" transform="rotate(-90 0 51)" fill="#006788"/>
<rect y="2" width="2" height="110" transform="rotate(-90 0 2)" fill="#006788"/>
<g clip-path="url(#clip0)">
<path d="M93.5007 31.001V32.2502V33.5007H92.2524H91.0042H89.7547H88.5064H87.2556H86.0073H84.7578V34.7499H86.0073H87.2556H88.5064H89.7547H91.0042H92.2524H93.5007H94.7502V33.5007V32.2502V31.001H93.5007Z" fill="#006788"/>
<path d="M91.0034 28.5H89.7539V29.7505H91.0034V28.5Z" fill="#006788"/>
<path d="M91.0034 23.5011V24.7516V26.0008V27.2513V28.5005H92.2517V27.2513V26.0008V24.7516V23.5011V22.2507V21.0015V19.751H91.0034V21.0015H89.7539V22.2507H91.0034V23.5011Z" fill="#006788"/>
<path d="M84.7568 31.0006V29.7502V28.4997V27.2505V26V24.7508H86.0064H87.2546V26V27.2505V28.4997V29.7502V31.0006V32.2498H88.5054V31.0006V29.7502V28.4997H89.7537V27.2505H88.5054V26V24.7508V23.5003H89.7537V22.2498H88.5054V21.0006V19.7502V18.501V17.2505V16H87.2546V17.2505V18.501V19.7502V21.0006V22.2498V23.5003H86.0064H84.7568V22.2498V21.0006H83.5073V22.2498V23.5003V24.7508H82.259H81.0095V23.5003V22.2498V21.0006V19.7502H79.76V21.0006V22.2498H78.5117V23.5003H79.76V24.7508V26V27.2505V28.4997V29.7502V31.0006V32.2498V33.5003V34.7495V36H81.0095V34.7495V33.5003V32.2498V31.0006V29.7502V28.4997V27.2505V26H82.259H83.5073V27.2505V28.4997V29.7502V31.0006V32.2498V33.5003H84.7568V32.2498V31.0006Z" fill="#006788"/>
<path d="M82.2594 18.501V17.2505V16H81.0098V17.2505V18.501V19.7502H82.2594V18.501Z" fill="#006788"/>
<path d="M78.5132 23.5H77.2637V24.7505H78.5132V23.5Z" fill="#006788"/>
<path d="M77.2638 24.751H76.0156V26.0002H77.2638V24.751Z" fill="#006788"/>
<path d="M54.7202 26.002H53.4707V27.2512H54.7202V26.002Z" fill="#006788"/>
<path d="M53.4709 24.751H52.2227V26.0015H53.4709V24.751Z" fill="#006788"/>
<path d="M50.9722 28.501H49.7227V29.7502H50.9722V28.501Z" fill="#006788"/>
<path d="M50.9726 19.7519H54.7199V18.5015H48.4748V17.251H47.2253V18.5015H38.4824V32.2516H39.7307V27.2548H40.9802V26.0018H39.7307V23.5008H42.2297V24.7513H43.478V27.251H44.7275V24.7513H45.977V23.5008H48.4748V24.7513H49.7231V27.251H50.9726V24.7513H52.2221V23.5008H54.7199V22.2516H50.9726V19.7519ZM40.9802 22.2516H39.7307V19.7519H43.478V22.2516H40.9802ZM49.7231 22.2516H44.7301V19.7519H49.7231V22.2516Z" fill="#006788"/>
<path d="M45.9766 24.751V26.0015H47.2248H48.4743V24.751H47.2248H45.9766Z" fill="#006788"/>
<path d="M47.2248 16.002H45.9766V17.2512H47.2248V16.002Z" fill="#006788"/>
<path d="M45.9781 27.251H44.7285V28.5015H45.9781V27.251Z" fill="#006788"/>
<path d="M43.4783 32.251V33.5002H42.23H40.9805V34.7507H42.23V35.9999H43.4783V34.7507H44.7278H45.9773H47.2256H48.4751H49.7234H50.9729H52.2224H53.4707V35.9999H54.7202V34.7507V33.5002H53.4707V32.251H52.2224V33.5002H50.9729H49.7234H48.4751H47.2256H45.9773V32.251H44.7278H43.4783Z" fill="#006788"/>
<path d="M43.4787 29.7502H42.2305V31.0007H43.4787H44.7283H45.9778V32.2511H47.226V31.0007H48.4756H49.7238V29.7502H48.4756H47.226H45.9778H44.7283V28.501H43.4787V29.7502Z" fill="#006788"/>
<path d="M42.23 24.751H40.9805V26.0015H42.23V24.751Z" fill="#006788"/>
<path d="M37.2344 33.5002V34.7507H38.4839V33.5002V32.251H37.2344V33.5002Z" fill="#006788"/>
<path d="M37.2326 34.751H35.9844V36.0002H37.2326V34.751Z" fill="#006788"/>
<path d="M73.5167 18.501H72.2685V17.2505V16H71.019V17.2505V18.501H69.7707H68.5212H67.2717H66.0234V19.7502H67.2717V21.0006H68.5212V19.7502H69.7707H71.019V21.0006V22.2498V23.5003V24.7508H72.2685V23.5003V22.2498V21.0006V19.7502H73.5167H74.7663V18.501H73.5167Z" fill="#006788"/>
<path d="M72.2671 34.75H71.0176V36.0005H72.2671V34.75Z" fill="#006788"/>
<path d="M71.0178 33.5H69.7695V34.7492H71.0178V33.5Z" fill="#006788"/>
<path d="M69.7706 26.0002H66.022V24.751H64.7776V26.0002H61.0251V30.997H58.5273V35.9938H59.7769V32.25H64.7699V36.0002H66.0194V32.25H72.2671V34.7497H73.5153V31.0008H71.0176V24.751H69.7706V26.0002ZM69.7706 30.997H62.2747V29.7465H69.7706V30.997ZM69.7706 28.496H62.2747V27.2507H69.7706V28.496Z" fill="#006788"/>
<path d="M69.7691 23.5H68.5195V24.7505H69.7691V23.5Z" fill="#006788"/>
<path d="M69.7691 21H68.5195V22.2492H69.7691V21Z" fill="#006788"/>
<path d="M67.2717 23.5H66.0234V24.7505H67.2717V23.5Z" fill="#006788"/>
<path d="M64.7722 22.2498H63.5239H62.2744V21.0006H63.5239H64.7722H66.0217V19.7502H64.7722H63.5239H62.2744V18.501H63.5239H64.7722V17.2505H63.5239H62.2744V16H61.0249V17.2505H59.7766H58.5271V18.501H59.7766H61.0249V19.7502H59.7766H58.5271H57.2788V21.0006H58.5271H59.7766H61.0249V22.2498V23.5003H59.7766H58.5271H57.2788H56.0293V24.7508H57.2788V26H58.5271V24.7508H59.7766H61.0249H62.2744V23.5003H63.5239H64.7722H66.0217V22.2498H64.7722Z" fill="#006788"/>
<path d="M33.4863 31.001V32.2515V33.5007H34.7359V32.2515V31.001H33.4863Z" fill="#006788"/>
<path d="M33.4865 29.75H32.2383V31.0005H33.4865V29.75Z" fill="#006788"/>
<path d="M29.7388 32.2515V33.5007H28.4892H27.2397H25.9915H24.7419H23.4937H22.2441V34.7511H23.4937H24.7419H25.9915H27.2397H28.4892H29.7388H30.987V33.5007V32.2515V31.001H29.7388V32.2515Z" fill="#006788"/>
<path d="M25.9922 32.251H27.2404V31.0005V29.75H25.9922V31.0005V32.251Z" fill="#006788"/>
<path d="M25.9917 28.501H24.7422V29.7502H25.9917V28.501Z" fill="#006788"/>
<path d="M23.4954 19.7521H24.7436H25.9932H27.2414H28.4909H29.7405H30.9887H32.2383V18.5016H30.9887H29.7405H28.4909H27.2414H25.9932H24.7436H23.4954H22.2458V17.2512V16.002H20.9963V17.2512V18.5016H19.748V19.7521V21.0013H20.9963V19.7521H22.2458V21.0013V22.2518V23.501V24.7515V26.002V27.2512V28.5016H23.4954V27.2512H24.7436H25.9932H27.2414H28.4909H29.7405H30.9887V26.002H29.7405H28.4909H27.2414H25.9932H24.7436H23.4954V24.7515V23.501H24.7436H25.9932H27.2414H28.4909H29.7405H30.9887V22.2518H29.7405H28.4909H27.2414H25.9932H24.7436H23.4954V21.0013V19.7521Z" fill="#006788"/>
<path d="M22.2456 31.0005V29.75H20.9961V31.0005V32.251V33.5002H22.2456V32.251V31.0005Z" fill="#006788"/>
<path d="M19.7476 21H18.498V22.2505H19.7476V21Z" fill="#006788"/>
<path d="M17.25 31.0005V32.251H18.4983V31.0005V29.75H17.25V31.0005Z" fill="#006788"/>
<path d="M18.4983 22.251H17.25V23.5002H18.4983V22.251Z" fill="#006788"/>
<path d="M17.2495 32.251H16V33.5002H17.2495V32.251Z" fill="#006788"/>
</g>
<defs>
<clipPath id="clip0">
<rect width="78.75" height="20" fill="white" transform="translate(16 16)"/>
</clipPath>
</defs>
</svg>
