<svg fill="none" height="95" viewBox="0 0 153 95" width="153" xmlns="http://www.w3.org/2000/svg"><path clip-rule="evenodd" d="m1 0h-1v1 10c0 .5523.447715 1 1 1 .55228 0 1-.4477 1-1v-9h9c.5523 0 1-.44772 1-1 0-.552285-.4477-1-1-1zm150 0h1v1 10c0 .5523-.448 1-1 1s-1-.4477-1-1v-9h-9c-.552 0-1-.44772-1-1 0-.552285.448-1 1-1zm-151 95h1 10c.5523 0 1-.4477 1-1s-.4477-1-1-1h-9v-9c0-.5523-.44772-1-1-1-.552285 0-1 .4477-1 1v10zm152-1h1v-1-10c0-.5523-.448-1-1-1s-1 .4477-1 1v9h-9c-.552 0-1 .4477-1 1s.448 1 1 1zm-81-47c0-.5523.4477-1 1-1h3v-3c0-.5523.4477-1 1-1s1 .4477 1 1v3h3c.5523 0 1 .4477 1 1s-.4477 1-1 1h-3v3c0 .5523-.4477 1-1 1s-1-.4477-1-1v-3h-3c-.5523 0-1-.4477-1-1z" fill="#ea1818" fill-rule="evenodd"/></svg>