<svg width="230" height="57" viewBox="0 0 230 57" fill="none" xmlns="http://www.w3.org/2000/svg">
<path d="M10.7831 46.3145H7.1875V49.8749H10.7831V46.3145Z" fill="#359DB5"/>
<path d="M222.812 10.6895V14.2499V17.814V21.3744V24.9385V28.5026V32.0631V35.6272V39.1876V42.7517V46.3158H226.408V42.7517V39.1876V35.6272V32.0631V28.5026V24.9385V21.3744V17.814V14.2499V10.6895H222.812Z" fill="#359DB5"/>
<path d="M222.812 46.3145H219.217V49.8749H222.812V46.3145Z" fill="#359DB5"/>
<path d="M222.812 7.125H219.217V10.6891H222.812V7.125Z" fill="#359DB5"/>
<path d="M212.029 49.875H208.437H204.841H201.246H197.654H194.058H190.466H186.871H183.275H179.683H176.087H172.495H168.9H165.304H161.712H158.116H154.521H150.929H147.333H143.741H140.146H136.55H132.958H129.362H125.77H122.204H122.175H118.608H115.017H111.421H107.829H104.233H100.638H97.0456H93.45H89.858H86.2624H82.6667H79.0747H75.4791H71.8834H68.2915H64.6958H61.1039H57.5082H53.9126H50.3206H46.725H43.133H39.5373H35.9417H32.3497H28.7541H25.1621H21.5665H17.9708H14.3789H10.7832V53.4391H14.3789H17.9708H21.5665H25.1621H28.7541H32.3497H35.9417H39.5373H43.133H46.725H50.3206H53.9126H57.5082H61.1039H64.6958H68.2915H71.8834H75.4791H79.0747H82.6667H86.2624H89.858H93.45H97.0456H100.638H104.233H107.829H111.421H115.017H118.608H122.175H122.204H125.77H129.362H132.958H136.55H140.146H143.741H147.333H150.929H154.521H158.116H161.712H165.304H168.9H172.495H176.087H179.683H183.275H186.871H190.466H194.058H197.654H201.246H204.841H208.437H212.029H215.625H219.217V49.875H215.625H212.029Z" fill="#359DB5"/>
<path d="M219.202 10.6891V7.125H14.3677V10.6891H10.7831V14.2422H7.1875V46.3082H10.7831V49.8686H219.202V46.3082H222.798V10.6891H219.202Z" fill="#6ECFED"/>
<path d="M215.625 3.56055H212.029H208.437H204.842H201.246H197.654H194.058H190.466H186.871H183.275H179.683H176.087H172.495H168.9H165.304H161.712H158.117H154.521H150.929H147.333H143.741H140.146H136.55H132.958H129.362H125.77H122.204H122.175H118.609H115.017H111.421H107.829H104.233H100.638H97.0458H93.4501H89.8581H86.2625H82.6668H79.0749H75.4792H71.8836H68.2916H64.696H61.104H57.5083H53.9127H50.3207H46.7251H43.1331H39.5375H35.9418H32.3498H28.7542H25.1622H21.5666H17.9709H14.379H10.7833V7.12464H7.18767V10.6887H3.5957V14.2492V17.8133V21.3737V24.9378V28.5019V32.0624V35.6265V39.1869V42.751V46.3151H7.18767V42.751V39.1869V35.6265V32.0624V28.5019V24.9378V21.3737V17.8133V14.2492H10.7833V10.6887H14.379V7.12464H17.9709H21.5666H25.1622H28.7542H32.3498H35.9418H39.5375H43.1331H46.7251H50.3207H53.9127H57.5083H61.104H64.696H68.2916H71.8836H75.4792H79.0749H82.6668H86.2625H89.8581H93.4501H97.0458H100.638H104.233H107.829H111.421H115.017H118.609H122.175H122.204H125.77H129.362H132.958H136.55H140.146H143.741H147.333H150.929H154.521H158.117H161.712H165.304H168.9H172.495H176.087H179.683H183.275H186.871H190.466H194.058H197.654H201.246H204.842H208.437H212.029H215.625H219.217V3.56055H215.625Z" fill="#ACF1FC"/>
<path d="M17.9708 3.56045H21.5665H25.1621H28.7541H32.3497H35.9417H39.5373H43.133H46.725H50.3206H53.9126H57.5082H61.1039H64.6958H68.2915H71.8834H75.4791H79.0747H82.6667H86.2624H89.858H93.45H97.0456H100.638H104.233H107.829H111.421H115.017H118.608H122.175H122.204H125.77H129.362H132.958H136.55H140.146H143.741H147.333H150.929H154.521H158.116H161.712H165.304H168.9H172.495H176.087H179.683H183.275H186.871H190.466H194.058H197.654H201.246H204.841H208.437H212.029H215.625H219.217V0H215.625H212.029H208.437H204.841H201.246H197.654H194.058H190.466H186.871H183.275H179.683H176.087H172.495H168.9H165.304H161.712H158.116H154.521H150.929H147.333H143.741H140.146H136.55H132.958H129.362H125.77H122.204H122.175H118.608H115.017H111.421H107.829H104.233H100.638H97.0456H93.45H89.858H86.2624H82.6667H79.0747H75.4791H71.8834H68.2915H64.6958H61.1039H57.5082H53.9126H50.3206H46.725H43.133H39.5373H35.9417H32.3497H28.7541H25.1621H21.5665H17.9708H14.3789H10.7832V3.56045H14.3789H17.9708Z" fill="#034A51"/>
<path d="M10.7831 49.875H7.1875V53.4391H10.7831V49.875Z" fill="#034A51"/>
<path d="M10.7831 3.56055H7.1875V7.12464H10.7831V3.56055Z" fill="#034A51"/>
<path d="M7.18767 46.3145H3.5957V49.8749H7.18767V46.3145Z" fill="#034A51"/>
<path d="M7.18767 7.125H3.5957V10.6891H7.18767V7.125Z" fill="#034A51"/>
<path d="M3.59565 39.1876V35.6272V32.0631V28.5026V24.9385V21.3744V17.814V14.2499V10.6895H0V14.2499V17.814V21.3744V24.9385V28.5026V32.0631V35.6272V39.1876V42.7517V46.3158H3.59565V42.7517V39.1876Z" fill="#034A51"/>
<path d="M226.408 10.6895V14.2499V17.814V21.3744V24.9385V28.5026V32.0631V35.6272V39.1876V42.7517V46.3158H230V42.7517V39.1876V35.6272V32.0631V28.5026V24.9385V21.3744V17.814V14.2499V10.6895H226.408Z" fill="#034A51"/>
<path d="M226.408 46.3145H222.812V49.8749H226.408V46.3145Z" fill="#034A51"/>
<path d="M226.408 7.125H222.812V10.6891H226.408V7.125Z" fill="#034A51"/>
<path d="M222.812 49.875H219.217V53.4391H222.812V49.875Z" fill="#034A51"/>
<path d="M222.812 3.56055H219.217V7.12464H222.812V3.56055Z" fill="#034A51"/>
<path d="M212.029 53.4395H208.437H204.841H201.246H197.654H194.058H190.466H186.871H183.275H179.683H176.087H172.495H168.9H165.304H161.712H158.116H154.521H150.929H147.333H143.741H140.146H136.55H132.958H129.362H125.77H122.204H122.175H118.608H115.017H111.421H107.829H104.233H100.638H97.0456H93.45H89.858H86.2624H82.6667H79.0747H75.4791H71.8834H68.2915H64.6958H61.1039H57.5082H53.9126H50.3206H46.725H43.133H39.5373H35.9417H32.3497H28.7541H25.1621H21.5665H17.9708H14.3789H10.7832V56.9999H14.3789H17.9708H21.5665H25.1621H28.7541H32.3497H35.9417H39.5373H43.133H46.725H50.3206H53.9126H57.5082H61.1039H64.6958H68.2915H71.8834H75.4791H79.0747H82.6667H86.2624H89.858H93.45H97.0456H100.638H104.233H107.829H111.421H115.017H118.608H122.175H122.204H125.77H129.362H132.958H136.55H140.146H143.741H147.333H150.929H154.521H158.116H161.712H165.304H168.9H172.495H176.087H179.683H183.275H186.871H190.466H194.058H197.654H201.246H204.841H208.437H212.029H215.625H219.217V53.4395H215.625H212.029Z" fill="#034A51"/>
<path fill-rule="evenodd" clip-rule="evenodd" d="M67.4471 23.6832V17.2253H80.4382V14H83.6697V17.2181H96.6608V23.676H93.4292V20.465H70.7093V23.6832H67.4471ZM93.4292 30.1482H90.1653V33.3645H86.9499V30.1482H83.6859V26.93H90.1743V23.6832H70.7093V26.93H77.2066V30.141L80.4382 30.1482V33.3645H77.2066V30.1482H70.7093V33.3645H77.2066V36.6132H67.4471V39.8277L77.2066 39.8295V43.0782H83.6697V39.8295H86.9337V36.6132H90.1653V39.8224H96.6536V36.606H90.1815V33.3645H93.4292V30.1482ZM93.4292 30.1482V26.93H96.6608V30.1482H93.4292ZM83.6697 39.8295V33.3717H80.4382V36.6132H77.2066V39.8295H83.6697ZM60.9821 39.8294H57.7182V36.613H54.4866V30.1552H51.2226V23.6973H47.9911V30.1552H44.7595V23.6973H35V20.4648H47.9911V14.007H51.2226V20.4648H64.2137V23.683H54.4812V30.1408H57.7128V36.5987H60.9767L60.9821 39.8294ZM60.9821 39.8294H64.2137V43.078H60.9821V39.8294ZM41.4955 36.613V30.1552H44.7595V36.613H41.4955ZM38.264 39.8294V36.613H41.4955V39.8294H38.264ZM38.264 39.8294V43.078H35V39.8294H38.264ZM99.8923 17.2181V20.465L106.388 20.4722V26.93H109.652V30.1482H112.883V33.3645H109.652V36.606H112.883V43.0638H116.117V36.606H119.379V33.3574H116.117V30.141H119.379V26.9228H122.619V20.465H129.108V17.2181H116.117V14H112.883V17.2181H99.8923ZM119.379 26.9228H116.117V20.465H119.379V26.9228ZM109.652 26.93V20.4722H112.883V26.93H109.652ZM99.8923 30.1482V33.3645H103.156V30.1518H106.381V26.9336L103.156 26.93V30.1482H99.8923ZM99.8923 39.8295V43.0782H106.381V39.8295H99.8923ZM109.645 39.8367V36.6204L106.388 36.6132V39.8367H109.645ZM119.379 39.8367H122.605V43.0854H129.093V39.8367H122.605L122.612 36.6132H119.379V39.8367ZM122.605 30.15H125.867L125.874 33.3663H129.101V30.15H125.867V26.93H122.605V30.15ZM132.339 43.0782V39.8295H135.603V33.3717H132.339V30.1482H135.603V23.6903H132.339V20.465H135.603V14.0072H138.835V20.465H142.099V23.6832H138.835V26.93H142.099V30.1482H138.835V43.0782H132.339ZM145.33 23.6832V20.465H148.562V14.0072H151.826V20.465H161.558V23.6832H151.826V33.3645H155.057L155.063 36.6186H161.551V43.0764H158.321V39.8295H155.057L155.063 36.6204H151.826V39.8367H148.562V43.0782H145.33V39.8295H148.562V36.6132H151.826V33.3699H148.562V23.6832H145.33ZM155.063 17.2253V14H158.327V17.2181L155.063 17.2253ZM155.063 33.3699V26.93H158.327V33.3645L155.063 33.3699ZM164.785 17.2181V43.0782L174.531 43.071V36.6132H168.043V33.3645H177.776V43.0818H181.007V30.1518H174.542V23.6939H171.278V30.1518H168.047V20.465H194V17.2181H184.268V14H181.005V17.2181H164.785ZM177.776 23.6868V26.9336H181.009V23.6868H177.776ZM187.512 39.8331H190.767V43.0818H194V39.8331H190.767L190.759 36.6168H193.993V26.93H187.504V23.6832H184.271V36.6132H187.504V39.8295H184.278V43.0818L187.512 43.0782V39.8331ZM190.767 36.6132H187.504V30.1553H190.767V36.6132Z" fill="#033747"/>
</svg>
