<svg width="103" height="95" fill="none" xmlns="http://www.w3.org/2000/svg"><path fill="#3A2C1E" d="M0 33h103v50H0zM6 83h90v4H6zM14 87h74v4H14zM20 91h62v4H20z"/><g clip-path="url(#a)"><path d="M97 59.648h-4.547v4.586H97v-4.586Z" fill="#B9BF6A"/><path d="M97 55.059h-4.547v4.59H97v-4.59ZM97 50.473h-4.547v4.585H97v-4.585ZM97 45.883h-4.547v4.59H97v-4.59ZM97 41.293h-4.547v4.59H97v-4.59ZM97 36.707h-4.547v4.585H97v-4.585Z" fill="#B9BF6A"/><path d="M97 32.117h-4.547v4.59H97v-4.59Z" fill="#FFF9E6"/><path d="M97 27.531h-4.547v4.586H97V27.53Z" fill="#FFF9E6"/><path d="M97 22.941h-4.547v4.59H97v-4.59Z" fill="#D9E0A2"/><path d="M92.452 68.824H87.9v4.59h4.552v-4.59ZM92.452 64.234H87.9v4.59h4.552v-4.59Z" fill="#B9BF6A"/><path d="M92.452 59.648H87.9v4.586h4.552v-4.586Z" fill="#B9BF6A"/><path d="M92.452 55.059H87.9v4.59h4.552v-4.59ZM92.452 50.473H87.9v4.585h4.552v-4.585ZM92.452 45.883H87.9v4.59h4.552v-4.59ZM92.452 41.293H87.9v4.59h4.552v-4.59Z" fill="#B9BF6A"/><path d="M92.452 36.707H87.9v4.585h4.552v-4.585ZM92.452 32.117H87.9v4.59h4.552v-4.59Z" fill="#FFF9E6"/><path d="M92.452 27.531H87.9v4.586h4.552V27.53Z" fill="#D9E0A2"/><path d="M92.452 22.941H87.9v4.59h4.552v-4.59Z" fill="#D9E0A2"/><path d="M92.452 13.766H87.9v4.585h4.552v-4.585Z" fill="#5D7A3F"/><path d="M92.452 9.176H87.9v4.59h4.552v-4.59Z" fill="#5D7A3F"/><path d="M92.452 4.59H87.9v4.585h4.552V4.59Z" fill="#779659"/><path d="M87.901 73.415H83.35V78h4.552v-4.585ZM87.901 68.824H83.35v4.59h4.552v-4.59ZM87.901 64.234H83.35v4.59h4.552v-4.59Z" fill="#B9BF6A"/><path d="M87.901 59.648H83.35v4.586h4.552v-4.586Z" fill="#B9BF6A"/><path d="M87.901 55.059H83.35v4.59h4.552v-4.59Z" fill="#A3A550"/><path d="M87.901 50.473H83.35v4.585h4.552v-4.585ZM87.901 45.883H83.35v4.59h4.552v-4.59ZM87.901 41.293H83.35v4.59h4.552v-4.59Z" fill="#B9BF6A"/><path d="M87.901 36.707H83.35v4.585h4.552v-4.585Z" fill="#FFF9E6"/><path d="M87.901 32.117H83.35v4.59h4.552v-4.59Z" fill="#D9E0A2"/><path d="M87.901 27.531H83.35v4.586h4.552V27.53Z" fill="#D9E0A2"/><path d="M87.901 22.941H83.35v4.59h4.552v-4.59Z" fill="#D9E0A2"/><path d="M87.901 18.352H83.35v4.59h4.552v-4.59ZM87.901 13.766H83.35v4.585h4.552v-4.585Z" fill="#6D6D30"/><path d="M87.901 9.176H83.35v4.59h4.552v-4.59ZM87.901 4.59H83.35v4.585h4.552V4.59ZM87.901 0H83.35v4.59h4.552V0Z" fill="#779659"/><path d="M83.349 73.415h-4.547V78h4.547v-4.585ZM83.349 68.824h-4.547v4.59h4.547v-4.59Z" fill="#B9BF6A"/><path d="M83.349 64.234h-4.547v4.59h4.547v-4.59Z" fill="#A3A550"/><path d="M83.349 59.648h-4.547v4.586h4.547v-4.586Z" fill="#B9BF6A"/><path d="M83.349 55.059h-4.547v4.59h4.547v-4.59ZM83.349 50.473h-4.547v4.585h4.547v-4.585ZM83.349 45.883h-4.547v4.59h4.547v-4.59Z" fill="#B9BF6A"/><path d="M83.349 41.293h-4.547v4.59h4.547v-4.59Z" fill="#FFF9E6"/><path d="M83.349 36.707h-4.547v4.585h4.547v-4.585ZM83.349 32.117h-4.547v4.59h4.547v-4.59Z" fill="#D9E0A2"/><path d="M83.349 27.531h-4.547v4.586h4.547V27.53Z" fill="#D9E0A2"/><path d="M83.349 22.941h-4.547v4.59h4.547v-4.59Z" fill="#D9E0A2"/><path d="M83.349 13.766h-4.547v4.585h4.547v-4.585Z" fill="#5D7A3F"/><path d="M83.349 9.176h-4.547v4.59h4.547v-4.59Z" fill="#779659"/><path d="M83.349 4.59h-4.547v4.585h4.547V4.59Z" fill="#5D7A3F"/><path d="M83.349 0h-4.547v4.59h4.547V0Z" fill="#779659"/><path d="M78.802 73.415H74.25V78h4.552v-4.585ZM78.802 68.824H74.25v4.59h4.552v-4.59ZM78.802 64.234H74.25v4.59h4.552v-4.59Z" fill="#B9BF6A"/><path d="M78.802 59.648H74.25v4.586h4.552v-4.586Z" fill="#B9BF6A"/><path d="M78.802 55.059H74.25v4.59h4.552v-4.59ZM78.802 50.473H74.25v4.585h4.552v-4.585ZM78.802 45.883H74.25v4.59h4.552v-4.59Z" fill="#B9BF6A"/><path d="M78.802 41.293H74.25v4.59h4.552v-4.59ZM78.802 36.707H74.25v4.585h4.552v-4.585ZM78.802 32.117H74.25v4.59h4.552v-4.59Z" fill="#D9E0A2"/><path d="M78.802 27.531H74.25v4.586h4.552V27.53Z" fill="#C4C985"/><path d="M78.802 22.941H74.25v4.59h4.552v-4.59Z" fill="#D9E0A2"/><path d="M78.802 13.766H74.25v4.585h4.552v-4.585Z" fill="#779659"/><path d="M78.802 9.176H74.25v4.59h4.552v-4.59ZM78.802 4.59H74.25v4.585h4.552V4.59Z" fill="#779659"/><path d="M74.25 73.415h-4.547V78h4.547v-4.585ZM74.25 68.824h-4.547v4.59h4.547v-4.59ZM74.25 64.234h-4.547v4.59h4.547v-4.59Z" fill="#B9BF6A"/><path d="M74.25 59.648h-4.547v4.586h4.547v-4.586Z" fill="#B9BF6A"/><path d="M74.25 55.059h-4.547v4.59h4.547v-4.59ZM74.25 50.473h-4.547v4.585h4.547v-4.585Z" fill="#B9BF6A"/><path d="M74.25 45.883h-4.547v4.59h4.547v-4.59Z" fill="#D9E0A2"/><path d="M74.25 41.293h-4.547v4.59h4.547v-4.59Z" fill="#C4C985"/><path d="M74.25 36.707h-4.547v4.585h4.547v-4.585ZM74.25 32.117h-4.547v4.59h4.547v-4.59Z" fill="#D9E0A2"/><path d="M74.25 27.531h-4.547v4.586h4.547V27.53Z" fill="#D9E0A2"/><path d="M74.25 22.941h-4.547v4.59h4.547v-4.59Z" fill="#D9E0A2"/><path d="M74.25 13.766h-4.547v4.585h4.547v-4.585Z" fill="#779659"/><path d="M69.703 73.415h-4.552V78h4.552v-4.585Z" fill="#B9BF6A"/><path d="M69.703 68.824h-4.552v4.59h4.552v-4.59Z" fill="#A3A550"/><path d="M69.703 64.234h-4.552v4.59h4.552v-4.59Z" fill="#B9BF6A"/><path d="M69.703 59.648h-4.552v4.586h4.552v-4.586Z" fill="#B9BF6A"/><path d="M69.703 55.059h-4.552v4.59h4.552v-4.59Z" fill="#B9BF6A"/><path d="M69.703 50.473h-4.552v4.585h4.552v-4.585Z" fill="#FFF9E6"/><path d="M69.703 45.883h-4.552v4.59h4.552v-4.59ZM69.703 41.293h-4.552v4.59h4.552v-4.59ZM69.703 36.707h-4.552v4.585h4.552v-4.585ZM69.703 32.117h-4.552v4.59h4.552v-4.59Z" fill="#D9E0A2"/><path d="M69.703 27.531h-4.552v4.586h4.552V27.53Z" fill="#D9E0A2"/><path d="M69.703 22.941h-4.552v4.59h4.552v-4.59Z" fill="#D9E0A2"/><path d="M69.703 13.766h-4.552v4.585h4.552v-4.585Z" fill="#5D7A3F"/><path d="M69.703 9.176h-4.552v4.59h4.552v-4.59ZM69.703 4.59h-4.552v4.585h4.552V4.59Z" fill="#779659"/><path d="M65.15 73.415H60.6V78h4.551v-4.585ZM65.15 68.824H60.6v4.59h4.551v-4.59ZM65.15 64.234H60.6v4.59h4.551v-4.59Z" fill="#B9BF6A"/><path d="M65.15 59.648H60.6v4.586h4.551v-4.586Z" fill="#B9BF6A"/><path d="M65.15 55.059H60.6v4.59h4.551v-4.59ZM65.15 50.473H60.6v4.585h4.551v-4.585Z" fill="#FFF9E6"/><path d="M65.15 45.883H60.6v4.59h4.551v-4.59ZM65.15 41.293H60.6v4.59h4.551v-4.59Z" fill="#D9E0A2"/><path d="M65.15 36.707H60.6v4.585h4.551v-4.585Z" fill="#C4C985"/><path d="M65.15 32.117H60.6v4.59h4.551v-4.59Z" fill="#D9E0A2"/><path d="M65.15 27.531H60.6v4.586h4.551V27.53Z" fill="#C4C985"/><path d="M65.15 22.941H60.6v4.59h4.551v-4.59Z" fill="#D9E0A2"/><path d="M65.15 18.352H60.6v4.59h4.551v-4.59ZM65.15 13.766H60.6v4.585h4.551v-4.585Z" fill="#6D6D30"/><path d="M65.15 9.176H60.6v4.59h4.551v-4.59ZM65.15 4.59H60.6v4.585h4.551V4.59ZM65.15 0H60.6v4.59h4.551V0Z" fill="#779659"/><path d="M60.599 73.415h-4.547V78h4.547v-4.585ZM60.599 68.824h-4.547v4.59h4.547v-4.59ZM60.599 64.234h-4.547v4.59h4.547v-4.59Z" fill="#B9BF6A"/><path d="M60.599 59.648h-4.547v4.586h4.547v-4.586Z" fill="#B9BF6A"/><path d="M60.599 55.059h-4.547v4.59h4.547v-4.59Z" fill="#FFF9E6"/><path d="M60.599 50.473h-4.547v4.585h4.547v-4.585Z" fill="#D9E0A2"/><path d="M60.599 45.883h-4.547v4.59h4.547v-4.59Z" fill="#C4C985"/><path d="M60.599 41.293h-4.547v4.59h4.547v-4.59ZM60.599 36.707h-4.547v4.585h4.547v-4.585ZM60.599 32.117h-4.547v4.59h4.547v-4.59Z" fill="#D9E0A2"/><path d="M60.599 27.531h-4.547v4.586h4.547V27.53Z" fill="#D9E0A2"/><path d="M60.599 22.941h-4.547v4.59h4.547v-4.59Z" fill="#D9E0A2"/><path d="M60.599 13.766h-4.547v4.585h4.547v-4.585Z" fill="#779659"/><path d="M60.599 9.176h-4.547v4.59h4.547v-4.59ZM60.599 4.59h-4.547v4.585h4.547V4.59Z" fill="#779659"/><path d="M56.052 73.415H51.5V78h4.552v-4.585ZM56.052 68.824H51.5v4.59h4.552v-4.59ZM56.052 64.234H51.5v4.59h4.552v-4.59Z" fill="#B9BF6A"/><path d="M56.052 59.648H51.5v4.586h4.552v-4.586Z" fill="#FFF9E6"/><path d="M56.052 55.059H51.5v4.59h4.552v-4.59ZM56.052 50.473H51.5v4.585h4.552v-4.585ZM56.052 45.883H51.5v4.59h4.552v-4.59ZM56.052 41.293H51.5v4.59h4.552v-4.59ZM56.052 36.707H51.5v4.585h4.552v-4.585ZM56.052 32.117H51.5v4.59h4.552v-4.59Z" fill="#D9E0A2"/><path d="M56.052 27.531H51.5v4.586h4.552V27.53Z" fill="#D9E0A2"/><path d="M56.052 22.941H51.5v4.59h4.552v-4.59Z" fill="#D9E0A2"/><path d="M56.052 9.176H51.5v4.59h4.552v-4.59Z" fill="#779659"/><path d="M51.5 73.415h-4.547V78H51.5v-4.585Z" fill="#B9BF6A"/><path d="M51.5 68.824h-4.547v4.59H51.5v-4.59Z" fill="#A3A550"/><path d="M51.5 64.234h-4.547v4.59H51.5v-4.59Z" fill="#B9BF6A"/><path d="M51.5 59.648h-4.547v4.586H51.5v-4.586Z" fill="#FFF9E6"/><path d="M51.5 55.059h-4.547v4.59H51.5v-4.59ZM51.5 50.473h-4.547v4.585H51.5v-4.585ZM51.5 45.883h-4.547v4.59H51.5v-4.59ZM51.5 41.293h-4.547v4.59H51.5v-4.59ZM51.5 36.707h-4.547v4.585H51.5v-4.585Z" fill="#D9E0A2"/><path d="M51.5 32.117h-4.547v4.59H51.5v-4.59Z" fill="#C4C985"/><path d="M51.5 27.531h-4.547v4.586H51.5V27.53Z" fill="#D9E0A2"/><path d="M51.5 22.941h-4.547v4.59H51.5v-4.59Z" fill="#D9E0A2"/><path d="M46.953 73.415h-4.552V78h4.552v-4.585ZM46.953 68.824h-4.552v4.59h4.552v-4.59Z" fill="#B9BF6A"/><path d="M46.953 64.234h-4.552v4.59h4.552v-4.59Z" fill="#FFF9E6"/><path d="M46.953 59.648h-4.552v4.586h4.552v-4.586Z" fill="#FFF9E6"/><path d="M46.953 55.059h-4.552v4.59h4.552v-4.59ZM46.953 50.473h-4.552v4.585h4.552v-4.585Z" fill="#D9E0A2"/><path d="M46.953 45.883h-4.552v4.59h4.552v-4.59Z" fill="#C4C985"/><path d="M46.953 41.293h-4.552v4.59h4.552v-4.59ZM46.953 36.707h-4.552v4.585h4.552v-4.585ZM46.953 32.117h-4.552v4.59h4.552v-4.59Z" fill="#D9E0A2"/><path d="M46.953 27.531h-4.552v4.586h4.552V27.53Z" fill="#D9E0A2"/><path d="M46.953 22.941h-4.552v4.59h4.552v-4.59Z" fill="#D9E0A2"/><path d="M42.4 73.415H37.85V78H42.4v-4.585ZM42.4 68.824H37.85v4.59H42.4v-4.59Z" fill="#B9BF6A"/><path d="M42.4 64.234H37.85v4.59H42.4v-4.59Z" fill="#FFF9E6"/><path d="M42.4 59.648H37.85v4.586H42.4v-4.586Z" fill="#FFF9E6"/><path d="M42.4 55.059H37.85v4.59H42.4v-4.59Z" fill="#FFF9E6"/><path d="M42.4 50.473H37.85v4.585H42.4v-4.585ZM42.4 45.883H37.85v4.59H42.4v-4.59ZM42.4 41.293H37.85v4.59H42.4v-4.59ZM42.4 36.707H37.85v4.585H42.4v-4.585ZM42.4 32.117H37.85v4.59H42.4v-4.59Z" fill="#D9E0A2"/><path d="M42.4 27.531H37.85v4.586H42.4V27.53Z" fill="#D9E0A2"/><path d="M42.4 22.941H37.85v4.59H42.4v-4.59Z" fill="#D9E0A2"/><path d="M37.849 73.415h-4.547V78h4.547v-4.585Z" fill="#B9BF6A"/><path d="M37.849 68.824h-4.547v4.59h4.547v-4.59ZM37.849 64.234h-4.547v4.59h4.547v-4.59Z" fill="#FFF9E6"/><path d="M37.849 59.648h-4.547v4.586h4.547v-4.586Z" fill="#C7CC87"/><path d="M37.849 55.059h-4.547v4.59h4.547v-4.59ZM37.849 50.473h-4.547v4.585h4.547v-4.585Z" fill="#FFF9E6"/><path d="M37.849 45.883h-4.547v4.59h4.547v-4.59ZM37.849 41.293h-4.547v4.59h4.547v-4.59ZM37.849 36.707h-4.547v4.585h4.547v-4.585Z" fill="#D9E0A2"/><path d="M37.849 32.117h-4.547v4.59h4.547v-4.59Z" fill="#C4C985"/><path d="M37.849 27.531h-4.547v4.586h4.547V27.53Z" fill="#D9E0A2"/><path d="M37.849 22.941h-4.547v4.59h4.547v-4.59Z" fill="#D9E0A2"/><path d="M37.849 13.766h-4.547v4.585h4.547v-4.585Z" fill="#779659"/><path d="M33.302 73.415H28.75V78h4.552v-4.585Z" fill="#B9BF6A"/><path d="M33.302 68.824H28.75v4.59h4.552v-4.59ZM33.302 64.234H28.75v4.59h4.552v-4.59Z" fill="#C7CC87"/><path d="M33.302 59.648H28.75v4.586h4.552v-4.586Z" fill="#C7CC87"/><path d="M33.302 55.059H28.75v4.59h4.552v-4.59Z" fill="#C7CC87"/><path d="M33.302 50.473H28.75v4.585h4.552v-4.585ZM33.302 45.883H28.75v4.59h4.552v-4.59ZM33.302 41.293H28.75v4.59h4.552v-4.59Z" fill="#FFF9E6"/><path d="M33.302 36.707H28.75v4.585h4.552v-4.585ZM33.302 32.117H28.75v4.59h4.552v-4.59Z" fill="#D9E0A2"/><path d="M33.302 27.531H28.75v4.586h4.552V27.53Z" fill="#D9E0A2"/><path d="M33.302 22.941H28.75v4.59h4.552v-4.59Z" fill="#D9E0A2"/><path d="M33.302 13.766H28.75v4.585h4.552v-4.585Z" fill="#5D7A3F"/><path d="M33.302 9.176H28.75v4.59h4.552v-4.59ZM33.302 4.59H28.75v4.585h4.552V4.59Z" fill="#779659"/><path d="M28.75 73.415h-4.552V78h4.552v-4.585Z" fill="#FFF9E6"/><path d="M28.75 68.824h-4.552v4.59h4.552v-4.59ZM28.75 64.234h-4.552v4.59h4.552v-4.59Z" fill="#C7CC87"/><path d="M28.75 59.648h-4.552v4.586h4.552v-4.586Z" fill="#C7CC87"/><path d="M28.75 55.059h-4.552v4.59h4.552v-4.59ZM28.75 50.473h-4.552v4.585h4.552v-4.585ZM28.75 45.883h-4.552v4.59h4.552v-4.59Z" fill="#C7CC87"/><path d="M28.75 41.293h-4.552v4.59h4.552v-4.59ZM28.75 36.707h-4.552v4.585h4.552v-4.585Z" fill="#FFF9E6"/><path d="M28.75 32.117h-4.552v4.59h4.552v-4.59Z" fill="#D9E0A2"/><path d="M28.75 27.531h-4.552v4.586h4.552V27.53Z" fill="#D9E0A2"/><path d="M28.75 22.941h-4.552v4.59h4.552v-4.59Z" fill="#6D6D30"/><path d="M28.75 18.352h-4.552v4.59h4.552v-4.59Z" fill="#6D6D30"/><path d="M28.75 13.766h-4.552v4.585h4.552v-4.585Z" fill="#5D7A3F"/><path d="M28.75 9.176h-4.552v4.59h4.552v-4.59ZM28.75 4.59h-4.552v4.585h4.552V4.59ZM28.75 0h-4.552v4.59h4.552V0Z" fill="#779659"/><path d="M24.199 73.415H19.65V78H24.2v-4.585ZM24.199 68.824H19.65v4.59H24.2v-4.59Z" fill="#C7CC87"/><path d="M24.199 64.234H19.65v4.59H24.2v-4.59Z" fill="#BBBC7D"/><path d="M24.199 59.648H19.65v4.586H24.2v-4.586Z" fill="#BBBC7D"/><path d="M24.199 55.059H19.65v4.59H24.2v-4.59ZM24.199 50.473H19.65v4.585H24.2v-4.585ZM24.199 45.883H19.65v4.59H24.2v-4.59ZM24.199 41.293H19.65v4.59H24.2v-4.59Z" fill="#C7CC87"/><path d="M24.199 36.707H19.65v4.585H24.2v-4.585ZM24.199 32.117H19.65v4.59H24.2v-4.59Z" fill="#FFF9E6"/><path d="M24.199 27.531H19.65v4.586H24.2V27.53Z" fill="#D9E0A2"/><path d="M24.199 22.941H19.65v4.59H24.2v-4.59Z" fill="#D9E0A2"/><path d="M24.199 13.766H19.65v4.585H24.2v-4.585Z" fill="#779659"/><path d="M24.199 9.176H19.65v4.59H24.2v-4.59Z" fill="#779659"/><path d="M19.651 73.415H15.1V78h4.551v-4.585Z" fill="#BBBC7D"/><path d="M19.651 68.824H15.1v4.59h4.551v-4.59Z" fill="#C7CC87"/><path d="M19.651 64.234H15.1v4.59h4.551v-4.59Z" fill="#BBBC7D"/><path d="M19.651 59.648H15.1v4.586h4.551v-4.586Z" fill="#C7CC87"/><path d="M19.651 55.059H15.1v4.59h4.551v-4.59Z" fill="#C7CC87"/><path d="M19.651 50.473H15.1v4.585h4.551v-4.585Z" fill="#BBBC7D"/><path d="M19.651 45.883H15.1v4.59h4.551v-4.59ZM19.651 41.293H15.1v4.59h4.551v-4.59ZM19.651 36.707H15.1v4.585h4.551v-4.585Z" fill="#C7CC87"/><path d="M19.651 32.117H15.1v4.59h4.551v-4.59Z" fill="#FFF9E6"/><path d="M19.651 27.531H15.1v4.586h4.551V27.53Z" fill="#D9E0A2"/><path d="M19.651 22.941H15.1v4.59h4.551v-4.59Z" fill="#D9E0A2"/><path d="M15.099 73.415h-4.547V78h4.547v-4.585Z" fill="#C7CC87"/><path d="M15.099 68.824h-4.547v4.59h4.547v-4.59Z" fill="#BBBC7D"/><path d="M15.099 64.234h-4.547v4.59h4.547v-4.59Z" fill="#C7CC87"/><path d="M15.099 59.648h-4.547v4.586h4.547v-4.586Z" fill="#BBBC7D"/><path d="M15.099 55.059h-4.547v4.59h4.547v-4.59ZM15.099 50.473h-4.547v4.585h4.547v-4.585ZM15.099 45.883h-4.547v4.59h4.547v-4.59ZM15.099 41.293h-4.547v4.59h4.547v-4.59ZM10.552 73.415H6V78h4.552v-4.585ZM10.552 68.824H6v4.59h4.552v-4.59ZM10.552 64.234H6v4.59h4.552v-4.59Z" fill="#C7CC87"/><path d="M10.552 59.648H6v4.586h4.552v-4.586Z" fill="#C7CC87"/><path d="M10.552 55.059H6v4.59h4.552v-4.59Z" fill="#C7CC87"/></g><defs><clipPath id="a"><path fill="#fff" transform="translate(6)" d="M0 0h91v78H0z"/></clipPath></defs></svg>