<svg width="96" height="51" viewBox="0 0 96 51" fill="none" xmlns="http://www.w3.org/2000/svg">
<rect x="1" y="1" width="94" height="49" fill="#C4C4C4" stroke="#333333" stroke-width="2"/>
<rect x="4" y="47" width="90" height="2" fill="#818181"/>
<rect x="2" y="2" width="92" height="2" fill="#E9E9E9"/>
<path d="M76.4838 19.9911H75.2076H73.9327H72.6565H71.3804V18.7441H70.1055V19.9911V21.2393H71.3804V22.4863V23.7345V24.9828H72.6565V23.7345V22.4863V21.2393H73.9327V22.4863V23.7345V24.9828V26.2298V27.478H75.2076V26.2298V24.9828V23.7345V22.4863V21.2393H76.4838V22.4863V23.7345V24.9828V26.2298V27.478V28.7262V29.9732V31.2214V32.4684H77.7587V31.2214V29.9732V28.7262V27.478V26.2298V24.9828V23.7345V22.4863V21.2393V19.9911H76.4838Z" fill="#2B4754"/>
<path d="M76.4832 32.4678H75.207V33.716H76.4832V32.4678Z" fill="#2B4754"/>
<path d="M75.2065 33.7158H73.9316V34.9641H75.2065V33.7158Z" fill="#2B4754"/>
<path d="M73.9324 32.4678H72.6562V33.716H73.9324V32.4678Z" fill="#2B4754"/>
<path d="M73.9324 28.7258V27.4775H72.6562V28.7258V29.9728H73.9324V28.7258Z" fill="#2B4754"/>
<path d="M72.6571 29.9727H71.3809V31.2209V32.4679H72.6571V31.2209V29.9727Z" fill="#2B4754"/>
<path d="M72.6571 17.4952V16.247V15H71.3809V16.247V17.4952V18.7434H72.6571V17.4952Z" fill="#2B4754"/>
<path d="M71.3804 32.4678H70.1055V33.716H71.3804V32.4678Z" fill="#2B4754"/>
<path d="M70.1055 26.2294V27.4776H71.3804V26.2294V24.9824H70.1055V26.2294Z" fill="#2B4754"/>
<path d="M70.1043 33.7158H68.8281V34.9641H70.1043V33.7158Z" fill="#2B4754"/>
<path d="M68.8281 28.7258V29.9728H70.1043V28.7258V27.4775H68.8281V28.7258Z" fill="#2B4754"/>
<path d="M70.1043 21.2383H68.8281V22.4852H70.1043V21.2383Z" fill="#2B4754"/>
<path d="M68.8296 29.9727H67.5547V31.2209H68.8296V29.9727Z" fill="#2B4754"/>
<path d="M68.8296 22.4854H67.5547V23.7336H68.8296V22.4854Z" fill="#2B4754"/>
<path d="M67.5549 19.9904H66.2787V18.7434V17.4952V16.247V15H65.0025V16.247V17.4952V18.7434V19.9904H63.7277H62.4515V18.7434V17.4952H61.1753V18.7434V19.9904V21.2386V22.4856H62.4515V21.2386H63.7277H65.0025V22.4856V23.7339V24.9821V26.2291H63.7277H62.4515H61.1753H59.9004V27.4773H61.1753V28.7255H62.4515V27.4773H63.7277H65.0025V28.7255V29.9725V31.2207V32.4677V33.7159V34.9642H66.2787V33.7159V32.4677V31.2207V29.9725V28.7255V27.4773V26.2291H67.5549H68.8298V24.9821H67.5549H66.2787V23.7339V22.4856V21.2386H67.5549H68.8298V19.9904H67.5549Z" fill="#2B4754"/>
<path d="M61.1753 22.4854H59.9004V23.7336H61.1753V22.4854Z" fill="#2B4754"/>
<path d="M56.0723 19.9879V17.4952H52.245V15H50.9701V17.4952H47.1429V18.7434H50.9701V19.9879H45.8706V21.2361H50.9701V22.4831H47.1429V23.7313H50.9701V24.9795H47.1429V26.2291H50.9701V28.7255H45.8706V29.9725H50.9701V32.4677H44.5918V33.7159H58.6194V32.4677H52.245V29.9725H57.3446V28.7255H52.245V26.2291H56.0723V24.9821H52.245V23.7339H56.0723V21.2386H58.6194V19.9879H56.0723ZM54.7961 22.4831H52.245V21.2386H54.7961V22.4831ZM54.7961 19.9879H52.245V18.7434H54.7961V19.9879Z" fill="#2B4754"/>
<path d="M45.8658 24.9817V23.7335V22.4852H44.5909H43.3147V21.2383H42.0386V22.4852H40.7637V23.7335H42.0386H43.3147H44.5909V24.9817V26.2287H45.8658V24.9817Z" fill="#2B4754"/>
<path d="M45.8666 18.7434V17.4951H44.5917H43.3155H42.0394H40.7645H39.4883V18.7434H40.7645H42.0394H43.3155H44.5917V19.9903H45.8666V18.7434Z" fill="#2B4754"/>
<path d="M44.5926 31.2207H43.3164V32.4677H44.5926V31.2207Z" fill="#2B4754"/>
<path d="M44.5926 27.4777V26.2295H43.3164V27.4777V28.726H44.5926V27.4777Z" fill="#2B4754"/>
<path d="M44.5926 19.9912H43.3164V21.2395H44.5926V19.9912Z" fill="#2B4754"/>
<path d="M43.3153 28.7256H42.0391V29.9725V31.2208H43.3153V29.9725V28.7256Z" fill="#2B4754"/>
<path d="M40.7637 32.4677V33.7159H42.0386V32.4677V31.2207H40.7637V32.4677Z" fill="#2B4754"/>
<path d="M42.0386 26.2295H40.7637V27.4777V28.726H42.0386V27.4777V26.2295Z" fill="#2B4754"/>
<path d="M40.7645 33.7158H39.4883V34.9641H40.7645V33.7158Z" fill="#2B4754"/>
<path d="M35.5815 32.5049H34.3066V33.7531H35.5815V35.0001H36.8577V33.7531H38.1339V32.5049H36.8577H35.5815Z" fill="#2B4754"/>
<path d="M34.3066 27.5148V28.7618H35.5815V27.5148V26.2666H34.3066V27.5148Z" fill="#2B4754"/>
<path d="M34.3074 31.2578H33.0312V32.5048H34.3074V31.2578Z" fill="#2B4754"/>
<path d="M34.3074 28.7617H33.0312V30.01H34.3074V28.7617Z" fill="#2B4754"/>
<path d="M33.0312 21.2754V22.5224H34.3074H35.5823V21.2754H34.3074H33.0312Z" fill="#2B4754"/>
<path d="M33.0327 30.0098H31.7578V31.258H33.0327V30.0098Z" fill="#2B4754"/>
<path d="M31.7567 31.2578H30.4805V32.5048H31.7567V31.2578Z" fill="#2B4754"/>
<path d="M31.7567 27.5146H30.4805V28.7616V30.0099H31.7567V28.7616V27.5146Z" fill="#2B4754"/>
<path d="M31.7575 18.7793H33.0323H34.3085H35.5834V20.0275V21.2758H36.8596V20.0275V18.7793V17.5323H35.5834H34.3085H33.0323H31.7575H30.4813V16.2841V15.0371H29.2051V16.2841V17.5323V18.7793H30.4813H31.7575Z" fill="#2B4754"/>
<path d="M30.4808 25.0175H31.7569H33.0318H34.308H35.5829V26.2657H36.8591V25.0175V23.7705H35.5829H34.308H33.0318H31.7569H30.4808H29.2046H27.9297V25.0175H29.2046V26.2657V27.514H30.4808V26.2657V25.0175Z" fill="#2B4754"/>
<path d="M27.9297 32.5049V33.7531H29.2046H30.4808V32.5049H29.2046H27.9297Z" fill="#2B4754"/>
<path d="M29.2046 20.0275V18.7793H27.9297V20.0275V21.2758H29.2046V20.0275Z" fill="#2B4754"/>
<path d="M27.9285 21.2754H26.6523V22.5224H27.9285V21.2754Z" fill="#2B4754"/>
<path d="M25.3789 33.7529V34.9999H26.6538H27.93V33.7529H26.6538H25.3789Z" fill="#2B4754"/>
<path d="M25.3797 23.7707V22.5225H24.1035V23.7707V25.0177H25.3797V23.7707Z" fill="#2B4754"/>
<path d="M22.8262 26.2658V27.5141H24.1024V26.2658V25.0176H22.8262V26.2658Z" fill="black"/>
<path d="M22.8262 20.0274H24.1024V18.7792V17.5322H22.8262V18.7792V20.0274Z" fill="black"/>
<path d="M22.8257 16.2842H21.5508V17.5324H22.8257V16.2842Z" fill="black"/>
<path d="M20.2749 27.5146H19V28.7616H20.2749H21.5511V30.0099V31.2581V32.5051V33.7533H22.826V32.5051V31.2581V30.0099V28.7616V27.5146H21.5511H20.2749Z" fill="black"/>
<path d="M20.2754 23.7706H21.5516V22.5224V21.2754H20.2754V22.5224V23.7706Z" fill="black"/>
<path d="M20.2749 20.0283H19V21.2766H20.2749V20.0283Z" fill="black"/>
<rect x="2" y="2" width="2" height="47" fill="#E9E9E9"/>
<rect x="92" y="4" width="2" height="45" fill="#818181"/>
</svg>
