<svg width="96" height="51" viewBox="0 0 96 51" fill="none" xmlns="http://www.w3.org/2000/svg">
<rect x="1" y="1" width="94" height="49" fill="#C4C4C4" stroke="#333333" stroke-width="2"/>
<rect x="4" y="47" width="90" height="2" fill="#818181"/>
<rect x="2" y="2" width="92" height="2" fill="#E9E9E9"/>
<path d="M72.7569 23.7501H75.2557V21.2502H77.7571V19.9971H75.2557V17.4998H71.5075V15H70.2581V17.4998H66.506V18.7491H70.2581V19.9971H65.2604V21.2477H70.2581V22.497H66.506V23.7475H70.2581V24.9942H66.506V26.2499H70.2581V28.7498H65.2604V30.0003H70.2581V32.5002H64.0059V33.7507H77.7584V32.5002H71.5075V30.0003H76.5051V28.7498H71.5075V26.2499H75.2557V24.9942H71.5075V23.7501H72.7569ZM71.5075 18.753H74.0076V19.9971H71.5075V18.753ZM71.5075 21.2541H74.0076V22.5034H71.5075V21.2541Z" fill="#2B4754"/>
<path d="M65.2541 24.9991V23.7498V22.4993H64.0047H62.754V21.25H61.5046V22.4993H60.2539V23.7498H61.5046H62.754H64.0047V24.9991V26.2497H65.2541V24.9991Z" fill="#2B4754"/>
<path d="M65.2548 18.7493V17.5H64.0054H62.7547H61.5053H60.2546H59.0039V18.7493H60.2546H61.5053H62.7547H64.0054V19.9998H65.2548V18.7493Z" fill="#2B4754"/>
<path d="M64.0066 31.251H62.7559V32.5003H64.0066V31.251Z" fill="#2B4754"/>
<path d="M64.0066 27.5006V26.25H62.7559V27.5006V28.7498H64.0066V27.5006Z" fill="#2B4754"/>
<path d="M64.0066 20H62.7559V21.2506H64.0066V20Z" fill="#2B4754"/>
<path d="M62.7553 28.75H61.5059V30.0006V31.2511H62.7553V30.0006V28.75Z" fill="#2B4754"/>
<path d="M60.2539 32.5003V33.7508H61.5046V32.5003V31.251H60.2539V32.5003Z" fill="#2B4754"/>
<path d="M61.5046 26.25H60.2539V27.5006V28.7498H61.5046V27.5006V26.25Z" fill="#2B4754"/>
<path d="M60.2546 33.751H59.0039V35.0003H60.2546V33.751Z" fill="#2B4754"/>
<path d="M35.2514 32.5H34.002V33.7506H35.2514V34.9998H36.5021V33.7506H37.7528V32.5H36.5021H35.2514Z" fill="#2B4754"/>
<path d="M34.002 27.5006V28.7498H35.2514V27.5006V26.25H34.002V27.5006Z" fill="#2B4754"/>
<path d="M34.0027 31.251H32.752V32.5003H34.0027V31.251Z" fill="#2B4754"/>
<path d="M34.0027 28.75H32.752V30.0006H34.0027V28.75Z" fill="#2B4754"/>
<path d="M32.752 21.25V22.4993H34.0027H35.2521V21.25H34.0027H32.752Z" fill="#2B4754"/>
<path d="M32.7514 30H31.502V31.2506H32.7514V30Z" fill="#2B4754"/>
<path d="M31.5026 31.251H30.252V32.5003H31.5026V31.251Z" fill="#2B4754"/>
<path d="M31.5026 27.501H30.252V28.7503V30.0008H31.5026V28.7503V27.501Z" fill="#2B4754"/>
<path d="M31.5014 18.7491H32.7508H34.0015H35.2509V19.9997V21.2502H36.5016V19.9997V18.7491V17.4998H35.2509H34.0015H32.7508H31.5014H30.2507V16.2493V15H29V16.2493V17.4998V18.7491H30.2507H31.5014Z" fill="#2B4754"/>
<path d="M30.2521 24.9993H31.5028H32.7522H34.0029H35.2523V26.2498H36.503V24.9993V23.75H35.2523H34.0029H32.7522H31.5028H30.2521H29.0014H27.752V24.9993H29.0014V26.2498V27.5004H30.2521V26.2498V24.9993Z" fill="#2B4754"/>
<path d="M27.752 32.5V33.7506H29.0014H30.2521V32.5H29.0014H27.752Z" fill="#2B4754"/>
<path d="M29.0014 19.9996V18.749H27.752V19.9996V21.2501H29.0014V19.9996Z" fill="#2B4754"/>
<path d="M27.7507 21.25H26.5V22.4993H27.7507V21.25Z" fill="#2B4754"/>
<path d="M25.25 33.751V35.0003H26.4994H27.7501V33.751H26.4994H25.25Z" fill="#2B4754"/>
<path d="M25.2507 23.7496V22.499H24V23.7496V24.9989H25.2507V23.7496Z" fill="#2B4754"/>
<path d="M22.75 26.2496V27.5001H24.0007V26.2496V24.999H22.75V26.2496Z" fill="#2B4754"/>
<path d="M22.75 19.9998H24.0007V18.7493V17.5H22.75V18.7493V19.9998Z" fill="#2B4754"/>
<path d="M22.7494 16.249H21.5V17.4996H22.7494V16.249Z" fill="#2B4754"/>
<path d="M20.2494 27.501H19V28.7503H20.2494H21.5001V30.0008V31.2514V32.5007V33.7512H22.7495V32.5007V31.2514V30.0008V28.7503V27.501H21.5001H20.2494Z" fill="#2B4754"/>
<path d="M20.25 23.7498H21.5007V22.4993V21.25H20.25V22.4993V23.7498Z" fill="#2B4754"/>
<path d="M20.2494 20H19V21.2506H20.2494V20Z" fill="#2B4754"/>
<path d="M56.5053 33.751H55.2559V35.0003H56.5053V33.751Z" fill="#2B4754"/>
<path d="M55.2546 17.4998H52.7532V16.2493H51.5038V17.4998H45.2529V19.9971H42.7528V15H41.5021V19.9971H39.002V21.2477H41.5021V26.2448H40.2514V27.4954H41.5021V33.7456H42.7528V26.2499H44.0022V24.9942H42.7528V21.2502H45.2529V23.7501H44.0022V24.9942H45.2529V33.7456H46.5023V23.7514H51.5V24.9942H47.753V31.2458H50.2531V32.495H51.5038V31.2458H52.7532V32.495H54.0039V31.2458H56.504V24.9942H52.7532V23.7501H57.7509V22.4995H55.2546V21.2502H56.504V19.9971H55.2546V18.7491H57.7547V17.4998H55.2546ZM49.0037 19.9971H47.753V21.2477H49.0037V22.497H46.5023V18.7491H49.0037V19.9971ZM51.5038 29.9914H49.0037V28.7408H51.5038V29.9914ZM51.5038 27.4915H49.0037V26.2499H51.5038V27.4915ZM55.2546 29.9914H52.7532V28.7408H55.2546V29.9914ZM54.0039 26.2499H55.2546V27.5005H52.7532V26.2499H54.0039ZM54.0039 22.4995H50.2531V21.2502H54.0039V22.4995ZM54.0039 19.9997H50.2531V18.7491H54.0039V19.9997Z" fill="#2B4754"/>
<path d="M55.2546 32.5H54.0039V33.7506H55.2546V32.5Z" fill="#2B4754"/>
<path d="M51.5046 15H50.2539V16.2493H51.5046V15Z" fill="#2B4754"/>
<path d="M50.2533 32.5H49.0039V33.7506H50.2533V32.5Z" fill="#2B4754"/>
<path d="M49.0046 33.751H47.7539V35.0003H49.0046V33.751Z" fill="#2B4754"/>
<path d="M45.2526 33.751H44.002V35.0003H45.2526V33.751Z" fill="#2B4754"/>
<path d="M41.5027 33.751H40.252V35.0003H41.5027V33.751Z" fill="#2B4754"/>
<path d="M40.2514 32.5H39.002V33.7506H40.2514V32.5Z" fill="#2B4754"/>
<path d="M40.2514 27.501H39.002V28.7502H40.2514V27.501Z" fill="#2B4754"/>
<rect x="2" y="2" width="2" height="47" fill="#E9E9E9"/>
<rect x="92" y="4" width="2" height="45" fill="#818181"/>
</svg>
