<svg width="96" height="51" viewBox="0 0 96 51" fill="none" xmlns="http://www.w3.org/2000/svg">
<rect x="1" y="1" width="94" height="49" fill="#C4C4C4" stroke="#333333" stroke-width="2"/>
<rect x="4" y="47" width="90" height="2" fill="#818181"/>
<rect x="2" y="2" width="92" height="2" fill="#E9E9E9"/>
<g clip-path="url(#clip0_784:101605)">
<path d="M72.7569 23.7501H75.2557V21.2502H77.7571V19.9971H75.2557V17.4998H71.5075V15H70.2581V17.4998H66.506V18.7491H70.2581V19.9971H65.2604V21.2477H70.2581V22.497H66.506V23.7475H70.2581V24.9942H66.506V26.2499H70.2581V28.7498H65.2604V30.0003H70.2581V32.5002H64.0059V33.7507H77.7584V32.5002H71.5075V30.0003H76.5051V28.7498H71.5075V26.2499H75.2557V24.9942H71.5075V23.7501H72.7569ZM71.5075 18.753H74.0076V19.9971H71.5075V18.753ZM71.5075 21.2541H74.0076V22.5034H71.5075V21.2541Z" fill="#2B4754"/>
<path d="M65.2551 24.9991V23.7498V22.4993H64.0057H62.755V21.25H61.5056V22.4993H60.2549V23.7498H61.5056H62.755H64.0057V24.9991V26.2497H65.2551V24.9991Z" fill="#2B4754"/>
<path d="M65.2558 18.7493V17.5H64.0064H62.7557H61.5063H60.2556H59.0049V18.7493H60.2556H61.5063H62.7557H64.0064V19.9998H65.2558V18.7493Z" fill="#2B4754"/>
<path d="M64.0056 31.251H62.7549V32.5003H64.0056V31.251Z" fill="#2B4754"/>
<path d="M64.0056 27.5006V26.25H62.7549V27.5006V28.7498H64.0056V27.5006Z" fill="#2B4754"/>
<path d="M64.0056 20H62.7549V21.2506H64.0056V20Z" fill="#2B4754"/>
<path d="M62.7553 28.75H61.5059V30.0006V31.2511H62.7553V30.0006V28.75Z" fill="#2B4754"/>
<path d="M60.2549 32.5003V33.7508H61.5056V32.5003V31.251H60.2549V32.5003Z" fill="#2B4754"/>
<path d="M61.5056 26.25H60.2549V27.5006V28.7498H61.5056V27.5006V26.25Z" fill="#2B4754"/>
<path d="M60.2556 33.751H59.0049V35.0003H60.2556V33.751Z" fill="#2B4754"/>
<path d="M35.2514 32.5H34.002V33.7506H35.2514V34.9998H36.5021V33.7506H37.7528V32.5H36.5021H35.2514Z" fill="#2B4754"/>
<path d="M34.002 27.5006V28.7498H35.2514V27.5006V26.25H34.002V27.5006Z" fill="#2B4754"/>
<path d="M34.0027 31.251H32.752V32.5003H34.0027V31.251Z" fill="#2B4754"/>
<path d="M34.0027 28.75H32.752V30.0006H34.0027V28.75Z" fill="#2B4754"/>
<path d="M32.752 21.25V22.4993H34.0027H35.2521V21.25H34.0027H32.752Z" fill="#2B4754"/>
<path d="M32.7514 30H31.502V31.2506H32.7514V30Z" fill="#2B4754"/>
<path d="M31.5017 31.251H30.251V32.5003H31.5017V31.251Z" fill="#2B4754"/>
<path d="M31.5017 27.5H30.251V28.7493V29.9998H31.5017V28.7493V27.5Z" fill="#2B4754"/>
<path d="M31.5014 18.7491H32.7508H34.0015H35.2509V19.9997V21.2502H36.5016V19.9997V18.7491V17.4998H35.2509H34.0015H32.7508H31.5014H30.2507V16.2493V15H29V16.2493V17.4998V18.7491H30.2507H31.5014Z" fill="#2B4754"/>
<path d="M30.2511 24.9993H31.5018H32.7512H34.0019H35.2513V26.2498H36.502V24.9993V23.75H35.2513H34.0019H32.7512H31.5018H30.2511H29.0004H27.751V24.9993H29.0004V26.2498V27.5004H30.2511V26.2498V24.9993Z" fill="#2B4754"/>
<path d="M27.751 32.5V33.7506H29.0004H30.2511V32.5H29.0004H27.751Z" fill="#2B4754"/>
<path d="M29.0004 19.9996V18.749H27.751V19.9996V21.2501H29.0004V19.9996Z" fill="#2B4754"/>
<path d="M27.7507 21.25H26.5V22.4993H27.7507V21.25Z" fill="#2B4754"/>
<path d="M25.251 33.751V35.0003H26.5004H27.7511V33.751H26.5004H25.251Z" fill="#2B4754"/>
<path d="M25.2517 23.7506V22.5H24.001V23.7506V24.9998H25.2517V23.7506Z" fill="#2B4754"/>
<path d="M22.75 26.2496V27.5001H24.0007V26.2496V24.999H22.75V26.2496Z" fill="#2B4754"/>
<path d="M22.75 19.9998H24.0007V18.7493V17.5H22.75V18.7493V19.9998Z" fill="#2B4754"/>
<path d="M22.7494 16.249H21.5V17.4996H22.7494V16.249Z" fill="#2B4754"/>
<path d="M20.2494 27.5H19V28.7493H20.2494H21.5001V29.9998V31.2504V32.4997V33.7502H22.7495V32.4997V31.2504V29.9998V28.7493V27.5H21.5001H20.2494Z" fill="#2B4754"/>
<path d="M20.249 23.7498H21.4997V22.4993V21.25H20.249V22.4993V23.7498Z" fill="#2B4754"/>
<path d="M20.2494 20H19V21.2506H20.2494V20Z" fill="#2B4754"/>
<path d="M56.5043 33.751H55.2549V35.0003H56.5043V33.751Z" fill="#2B4754"/>
<path d="M55.2546 17.4998H52.7532V16.2493H51.5038V17.4998H45.2529V19.9971H42.7528V15H41.5021V19.9971H39.002V21.2477H41.5021V26.2448H40.2514V27.4954H41.5021V33.7456H42.7528V26.2499H44.0022V24.9942H42.7528V21.2502H45.2529V23.7501H44.0022V24.9942H45.2529V33.7456H46.5023V23.7514H51.5V24.9942H47.753V31.2458H50.2531V32.495H51.5038V31.2458H52.7532V32.495H54.0039V31.2458H56.504V24.9942H52.7532V23.7501H57.7509V22.4995H55.2546V21.2502H56.504V19.9971H55.2546V18.7491H57.7547V17.4998H55.2546ZM49.0037 19.9971H47.753V21.2477H49.0037V22.497H46.5023V18.7491H49.0037V19.9971ZM51.5038 29.9914H49.0037V28.7408H51.5038V29.9914ZM51.5038 27.4915H49.0037V26.2499H51.5038V27.4915ZM55.2546 29.9914H52.7532V28.7408H55.2546V29.9914ZM54.0039 26.2499H55.2546V27.5005H52.7532V26.2499H54.0039ZM54.0039 22.4995H50.2531V21.2502H54.0039V22.4995ZM54.0039 19.9997H50.2531V18.7491H54.0039V19.9997Z" fill="#2B4754"/>
<path d="M55.2546 32.5H54.0039V33.7506H55.2546V32.5Z" fill="#2B4754"/>
<path d="M51.5046 15H50.2539V16.2493H51.5046V15Z" fill="#2B4754"/>
<path d="M50.2533 32.5H49.0039V33.7506H50.2533V32.5Z" fill="#2B4754"/>
<path d="M49.0036 33.751H47.7529V35.0003H49.0036V33.751Z" fill="#2B4754"/>
<path d="M45.2526 33.751H44.002V35.0003H45.2526V33.751Z" fill="#2B4754"/>
<path d="M41.5027 33.751H40.252V35.0003H41.5027V33.751Z" fill="#2B4754"/>
<path d="M40.2514 32.5H39.002V33.7506H40.2514V32.5Z" fill="#2B4754"/>
<path d="M40.2514 27.5H39.002V28.7493H40.2514V27.5Z" fill="#2B4754"/>
</g>
<rect x="2" y="2" width="2" height="47" fill="#E9E9E9"/>
<rect x="92" y="4" width="2" height="45" fill="#818181"/>
<defs>
<clipPath id="clip0_784:101605">
<rect width="58.7584" height="20" fill="white" transform="translate(19 15)"/>
</clipPath>
</defs>
</svg>
