<svg width="158" height="51" viewBox="0 0 158 51" fill="none" xmlns="http://www.w3.org/2000/svg">
<rect x="1" y="1" width="156" height="49" fill="#CCE9E9" stroke="#2B4754" stroke-width="2"/>
<path d="M50.756 28.644V26.754H54.518V28.644H50.756ZM45.464 26.754H49.1V28.644H45.464V26.754ZM49.1 23.496V25.332H45.464V23.496H49.1ZM54.518 23.496V25.332H50.756V23.496H54.518ZM58.298 28.644H56.174V21.984H50.756V20.472H57.596V18.924H42.422V20.472H49.1V21.984H43.808V28.644H41.738V30.192H43.808V34.44H45.464V30.192H54.518V32.478C54.518 32.766 54.41 32.856 54.068 32.874C53.78 32.874 52.61 32.892 51.512 32.856C51.764 33.27 52.034 33.99 52.124 34.44C53.654 34.44 54.662 34.422 55.31 34.152C55.958 33.9 56.174 33.414 56.174 32.496V30.192H58.298V28.644ZM76.127 19.158H67.649V20.742H76.127V19.158ZM66.983 29.13L64.589 29.724V25.962H66.533V24.432H64.589V20.814H66.749V19.266H60.737V20.814H62.969V24.432H60.953V25.962H62.969V30.138C62.015 30.354 61.151 30.552 60.449 30.714L60.791 32.316C62.573 31.848 64.931 31.218 67.163 30.588L66.983 29.13ZM74.453 32.766C74.129 32.766 74.075 32.676 74.075 32.154V25.854H77.045V24.252H66.875V25.854H69.125C68.963 29.616 68.513 31.92 64.931 33.162C65.255 33.468 65.705 34.062 65.885 34.458C69.881 32.964 70.529 30.21 70.745 25.854H72.419V32.154C72.419 33.81 72.761 34.332 74.183 34.332H75.587C76.811 34.332 77.225 33.594 77.369 31.002C76.919 30.894 76.217 30.606 75.875 30.3C75.839 32.406 75.767 32.766 75.425 32.766H74.453ZM79.556 25.062V26.898H95.936V25.062H79.556ZM111.605 29.022V26.826H112.757V29.022H111.605ZM109.265 29.022V26.826H110.399V29.022H109.265ZM106.925 29.022V26.826H108.077V29.022H106.925ZM114.089 25.458H105.611V34.386H106.925V30.372H108.077V34.08H109.265V30.372H110.399V34.08H111.605V30.372H112.757V32.748C112.757 32.91 112.703 32.946 112.577 32.964C112.469 32.964 112.163 32.964 111.785 32.946C111.965 33.324 112.163 33.936 112.217 34.332C112.865 34.332 113.297 34.314 113.657 34.062C113.999 33.828 114.089 33.396 114.089 32.784V25.458ZM107.609 22.722C108.365 21.93 109.085 21.048 109.733 20.112C110.543 21.102 111.353 21.948 112.145 22.722H107.609ZM103.523 24.99H102.425V23.568H103.523V24.99ZM103.523 27.618H102.425V26.16H103.523V27.618ZM100.103 26.16H101.255V27.618H100.103V26.16ZM100.103 23.568H101.255V24.99H100.103V23.568ZM109.643 17.718C108.545 19.77 106.637 21.822 104.801 23.064V22.344H102.569V21.138H105.089V19.716H102.569V17.898H101.075V19.716H98.519V21.138H101.075V22.344H98.861V28.824H101.093V30.102H98.339V31.524H101.093V34.404H102.587V31.524H105.089V30.102H102.587V28.824H104.801V23.406C105.143 23.73 105.467 24.144 105.665 24.486C106.079 24.162 106.493 23.82 106.907 23.424V24.09H112.703V23.244C113.135 23.64 113.567 24.018 114.017 24.378C114.233 23.91 114.719 23.388 115.097 23.064C113.549 21.984 111.983 20.634 110.525 18.888C110.615 18.69 110.741 18.492 110.849 18.276L109.643 17.718Z" fill="#2B4754"/>
<rect x="4" y="47" width="150" height="2" fill="#82BDD1"/>
<rect x="2" y="2" width="154" height="2" fill="#EFFFFC"/>
<rect x="2" y="2" width="2" height="47" fill="#EFFFFC"/>
<rect x="154" y="4" width="2" height="45" fill="#82BDD1"/>
</svg>
