<svg width="50" height="40" viewBox="0 0 50 40" fill="none" xmlns="http://www.w3.org/2000/svg">
<path d="M0.000328064 7.14453H1.42822V8.57242H0.000328064V7.14453Z" fill="#C7CC87"/>
<path d="M1.42831 8.57227H2.8562V10.0002H1.42831V8.57227Z" fill="#C7CC87"/>
<path d="M1.42831 7.14453H2.8562V8.57242H1.42831V7.14453Z" fill="#C7CC87"/>
<path d="M1.42831 5.71191H2.8562V7.13981H1.42831V5.71191Z" fill="#C7CC87"/>
<path d="M2.85531 8.57227H4.2832V10.0002H2.85531V8.57227Z" fill="#C7CC87"/>
<path d="M2.85531 7.14453H4.2832V8.57242H2.85531V7.14453Z" fill="#C7CC87"/>
<path d="M2.85531 5.71191H4.2832V7.13981H2.85531V5.71191Z" fill="#C7CC87"/>
<path d="M4.28817 10H5.71606V11.4279H4.28817V10Z" fill="#C7CC87"/>
<path d="M4.28817 8.57227H5.71606V10.0002H4.28817V8.57227Z" fill="#C7CC87"/>
<path d="M4.28817 7.14453H5.71606V8.57242H4.28817V7.14453Z" fill="#C7CC87"/>
<path d="M4.28817 5.71191H5.71606V7.13981H4.28817V5.71191Z" fill="#C7CC87"/>
<path d="M5.71627 8.57227H7.14417V10.0002H5.71627V8.57227Z" fill="#C7CC87"/>
<path d="M5.71627 7.14453H7.14417V8.57242H5.71627V7.14453Z" fill="#C7CC87"/>
<path d="M7.14426 5.71191H8.57214V7.13981H7.14426V5.71191Z" fill="#C7CC87"/>
<path d="M7.14426 4.28418H8.57214V5.71207H7.14426V4.28418Z" fill="#C7CC87"/>
<path d="M8.57223 12.8555H10.0001V14.2834H8.57223V12.8555Z" fill="#C7CC87"/>
<path d="M8.57223 11.4277H10.0001V12.8556H8.57223V11.4277Z" fill="#C7CC87"/>
<path d="M8.57223 10H10.0001V11.4279H8.57223V10Z" fill="#C7CC87"/>
<path d="M8.57223 7.14453H10.0001V8.57242H8.57223V7.14453Z" fill="#C7CC87"/>
<path d="M8.57223 5.71191H10.0001V7.13981H8.57223V5.71191Z" fill="#C7CC87"/>
<path d="M8.57223 4.28418H10.0001V5.71207H8.57223V4.28418Z" fill="#C7CC87"/>
<path d="M10.0003 12.8555H11.4282V14.2834H10.0003V12.8555Z" fill="#C7CC87"/>
<path d="M10.0003 11.4277H11.4282V12.8556H10.0003V11.4277Z" fill="#C7CC87"/>
<path d="M10.0003 10H11.4282V11.4279H10.0003V10Z" fill="#C7CC87"/>
<path d="M10.0003 7.14453H11.4282V8.57242H10.0003V7.14453Z" fill="#C7CC87"/>
<path d="M10.0003 5.71191H11.4282V7.13981H10.0003V5.71191Z" fill="#C7CC87"/>
<path d="M11.4283 11.4277H12.8562V12.8556H11.4283V11.4277Z" fill="#C7CC87"/>
<path d="M11.4283 10H12.8562V11.4279H11.4283V10Z" fill="#C7CC87"/>
<path d="M12.8602 10H14.2881V11.4279H12.8602V10Z" fill="#C7CC87"/>
<path d="M12.8602 8.57227H14.2881V10.0002H12.8602V8.57227Z" fill="#C7CC87"/>
<path d="M12.8602 7.14453H14.2881V8.57242H12.8602V7.14453Z" fill="#C7CC87"/>
<path d="M12.8602 5.71191H14.2881V7.13981H12.8602V5.71191Z" fill="#C7CC87"/>
<path d="M14.2882 10H15.7161V11.4279H14.2882V10Z" fill="#C7CC87"/>
<path d="M14.2882 8.57227H15.7161V10.0002H14.2882V8.57227Z" fill="#C7CC87"/>
<path d="M14.2882 7.14453H15.7161V8.57242H14.2882V7.14453Z" fill="#C7CC87"/>
<path d="M14.2882 5.71191H15.7161V7.13981H14.2882V5.71191Z" fill="#C7CC87"/>
<path d="M14.2882 4.28418H15.7161V5.71207H14.2882V4.28418Z" fill="#C7CC87"/>
<path d="M15.7162 12.8555H17.144V14.2834H15.7162V12.8555Z" fill="#C7CC87"/>
<path d="M15.7162 11.4277H17.144V12.8556H15.7162V11.4277Z" fill="#C7CC87"/>
<path d="M15.7162 10H17.144V11.4279H15.7162V10Z" fill="#C7CC87"/>
<path d="M15.7162 8.57227H17.144V10.0002H15.7162V8.57227Z" fill="#C7CC87"/>
<path d="M15.7162 7.14453H17.144V8.57242H15.7162V7.14453Z" fill="#C7CC87"/>
<path d="M15.7162 5.71191H17.144V7.13981H15.7162V5.71191Z" fill="#C7CC87"/>
<path d="M17.1442 12.8555H18.5721V14.2834H17.1442V12.8555Z" fill="#C7CC87"/>
<path d="M17.1442 11.4277H18.5721V12.8556H17.1442V11.4277Z" fill="#C7CC87"/>
<path d="M17.1442 10H18.5721V11.4279H17.1442V10Z" fill="#C7CC87"/>
<path d="M18.5722 12.8555H20.0001V14.2834H18.5722V12.8555Z" fill="#C7CC87"/>
<path d="M18.5722 11.4277H20.0001V12.8556H18.5722V11.4277Z" fill="#C7CC87"/>
<path d="M18.5722 10H20.0001V11.4279H18.5722V10Z" fill="#C7CC87"/>
<path d="M20.0002 17.1445H21.4281V18.5724H20.0002V17.1445Z" fill="#C7CC87"/>
<path d="M20.0002 15.7168H21.4281V17.1447H20.0002V15.7168Z" fill="#C7CC87"/>
<path d="M20.0002 14.2842H21.4281V15.7121H20.0002V14.2842Z" fill="#C7CC87"/>
<path d="M20.0002 11.4277H21.4281V12.8556H20.0002V11.4277Z" fill="#C7CC87"/>
<path d="M20.0002 10H21.4281V11.4279H20.0002V10Z" fill="#C7CC87"/>
<path d="M20.0002 8.57227H21.4281V10.0002H20.0002V8.57227Z" fill="#C7CC87"/>
<path d="M20.0002 7.14453H21.4281V8.57242H20.0002V7.14453Z" fill="#C7CC87"/>
<path d="M21.4283 17.1445H22.8562V18.5724H21.4283V17.1445Z" fill="#C7CC87"/>
<path d="M21.4283 15.7168H22.8562V17.1447H21.4283V15.7168Z" fill="#C7CC87"/>
<path d="M21.4283 14.2842H22.8562V15.7121H21.4283V14.2842Z" fill="#C7CC87"/>
<path d="M21.4283 11.4277H22.8562V12.8556H21.4283V11.4277Z" fill="#C7CC87"/>
<path d="M21.4283 10H22.8562V11.4279H21.4283V10Z" fill="#C7CC87"/>
<path d="M21.4283 8.57227H22.8562V10.0002H21.4283V8.57227Z" fill="#C7CC87"/>
<path d="M21.4283 7.14453H22.8562V8.57242H21.4283V7.14453Z" fill="#C7CC87"/>
<path d="M22.8601 21.4277H24.288V22.8556H22.8601V21.4277Z" fill="#C7CC87"/>
<path d="M22.8601 17.1445H24.288V18.5724H22.8601V17.1445Z" fill="#C7CC87"/>
<path d="M22.8601 15.7168H24.288V17.1447H22.8601V15.7168Z" fill="#C7CC87"/>
<path d="M22.8601 14.2842H24.288V15.7121H22.8601V14.2842Z" fill="#C7CC87"/>
<path d="M22.8601 11.4277H24.288V12.8556H22.8601V11.4277Z" fill="#C7CC87"/>
<path d="M24.2882 21.4277H25.7161V22.8556H24.2882V21.4277Z" fill="#C7CC87"/>
<path d="M24.2882 15.7168H25.7161V17.1447H24.2882V15.7168Z" fill="#C7CC87"/>
<path d="M24.2882 14.2842H25.7161V15.7121H24.2882V14.2842Z" fill="#C7CC87"/>
<path d="M24.2882 11.4277H25.7161V12.8556H24.2882V11.4277Z" fill="#C7CC87"/>
<path d="M25.7162 22.8555H27.144V24.2834H25.7162V22.8555Z" fill="#C7CC87"/>
<path d="M25.7162 21.4277H27.144V22.8556H25.7162V21.4277Z" fill="#C7CC87"/>
<path d="M25.7162 12.8555H27.144V14.2834H25.7162V12.8555Z" fill="#C7CC87"/>
<path d="M25.7162 10H27.144V11.4279H25.7162V10Z" fill="#C7CC87"/>
<path d="M25.7162 8.57227H27.144V10.0002H25.7162V8.57227Z" fill="#C7CC87"/>
<path d="M25.7162 7.14453H27.144V8.57242H25.7162V7.14453Z" fill="#C7CC87"/>
<path d="M27.1441 22.8555H28.572V24.2834H27.1441V22.8555Z" fill="#C7CC87"/>
<path d="M27.1441 20H28.572V21.4279H27.1441V20Z" fill="#C7CC87"/>
<path d="M27.1441 18.5723H28.572V20.0002H27.1441V18.5723Z" fill="#C7CC87"/>
<path d="M27.1441 12.8555H28.572V14.2834H27.1441V12.8555Z" fill="#C7CC87"/>
<path d="M27.1441 11.4277H28.572V12.8556H27.1441V11.4277Z" fill="#C7CC87"/>
<path d="M27.1441 10H28.572V11.4279H27.1441V10Z" fill="#C7CC87"/>
<path d="M27.1441 8.57227H28.572V10.0002H27.1441V8.57227Z" fill="#C7CC87"/>
<path d="M27.1441 7.14453H28.572V8.57242H27.1441V7.14453Z" fill="#C7CC87"/>
<path d="M27.1441 5.71191H28.572V7.13981H27.1441V5.71191Z" fill="#C7CC87"/>
<path d="M28.5722 22.8555H30.0001V24.2834H28.5722V22.8555Z" fill="#C7CC87"/>
<path d="M28.5722 20H30.0001V21.4279H28.5722V20Z" fill="#C7CC87"/>
<path d="M28.5722 18.5723H30.0001V20.0002H28.5722V18.5723Z" fill="#C7CC87"/>
<path d="M28.5722 17.1445H30.0001V18.5724H28.5722V17.1445Z" fill="#C7CC87"/>
<path d="M28.5722 14.2842H30.0001V15.7121H28.5722V14.2842Z" fill="#C7CC87"/>
<path d="M28.5722 12.8555H30.0001V14.2834H28.5722V12.8555Z" fill="#C7CC87"/>
<path d="M28.5722 11.4277H30.0001V12.8556H28.5722V11.4277Z" fill="#C7CC87"/>
<path d="M28.5722 10H30.0001V11.4279H28.5722V10Z" fill="#C7CC87"/>
<path d="M28.5722 8.57227H30.0001V10.0002H28.5722V8.57227Z" fill="#C7CC87"/>
<path d="M28.5722 7.14453H30.0001V8.57242H28.5722V7.14453Z" fill="#C7CC87"/>
<path d="M28.5722 1.42773H30.0001V2.85563H28.5722V1.42773Z" fill="#C7CC87"/>
<path d="M30.0002 22.8555H31.4281V24.2834H30.0002V22.8555Z" fill="#C7CC87"/>
<path d="M30.0002 18.5723H31.4281V20.0002H30.0002V18.5723Z" fill="#C7CC87"/>
<path d="M30.0002 17.1445H31.4281V18.5724H30.0002V17.1445Z" fill="#C7CC87"/>
<path d="M30.0002 14.2842H31.4281V15.7121H30.0002V14.2842Z" fill="#C7CC87"/>
<path d="M30.0002 10H31.4281V11.4279H30.0002V10Z" fill="#C7CC87"/>
<path d="M30.0002 8.57227H31.4281V10.0002H30.0002V8.57227Z" fill="#C7CC87"/>
<path d="M30.0002 1.42773H31.4281V2.85563H30.0002V1.42773Z" fill="#C7CC87"/>
<path d="M31.4282 24.2842H32.8561V25.7121H31.4282V24.2842Z" fill="#C7CC87"/>
<path d="M31.4282 22.8555H32.8561V24.2834H31.4282V22.8555Z" fill="#C7CC87"/>
<path d="M31.4282 15.7168H32.8561V17.1447H31.4282V15.7168Z" fill="#C7CC87"/>
<path d="M31.4282 2.85547H32.8561V4.28336H31.4282V2.85547Z" fill="#C7CC87"/>
<path d="M31.4282 1.42773H32.8561V2.85563H31.4282V1.42773Z" fill="#C7CC87"/>
<path d="M32.8563 24.2842H34.2842V25.7121H32.8563V24.2842Z" fill="#C7CC87"/>
<path d="M32.8563 17.1445H34.2842V18.5724H32.8563V17.1445Z" fill="#C7CC87"/>
<path d="M32.8563 15.7168H34.2842V17.1447H32.8563V15.7168Z" fill="#C7CC87"/>
<path d="M32.8563 14.2842H34.2842V15.7121H32.8563V14.2842Z" fill="#C7CC87"/>
<path d="M32.8563 12.8555H34.2842V14.2834H32.8563V12.8555Z" fill="#C7CC87"/>
<path d="M32.8563 2.85547H34.2842V4.28336H32.8563V2.85547Z" fill="#C7CC87"/>
<path d="M32.8563 1.42773H34.2842V2.85563H32.8563V1.42773Z" fill="#C7CC87"/>
<path d="M34.288 24.2842H35.7159V25.7121H34.288V24.2842Z" fill="#C7CC87"/>
<path d="M34.288 17.1445H35.7159V18.5724H34.288V17.1445Z" fill="#C7CC87"/>
<path d="M34.288 15.7168H35.7159V17.1447H34.288V15.7168Z" fill="#C7CC87"/>
<path d="M34.288 14.2842H35.7159V15.7121H34.288V14.2842Z" fill="#C7CC87"/>
<path d="M34.288 12.8555H35.7159V14.2834H34.288V12.8555Z" fill="#C7CC87"/>
<path d="M34.288 11.4277H35.7159V12.8556H34.288V11.4277Z" fill="#C7CC87"/>
<path d="M34.288 2.85547H35.7159V4.28336H34.288V2.85547Z" fill="#C7CC87"/>
<path d="M34.288 1.42773H35.7159V2.85563H34.288V1.42773Z" fill="#C7CC87"/>
<path d="M34.288 0H35.7159V1.42789H34.288V0Z" fill="#C7CC87"/>
<path d="M35.7162 25.7119H37.144V27.1398H35.7162V25.7119Z" fill="#C7CC87"/>
<path d="M35.7162 18.5723H37.144V20.0002H35.7162V18.5723Z" fill="#C7CC87"/>
<path d="M35.7162 17.1445H37.144V18.5724H35.7162V17.1445Z" fill="#C7CC87"/>
<path d="M35.7162 15.7168H37.144V17.1447H35.7162V15.7168Z" fill="#C7CC87"/>
<path d="M35.7162 14.2842H37.144V15.7121H35.7162V14.2842Z" fill="#C7CC87"/>
<path d="M35.7162 12.8555H37.144V14.2834H35.7162V12.8555Z" fill="#C7CC87"/>
<path d="M35.7162 7.14453H37.144V8.57242H35.7162V7.14453Z" fill="#C7CC87"/>
<path d="M35.7162 2.85547H37.144V4.28336H35.7162V2.85547Z" fill="#C7CC87"/>
<path d="M35.7162 1.42773H37.144V2.85563H35.7162V1.42773Z" fill="#C7CC87"/>
<path d="M35.7162 0H37.144V1.42789H35.7162V0Z" fill="#C7CC87"/>
<path d="M37.1441 27.1396H38.572V28.5675H37.1441V27.1396Z" fill="#C7CC87"/>
<path d="M37.1441 25.7119H38.572V27.1398H37.1441V25.7119Z" fill="#C7CC87"/>
<path d="M37.1441 20H38.572V21.4279H37.1441V20Z" fill="#C7CC87"/>
<path d="M37.1441 18.5723H38.572V20.0002H37.1441V18.5723Z" fill="#C7CC87"/>
<path d="M37.1441 8.57227H38.572V10.0002H37.1441V8.57227Z" fill="#C7CC87"/>
<path d="M37.1441 7.14453H38.572V8.57242H37.1441V7.14453Z" fill="#C7CC87"/>
<path d="M37.1441 5.71191H38.572V7.13981H37.1441V5.71191Z" fill="#C7CC87"/>
<path d="M38.5721 38.5723H40V40.0002H38.5721V38.5723Z" fill="#C7CC87"/>
<path d="M38.5721 37.1445H40V38.5724H38.5721V37.1445Z" fill="#C7CC87"/>
<path d="M38.5721 28.5723H40V30.0002H38.5721V28.5723Z" fill="#C7CC87"/>
<path d="M38.5721 27.1396H40V28.5675H38.5721V27.1396Z" fill="#C7CC87"/>
<path d="M38.5721 21.4277H40V22.8556H38.5721V21.4277Z" fill="#C7CC87"/>
<path d="M38.5721 20H40V21.4279H38.5721V20Z" fill="#C7CC87"/>
<path d="M38.5721 8.57227H40V10.0002H38.5721V8.57227Z" fill="#C7CC87"/>
<path d="M38.5721 7.14453H40V8.57242H38.5721V7.14453Z" fill="#C7CC87"/>
<path d="M38.5721 5.71191H40V7.13981H38.5721V5.71191Z" fill="#C7CC87"/>
<path d="M38.5721 2.85547H40V4.28336H38.5721V2.85547Z" fill="#C7CC87"/>
<path d="M38.5721 1.42773H40V2.85563H38.5721V1.42773Z" fill="#C7CC87"/>
<path d="M40.0002 37.1445H41.4281V38.5724H40.0002V37.1445Z" fill="#C7CC87"/>
<path d="M40.0002 35.7119H41.4281V37.1398H40.0002V35.7119Z" fill="#C7CC87"/>
<path d="M40.0002 28.5723H41.4281V30.0002H40.0002V28.5723Z" fill="#C7CC87"/>
<path d="M40.0002 24.2842H41.4281V25.7121H40.0002V24.2842Z" fill="#C7CC87"/>
<path d="M40.0002 22.8555H41.4281V24.2834H40.0002V22.8555Z" fill="#C7CC87"/>
<path d="M40.0002 21.4277H41.4281V22.8556H40.0002V21.4277Z" fill="#C7CC87"/>
<path d="M40.0002 8.57227H41.4281V10.0002H40.0002V8.57227Z" fill="#C7CC87"/>
<path d="M40.0002 7.14453H41.4281V8.57242H40.0002V7.14453Z" fill="#C7CC87"/>
<path d="M40.0002 4.28418H41.4281V5.71207H40.0002V4.28418Z" fill="#C7CC87"/>
<path d="M40.0002 2.85547H41.4281V4.28336H40.0002V2.85547Z" fill="#C7CC87"/>
<path d="M40.0002 1.42773H41.4281V2.85563H40.0002V1.42773Z" fill="#C7CC87"/>
<path d="M40.0002 0H41.4281V1.42789H40.0002V0Z" fill="#C7CC87"/>
<path d="M41.4282 35.7119H42.8561V37.1398H41.4282V35.7119Z" fill="#C7CC87"/>
<path d="M41.4282 34.2832H42.8561V35.7111H41.4282V34.2832Z" fill="#C7CC87"/>
<path d="M41.4282 32.8555H42.8561V34.2834H41.4282V32.8555Z" fill="#C7CC87"/>
<path d="M41.4282 28.5723H42.8561V30.0002H41.4282V28.5723Z" fill="#C7CC87"/>
<path d="M41.4282 27.1396H42.8561V28.5675H41.4282V27.1396Z" fill="#C7CC87"/>
<path d="M41.4282 25.7119H42.8561V27.1398H41.4282V25.7119Z" fill="#C7CC87"/>
<path d="M41.4282 24.2842H42.8561V25.7121H41.4282V24.2842Z" fill="#C7CC87"/>
<path d="M41.4282 2.85547H42.8561V4.28336H41.4282V2.85547Z" fill="#C7CC87"/>
<path d="M41.4282 1.42773H42.8561V2.85563H41.4282V1.42773Z" fill="#C7CC87"/>
<path d="M42.8562 34.2832H44.2841V35.7111H42.8562V34.2832Z" fill="#C7CC87"/>
<path d="M42.8562 32.8555H44.2841V34.2834H42.8562V32.8555Z" fill="#C7CC87"/>
<path d="M42.8562 31.4277H44.2841V32.8556H42.8562V31.4277Z" fill="#C7CC87"/>
<path d="M42.8562 30H44.2841V31.4279H42.8562V30Z" fill="#C7CC87"/>
<path d="M42.8562 28.5723H44.2841V30.0002H42.8562V28.5723Z" fill="#C7CC87"/>
<path d="M42.8562 27.1396H44.2841V28.5675H42.8562V27.1396Z" fill="#C7CC87"/>
<path d="M42.8562 25.7119H44.2841V27.1398H42.8562V25.7119Z" fill="#C7CC87"/>
<path d="M42.8562 8.57227H44.2841V10.0002H42.8562V8.57227Z" fill="#C7CC87"/>
<path d="M42.8562 5.71191H44.2841V7.13981H42.8562V5.71191Z" fill="#C7CC87"/>
<path d="M42.8562 4.28418H44.2841V5.71207H42.8562V4.28418Z" fill="#C7CC87"/>
<path d="M42.8562 2.85547H44.2841V4.28336H42.8562V2.85547Z" fill="#C7CC87"/>
<path d="M44.288 24.2842H45.7159V25.7121H44.288V24.2842Z" fill="#C7CC87"/>
<path d="M44.288 22.8555H45.7159V24.2834H44.288V22.8555Z" fill="#C7CC87"/>
<path d="M44.288 10H45.7159V11.4279H44.288V10Z" fill="#C7CC87"/>
<path d="M44.288 8.57227H45.7159V10.0002H44.288V8.57227Z" fill="#C7CC87"/>
<path d="M44.288 7.14453H45.7159V8.57242H44.288V7.14453Z" fill="#C7CC87"/>
<path d="M44.288 5.71191H45.7159V7.13981H44.288V5.71191Z" fill="#C7CC87"/>
<path d="M44.288 4.28418H45.7159V5.71207H44.288V4.28418Z" fill="#C7CC87"/>
<path d="M44.288 2.85547H45.7159V4.28336H44.288V2.85547Z" fill="#C7CC87"/>
<path d="M45.716 22.8555H47.1439V24.2834H45.716V22.8555Z" fill="#C7CC87"/>
<path d="M45.716 21.4277H47.1439V22.8556H45.716V21.4277Z" fill="#C7CC87"/>
<path d="M45.716 12.8555H47.1439V14.2834H45.716V12.8555Z" fill="#C7CC87"/>
<path d="M45.716 11.4277H47.1439V12.8556H45.716V11.4277Z" fill="#C7CC87"/>
<path d="M45.716 10H47.1439V11.4279H45.716V10Z" fill="#C7CC87"/>
<path d="M45.716 7.14453H47.1439V8.57242H45.716V7.14453Z" fill="#C7CC87"/>
<path d="M45.716 5.71191H47.1439V7.13981H45.716V5.71191Z" fill="#C7CC87"/>
<path d="M45.716 4.28418H47.1439V5.71207H45.716V4.28418Z" fill="#C7CC87"/>
<path d="M47.1441 21.4277H48.572V22.8556H47.1441V21.4277Z" fill="#C7CC87"/>
<path d="M47.1441 20H48.572V21.4279H47.1441V20Z" fill="#C7CC87"/>
<path d="M47.1441 18.5723H48.572V20.0002H47.1441V18.5723Z" fill="#C7CC87"/>
<path d="M47.1441 17.1445H48.572V18.5724H47.1441V17.1445Z" fill="#C7CC87"/>
<path d="M47.1441 15.7168H48.572V17.1447H47.1441V15.7168Z" fill="#C7CC87"/>
<path d="M47.1441 14.2842H48.572V15.7121H47.1441V14.2842Z" fill="#C7CC87"/>
<path d="M47.1441 12.8555H48.572V14.2834H47.1441V12.8555Z" fill="#C7CC87"/>
<path d="M47.1441 5.71191H48.572V7.13981H47.1441V5.71191Z" fill="#C7CC87"/>
<path d="M48.5721 18.5723H50V20.0002H48.5721V18.5723Z" fill="#C7CC87"/>
<path d="M48.5721 17.1445H50V18.5724H48.5721V17.1445Z" fill="#C7CC87"/>
<path d="M48.5721 15.7168H50V17.1447H48.5721V15.7168Z" fill="#C7CC87"/>
<path d="M48.5721 14.2842H50V15.7121H48.5721V14.2842Z" fill="#C7CC87"/>
</svg>
