<svg width="50" height="40" viewBox="0 0 50 40" fill="none" xmlns="http://www.w3.org/2000/svg">
<path d="M49.9997 7.14453H48.5718V8.57242H49.9997V7.14453Z" fill="#C7CC87"/>
<path d="M48.5717 8.57227H47.1438V10.0002H48.5717V8.57227Z" fill="#C7CC87"/>
<path d="M48.5717 7.14453H47.1438V8.57242H48.5717V7.14453Z" fill="#C7CC87"/>
<path d="M48.5717 5.71191H47.1438V7.13981H48.5717V5.71191Z" fill="#C7CC87"/>
<path d="M47.1447 8.57227H45.7168V10.0002H47.1447V8.57227Z" fill="#C7CC87"/>
<path d="M47.1447 7.14453H45.7168V8.57242H47.1447V7.14453Z" fill="#C7CC87"/>
<path d="M47.1447 5.71191H45.7168V7.13981H47.1447V5.71191Z" fill="#C7CC87"/>
<path d="M45.7118 10H44.2839V11.4279H45.7118V10Z" fill="#C7CC87"/>
<path d="M45.7118 8.57227H44.2839V10.0002H45.7118V8.57227Z" fill="#C7CC87"/>
<path d="M45.7118 7.14453H44.2839V8.57242H45.7118V7.14453Z" fill="#C7CC87"/>
<path d="M45.7118 5.71191H44.2839V7.13981H45.7118V5.71191Z" fill="#C7CC87"/>
<path d="M44.2837 8.57227H42.8558V10.0002H44.2837V8.57227Z" fill="#C7CC87"/>
<path d="M44.2837 7.14453H42.8558V8.57242H44.2837V7.14453Z" fill="#C7CC87"/>
<path d="M42.8557 5.71191H41.4279V7.13981H42.8557V5.71191Z" fill="#C7CC87"/>
<path d="M42.8557 4.28418H41.4279V5.71207H42.8557V4.28418Z" fill="#C7CC87"/>
<path d="M41.4278 12.8555H39.9999V14.2834H41.4278V12.8555Z" fill="#C7CC87"/>
<path d="M41.4278 11.4277H39.9999V12.8556H41.4278V11.4277Z" fill="#C7CC87"/>
<path d="M41.4278 10H39.9999V11.4279H41.4278V10Z" fill="#C7CC87"/>
<path d="M41.4278 7.14453H39.9999V8.57242H41.4278V7.14453Z" fill="#C7CC87"/>
<path d="M41.4278 5.71191H39.9999V7.13981H41.4278V5.71191Z" fill="#C7CC87"/>
<path d="M41.4278 4.28418H39.9999V5.71207H41.4278V4.28418Z" fill="#C7CC87"/>
<path d="M39.9997 12.8555H38.5718V14.2834H39.9997V12.8555Z" fill="#C7CC87"/>
<path d="M39.9997 11.4277H38.5718V12.8556H39.9997V11.4277Z" fill="#C7CC87"/>
<path d="M39.9997 10H38.5718V11.4279H39.9997V10Z" fill="#C7CC87"/>
<path d="M39.9997 7.14453H38.5718V8.57242H39.9997V7.14453Z" fill="#C7CC87"/>
<path d="M39.9997 5.71191H38.5718V7.13981H39.9997V5.71191Z" fill="#C7CC87"/>
<path d="M38.5717 11.4277H37.1438V12.8556H38.5717V11.4277Z" fill="#C7CC87"/>
<path d="M38.5717 10H37.1438V11.4279H38.5717V10Z" fill="#C7CC87"/>
<path d="M37.1398 10H35.7119V11.4279H37.1398V10Z" fill="#C7CC87"/>
<path d="M37.1398 8.57227H35.7119V10.0002H37.1398V8.57227Z" fill="#C7CC87"/>
<path d="M37.1398 7.14453H35.7119V8.57242H37.1398V7.14453Z" fill="#C7CC87"/>
<path d="M37.1398 5.71191H35.7119V7.13981H37.1398V5.71191Z" fill="#C7CC87"/>
<path d="M35.7118 10H34.2839V11.4279H35.7118V10Z" fill="#C7CC87"/>
<path d="M35.7118 8.57227H34.2839V10.0002H35.7118V8.57227Z" fill="#C7CC87"/>
<path d="M35.7118 7.14453H34.2839V8.57242H35.7118V7.14453Z" fill="#C7CC87"/>
<path d="M35.7118 5.71191H34.2839V7.13981H35.7118V5.71191Z" fill="#C7CC87"/>
<path d="M35.7118 4.28418H34.2839V5.71207H35.7118V4.28418Z" fill="#C7CC87"/>
<path d="M34.2838 12.8555H32.856V14.2834H34.2838V12.8555Z" fill="#C7CC87"/>
<path d="M34.2838 11.4277H32.856V12.8556H34.2838V11.4277Z" fill="#C7CC87"/>
<path d="M34.2838 10H32.856V11.4279H34.2838V10Z" fill="#C7CC87"/>
<path d="M34.2838 8.57227H32.856V10.0002H34.2838V8.57227Z" fill="#C7CC87"/>
<path d="M34.2838 7.14453H32.856V8.57242H34.2838V7.14453Z" fill="#C7CC87"/>
<path d="M34.2838 5.71191H32.856V7.13981H34.2838V5.71191Z" fill="#C7CC87"/>
<path d="M32.8558 12.8555H31.4279V14.2834H32.8558V12.8555Z" fill="#C7CC87"/>
<path d="M32.8558 11.4277H31.4279V12.8556H32.8558V11.4277Z" fill="#C7CC87"/>
<path d="M32.8558 10H31.4279V11.4279H32.8558V10Z" fill="#C7CC87"/>
<path d="M31.4278 12.8555H29.9999V14.2834H31.4278V12.8555Z" fill="#C7CC87"/>
<path d="M31.4278 11.4277H29.9999V12.8556H31.4278V11.4277Z" fill="#C7CC87"/>
<path d="M31.4278 10H29.9999V11.4279H31.4278V10Z" fill="#C7CC87"/>
<path d="M29.9998 17.1445H28.5719V18.5724H29.9998V17.1445Z" fill="#C7CC87"/>
<path d="M29.9998 15.7168H28.5719V17.1447H29.9998V15.7168Z" fill="#C7CC87"/>
<path d="M29.9998 14.2842H28.5719V15.7121H29.9998V14.2842Z" fill="#C7CC87"/>
<path d="M29.9998 11.4277H28.5719V12.8556H29.9998V11.4277Z" fill="#C7CC87"/>
<path d="M29.9998 10H28.5719V11.4279H29.9998V10Z" fill="#C7CC87"/>
<path d="M29.9998 8.57227H28.5719V10.0002H29.9998V8.57227Z" fill="#C7CC87"/>
<path d="M29.9998 7.14453H28.5719V8.57242H29.9998V7.14453Z" fill="#C7CC87"/>
<path d="M28.5717 17.1445H27.1438V18.5724H28.5717V17.1445Z" fill="#C7CC87"/>
<path d="M28.5717 15.7168H27.1438V17.1447H28.5717V15.7168Z" fill="#C7CC87"/>
<path d="M28.5717 14.2842H27.1438V15.7121H28.5717V14.2842Z" fill="#C7CC87"/>
<path d="M28.5717 11.4277H27.1438V12.8556H28.5717V11.4277Z" fill="#C7CC87"/>
<path d="M28.5717 10H27.1438V11.4279H28.5717V10Z" fill="#C7CC87"/>
<path d="M28.5717 8.57227H27.1438V10.0002H28.5717V8.57227Z" fill="#C7CC87"/>
<path d="M28.5717 7.14453H27.1438V8.57242H28.5717V7.14453Z" fill="#C7CC87"/>
<path d="M27.1399 21.4277H25.712V22.8556H27.1399V21.4277Z" fill="#C7CC87"/>
<path d="M27.1399 17.1445H25.712V18.5724H27.1399V17.1445Z" fill="#C7CC87"/>
<path d="M27.1399 15.7168H25.712V17.1447H27.1399V15.7168Z" fill="#C7CC87"/>
<path d="M27.1399 14.2842H25.712V15.7121H27.1399V14.2842Z" fill="#C7CC87"/>
<path d="M27.1399 11.4277H25.712V12.8556H27.1399V11.4277Z" fill="#C7CC87"/>
<path d="M25.7118 21.4277H24.2839V22.8556H25.7118V21.4277Z" fill="#C7CC87"/>
<path d="M25.7118 15.7168H24.2839V17.1447H25.7118V15.7168Z" fill="#C7CC87"/>
<path d="M25.7118 14.2842H24.2839V15.7121H25.7118V14.2842Z" fill="#C7CC87"/>
<path d="M25.7118 11.4277H24.2839V12.8556H25.7118V11.4277Z" fill="#C7CC87"/>
<path d="M24.2838 22.8555H22.856V24.2834H24.2838V22.8555Z" fill="#C7CC87"/>
<path d="M24.2838 21.4277H22.856V22.8556H24.2838V21.4277Z" fill="#C7CC87"/>
<path d="M24.2838 12.8555H22.856V14.2834H24.2838V12.8555Z" fill="#C7CC87"/>
<path d="M24.2838 10H22.856V11.4279H24.2838V10Z" fill="#C7CC87"/>
<path d="M24.2838 8.57227H22.856V10.0002H24.2838V8.57227Z" fill="#C7CC87"/>
<path d="M24.2838 7.14453H22.856V8.57242H24.2838V7.14453Z" fill="#C7CC87"/>
<path d="M22.8559 22.8555H21.428V24.2834H22.8559V22.8555Z" fill="#C7CC87"/>
<path d="M22.8559 20H21.428V21.4279H22.8559V20Z" fill="#C7CC87"/>
<path d="M22.8559 18.5723H21.428V20.0002H22.8559V18.5723Z" fill="#C7CC87"/>
<path d="M22.8559 12.8555H21.428V14.2834H22.8559V12.8555Z" fill="#C7CC87"/>
<path d="M22.8559 11.4277H21.428V12.8556H22.8559V11.4277Z" fill="#C7CC87"/>
<path d="M22.8559 10H21.428V11.4279H22.8559V10Z" fill="#C7CC87"/>
<path d="M22.8559 8.57227H21.428V10.0002H22.8559V8.57227Z" fill="#C7CC87"/>
<path d="M22.8559 7.14453H21.428V8.57242H22.8559V7.14453Z" fill="#C7CC87"/>
<path d="M22.8559 5.71191H21.428V7.13981H22.8559V5.71191Z" fill="#C7CC87"/>
<path d="M21.4278 22.8555H19.9999V24.2834H21.4278V22.8555Z" fill="#C7CC87"/>
<path d="M21.4278 20H19.9999V21.4279H21.4278V20Z" fill="#C7CC87"/>
<path d="M21.4278 18.5723H19.9999V20.0002H21.4278V18.5723Z" fill="#C7CC87"/>
<path d="M21.4278 17.1445H19.9999V18.5724H21.4278V17.1445Z" fill="#C7CC87"/>
<path d="M21.4278 14.2842H19.9999V15.7121H21.4278V14.2842Z" fill="#C7CC87"/>
<path d="M21.4278 12.8555H19.9999V14.2834H21.4278V12.8555Z" fill="#C7CC87"/>
<path d="M21.4278 11.4277H19.9999V12.8556H21.4278V11.4277Z" fill="#C7CC87"/>
<path d="M21.4278 10H19.9999V11.4279H21.4278V10Z" fill="#C7CC87"/>
<path d="M21.4278 8.57227H19.9999V10.0002H21.4278V8.57227Z" fill="#C7CC87"/>
<path d="M21.4278 7.14453H19.9999V8.57242H21.4278V7.14453Z" fill="#C7CC87"/>
<path d="M21.4278 1.42773H19.9999V2.85563H21.4278V1.42773Z" fill="#C7CC87"/>
<path d="M19.9998 22.8555H18.5719V24.2834H19.9998V22.8555Z" fill="#C7CC87"/>
<path d="M19.9998 18.5723H18.5719V20.0002H19.9998V18.5723Z" fill="#C7CC87"/>
<path d="M19.9998 17.1445H18.5719V18.5724H19.9998V17.1445Z" fill="#C7CC87"/>
<path d="M19.9998 14.2842H18.5719V15.7121H19.9998V14.2842Z" fill="#C7CC87"/>
<path d="M19.9998 10H18.5719V11.4279H19.9998V10Z" fill="#C7CC87"/>
<path d="M19.9998 8.57227H18.5719V10.0002H19.9998V8.57227Z" fill="#C7CC87"/>
<path d="M19.9998 1.42773H18.5719V2.85563H19.9998V1.42773Z" fill="#C7CC87"/>
<path d="M18.5718 24.2842H17.1439V25.7121H18.5718V24.2842Z" fill="#C7CC87"/>
<path d="M18.5718 22.8555H17.1439V24.2834H18.5718V22.8555Z" fill="#C7CC87"/>
<path d="M18.5718 15.7168H17.1439V17.1447H18.5718V15.7168Z" fill="#C7CC87"/>
<path d="M18.5718 2.85547H17.1439V4.28336H18.5718V2.85547Z" fill="#C7CC87"/>
<path d="M18.5718 1.42773H17.1439V2.85563H18.5718V1.42773Z" fill="#C7CC87"/>
<path d="M17.1437 24.2842H15.7158V25.7121H17.1437V24.2842Z" fill="#C7CC87"/>
<path d="M17.1437 17.1445H15.7158V18.5724H17.1437V17.1445Z" fill="#C7CC87"/>
<path d="M17.1437 15.7168H15.7158V17.1447H17.1437V15.7168Z" fill="#C7CC87"/>
<path d="M17.1437 14.2842H15.7158V15.7121H17.1437V14.2842Z" fill="#C7CC87"/>
<path d="M17.1437 12.8555H15.7158V14.2834H17.1437V12.8555Z" fill="#C7CC87"/>
<path d="M17.1437 2.85547H15.7158V4.28336H17.1437V2.85547Z" fill="#C7CC87"/>
<path d="M17.1437 1.42773H15.7158V2.85563H17.1437V1.42773Z" fill="#C7CC87"/>
<path d="M15.712 24.2842H14.2841V25.7121H15.712V24.2842Z" fill="#C7CC87"/>
<path d="M15.712 17.1445H14.2841V18.5724H15.712V17.1445Z" fill="#C7CC87"/>
<path d="M15.712 15.7168H14.2841V17.1447H15.712V15.7168Z" fill="#C7CC87"/>
<path d="M15.712 14.2842H14.2841V15.7121H15.712V14.2842Z" fill="#C7CC87"/>
<path d="M15.712 12.8555H14.2841V14.2834H15.712V12.8555Z" fill="#C7CC87"/>
<path d="M15.712 11.4277H14.2841V12.8556H15.712V11.4277Z" fill="#C7CC87"/>
<path d="M15.712 2.85547H14.2841V4.28336H15.712V2.85547Z" fill="#C7CC87"/>
<path d="M15.712 1.42773H14.2841V2.85563H15.712V1.42773Z" fill="#C7CC87"/>
<path d="M15.712 0H14.2841V1.42789H15.712V0Z" fill="#C7CC87"/>
<path d="M14.2838 25.7119H12.856V27.1398H14.2838V25.7119Z" fill="#C7CC87"/>
<path d="M14.2838 18.5723H12.856V20.0002H14.2838V18.5723Z" fill="#C7CC87"/>
<path d="M14.2838 17.1445H12.856V18.5724H14.2838V17.1445Z" fill="#C7CC87"/>
<path d="M14.2838 15.7168H12.856V17.1447H14.2838V15.7168Z" fill="#C7CC87"/>
<path d="M14.2838 14.2842H12.856V15.7121H14.2838V14.2842Z" fill="#C7CC87"/>
<path d="M14.2838 12.8555H12.856V14.2834H14.2838V12.8555Z" fill="#C7CC87"/>
<path d="M14.2838 7.14453H12.856V8.57242H14.2838V7.14453Z" fill="#C7CC87"/>
<path d="M14.2838 2.85547H12.856V4.28336H14.2838V2.85547Z" fill="#C7CC87"/>
<path d="M14.2838 1.42773H12.856V2.85563H14.2838V1.42773Z" fill="#C7CC87"/>
<path d="M14.2838 0H12.856V1.42789H14.2838V0Z" fill="#C7CC87"/>
<path d="M12.8559 27.1396H11.428V28.5675H12.8559V27.1396Z" fill="#C7CC87"/>
<path d="M12.8559 25.7119H11.428V27.1398H12.8559V25.7119Z" fill="#C7CC87"/>
<path d="M12.8559 20H11.428V21.4279H12.8559V20Z" fill="#C7CC87"/>
<path d="M12.8559 18.5723H11.428V20.0002H12.8559V18.5723Z" fill="#C7CC87"/>
<path d="M12.8559 8.57227H11.428V10.0002H12.8559V8.57227Z" fill="#C7CC87"/>
<path d="M12.8559 7.14453H11.428V8.57242H12.8559V7.14453Z" fill="#C7CC87"/>
<path d="M12.8559 5.71191H11.428V7.13981H12.8559V5.71191Z" fill="#C7CC87"/>
<path d="M11.4279 38.5723H10V40.0002H11.4279V38.5723Z" fill="#C7CC87"/>
<path d="M11.4279 37.1445H10V38.5724H11.4279V37.1445Z" fill="#C7CC87"/>
<path d="M11.4279 28.5723H10V30.0002H11.4279V28.5723Z" fill="#C7CC87"/>
<path d="M11.4279 27.1396H10V28.5675H11.4279V27.1396Z" fill="#C7CC87"/>
<path d="M11.4279 21.4277H10V22.8556H11.4279V21.4277Z" fill="#C7CC87"/>
<path d="M11.4279 20H10V21.4279H11.4279V20Z" fill="#C7CC87"/>
<path d="M11.4279 8.57227H10V10.0002H11.4279V8.57227Z" fill="#C7CC87"/>
<path d="M11.4279 7.14453H10V8.57242H11.4279V7.14453Z" fill="#C7CC87"/>
<path d="M11.4279 5.71191H10V7.13981H11.4279V5.71191Z" fill="#C7CC87"/>
<path d="M11.4279 2.85547H10V4.28336H11.4279V2.85547Z" fill="#C7CC87"/>
<path d="M11.4279 1.42773H10V2.85563H11.4279V1.42773Z" fill="#C7CC87"/>
<path d="M9.99979 37.1445H8.5719V38.5724H9.99979V37.1445Z" fill="#C7CC87"/>
<path d="M9.99979 35.7119H8.5719V37.1398H9.99979V35.7119Z" fill="#C7CC87"/>
<path d="M9.99979 28.5723H8.5719V30.0002H9.99979V28.5723Z" fill="#C7CC87"/>
<path d="M9.99979 24.2842H8.5719V25.7121H9.99979V24.2842Z" fill="#C7CC87"/>
<path d="M9.99979 22.8555H8.5719V24.2834H9.99979V22.8555Z" fill="#C7CC87"/>
<path d="M9.99979 21.4277H8.5719V22.8556H9.99979V21.4277Z" fill="#C7CC87"/>
<path d="M9.99979 8.57227H8.5719V10.0002H9.99979V8.57227Z" fill="#C7CC87"/>
<path d="M9.99979 7.14453H8.5719V8.57242H9.99979V7.14453Z" fill="#C7CC87"/>
<path d="M9.99979 4.28418H8.5719V5.71207H9.99979V4.28418Z" fill="#C7CC87"/>
<path d="M9.99979 2.85547H8.5719V4.28336H9.99979V2.85547Z" fill="#C7CC87"/>
<path d="M9.99979 1.42773H8.5719V2.85563H9.99979V1.42773Z" fill="#C7CC87"/>
<path d="M9.99979 0H8.5719V1.42789H9.99979V0Z" fill="#C7CC87"/>
<path d="M8.57181 35.7119H7.14392V37.1398H8.57181V35.7119Z" fill="#C7CC87"/>
<path d="M8.57181 34.2832H7.14392V35.7111H8.57181V34.2832Z" fill="#C7CC87"/>
<path d="M8.57181 32.8555H7.14392V34.2834H8.57181V32.8555Z" fill="#C7CC87"/>
<path d="M8.57181 28.5723H7.14392V30.0002H8.57181V28.5723Z" fill="#C7CC87"/>
<path d="M8.57181 27.1396H7.14392V28.5675H8.57181V27.1396Z" fill="#C7CC87"/>
<path d="M8.57181 25.7119H7.14392V27.1398H8.57181V25.7119Z" fill="#C7CC87"/>
<path d="M8.57181 24.2842H7.14392V25.7121H8.57181V24.2842Z" fill="#C7CC87"/>
<path d="M8.57181 2.85547H7.14392V4.28336H8.57181V2.85547Z" fill="#C7CC87"/>
<path d="M8.57181 1.42773H7.14392V2.85563H8.57181V1.42773Z" fill="#C7CC87"/>
<path d="M7.14384 34.2832H5.71594V35.7111H7.14384V34.2832Z" fill="#C7CC87"/>
<path d="M7.14384 32.8555H5.71594V34.2834H7.14384V32.8555Z" fill="#C7CC87"/>
<path d="M7.14384 31.4277H5.71594V32.8556H7.14384V31.4277Z" fill="#C7CC87"/>
<path d="M7.14384 30H5.71594V31.4279H7.14384V30Z" fill="#C7CC87"/>
<path d="M7.14384 28.5723H5.71594V30.0002H7.14384V28.5723Z" fill="#C7CC87"/>
<path d="M7.14384 27.1396H5.71594V28.5675H7.14384V27.1396Z" fill="#C7CC87"/>
<path d="M7.14384 25.7119H5.71594V27.1398H7.14384V25.7119Z" fill="#C7CC87"/>
<path d="M7.14384 8.57227H5.71594V10.0002H7.14384V8.57227Z" fill="#C7CC87"/>
<path d="M7.14384 5.71191H5.71594V7.13981H7.14384V5.71191Z" fill="#C7CC87"/>
<path d="M7.14384 4.28418H5.71594V5.71207H7.14384V4.28418Z" fill="#C7CC87"/>
<path d="M7.14384 2.85547H5.71594V4.28336H7.14384V2.85547Z" fill="#C7CC87"/>
<path d="M5.71195 24.2842H4.28406V25.7121H5.71195V24.2842Z" fill="#C7CC87"/>
<path d="M5.71195 22.8555H4.28406V24.2834H5.71195V22.8555Z" fill="#C7CC87"/>
<path d="M5.71195 10H4.28406V11.4279H5.71195V10Z" fill="#C7CC87"/>
<path d="M5.71195 8.57227H4.28406V10.0002H5.71195V8.57227Z" fill="#C7CC87"/>
<path d="M5.71195 7.14453H4.28406V8.57242H5.71195V7.14453Z" fill="#C7CC87"/>
<path d="M5.71195 5.71191H4.28406V7.13981H5.71195V5.71191Z" fill="#C7CC87"/>
<path d="M5.71195 4.28418H4.28406V5.71207H5.71195V4.28418Z" fill="#C7CC87"/>
<path d="M5.71195 2.85547H4.28406V4.28336H5.71195V2.85547Z" fill="#C7CC87"/>
<path d="M4.28397 22.8555H2.85608V24.2834H4.28397V22.8555Z" fill="#C7CC87"/>
<path d="M4.28397 21.4277H2.85608V22.8556H4.28397V21.4277Z" fill="#C7CC87"/>
<path d="M4.28397 12.8555H2.85608V14.2834H4.28397V12.8555Z" fill="#C7CC87"/>
<path d="M4.28397 11.4277H2.85608V12.8556H4.28397V11.4277Z" fill="#C7CC87"/>
<path d="M4.28397 10H2.85608V11.4279H4.28397V10Z" fill="#C7CC87"/>
<path d="M4.28397 7.14453H2.85608V8.57242H4.28397V7.14453Z" fill="#C7CC87"/>
<path d="M4.28397 5.71191H2.85608V7.13981H4.28397V5.71191Z" fill="#C7CC87"/>
<path d="M4.28397 4.28418H2.85608V5.71207H4.28397V4.28418Z" fill="#C7CC87"/>
<path d="M2.85587 21.4277H1.42798V22.8556H2.85587V21.4277Z" fill="#C7CC87"/>
<path d="M2.85587 20H1.42798V21.4279H2.85587V20Z" fill="#C7CC87"/>
<path d="M2.85587 18.5723H1.42798V20.0002H2.85587V18.5723Z" fill="#C7CC87"/>
<path d="M2.85587 17.1445H1.42798V18.5724H2.85587V17.1445Z" fill="#C7CC87"/>
<path d="M2.85587 15.7168H1.42798V17.1447H2.85587V15.7168Z" fill="#C7CC87"/>
<path d="M2.85587 14.2842H1.42798V15.7121H2.85587V14.2842Z" fill="#C7CC87"/>
<path d="M2.85587 12.8555H1.42798V14.2834H2.85587V12.8555Z" fill="#C7CC87"/>
<path d="M2.85587 5.71191H1.42798V7.13981H2.85587V5.71191Z" fill="#C7CC87"/>
<path d="M1.42789 18.5723H0V20.0002H1.42789V18.5723Z" fill="#C7CC87"/>
<path d="M1.42789 17.1445H0V18.5724H1.42789V17.1445Z" fill="#C7CC87"/>
<path d="M1.42789 15.7168H0V17.1447H1.42789V15.7168Z" fill="#C7CC87"/>
<path d="M1.42789 14.2842H0V15.7121H1.42789V14.2842Z" fill="#C7CC87"/>
</svg>
