<svg width="49" height="70" viewBox="0 0 49 70" fill="none" xmlns="http://www.w3.org/2000/svg">
<g clip-path="url(#clip0_867:76269)">
<path opacity="0.56" d="M26.1562 44.198C37.4629 44.198 46.6287 34.7827 46.6287 23.1684C46.6287 11.554 37.4629 2.13867 26.1562 2.13867C14.8495 2.13867 5.68359 11.554 5.68359 23.1684C5.68359 34.7827 14.8495 44.198 26.1562 44.198Z" fill="#E3FEFF"/>
<path d="M46.1155 14.5821V8.74848H43.231V5.83367H40.3506V2.9148H34.5896V0H17.3149V2.9148H11.5299V5.83367H8.6454V8.74848H5.76494V14.5821H2.88448V29.1643H5.76494V34.998H8.6454V40.8316H11.5299V49.5964H8.6454V55.43H5.76494V58.3449H2.88448V64.1785H0V70.0163H5.76494V67.0771H8.6454V61.2475H11.5299V58.3286H14.4103V52.499H17.2948V49.5964H20.1793V46.6816H34.5896V43.7627H40.3506V40.8479H43.231V34.998H46.1155V32.0832H49.0121V14.5821H46.1155ZM31.7052 40.8316H17.2948V37.9168H14.4103V34.998H11.5299V29.1643H8.6454V14.5821H11.5299V11.6633H14.4103V8.74848H17.2948V5.83367H34.5896V8.74848H37.4701V11.6633H40.3506V14.5821H43.231V29.1643H40.3506V32.0832H37.4701V37.9168H34.5896V40.8316H31.7052Z" fill="#034A51"/>
</g>
<defs>
<clipPath id="clip0_867:76269">
<rect width="49" height="70" fill="white"/>
</clipPath>
</defs>
</svg>
