<svg width="40" height="56" viewBox="0 0 40 56" fill="none" xmlns="http://www.w3.org/2000/svg">
<g clip-path="url(#clip0_1674_143323)">
<path opacity="0.56" d="M21.3528 35.3584C30.5827 35.3584 38.0651 27.8262 38.0651 18.5347C38.0651 9.24318 30.5827 1.71094 21.3528 1.71094C12.1228 1.71094 4.64047 9.24318 4.64047 18.5347C4.64047 27.8262 12.1228 35.3584 21.3528 35.3584Z" fill="#E3FEFF"/>
<path d="M37.6453 11.6657V6.99878H35.2906V4.66694H32.9392V2.33184H28.2365V0H14.1346V2.33184H9.41215V4.66694H7.05747V6.99878H4.70608V11.6657H2.35468V23.3314H4.70608V27.9984H7.05747V32.6653H9.41215V39.6771H7.05747V44.344H4.70608V46.6759H2.35468V51.3428H0V56.013H4.70608V53.6617H7.05747V48.998H9.41215V46.6629H11.7635V41.9992H14.1182V39.6771H16.4729V37.3453H28.2365V35.0102H32.9392V32.6783H35.2906V27.9984H37.6453V25.6665H40.0098V11.6657H37.6453ZM25.8818 32.6653H14.1182V30.3335H11.7635V27.9984H9.41215V23.3314H7.05747V11.6657H9.41215V9.33062H11.7635V6.99878H14.1182V4.66694H28.2365V6.99878H30.5878V9.33062H32.9392V11.6657H35.2906V23.3314H32.9392V25.6665H30.5878V30.3335H28.2365V32.6653H25.8818Z" fill="#034A51"/>
</g>
<defs>
<clipPath id="clip0_1674_143323">
<rect width="40" height="56" fill="white"/>
</clipPath>
</defs>
</svg>
