<svg width="158" height="51" viewBox="0 0 158 51" fill="none" xmlns="http://www.w3.org/2000/svg">
<rect x="1" y="1" width="156" height="49" fill="#CCE9E9" stroke="#2B4754" stroke-width="2"/>
<path d="M51.152 30.678H53.51V32.298H51.152V30.678ZM53.51 26.52H51.152V24.972H53.51V26.52ZM53.51 29.4H51.152V27.78H53.51V29.4ZM46.22 30.732H44.618V25.836H46.22V30.732ZM58.118 32.298H55.058V30.678H57.434V29.4H55.058V27.78H57.434V26.52H55.058V24.972H57.65V23.568H55.418C55.202 22.992 54.824 22.218 54.482 21.588L53.078 22.146C53.294 22.56 53.528 23.1 53.744 23.568H51.782C52.304 22.794 52.754 21.966 53.15 21.084H56.336V22.74H57.848V19.662H53.726C53.906 19.194 54.05 18.69 54.194 18.204L52.628 17.862C52.466 18.474 52.25 19.086 52.052 19.662H48.218V22.794H49.64V21.084H51.404C50.486 22.902 49.244 24.396 47.678 25.476V24.378H44.762C45.086 23.19 45.356 21.948 45.59 20.652H47.858V19.14H41.972V20.652H43.988C43.538 23.496 42.764 26.142 41.504 27.852C41.81 28.23 42.26 29.04 42.422 29.4C42.71 29.04 42.944 28.644 43.196 28.23V33.54H44.618V32.19H47.678V25.818C47.984 26.196 48.326 26.754 48.47 27.042C48.848 26.772 49.208 26.466 49.568 26.16V34.422H51.152V33.684H58.118V32.298ZM74.885 19.986C74.741 23.352 74.543 24.666 74.291 25.008C74.129 25.17 73.967 25.206 73.697 25.206C73.409 25.206 72.689 25.206 71.933 25.134C72.185 25.548 72.347 26.16 72.383 26.574C73.193 26.61 73.985 26.628 74.435 26.574C74.957 26.502 75.299 26.358 75.641 25.98C76.109 25.404 76.289 23.748 76.469 19.248C76.505 19.032 76.505 18.582 76.505 18.582H67.613V19.986H71.213C71.105 20.796 70.979 21.552 70.763 22.272C70.079 21.678 69.197 20.958 68.513 20.418L67.613 21.318C68.441 22.002 69.503 22.92 70.187 23.622C69.611 24.666 68.675 25.512 67.181 26.142C67.541 26.43 67.955 26.97 68.135 27.348C71.465 25.818 72.365 23.154 72.725 19.986H74.885ZM70.565 27.276C71.285 28.104 72.113 29.238 72.455 29.994L73.535 29.22C73.157 28.518 72.311 27.438 71.573 26.628L70.565 27.276ZM66.965 20.868H63.509L64.895 20.328C64.679 19.68 64.211 18.708 63.761 17.952L62.357 18.456C62.753 19.194 63.203 20.22 63.401 20.868H60.593V22.2H66.965V20.868ZM66.551 23.316H61.079V24.63H66.551V23.316ZM61.079 27.024H66.551V25.71H61.079V27.024ZM65.057 32.1H62.465V29.49H65.057V32.1ZM66.479 28.158H61.061V34.206H62.465V33.45H66.479V32.262L67.595 32.73C68.207 31.722 68.549 30.084 68.765 28.716L67.595 28.374C67.379 29.616 67.019 31.128 66.479 32.1V28.158ZM71.213 32.73C70.619 32.73 70.529 32.64 70.529 32.172V28.014H69.089V32.19C69.089 33.612 69.449 34.044 71.015 34.044H73.193C74.507 34.044 74.903 33.432 75.065 30.984C74.669 30.894 74.057 30.66 73.751 30.426C73.697 32.424 73.589 32.73 73.049 32.73H71.213ZM74.507 28.05C75.155 29.274 75.767 30.894 75.983 31.884L77.261 31.398C77.009 30.408 76.343 28.842 75.677 27.636L74.507 28.05ZM95.594 30.732C94.46 29.652 92.282 27.942 90.608 26.61L90.644 26.484H95.558V24.954H90.878C90.896 24.738 90.896 24.54 90.896 24.324V22.632H95.108V21.12H92.624C93.11 20.292 93.668 19.32 94.136 18.42L92.462 17.898C92.138 18.87 91.508 20.166 90.968 21.12H87.944L89.15 20.616C88.808 19.914 88.088 18.762 87.548 17.934L86.126 18.456C86.63 19.284 87.278 20.4 87.62 21.12H85.298V22.632H89.24V24.288C89.24 24.504 89.24 24.72 89.222 24.954H84.776V26.484H88.952C88.538 27.942 87.404 29.508 84.56 30.732C84.956 31.038 85.478 31.56 85.712 31.92C88.034 30.786 89.348 29.418 90.068 28.05C91.634 29.364 93.452 30.93 94.406 31.92L95.594 30.732ZM83.588 20.652C83.138 19.914 82.22 18.78 81.428 17.916L80.15 18.654C80.906 19.536 81.842 20.778 82.274 21.534L83.588 20.652ZM83.426 26.394L83.156 26.43H81.608C82.58 25.206 83.786 23.442 84.488 22.416L83.444 21.948L83.228 22.038H79.592V23.388H82.184C81.464 24.432 80.582 25.674 80.204 26.034C79.898 26.394 79.592 26.52 79.322 26.592C79.484 26.898 79.808 27.636 79.898 28.014C80.024 27.87 80.528 27.744 80.96 27.744H82.49C81.95 30.354 80.834 32.262 79.268 33.324C79.61 33.558 80.15 34.116 80.384 34.476C81.23 33.828 81.968 32.964 82.598 31.83C83.984 33.774 86.162 34.134 89.636 34.134C91.634 34.134 93.902 34.08 95.648 33.972C95.738 33.54 95.936 32.784 96.188 32.424C94.28 32.604 91.526 32.694 89.654 32.694C86.468 32.694 84.326 32.406 83.21 30.48C83.624 29.382 83.948 28.122 84.146 26.682L83.426 26.394ZM111.857 26.808V31.74H107.447V25.764H113.009V19.464H111.155V24.144H107.447V17.916H105.593V24.144H101.993V19.464H100.229V25.764H105.593V31.74H101.237V26.808H99.365V33.414H111.857V34.404H113.711V26.808H111.857Z" fill="#2B4754"/>
<rect x="4" y="47" width="150" height="2" fill="#82BDD1"/>
<rect x="2" y="2" width="154" height="2" fill="#EFFFFC"/>
<rect x="2" y="2" width="2" height="47" fill="#EFFFFC"/>
<rect x="154" y="4" width="2" height="45" fill="#82BDD1"/>
</svg>
