<svg width="90" height="51" viewBox="0 0 90 51" fill="none" xmlns="http://www.w3.org/2000/svg">
<rect x="1" y="1" width="88" height="49" fill="#EAF3BF" stroke="#537E29" stroke-width="2"/>
<path d="M34.1725 18.204V19.752H37.1965C37.8805 21.498 38.9425 23.172 40.2565 24.558H29.8885C31.1845 23.01 32.2465 21.066 32.9665 18.924L31.2205 18.51C30.3565 21.228 28.7365 23.64 26.6665 25.116C27.0805 25.386 27.7825 26.016 28.0885 26.34C28.5925 25.944 29.0965 25.458 29.5645 24.936V26.178H32.9485C32.5525 29.04 31.5985 31.65 27.4405 33.036C27.8365 33.378 28.3225 34.08 28.5205 34.53C33.1285 32.838 34.2985 29.67 34.7665 26.178H38.9065C38.7265 30.372 38.4925 32.064 38.0785 32.496C37.8805 32.694 37.6645 32.748 37.3225 32.748C36.8905 32.748 35.8645 32.73 34.7845 32.622C35.0725 33.108 35.3065 33.81 35.3245 34.314C36.4225 34.368 37.5205 34.386 38.1145 34.314C38.7625 34.224 39.1945 34.08 39.5905 33.576C40.2205 32.874 40.4545 30.786 40.6885 25.314C40.6885 25.242 40.7065 25.116 40.7065 25.008C41.2105 25.494 41.7685 25.926 42.3445 26.304C42.6145 25.818 43.1725 25.116 43.5505 24.774C41.1565 23.478 39.2845 20.922 38.4385 18.204H34.1725ZM61.6855 19.356H54.9535C54.7735 18.852 54.5215 18.24 54.2695 17.772L52.5415 18.078C52.7215 18.474 52.9015 18.924 53.0455 19.356H46.1335V20.778H61.6855V19.356ZM49.9855 22.992H57.8875V24.342H49.9855V22.992ZM59.6515 25.53V21.786H48.3295V25.53H59.6515ZM61.9375 29.634H54.7735V29.4C56.7355 28.878 58.6975 28.14 60.1915 27.33L59.1295 26.376L58.7335 26.448H58.2835V26.466H47.6455V27.78H56.0695C55.1155 28.14 54.0175 28.446 53.0095 28.68L53.0275 28.698H53.0095V29.634H45.9535V31.056H53.0095V32.73C53.0095 33 52.9015 33.072 52.5595 33.09C52.2715 33.09 50.9575 33.108 49.8235 33.054C50.0575 33.45 50.3095 34.008 50.4175 34.44C51.9835 34.44 53.0815 34.44 53.8015 34.242C54.5215 34.044 54.7735 33.666 54.7735 32.802V31.056H61.9375V29.634Z" fill="#537E29"/>
<rect x="4" y="47" width="84" height="2" fill="#C7CC87"/>
<rect x="2" y="2" width="2" height="47" fill="#FBFDF0"/>
<rect x="86" y="2" width="2" height="47" fill="#C7CC87"/>
<rect x="4" y="2" width="84" height="2" fill="#FBFDF0"/>
</svg>
