<svg width="110" height="51" viewBox="0 0 110 51" fill="none" xmlns="http://www.w3.org/2000/svg">
<rect width="110" height="51" fill="#EAF3BF"/>
<rect width="2" height="51" fill="#537E29"/>
<rect x="108" width="2" height="51" fill="#537E29"/>
<rect x="2" y="2" width="2" height="47" fill="white"/>
<rect x="106" y="4" width="2" height="45" fill="#C7CC87"/>
<rect x="4" y="2" width="104" height="2" fill="white"/>
<rect x="4" y="47" width="104" height="2" fill="#C7CC87"/>
<rect y="51" width="2" height="110" transform="rotate(-90 0 51)" fill="#537E29"/>
<rect y="2" width="2" height="110" transform="rotate(-90 0 2)" fill="#537E29"/>
<path d="M21.269 26.457V27.635H30.693V26.457H21.269ZM20.908 29.706V30.922H31.092V29.706H20.908ZM27.235 26.837V35.178H28.527V26.837H27.235ZM23.34 26.894V30.352C23.34 31.397 22.941 33.411 21.022 34.589C21.345 34.779 21.782 35.178 21.972 35.444C24.119 34 24.575 31.511 24.575 30.352V26.894H23.34ZM18.913 21.498V22.524H24.252V21.498H18.913ZM27.672 21.498V22.524H33.049V21.498H27.672ZM32.498 18.857V33.677C32.498 33.962 32.403 34.076 32.099 34.076C31.795 34.095 30.769 34.095 29.724 34.057C29.933 34.456 30.123 35.121 30.18 35.501C31.624 35.501 32.574 35.482 33.144 35.235C33.714 34.988 33.904 34.532 33.904 33.677V18.857H32.498ZM19.027 18.857V19.959H23.777V24.177H19.027V25.26H25.126V18.857H19.027ZM33.182 18.857H26.798V25.279H33.182V24.196H28.166V19.959H33.182V18.857ZM18.172 18.857V35.539H19.578V18.857H18.172ZM46.152 33.411V34.684H52.992V33.411H46.152ZM45.278 27.806V35.52H46.589V29.079H52.327V35.482H53.695V27.806H45.278ZM50.56 21.365C51.795 23.018 53.144 25.279 53.676 26.78L54.911 26.134C54.322 24.671 52.992 22.467 51.681 20.814L50.56 21.365ZM44.746 26.267C44.746 25.963 45.772 25.488 45.772 25.488V25.469C47.254 23.645 48.774 21.042 49.99 18.458L48.508 18.021C47.558 20.453 45.981 22.999 45.487 23.664C45.012 24.367 44.632 24.823 44.271 24.899C44.423 25.279 44.67 25.963 44.746 26.267ZM44.746 26.267C45.297 26.039 46.171 25.963 53.942 25.355C53.847 25.07 53.714 24.5 53.657 24.101L45.582 24.614L44.708 25.127L44.746 26.267ZM37.716 28.452C39.787 30.01 42.409 32.271 43.625 33.753L44.518 32.632C43.283 31.188 40.585 29.003 38.533 27.502L37.716 28.452ZM37.716 28.452L38.951 28.832C39.787 26.134 40.832 21.631 41.288 18.211L39.958 18.116C39.578 21.403 38.571 25.887 37.716 28.452ZM42.333 20.738V23.075C42.333 26.419 41.972 31.112 37.07 34.57C37.393 34.779 37.849 35.216 38.058 35.501C43.188 31.796 43.644 26.742 43.644 23.075V20.738H42.333ZM37.165 22.429L37.317 23.74C39.274 23.626 41.953 23.474 44.537 23.303L44.556 22.068C41.82 22.22 39.027 22.353 37.165 22.429ZM66.209 18.211V25.45C66.209 28.851 65.962 32.119 63.701 34.646C63.986 34.855 64.404 35.254 64.594 35.558C67.14 32.784 67.444 29.212 67.444 25.45V18.211H66.209ZM57.488 20.586V21.783H63.568V20.586H57.488ZM57.317 25.583V26.799H63.72V25.583H57.317ZM58.191 22.296C58.533 23.322 58.78 24.652 58.799 25.507L59.939 25.279C59.901 24.424 59.616 23.094 59.236 22.087L58.191 22.296ZM61.858 22.03C61.668 23.132 61.25 24.747 60.908 25.735L61.896 26.001C62.276 25.07 62.694 23.569 63.055 22.315L61.858 22.03ZM68.242 20.548V21.764H74.474V20.548H68.242ZM68.014 25.64V26.856H74.721V25.64H68.014ZM68.907 22.334C69.268 23.341 69.534 24.69 69.572 25.545L70.693 25.279C70.636 24.424 70.332 23.113 69.933 22.106L68.907 22.334ZM72.821 21.973C72.593 23.151 72.118 24.88 71.719 25.906L72.707 26.172C73.125 25.165 73.619 23.569 74.037 22.258L72.821 21.973ZM70.75 26.058V35.52H72.08V26.058H70.75ZM68.242 29.573V30.789H74.474V29.573H68.242ZM59.863 26.02V29.326C59.863 30.922 59.654 33.221 57.602 34.589C57.887 34.817 58.286 35.273 58.476 35.539C60.794 33.886 61.174 31.283 61.174 29.326V26.02H59.863ZM59.103 18.534C59.597 19.427 60.129 20.643 60.319 21.403L61.573 20.947C61.364 20.225 60.813 19.047 60.3 18.173L59.103 18.534ZM57.583 29.079V30.276H63.53V29.079H57.583ZM69.971 18.344C70.446 19.294 70.921 20.548 71.13 21.308L72.365 20.947C72.156 20.187 71.643 18.971 71.13 18.059L69.971 18.344ZM64.043 23.455C64.499 24.937 64.822 26.856 64.822 28.091L65.886 27.882C65.867 26.647 65.544 24.747 65.031 23.246L64.043 23.455ZM82.903 23.835V25.07H94.474V23.835H82.903ZM83.264 20.092V21.251H89.059V20.092H83.264ZM91.51 19.598C92.118 20.643 92.745 22.03 92.954 22.904L94.132 22.391C93.885 21.536 93.22 20.187 92.612 19.18L91.51 19.598ZM87.33 21.384C87.216 22.144 86.931 23.284 86.703 24.006L87.691 24.215C87.938 23.55 88.223 22.505 88.489 21.612L87.33 21.384ZM84.005 21.574C84.252 22.41 84.442 23.493 84.499 24.177L85.62 23.968C85.544 23.303 85.316 22.22 85.05 21.403L84.005 21.574ZM93.049 26.077C91.928 29.744 89.705 32.803 87.235 34.589C87.501 34.779 87.881 35.14 88.071 35.368C90.636 33.468 92.935 30.371 94.189 26.647L93.049 26.077ZM89.591 18.078C89.762 27.711 90.37 35.406 93.03 35.444C93.657 35.463 94.284 34.76 94.645 32.1C94.417 31.986 93.904 31.644 93.657 31.359C93.562 32.917 93.353 33.81 93.049 33.829C91.681 33.772 90.921 26.552 90.864 18.078H89.591ZM85.069 18.477C85.468 19.199 85.886 20.149 86.019 20.757L87.216 20.358C87.045 19.769 86.627 18.857 86.209 18.173L85.069 18.477ZM84.252 28.908V29.953H88.166V28.908H84.252ZM83.701 26.115V34.133H84.898V26.115H83.701ZM84.309 26.115V27.179H87.558V33.316H88.774V26.115H84.309ZM84.233 31.758V32.784H88.147V31.758H84.233ZM78.115 23.797V24.937H82.352V23.797H78.115ZM78.115 26.343V27.483H82.352V26.343H78.115ZM77.469 21.27V22.467H82.808V21.27H77.469ZM78.78 28.908V30.067H81.269V33.259H78.78V34.437H82.352V28.908H78.78ZM78.096 28.908V35.33H79.179V28.908H78.096ZM78.799 18.515C79.331 19.294 79.901 20.358 80.167 21.004L81.212 20.51C80.946 19.883 80.338 18.857 79.825 18.097L78.799 18.515Z" fill="#537E29"/>
</svg>
