<svg width="110" height="51" viewBox="0 0 110 51" fill="none" xmlns="http://www.w3.org/2000/svg">
<rect width="110" height="51" fill="#EAF3BF"/>
<rect width="2" height="51" fill="#537E29"/>
<rect x="108" width="2" height="51" fill="#537E29"/>
<rect x="2" y="2" width="2" height="47" fill="white"/>
<rect x="106" y="4" width="2" height="45" fill="#C7CC87"/>
<rect x="4" y="2" width="104" height="2" fill="white"/>
<rect x="4" y="47" width="104" height="2" fill="#C7CC87"/>
<rect y="51" width="2" height="110" transform="rotate(-90 0 51)" fill="#537E29"/>
<rect y="2" width="2" height="110" transform="rotate(-90 0 2)" fill="#537E29"/>
<g clip-path="url(#clip0)">
<path d="M90.9406 29.7347V28.4855V27.235V25.9845V24.7353V23.4849H92.2101H93.4809H94.7505V22.2344H93.4809H92.2101H90.9406H89.6698H88.399H87.1295H85.8587H84.5879H83.3184V23.4849H84.5879H85.8587V24.7353V25.9845V27.235V28.4855V29.7347H87.1295V28.4855V27.235V25.9845V24.7353V23.4849H88.399H89.6698V24.7353V25.9845V27.235V28.4855V29.7347V30.9852V32.2344H90.9406V30.9852V29.7347Z" fill="#537E29"/>
<path d="M92.2099 33.4845H93.4808H94.7503V32.2341V30.9849V29.7344H93.4808V30.9849V32.2341H92.2099H90.9404V33.4845H92.2099Z" fill="#537E29"/>
<path d="M83.3177 33.4854H82.0469V34.7358H83.3177V33.4854Z" fill="#537E29"/>
<path d="M87.1295 18.4858H88.399H89.6698H90.9406H92.2102H93.481V17.2354H92.2102H90.9406H89.6698H88.399H87.1295H85.8587H84.5879V18.4858H85.8587H87.1295Z" fill="#537E29"/>
<path d="M84.5879 30.9849V32.2341H85.8587V30.9849V29.7344H84.5879V30.9849Z" fill="#537E29"/>
<path d="M84.5879 32.2344H83.3184V33.4848H84.5879V32.2344Z" fill="#537E29"/>
<path d="M83.3186 29.735V28.4858H82.0477H80.7782V27.2354V25.9849V24.7357V23.4852H82.0477V22.2347H80.7782V20.9855V19.735V18.4858H82.0477H83.3186V17.2354H82.0477H80.7782H79.5074H78.2366H76.9671V18.4858H78.2366H79.5074V19.735V20.9855V22.2347H78.2366H76.9671V23.4852H78.2366H79.5074V24.7357V25.9849V27.2354V28.4858V29.735H78.2366H76.9671H75.6963V30.9855H76.9671V32.2347H78.2366V30.9855H79.5074H80.7782V29.735H82.0477H83.3186Z" fill="#537E29"/>
<path d="M52.8394 22.25V23.5005H51.5686H50.299H49.0282H47.7574H46.4879H45.2171V22.25H43.9463V23.5005V24.751H45.2171H46.4879H47.7574H49.0282H50.299H51.5686H52.8394V26.0002H54.1089V24.751V23.5005V22.25H52.8394Z" fill="#537E29"/>
<path d="M52.8392 21H51.5684V22.2492H52.8392V21Z" fill="#537E29"/>
<path d="M50.299 27.251H43.9463V36.0005H45.2171V34.75H51.5685V36.0005H52.8394V27.251H50.299ZM51.5685 29.7507V33.5008H45.2171V28.504H51.5685V29.7507Z" fill="#537E29"/>
<path d="M51.5683 19.751H50.2988V21.0015H51.5683V19.751Z" fill="#537E29"/>
<path d="M47.7568 18.4997V17.2505V16H46.4873V17.2505V18.4997V19.7502H47.7568V18.4997Z" fill="#537E29"/>
<path d="M46.4876 21.0015V19.751H45.2168V21.0015V22.2507H46.4876V21.0015Z" fill="#537E29"/>
<path d="M41.4053 34.7497H42.6761V33.5005V32.25H41.4053V33.5005V34.7497Z" fill="#537E29"/>
<path d="M41.4053 31.001H40.1357V32.2502H41.4053V31.001Z" fill="#537E29"/>
<path d="M40.1357 28.5002V29.7506H41.4053V28.5002V27.251H40.1357V28.5002Z" fill="#537E29"/>
<path d="M40.1366 21.0006V19.7502V18.4997V17.2505V16H38.8658V17.2505V18.4997V19.7502V21.0006H37.595H36.3255H35.0547V22.2498H36.3255H37.595V23.5003V24.7508V26V27.2505H38.8658V26V24.7508V23.5003V22.2498H40.1366H41.4061V23.5003V24.7508V26V27.2505H42.677V26V24.7508V23.5003V22.2498V21.0006H41.4061H40.1366Z" fill="#537E29"/>
<path d="M40.136 29.75H38.8652V31.0005H40.136V29.75Z" fill="#537E29"/>
<path d="M38.8655 31.001H37.5947V32.2502H38.8655V31.001Z" fill="#537E29"/>
<path d="M38.8655 28.5H37.5947V29.7505H38.8655V28.5Z" fill="#537E29"/>
<path d="M37.5947 32.25H36.3252V33.5005H37.5947V32.25Z" fill="#537E29"/>
<path d="M37.5947 27.251H36.3252V28.5002H37.5947V27.251Z" fill="#537E29"/>
<path d="M36.3255 33.5H35.0547V34.7492H36.3255V33.5Z" fill="#537E29"/>
<path d="M29.9726 17.251H24.8945V23.5008H29.9726V34.75H31.2421V17.251H29.9726ZM29.9726 22.2478H26.1614V20.9973H29.9726V22.2478ZM29.9726 19.7481H26.1614V18.5002H29.9726V19.7481Z" fill="#537E29"/>
<path d="M29.9739 34.75H28.7031V36.0005H29.9739V34.75Z" fill="#537E29"/>
<path d="M28.7031 33.5H27.4336V34.7492H28.7031V33.5Z" fill="#537E29"/>
<path d="M28.7036 29.7503V28.4999H26.1633V26.0002H28.7036V24.751H18.541V26.0002H21.0787V28.4999H18.541V29.7503H21.0787V32.25H22.3495V29.7503H24.8925V34.7471H26.1633V29.7503H28.7036ZM23.6256 28.4999H22.3522V26.0002H24.8925V28.4999H23.6256Z" fill="#537E29"/>
<path d="M21.082 32.25H19.8125V33.5005H21.082V32.25Z" fill="#537E29"/>
<path d="M19.8118 33.5H18.541V34.7492H19.8118V33.5Z" fill="#537E29"/>
<path d="M19.8111 23.5008H22.3515V17.251H16V36.0005H17.2708V23.5008H19.8111ZM17.2708 18.504H21.078V19.7545H17.2708V18.504ZM17.2708 22.2542V20.9973H21.078V22.2465H17.2708V22.2542Z" fill="#537E29"/>
<path d="M73.1556 34.7492V35.9997H74.4264V34.7492V33.4987V32.2495V30.999H73.1556V32.2495V33.4987H71.8848V34.7492H73.1556Z" fill="#537E29"/>
<path d="M73.1556 18.5H71.8848V19.7505H73.1556V18.5Z" fill="#537E29"/>
<path d="M70.6152 33.4987H71.8847V32.2495V30.999H70.6152V32.2495V33.4987Z" fill="#537E29"/>
<path d="M71.8847 17.249H70.6152V18.4995H71.8847V17.249Z" fill="#537E29"/>
<path d="M70.6144 28.4997V27.2492V26V24.7495V23.499V22.2498H71.8839H73.1548H74.4256V20.9994H73.1548H71.8839H70.6144H69.3436V19.7502V18.4997V17.2492V16H68.0741V17.2492V18.4997V19.7502V20.9994H66.8033H65.5325H64.263H62.9922V22.2498H64.263H65.5325H66.8033H68.0741H69.3436V23.499V24.7495H68.0741H66.8033H65.5325H64.263H62.9922V26H64.263H65.5325V27.2492V28.4997V29.7502V30.9994V32.2498H64.263H62.9922V33.499H64.263V34.7495H65.5325V33.499H66.8033V32.2498H68.0741H69.3436V30.9994H68.0741H66.8033V29.7502V28.4997V27.2492V26H68.0741H69.3436V27.2492V28.4997V29.7502V30.9994H70.6144V29.7502V28.4997Z" fill="#537E29"/>
<path d="M61.7216 19.751H60.4521H59.1813H57.9117H56.6409H55.3701V21.0002H56.6409H57.9117H59.1813H60.4521H61.7216H62.9924V19.751H61.7216Z" fill="#537E29"/>
<path d="M59.1819 27.249H56.6416V34.7493H57.9124V33.4989H60.4527V34.7493H61.7222V27.249H59.1819ZM60.4527 29.75V32.2497H57.9124V28.4995H60.4527V29.75Z" fill="#537E29"/>
<path d="M59.1819 24.749H57.9124H56.6416V25.9995H57.9124H59.1819H60.4527H61.7222V24.749H60.4527H59.1819Z" fill="#537E29"/>
<path d="M59.1819 22.25H57.9124H56.6416V23.4992H57.9124H59.1819H60.4527H61.7222V22.25H60.4527H59.1819Z" fill="#537E29"/>
<path d="M60.4524 17.249H59.1816V18.4995H60.4524V17.249Z" fill="#537E29"/>
<path d="M59.1816 16H57.9121V17.2492H59.1816V16Z" fill="#537E29"/>
</g>
<defs>
<clipPath id="clip0">
<rect width="78.75" height="20" fill="white" transform="translate(16 16)"/>
</clipPath>
</defs>
</svg>
