<svg width="149" height="27" viewBox="0 0 149 27" fill="none" xmlns="http://www.w3.org/2000/svg">
<path fill-rule="evenodd" clip-rule="evenodd" d="M30.4064 8.9889V2.99408H42.5804V0H45.6087V2.98741H57.7828V8.98224H54.7545V6.00148H33.4634V8.9889H30.4064ZM54.7545 14.9904H51.6958V17.9761H48.6826V14.9904H45.6239V12.003H51.7042V8.9889H33.4634V12.003H39.5521V14.9837L42.5804 14.9904V17.9761H39.5521V14.9904H33.4634V17.9761H39.5521V20.9919H30.4064V23.9759L39.5521 23.9776V26.9933H45.6087V23.9776H48.6674V20.9919H51.6958V23.971H57.776V20.9852H51.7109V17.9761H54.7545V14.9904ZM54.7545 14.9904V12.003H57.7828V14.9904H54.7545ZM45.6087 23.9776V17.9828H42.5804V20.9919H39.5521V23.9776H45.6087ZM24.3481 23.9775H21.2893V20.9917H18.261V14.9969H15.2023V9.00207H12.174V14.9969H9.14572V9.00207H0V6.00132H12.174V0.0065048H15.2023V6.00132H27.3764V8.98874H18.256V14.9836H21.2843V20.9784H24.343L24.3481 23.9775ZM24.3481 23.9775H27.3764V26.9932H24.3481V23.9775ZM6.08701 20.9917V14.9969H9.14572V20.9917H6.08701ZM3.05871 23.9775V20.9917H6.08701V23.9775H3.05871ZM3.05871 23.9775V26.9932H0V23.9775H3.05871ZM60.811 2.98741V6.00148L66.898 6.00814V12.003H69.9567V14.9904H72.985V17.9761H69.9567V20.9852H72.985V26.98H76.015V20.9852H79.072V17.9695H76.015V14.9837H79.072V11.9963H82.1088V6.00148H88.189V2.98741H76.015V0H72.985V2.98741H60.811ZM79.072 11.9963H76.015V6.00148H79.072V11.9963ZM69.9567 12.003V6.00814H72.985V12.003H69.9567ZM60.811 14.9904V17.9761H63.8697V14.9937H66.8912V12.0063L63.8697 12.003V14.9904H60.811ZM60.811 23.9776V26.9933H66.8912V23.9776H60.811ZM69.9499 23.9843V20.9985L66.898 20.9919V23.9843H69.9499ZM79.072 23.9843H82.0953V27H88.1755V23.9843H82.0953L82.102 20.9919H79.072V23.9843ZM82.0953 14.992H85.1523L85.159 17.9778H88.1823V14.992H85.1523V12.003H82.0953V14.992ZM91.2174 26.9933V23.9776H94.2761V17.9828H91.2174V14.9904H94.2761V8.99555H91.2174V6.00148H94.2761V0.00665725H97.3044V6.00148H100.363V8.9889H97.3044V12.003H100.363V14.9904H97.3044V26.9933H91.2174ZM103.391 8.9889V6.00148H106.42V0.00665725H109.478V6.00148H118.599V8.9889H109.478V17.9761H112.507L112.512 20.9968H118.592V26.9917H115.565V23.9776H112.507L112.512 20.9985H109.478V23.9843H106.42V26.9933H103.391V23.9776H106.42V20.9919H109.478V17.9811H106.42V8.9889H103.391ZM112.512 2.99408V0H115.57V2.98741L112.512 2.99408ZM112.512 17.9811V12.003H115.57V17.9761L112.512 17.9811ZM121.622 2.98741V26.9933L130.756 26.9867V20.9919H124.676V17.9761H133.796V26.9967H136.824V14.9937H130.766V8.99889H127.707V14.9937H124.679V6.00148H149V2.98741H139.88V0H136.823V2.98741H121.622ZM133.796 8.99223V12.0063H136.826V8.99223H133.796ZM142.92 23.9809H145.97V26.9967H149V23.9809H145.97L145.963 20.9952H148.993V12.003H142.913V8.9889H139.883V20.9919H142.913V23.9776H139.89V26.9967L142.92 26.9933V23.9809ZM145.97 20.9919H142.913V14.997H145.97V20.9919Z" fill="#E9E9E9"/>
</svg>
