<svg width="144" height="25" viewBox="0 0 144 25" fill="none" xmlns="http://www.w3.org/2000/svg">
<g clip-path="url(#clip0)">
<path d="M131.999 23.4365H130.398V24.9996H131.999V23.4365Z" fill="#E9E9E9"/>
<path d="M128.799 23.4371H130.399V21.8756V20.3125H128.799V21.8756V23.4371Z" fill="#E9E9E9"/>
<path d="M128.798 18.749H127.199V20.3121H128.798V18.749Z" fill="#E9E9E9"/>
<path d="M125.6 21.8756V23.4371H127.2V21.8756V20.3125H125.6V21.8756Z" fill="#E9E9E9"/>
<path d="M125.6 7.8117V9.3748V10.9363H124.001H122.4H120.799H119.2V9.3748V7.8117V6.2486V4.6871H120.799H122.4H124.001H125.6H127.2V6.2486V7.8117H128.799V6.2486V4.6871H130.4H132.001V3.124H130.4H128.799H127.2H125.6H124.001H122.4V1.5625H120.799V3.124H119.2H117.6H116.001H114.4H112.799H111.2H109.6V4.6871V6.2486V7.8117V9.3748V10.9363V12.4994V14.0609V15.624V17.1871V18.7486V20.3117V21.8748H111.2V20.3117V18.7486V17.1871V15.624V14.0609V12.4994V10.9363V9.3748V7.8117V6.2486V4.6871H112.799H114.4H116.001H117.6V6.2486V7.8117V9.3748V10.9363H116.001H114.4H112.799V12.4994V14.0609V15.624V17.1871V18.7486V20.3117V21.8748V23.4363V24.9994H114.4V23.4363V21.8748V20.3117V18.7486V17.1871V15.624V14.0609V12.4994H116.001H117.6H119.2H120.799H122.4V14.0609V15.624V17.1871V18.7486V20.3117V21.8748V23.4363H124.001V21.8748V20.3117V18.7486V17.1871V15.624V14.0609V12.4994H125.6V14.0609V15.624V17.1871V18.7486H127.2V17.1871V15.624V14.0609V12.4994V10.9363H128.799V12.4994V14.0609V15.624V17.1871V18.7486H130.4V17.1871V15.624V14.0609V12.4994V10.9363H132.001V9.3748H130.4H128.799H127.2V7.8117H125.6Z" fill="#E9E9E9"/>
<path d="M125.599 23.4365H124V24.9996H125.599V23.4365Z" fill="#E9E9E9"/>
<path d="M123.999 6.24902H122.398V7.81212H123.999V6.24902Z" fill="#E9E9E9"/>
<path d="M122.399 23.4365H120.799V24.9996H122.399V23.4365Z" fill="#E9E9E9"/>
<path d="M122.399 7.8125H120.799V9.3756H122.399V7.8125Z" fill="#E9E9E9"/>
<path d="M120.798 21.875H119.199V23.4365H120.798V21.875Z" fill="#E9E9E9"/>
<path d="M120.799 20.3127V15.625H116V20.3127H120.799ZM117.606 18.7496V17.1881H119.206V18.7496H117.606Z" fill="#E9E9E9"/>
<path d="M120.798 0H119.199V1.5631H120.798V0Z" fill="#E9E9E9"/>
<path d="M115.999 7.8125H114.398V9.3756H115.999V7.8125Z" fill="#E9E9E9"/>
<path d="M114.399 6.24902H112.799V7.81212H114.399V6.24902Z" fill="#E9E9E9"/>
<path d="M109.599 21.875H108V23.4365H109.599V21.875Z" fill="#E9E9E9"/>
<path d="M52.3998 4.68772H54.0004V3.12462H52.3998H50.8008H49.1985H47.5979H45.9988H44.3982H42.7992V1.56152H41.2002V3.12462H39.5995H38.0005H36.3983H34.7976H33.1986H31.5996V4.68772V6.24922H33.1986V4.68772H34.7976H36.3983H38.0005H39.5995H41.2002H42.7992H44.3982H45.9988H47.5979H49.1985H50.8008V6.24922H52.3998V4.68772Z" fill="#E9E9E9"/>
<path d="M50.7996 21.874V23.4371H52.3986V21.874H53.9992V20.3125H52.3986H50.7996H49.1973V21.874H50.7996Z" fill="#E9E9E9"/>
<path d="M49.1971 6.24902V7.81212H47.5965H45.9975H44.3969H42.7979H41.1988H39.5982H37.9992H36.3969H34.7963H33.1973V9.37362H34.7963H36.3969H37.9992V10.9367H39.5982V9.37362H41.1988H42.7979H44.3969H45.9975H47.5965H49.1971H50.7994H52.3984V7.81212H50.7994V6.24902H49.1971Z" fill="#E9E9E9"/>
<path d="M49.1977 14.0621V12.5006V10.9375H47.5971V12.5006H45.998V14.0621H47.5971H49.1977Z" fill="#E9E9E9"/>
<path d="M47.5971 20.3121H49.1977V18.749H47.5971H45.998V20.3121H47.5971Z" fill="#E9E9E9"/>
<path d="M45.9991 17.1855H44.3984V18.7486H45.9991V17.1855Z" fill="#E9E9E9"/>
<path d="M45.9991 14.0615H44.3984V15.6246H45.9991V14.0615Z" fill="#E9E9E9"/>
<path d="M41.2003 23.4365H39.5996V24.998H41.2003V23.4365Z" fill="#E9E9E9"/>
<path d="M39.5996 14.0621H41.2003V15.6252V17.1867H39.5996V18.7498H41.2003V20.3129V21.8744V23.4375H42.7993V21.8744V20.3129V18.7498V17.1867H44.3983V15.6252H42.7993V14.0621V12.5006H41.2003V10.9375H39.5996V12.5006V14.0621Z" fill="#E9E9E9"/>
<path d="M41.2003 0H39.5996V1.5615H41.2003V0Z" fill="#E9E9E9"/>
<path d="M39.599 21.874H38V23.4371H39.599V21.874Z" fill="#E9E9E9"/>
<path d="M39.599 18.749H38V20.3121H39.599V18.749Z" fill="#E9E9E9"/>
<path d="M39.599 14.0615H38V15.6246H39.599V14.0615Z" fill="#E9E9E9"/>
<path d="M36.3975 20.3125H34.7969V21.874H36.3975H37.9998V20.3125H36.3975Z" fill="#E9E9E9"/>
<path d="M34.7969 15.625V17.1865H36.3975H37.9998V15.625H36.3975H34.7969Z" fill="#E9E9E9"/>
<path d="M34.7969 10.9375V12.5006H36.3975H37.9998V10.9375H36.3975H34.7969Z" fill="#E9E9E9"/>
<path d="M31.5996 21.874V23.4371H33.1986H34.7976V21.874H33.1986H31.5996Z" fill="#E9E9E9"/>
<path d="M31.5996 17.1855V18.7486H33.1986H34.7976V17.1855H33.1986H31.5996Z" fill="#E9E9E9"/>
<path d="M31.5996 12.5V14.0615H33.1986H34.7976V12.5H33.1986H31.5996Z" fill="#E9E9E9"/>
<path d="M31.599 6.24902H30V7.81212H31.599V6.24902Z" fill="#E9E9E9"/>
<path d="M104.287 23.4367V24.9998H106.001V23.4367V21.8752V20.3121V18.7506V17.1875H104.287V18.7506V20.3121V21.8752H102.572V23.4367H104.287Z" fill="#E9E9E9"/>
<path d="M104.287 10.9385H102.572V12.5H104.287V10.9385Z" fill="#E9E9E9"/>
<path d="M104.288 7.81247H106.001V6.25098H104.288H102.572H100.857V7.81247H102.572H104.288Z" fill="#E9E9E9"/>
<path d="M102.572 4.6871H104.287V3.1256V1.5625H102.572V3.1256V4.6871Z" fill="#E9E9E9"/>
<path d="M102.572 20.3125H100.857V21.8756H102.572V20.3125Z" fill="#E9E9E9"/>
<path d="M102.572 12.5H100.857V14.0631H102.572V12.5Z" fill="#E9E9E9"/>
<path d="M102.572 0H100.857V1.5631H102.572V0Z" fill="#E9E9E9"/>
<path d="M99.1426 20.3121H100.856V18.7506V17.1875H99.1426V18.7506V20.3121Z" fill="#E9E9E9"/>
<path d="M97.4277 17.1871H99.1428V15.624H100.856V14.0625H99.1428H97.4277V15.624V17.1871Z" fill="#E9E9E9"/>
<path d="M97.4281 17.1875H95.7148V18.7506H97.4281V17.1875Z" fill="#E9E9E9"/>
<path d="M97.4285 10.9385V9.3754H99.1436H100.857V7.8123H99.1436H97.4285V6.2508V4.6877V3.1262V1.5631V0H95.7152V1.5631V3.1262V4.6877V6.2508V7.8123H94.0002H92.2852V9.3754H94.0002H95.7152V10.9385V12.5V14.0631H97.4285V12.5V10.9385Z" fill="#E9E9E9"/>
<path d="M95.715 18.751H94V20.3125H95.715V18.751Z" fill="#E9E9E9"/>
<path d="M94.0002 20.3125H92.2852V21.8756H94.0002V20.3125Z" fill="#E9E9E9"/>
<path d="M92.2856 21.875H90.5723V23.4365H92.2856V21.875Z" fill="#E9E9E9"/>
<path d="M90.5717 6.2508H88.8567V4.6877V3.1262V1.5631V0H87.1416V1.5631V3.1262V4.6877V6.2508H85.4283H83.7133H82V7.8123H83.7133H85.4283H87.1416V9.3754V10.9385V12.5H85.4283V14.0631H87.1416V15.6246V17.1877V18.7508V20.3123V21.8754V23.4369H88.8567V21.8754V20.3123V18.7508V17.1877V15.6246V14.0631V12.5H90.5717H92.285V10.9385H90.5717H88.8567V9.3754V7.8123H90.5717H92.285V6.2508H90.5717Z" fill="#E9E9E9"/>
<path d="M87.141 23.4365H85.4277V24.9996H87.141V23.4365Z" fill="#E9E9E9"/>
<path d="M85.4279 21.875H83.7129V23.4365H85.4279V21.875Z" fill="#E9E9E9"/>
<path d="M82 14.0625V15.624H83.7133H85.4283V14.0625H83.7133H82Z" fill="#E9E9E9"/>
<path d="M76.0741 20.3125V21.8756H77.6173V20.3125V18.751H76.0741H74.5293V20.3125H76.0741Z" fill="#E9E9E9"/>
<path d="M76.0741 12.5H74.5293V14.0631H76.0741V12.5Z" fill="#E9E9E9"/>
<path d="M74.5295 10.9385H72.9863V12.5H74.5295V10.9385Z" fill="#E9E9E9"/>
<path d="M72.9862 18.7506H74.5294V17.1875H72.9862H71.4414V18.7506H72.9862Z" fill="#E9E9E9"/>
<path d="M72.9862 9.37558V7.81247V6.25098H71.4414V7.81247V9.37558V10.9387H72.9862V9.37558Z" fill="#E9E9E9"/>
<path d="M71.4413 15.625H69.8965V17.1881H71.4413V15.625Z" fill="#E9E9E9"/>
<path d="M71.4413 10.9385H69.8965V12.5H71.4413V10.9385Z" fill="#E9E9E9"/>
<path d="M68.3537 9.3754V7.8123V6.2508V4.6877H69.8969H71.4416H72.9864H74.5296H76.0744H77.6176V3.1262H76.0744H74.5296H72.9864H71.4416H69.8969H68.3537V1.5631V0H66.8089V1.5631V3.1262H65.2657H63.7209H62.1761H60.6329H59.0881H57.5449V4.6877H59.0881H60.6329H62.1761H63.7209H65.2657H66.8089V6.2508V7.8123V9.3754V10.9385V12.5H65.2657V14.0631V15.6246H66.8089V17.1877V18.7508V20.3123V21.8754V23.4369V25H68.3537V23.4369V21.8754V20.3123V18.7508V17.1877V15.6246H69.8969V14.0631V12.5H68.3537V10.9385V9.3754Z" fill="#E9E9E9"/>
<path d="M65.2655 15.625H63.7207V17.1881H65.2655V15.625Z" fill="#E9E9E9"/>
<path d="M65.2655 10.9385H63.7207V12.5H65.2655V10.9385Z" fill="#E9E9E9"/>
<path d="M63.7206 17.1875H62.1758V18.7506H63.7206V17.1875Z" fill="#E9E9E9"/>
<path d="M63.7206 7.81247V6.25098H62.1758V7.81247V9.37558V10.9387H63.7206V9.37558V7.81247Z" fill="#E9E9E9"/>
<path d="M62.176 10.9385H60.6328V12.5H62.176V10.9385Z" fill="#E9E9E9"/>
<path d="M59.0879 18.751V20.3125H60.6327H62.1759V18.751H60.6327H59.0879Z" fill="#E9E9E9"/>
<path d="M60.6327 12.5H59.0879V14.0631H60.6327V12.5Z" fill="#E9E9E9"/>
<path d="M56 20.3125V21.8756H57.5448H59.088V20.3125H57.5448H56Z" fill="#E9E9E9"/>
<path d="M77.9004 20.3125V21.8756H78.9509H80.0003V20.3125H78.9509H77.9004Z" fill="#E9E9E9"/>
<path d="M24.7999 21.874V23.4371H26.3989V21.874H27.9995V20.3125H26.3989H24.7999H23.1992V21.874H24.7999Z" fill="#E9E9E9"/>
<path d="M23.2006 18.749H21.6016V20.3121H23.2006V18.749Z" fill="#E9E9E9"/>
<path d="M21.6007 17.1855H20V18.7486H21.6007V17.1855Z" fill="#E9E9E9"/>
<path d="M18.3984 17.1861H19.9991V15.6246V14.0615H18.3984V15.6246V17.1861Z" fill="#E9E9E9"/>
<path d="M16.8008 14.0621H18.3998V12.5006V10.9375H16.8008V12.5006V14.0621Z" fill="#E9E9E9"/>
<path d="M18.3993 9.3738H20H21.6007H23.1997H24.8003H26.3993H28V7.8123H26.3993H24.8003H23.1997H21.6007H20H18.3993H16.8003V6.2492V4.6877V3.1246V1.5615V0H15.1997V1.5615V3.1246V4.6877V6.2492V7.8123H13.6007H12H10.3993H8.80033H7.19967H5.60066H4V9.3738H5.60066H7.19967H8.80033H10.3993H12H13.6007H15.1997V10.9369H16.8003V9.3738H18.3993Z" fill="#E9E9E9"/>
<path d="M13.6016 12.5006V14.0621V15.6252H15.2006V14.0621V12.5006V10.9375H13.6016V12.5006Z" fill="#E9E9E9"/>
<path d="M12 17.1865V18.7496H13.6007V17.1865V15.625H12V17.1865Z" fill="#E9E9E9"/>
<path d="M11.9991 18.749H10.3984V20.3121H11.9991V18.749Z" fill="#E9E9E9"/>
<path d="M10.3998 20.3125H8.80078V21.874H10.3998V20.3125Z" fill="#E9E9E9"/>
<path d="M8.79988 21.874H7.19922V23.4371H8.79988V21.874Z" fill="#E9E9E9"/>
<path d="M7.20058 23.4365H5.60156V24.998H7.20058V23.4365Z" fill="#E9E9E9"/>
</g>
<defs>
<clipPath id="clip0">
<rect width="144" height="25" fill="white"/>
</clipPath>
</defs>
</svg>
