<svg  width="230" height="57" viewBox="0 0 230 57" fill="none" xmlns="http://www.w3.org/2000/svg">
<g clip-path="url(#clip0)">
<path d="M10.7831 46.3154H7.1875V49.8759H10.7831V46.3154Z" fill="#359DB5"/>
<path d="M222.812 10.6885V14.2489V17.813V21.3735V24.9376V28.5017V32.0621V35.6262V39.1867V42.7508V46.3148H226.408V42.7508V39.1867V35.6262V32.0621V28.5017V24.9376V21.3735V17.813V14.2489V10.6885H222.812Z" fill="#359DB5"/>
<path d="M222.812 46.3154H219.217V49.8759H222.812V46.3154Z" fill="#359DB5"/>
<path d="M222.812 7.125H219.217V10.6891H222.812V7.125Z" fill="#359DB5"/>
<path d="M212.029 49.875H208.437H204.841H201.246H197.654H194.058H190.466H186.871H183.275H179.683H176.087H172.495H168.9H165.304H161.712H158.116H154.521H150.929H147.333H143.741H140.146H136.55H132.958H129.362H125.77H122.204H122.175H118.608H115.017H111.421H107.829H104.233H100.638H97.0456H93.45H89.858H86.2624H82.6667H79.0747H75.4791H71.8834H68.2915H64.6958H61.1039H57.5082H53.9126H50.3206H46.725H43.133H39.5373H35.9417H32.3497H28.7541H25.1621H21.5665H17.9708H14.3789H10.7832V53.4391H14.3789H17.9708H21.5665H25.1621H28.7541H32.3497H35.9417H39.5373H43.133H46.725H50.3206H53.9126H57.5082H61.1039H64.6958H68.2915H71.8834H75.4791H79.0747H82.6667H86.2624H89.858H93.45H97.0456H100.638H104.233H107.829H111.421H115.017H118.608H122.175H122.204H125.77H129.362H132.958H136.55H140.146H143.741H147.333H150.929H154.521H158.116H161.712H165.304H168.9H172.495H176.087H179.683H183.275H186.871H190.466H194.058H197.654H201.246H204.841H208.437H212.029H215.625H219.217V49.875H215.625H212.029Z" fill="#359DB5"/>
<path d="M219.202 10.6891V7.125H14.3677V10.6891H10.7831V14.2422H7.1875V46.3082H10.7831V49.8686H219.202V46.3082H222.798V10.6891H219.202Z" fill="#6ECFED"/>
<path d="M215.625 3.56055H212.029H208.437H204.842H201.246H197.654H194.058H190.466H186.871H183.275H179.683H176.087H172.495H168.9H165.304H161.712H158.117H154.521H150.929H147.333H143.741H140.146H136.55H132.958H129.362H125.77H122.204H122.175H118.609H115.017H111.421H107.829H104.233H100.638H97.0458H93.4501H89.8581H86.2625H82.6668H79.0749H75.4792H71.8836H68.2916H64.696H61.104H57.5084H53.9127H50.3207H46.7251H43.1331H39.5375H35.9418H32.3498H28.7542H25.1622H21.5666H17.9709H14.379H10.7833V7.12464H7.18767V10.6887H3.5957V14.2492V17.8133V21.3737V24.9378V28.5019V32.0624V35.6265V39.1869V42.751V46.3151H7.18767V42.751V39.1869V35.6265V32.0624V28.5019V24.9378V21.3737V17.8133V14.2492H10.7833V10.6887H14.379V7.12464H17.9709H21.5666H25.1622H28.7542H32.3498H35.9418H39.5375H43.1331H46.7251H50.3207H53.9127H57.5084H61.104H64.696H68.2916H71.8836H75.4792H79.0749H82.6668H86.2625H89.8581H93.4501H97.0458H100.638H104.233H107.829H111.421H115.017H118.609H122.175H122.204H125.77H129.362H132.958H136.55H140.146H143.741H147.333H150.929H154.521H158.117H161.712H165.304H168.9H172.495H176.087H179.683H183.275H186.871H190.466H194.058H197.654H201.246H204.842H208.437H212.029H215.625H219.217V3.56055H215.625Z" fill="#ACF1FC"/>
<path d="M17.9708 3.56045H21.5665H25.1621H28.7541H32.3497H35.9417H39.5373H43.133H46.725H50.3206H53.9126H57.5082H61.1039H64.6958H68.2915H71.8834H75.4791H79.0747H82.6667H86.2624H89.858H93.45H97.0456H100.638H104.233H107.829H111.421H115.017H118.608H122.175H122.204H125.77H129.362H132.958H136.55H140.146H143.741H147.333H150.929H154.521H158.116H161.712H165.304H168.9H172.495H176.087H179.683H183.275H186.871H190.466H194.058H197.654H201.246H204.841H208.437H212.029H215.625H219.217V0H215.625H212.029H208.437H204.841H201.246H197.654H194.058H190.466H186.871H183.275H179.683H176.087H172.495H168.9H165.304H161.712H158.116H154.521H150.929H147.333H143.741H140.146H136.55H132.958H129.362H125.77H122.204H122.175H118.608H115.017H111.421H107.829H104.233H100.638H97.0456H93.45H89.858H86.2624H82.6667H79.0747H75.4791H71.8834H68.2915H64.6958H61.1039H57.5082H53.9126H50.3206H46.725H43.133H39.5373H35.9417H32.3497H28.7541H25.1621H21.5665H17.9708H14.3789H10.7832V3.56045H14.3789H17.9708Z" fill="#034A51"/>
<path d="M10.7831 49.875H7.1875V53.4391H10.7831V49.875Z" fill="#034A51"/>
<path d="M10.7831 3.56055H7.1875V7.12464H10.7831V3.56055Z" fill="#034A51"/>
<path d="M7.18767 46.3154H3.5957V49.8759H7.18767V46.3154Z" fill="#034A51"/>
<path d="M7.18767 7.125H3.5957V10.6891H7.18767V7.125Z" fill="#034A51"/>
<path d="M3.59565 39.1867V35.6262V32.0621V28.5017V24.9376V21.3735V17.813V14.2489V10.6885H0V14.2489V17.813V21.3735V24.9376V28.5017V32.0621V35.6262V39.1867V42.7508V46.3148H3.59565V42.7508V39.1867Z" fill="#034A51"/>
<path d="M226.408 10.6885V14.2489V17.813V21.3735V24.9376V28.5017V32.0621V35.6262V39.1867V42.7508V46.3148H230V42.7508V39.1867V35.6262V32.0621V28.5017V24.9376V21.3735V17.813V14.2489V10.6885H226.408Z" fill="#034A51"/>
<path d="M226.408 46.3154H222.812V49.8759H226.408V46.3154Z" fill="#034A51"/>
<path d="M226.408 7.125H222.812V10.6891H226.408V7.125Z" fill="#034A51"/>
<path d="M222.812 49.875H219.217V53.4391H222.812V49.875Z" fill="#034A51"/>
<path d="M222.812 3.56055H219.217V7.12464H222.812V3.56055Z" fill="#034A51"/>
<path d="M212.029 53.4395H208.437H204.841H201.246H197.654H194.058H190.466H186.871H183.275H179.683H176.087H172.495H168.9H165.304H161.712H158.116H154.521H150.929H147.333H143.741H140.146H136.55H132.958H129.362H125.77H122.204H122.175H118.608H115.017H111.421H107.829H104.233H100.638H97.0456H93.45H89.858H86.2624H82.6667H79.0747H75.4791H71.8834H68.2915H64.6958H61.1039H57.5082H53.9126H50.3206H46.725H43.133H39.5373H35.9417H32.3497H28.7541H25.1621H21.5665H17.9708H14.3789H10.7832V56.9999H14.3789H17.9708H21.5665H25.1621H28.7541H32.3497H35.9417H39.5373H43.133H46.725H50.3206H53.9126H57.5082H61.1039H64.6958H68.2915H71.8834H75.4791H79.0747H82.6667H86.2624H89.858H93.45H97.0456H100.638H104.233H107.829H111.421H115.017H118.608H122.175H122.204H125.77H129.362H132.958H136.55H140.146H143.741H147.333H150.929H154.521H158.116H161.712H165.304H168.9H172.495H176.087H179.683H183.275H186.871H190.466H194.058H197.654H201.246H204.841H208.437H212.029H215.625H219.217V53.4395H215.625H212.029Z" fill="#034A51"/>
</g>
<g clip-path="url(#clip1)">
<path d="M174.999 39.4365H173.398V40.9996H174.999V39.4365Z" fill="black"/>
<path d="M171.799 39.4371H173.399V37.8756V36.3125H171.799V37.8756V39.4371Z" fill="black"/>
<path d="M171.798 34.749H170.199V36.3121H171.798V34.749Z" fill="black"/>
<path d="M168.6 37.8756V39.4371H170.2V37.8756V36.3125H168.6V37.8756Z" fill="black"/>
<path d="M168.6 23.8117V25.3748V26.9363H167.001H165.4H163.799H162.2V25.3748V23.8117V22.2486V20.6871H163.799H165.4H167.001H168.6H170.2V22.2486V23.8117H171.799V22.2486V20.6871H173.4H175.001V19.124H173.4H171.799H170.2H168.6H167.001H165.4V17.5625H163.799V19.124H162.2H160.6H159.001H157.4H155.799H154.2H152.6V20.6871V22.2486V23.8117V25.3748V26.9363V28.4994V30.0609V31.624V33.1871V34.7486V36.3117V37.8748H154.2V36.3117V34.7486V33.1871V31.624V30.0609V28.4994V26.9363V25.3748V23.8117V22.2486V20.6871H155.799H157.4H159.001H160.6V22.2486V23.8117V25.3748V26.9363H159.001H157.4H155.799V28.4994V30.0609V31.624V33.1871V34.7486V36.3117V37.8748V39.4363V40.9994H157.4V39.4363V37.8748V36.3117V34.7486V33.1871V31.624V30.0609V28.4994H159.001H160.6H162.2H163.799H165.4V30.0609V31.624V33.1871V34.7486V36.3117V37.8748V39.4363H167.001V37.8748V36.3117V34.7486V33.1871V31.624V30.0609V28.4994H168.6V30.0609V31.624V33.1871V34.7486H170.2V33.1871V31.624V30.0609V28.4994V26.9363H171.799V28.4994V30.0609V31.624V33.1871V34.7486H173.4V33.1871V31.624V30.0609V28.4994V26.9363H175.001V25.3748H173.4H171.799H170.2V23.8117H168.6Z" fill="black"/>
<path d="M168.599 39.4365H167V40.9996H168.599V39.4365Z" fill="black"/>
<path d="M166.999 22.249H165.398V23.8121H166.999V22.249Z" fill="black"/>
<path d="M165.399 39.4365H163.799V40.9996H165.399V39.4365Z" fill="black"/>
<path d="M165.399 23.8125H163.799V25.3756H165.399V23.8125Z" fill="black"/>
<path d="M163.798 37.875H162.199V39.4365H163.798V37.875Z" fill="black"/>
<path d="M163.799 36.3127V31.625H159V36.3127H163.799ZM160.606 34.7496V33.1881H162.206V34.7496H160.606Z" fill="black"/>
<path d="M163.798 16H162.199V17.5631H163.798V16Z" fill="black"/>
<path d="M158.999 23.8125H157.398V25.3756H158.999V23.8125Z" fill="black"/>
<path d="M157.399 22.249H155.799V23.8121H157.399V22.249Z" fill="black"/>
<path d="M152.599 37.875H151V39.4365H152.599V37.875Z" fill="black"/>
<path d="M95.3998 20.6877H97.0004V19.1246H95.3998H93.8008H92.1985H90.5979H88.9988H87.3982H85.7992V17.5615H84.2002V19.1246H82.5995H81.0005H79.3983H77.7976H76.1986H74.5996V20.6877V22.2492H76.1986V20.6877H77.7976H79.3983H81.0005H82.5995H84.2002H85.7992H87.3982H88.9988H90.5979H92.1985H93.8008V22.2492H95.3998V20.6877Z" fill="black"/>
<path d="M93.7996 37.874V39.4371H95.3986V37.874H96.9992V36.3125H95.3986H93.7996H92.1973V37.874H93.7996Z" fill="black"/>
<path d="M92.1971 22.249V23.8121H90.5965H88.9975H87.3969H85.7979H84.1988H82.5982H80.9992H79.3969H77.7963H76.1973V25.3736H77.7963H79.3969H80.9992V26.9367H82.5982V25.3736H84.1988H85.7979H87.3969H88.9975H90.5965H92.1971H93.7994H95.3984V23.8121H93.7994V22.249H92.1971Z" fill="black"/>
<path d="M92.1977 30.0621V28.5006V26.9375H90.5971V28.5006H88.998V30.0621H90.5971H92.1977Z" fill="black"/>
<path d="M90.5971 36.3121H92.1977V34.749H90.5971H88.998V36.3121H90.5971Z" fill="black"/>
<path d="M88.9991 33.1855H87.3984V34.7486H88.9991V33.1855Z" fill="black"/>
<path d="M88.9991 30.0615H87.3984V31.6246H88.9991V30.0615Z" fill="black"/>
<path d="M84.2003 39.4365H82.5996V40.998H84.2003V39.4365Z" fill="black"/>
<path d="M82.5996 30.0621H84.2003V31.6252V33.1867H82.5996V34.7498H84.2003V36.3129V37.8744V39.4375H85.7993V37.8744V36.3129V34.7498V33.1867H87.3983V31.6252H85.7993V30.0621V28.5006H84.2003V26.9375H82.5996V28.5006V30.0621Z" fill="black"/>
<path d="M84.2003 16H82.5996V17.5615H84.2003V16Z" fill="black"/>
<path d="M82.599 37.874H81V39.4371H82.599V37.874Z" fill="black"/>
<path d="M82.599 34.749H81V36.3121H82.599V34.749Z" fill="black"/>
<path d="M82.599 30.0615H81V31.6246H82.599V30.0615Z" fill="black"/>
<path d="M79.3975 36.3125H77.7969V37.874H79.3975H80.9998V36.3125H79.3975Z" fill="black"/>
<path d="M77.7969 31.625V33.1865H79.3975H80.9998V31.625H79.3975H77.7969Z" fill="black"/>
<path d="M77.7969 26.9375V28.5006H79.3975H80.9998V26.9375H79.3975H77.7969Z" fill="black"/>
<path d="M74.5996 37.874V39.4371H76.1986H77.7976V37.874H76.1986H74.5996Z" fill="black"/>
<path d="M74.5996 33.1855V34.7486H76.1986H77.7976V33.1855H76.1986H74.5996Z" fill="black"/>
<path d="M74.5996 28.5V30.0615H76.1986H77.7976V28.5H76.1986H74.5996Z" fill="black"/>
<path d="M74.599 22.249H73V23.8121H74.599V22.249Z" fill="black"/>
<path d="M147.287 39.4367V40.9998H149.001V39.4367V37.8752V36.3121V34.7506V33.1875H147.287V34.7506V36.3121V37.8752H145.572V39.4367H147.287Z" fill="black"/>
<path d="M147.287 26.9385H145.572V28.5H147.287V26.9385Z" fill="black"/>
<path d="M147.288 23.8125H149.001V22.251H147.288H145.572H143.857V23.8125H145.572H147.288Z" fill="black"/>
<path d="M145.572 20.6871H147.287V19.1256V17.5625H145.572V19.1256V20.6871Z" fill="black"/>
<path d="M145.572 36.3125H143.857V37.8756H145.572V36.3125Z" fill="black"/>
<path d="M145.572 28.5H143.857V30.0631H145.572V28.5Z" fill="black"/>
<path d="M145.572 16H143.857V17.5631H145.572V16Z" fill="black"/>
<path d="M142.143 36.3121H143.856V34.7506V33.1875H142.143V34.7506V36.3121Z" fill="black"/>
<path d="M140.428 33.1871H142.143V31.624H143.856V30.0625H142.143H140.428V31.624V33.1871Z" fill="black"/>
<path d="M140.428 33.1875H138.715V34.7506H140.428V33.1875Z" fill="black"/>
<path d="M140.429 26.9385V25.3754H142.144H143.857V23.8123H142.144H140.429V22.2508V20.6877V19.1262V17.5631V16H138.715V17.5631V19.1262V20.6877V22.2508V23.8123H137H135.285V25.3754H137H138.715V26.9385V28.5V30.0631H140.429V28.5V26.9385Z" fill="black"/>
<path d="M138.715 34.751H137V36.3125H138.715V34.751Z" fill="black"/>
<path d="M137 36.3125H135.285V37.8756H137V36.3125Z" fill="black"/>
<path d="M135.286 37.875H133.572V39.4365H135.286V37.875Z" fill="black"/>
<path d="M133.572 22.2508H131.857V20.6877V19.1262V17.5631V16H130.142V17.5631V19.1262V20.6877V22.2508H128.428H126.713H125V23.8123H126.713H128.428H130.142V25.3754V26.9385V28.5H128.428V30.0631H130.142V31.6246V33.1877V34.7508V36.3123V37.8754V39.4369H131.857V37.8754V36.3123V34.7508V33.1877V31.6246V30.0631V28.5H133.572H135.285V26.9385H133.572H131.857V25.3754V23.8123H133.572H135.285V22.2508H133.572Z" fill="black"/>
<path d="M130.141 39.4365H128.428V40.9996H130.141V39.4365Z" fill="black"/>
<path d="M128.428 37.875H126.713V39.4365H128.428V37.875Z" fill="black"/>
<path d="M125 30.0625V31.624H126.713H128.428V30.0625H126.713H125Z" fill="black"/>
<path d="M119.074 36.3125V37.8756H120.617V36.3125V34.751H119.074H117.529V36.3125H119.074Z" fill="black"/>
<path d="M119.074 28.5H117.529V30.0631H119.074V28.5Z" fill="black"/>
<path d="M117.53 26.9385H115.986V28.5H117.53V26.9385Z" fill="black"/>
<path d="M115.986 34.7506H117.529V33.1875H115.986H114.441V34.7506H115.986Z" fill="black"/>
<path d="M115.986 25.3756V23.8125V22.251H114.441V23.8125V25.3756V26.9387H115.986V25.3756Z" fill="black"/>
<path d="M114.441 31.625H112.896V33.1881H114.441V31.625Z" fill="black"/>
<path d="M114.441 26.9385H112.896V28.5H114.441V26.9385Z" fill="black"/>
<path d="M111.354 25.3754V23.8123V22.2508V20.6877H112.897H114.442H115.986H117.53H119.074H120.618V19.1262H119.074H117.53H115.986H114.442H112.897H111.354V17.5631V16H109.809V17.5631V19.1262H108.266H106.721H105.176H103.633H102.088H100.545V20.6877H102.088H103.633H105.176H106.721H108.266H109.809V22.2508V23.8123V25.3754V26.9385V28.5H108.266V30.0631V31.6246H109.809V33.1877V34.7508V36.3123V37.8754V39.4369V41H111.354V39.4369V37.8754V36.3123V34.7508V33.1877V31.6246H112.897V30.0631V28.5H111.354V26.9385V25.3754Z" fill="black"/>
<path d="M108.265 31.625H106.721V33.1881H108.265V31.625Z" fill="black"/>
<path d="M108.265 26.9385H106.721V28.5H108.265V26.9385Z" fill="black"/>
<path d="M106.721 33.1875H105.176V34.7506H106.721V33.1875Z" fill="black"/>
<path d="M106.721 23.8125V22.251H105.176V23.8125V25.3756V26.9387H106.721V25.3756V23.8125Z" fill="black"/>
<path d="M105.176 26.9385H103.633V28.5H105.176V26.9385Z" fill="black"/>
<path d="M102.088 34.751V36.3125H103.633H105.176V34.751H103.633H102.088Z" fill="black"/>
<path d="M103.633 28.5H102.088V30.0631H103.633V28.5Z" fill="black"/>
<path d="M99 36.3125V37.8756H100.545H102.088V36.3125H100.545H99Z" fill="black"/>
<path d="M120.9 36.3125V37.8756H121.951H123V36.3125H121.951H120.9Z" fill="black"/>
<path d="M67.7999 37.874V39.4371H69.3989V37.874H70.9995V36.3125H69.3989H67.7999H66.1992V37.874H67.7999Z" fill="black"/>
<path d="M66.2006 34.749H64.6016V36.3121H66.2006V34.749Z" fill="black"/>
<path d="M64.6007 33.1855H63V34.7486H64.6007V33.1855Z" fill="black"/>
<path d="M61.3984 33.1861H62.9991V31.6246V30.0615H61.3984V31.6246V33.1861Z" fill="black"/>
<path d="M59.8008 30.0621H61.3998V28.5006V26.9375H59.8008V28.5006V30.0621Z" fill="black"/>
<path d="M61.3993 25.3738H63H64.6007H66.1997H67.8003H69.3993H71V23.8123H69.3993H67.8003H66.1997H64.6007H63H61.3993H59.8003V22.2492V20.6877V19.1246V17.5615V16H58.1997V17.5615V19.1246V20.6877V22.2492V23.8123H56.6007H55H53.3993H51.8003H50.1997H48.6007H47V25.3738H48.6007H50.1997H51.8003H53.3993H55H56.6007H58.1997V26.9369H59.8003V25.3738H61.3993Z" fill="black"/>
<path d="M56.6016 28.5006V30.0621V31.6252H58.2006V30.0621V28.5006V26.9375H56.6016V28.5006Z" fill="black"/>
<path d="M55 33.1865V34.7496H56.6007V33.1865V31.625H55V33.1865Z" fill="black"/>
<path d="M54.9991 34.749H53.3984V36.3121H54.9991V34.749Z" fill="black"/>
<path d="M53.3998 36.3125H51.8008V37.874H53.3998V36.3125Z" fill="black"/>
<path d="M51.7999 37.874H50.1992V39.4371H51.7999V37.874Z" fill="black"/>
<path d="M50.2006 39.4365H48.6016V40.998H50.2006V39.4365Z" fill="black"/>
</g>
<defs>
<clipPath id="clip0">
<rect width="230" height="57" fill="white"/>
</clipPath>
<clipPath id="clip1">
<rect width="144" height="25" fill="white" transform="translate(43 16)"/>
</clipPath>
</defs>
</svg>
