<svg width="113" height="35" viewBox="0 0 113 35" fill="none" xmlns="http://www.w3.org/2000/svg">
<path d="M57.088 11.656L55.672 12.784C56.512 13.552 57.496 14.68 57.976 15.424L59.584 14.08C59.104 13.384 58.144 12.376 57.328 11.656H62.752V9.688H55.84C56.032 9.232 56.2 8.776 56.344 8.32L54.088 7.744C53.56 9.496 52.528 11.2 51.304 12.328C51.784 12.712 52.648 13.528 53.032 13.984C53.656 13.36 54.256 12.544 54.808 11.656H57.088ZM51.904 11.656V9.688H46.216C46.432 9.232 46.648 8.824 46.792 8.368L44.608 7.72C43.84 9.76 42.472 11.752 40.984 13.048C41.44 13.48 42.16 14.512 42.472 14.944C43.384 14.08 44.32 12.928 45.112 11.656H51.904ZM45.472 12.904C46.288 13.696 47.272 14.824 47.704 15.568L49.336 14.2C48.856 13.456 47.872 12.424 47.032 11.68L45.472 12.904ZM56.824 24.208V27.088H47.2V24.208H56.824ZM45.064 29.896H47.2V29.032H56.824V29.8H59.032V22.288H45.064V29.896ZM48.784 18.784C49.936 18.04 50.992 17.176 51.928 16.288C52.936 17.08 54.256 17.968 55.72 18.784H48.784ZM51.616 13.432C49.576 16.24 45.496 18.64 40.96 20.104C41.416 20.488 42.088 21.4 42.376 21.904C44.08 21.304 45.688 20.56 47.2 19.72V20.632H56.92V19.432C58.48 20.272 60.16 21.04 61.768 21.568C62.104 20.992 62.824 20.056 63.304 19.624C59.68 18.592 55.48 16.6 53.152 14.92C53.344 14.728 53.488 14.536 53.656 14.32L51.616 13.432ZM71.196 19.936H74.316V18.04H71.196V15.76H73.548V13.888H68.076C68.868 13.024 69.636 12.064 70.284 11.032C71.748 12.04 73.212 13.24 74.124 14.176L75.108 12.328C74.196 11.464 72.732 10.36 71.268 9.448C71.436 9.112 71.604 8.8 71.772 8.488L70.092 7.72C68.988 9.976 67.116 12.112 65.268 13.48C65.556 14.032 66.012 15.256 66.156 15.736C66.516 15.424 66.924 15.088 67.308 14.704V15.76H69.396V18.04H65.988V19.936H69.396V26.44C67.98 26.704 66.684 26.944 65.676 27.136L66.132 29.128C68.436 28.624 71.508 27.928 74.436 27.256L74.316 25.456C73.284 25.672 72.204 25.888 71.196 26.104V19.936ZM66.324 21.4C66.684 22.792 67.044 24.544 67.14 25.72L68.628 25.264C68.508 24.136 68.148 22.384 67.716 21.016L66.324 21.4ZM72.972 25.408C73.356 24.352 73.812 22.696 74.268 21.232L72.636 20.776C72.468 22.024 72.012 23.848 71.676 25L72.972 25.408ZM84.036 21.088V23.2H78.348V21.088H84.036ZM78.348 27.088V24.976H84.036V27.088H78.348ZM76.356 29.872H78.348V28.888H84.036V29.824H86.1V19.24H76.356V29.872ZM79.5 12.808H82.716V15.568H79.5V12.808ZM84.732 15.568V12.808H86.772V10.84H84.732V7.888H82.716V10.84H79.5V7.888H77.556V10.84H75.348V12.808H77.556V15.568H74.868V17.56H87.42V15.568H84.732ZM100.016 22.048H101.984L102.536 13.216L102.608 10.048H99.392L99.464 13.216L100.016 22.048ZM101 28.168C102.008 28.168 102.8 27.424 102.8 26.344C102.8 25.264 102.008 24.52 101 24.52C99.992 24.52 99.2 25.264 99.2 26.344C99.2 27.424 99.992 28.168 101 28.168Z" fill="#FF3434"/>
<g clip-path="url(#clip0_1502_76939)">
<path fill-rule="evenodd" clip-rule="evenodd" d="M4 4H0V8.05797H4V12.1159H8V16.1738H12V12.1158H8V8.05791H4V4ZM20 12.1158H16V16.1738H20V12.1159H24V8.05797H28V4H24V8.05791H20V12.1158ZM12 16.174H16V20.232H20V24.2899H24V28.3478H28V32.4058H24V28.3478H20V24.2899H16V20.232H12V24.2899H8V28.3478H4V32.4058H0V28.3478H4V24.2899H8V20.232H12V16.174Z" fill="#FF3434"/>
</g>
<defs>
<clipPath id="clip0_1502_76939">
<rect width="28" height="28" fill="white" transform="translate(0 4)"/>
</clipPath>
</defs>
</svg>
