<svg xmlns="http://www.w3.org/2000/svg" viewBox="0 0 117.07 107.32"><polygon points="68.29 68.29 68.29 58.54 68.29 48.78 68.29 39.02 68.29 29.27 58.54 29.27 48.78 29.27 48.78 39.02 58.54 39.02 58.54 48.78 58.54 58.54 58.54 68.29 48.78 68.29 39.02 68.29 39.02 78.05 48.78 78.05 58.54 78.05 68.29 78.05 78.05 78.05 78.05 68.29 68.29 68.29" fill="#006788"/><rect x="39.02" y="39.02" width="9.76" height="9.76" fill="#006788"/><path d="M107.32,39V29.27H97.56V19.51H87.8V9.76H78.05V0H39V9.76H29.27v9.75H19.51v9.76H9.75V39H0V68.29H9.75v9.76h9.76V87.8h9.76v9.76H39v9.76h39V97.56H87.8V87.8h9.76V78.05h9.76V68.29h9.75V39Zm-29.27,39H39V68.29H58.54V39H48.78v9.76H39V39h9.76V29.27H68.29v39h9.76Z" fill="#cce9e9"/></svg>