<svg width="31" height="28" viewBox="0 0 31 28" fill="none" xmlns="http://www.w3.org/2000/svg">
<g clip-path="url(#clip0)">
<path d="M30.5438 15.2734H28V17.8172H30.5438V15.2734Z" fill="#3B270F"/>
<path d="M30.5438 12.7266H28V15.273H30.5438V12.7266Z" fill="#3B270F"/>
<path d="M30.5438 10.1807H28V12.7271H30.5438V10.1807Z" fill="#3B270F"/>
<path d="M28.0005 17.8174H25.4541V20.3638H28.0005V17.8174Z" fill="#3B270F"/>
<path d="M28.0005 15.2734H25.4541V17.8172H28.0005V15.2734Z" fill="#3B270F"/>
<path d="M28.0005 12.7266H25.4541V15.273H28.0005V12.7266Z" fill="#3B270F"/>
<path d="M28.0005 10.1807H25.4541V12.7271H28.0005V10.1807Z" fill="#3B270F"/>
<path d="M28.0005 7.63672H25.4541V10.1805H28.0005V7.63672Z" fill="#3B270F"/>
<path d="M25.4536 20.3633H22.9072V22.9071H25.4536V20.3633Z" fill="#3B270F"/>
<path d="M25.4536 17.8174H22.9072V20.3638H25.4536V17.8174Z" fill="#3B270F"/>
<path d="M25.4536 15.2734H22.9072V17.8172H25.4536V15.2734Z" fill="#3B270F"/>
<path d="M25.4536 12.7266H22.9072V15.273H25.4536V12.7266Z" fill="#3B270F"/>
<path d="M25.4536 10.1807H22.9072V12.7271H25.4536V10.1807Z" fill="#3B270F"/>
<path d="M25.4536 7.63672H22.9072V10.1805H25.4536V7.63672Z" fill="#3B270F"/>
<path d="M25.4536 5.09082H22.9072V7.63722H25.4536V5.09082Z" fill="#3B270F"/>
<path d="M22.9071 22.9072H20.3633V25.4536H22.9071V22.9072Z" fill="#3B270F"/>
<path d="M22.9071 20.3633H20.3633V22.9071H22.9071V20.3633Z" fill="#3B270F"/>
<path d="M22.9071 17.8174H20.3633V20.3638H22.9071V17.8174Z" fill="#3B270F"/>
<path d="M22.9071 15.2734H20.3633V17.8172H22.9071V15.2734Z" fill="#3B270F"/>
<path d="M22.9071 12.7266H20.3633V15.273H22.9071V12.7266Z" fill="#3B270F"/>
<path d="M22.9071 10.1807H20.3633V12.7271H22.9071V10.1807Z" fill="#3B270F"/>
<path d="M22.9071 7.63672H20.3633V10.1805H22.9071V7.63672Z" fill="#3B270F"/>
<path d="M22.9071 5.09082H20.3633V7.63722H22.9071V5.09082Z" fill="#3B270F"/>
<path d="M22.9071 2.54688H20.3633V5.09067H22.9071V2.54688Z" fill="#3B270F"/>
<path d="M20.3638 25.4541H17.8174V28.0005H20.3638V25.4541Z" fill="#3B270F"/>
<path d="M20.3638 22.9072H17.8174V25.4536H20.3638V22.9072Z" fill="#3B270F"/>
<path d="M20.3638 20.3633H17.8174V22.9071H20.3638V20.3633Z" fill="#3B270F"/>
<path d="M20.3638 17.8174H17.8174V20.3638H20.3638V17.8174Z" fill="#65431D"/>
<path d="M20.3638 15.2734H17.8174V17.8172H20.3638V15.2734Z" fill="#3B270F"/>
<path d="M20.3638 12.7266H17.8174V15.273H20.3638V12.7266Z" fill="#3B270F"/>
<path d="M20.3638 10.1807H17.8174V12.7271H20.3638V10.1807Z" fill="#3B270F"/>
<path d="M20.3638 7.63672H17.8174V10.1805H20.3638V7.63672Z" fill="#3B270F"/>
<path d="M20.3638 5.09082H17.8174V7.63722H20.3638V5.09082Z" fill="#3B270F"/>
<path d="M20.3638 2.54688H17.8174V5.09067H20.3638V2.54688Z" fill="#3B270F"/>
<path d="M20.3638 0H17.8174V2.5464H20.3638V0Z" fill="#3B270F"/>
<path d="M17.8172 25.4541H15.2734V28.0005H17.8172V25.4541Z" fill="#3B270F"/>
<path d="M17.8172 22.9072H15.2734V25.4536H17.8172V22.9072Z" fill="#3B270F"/>
<path d="M17.8172 20.3633H15.2734V22.9071H17.8172V20.3633Z" fill="#3B270F"/>
<path d="M17.8172 17.8174H15.2734V20.3638H17.8172V17.8174Z" fill="#65431D"/>
<path d="M17.8172 15.2734H15.2734V17.8172H17.8172V15.2734Z" fill="#65431D"/>
<path d="M17.8172 12.7266H15.2734V15.273H17.8172V12.7266Z" fill="#65431D"/>
<path d="M17.8172 10.1807H15.2734V12.7271H17.8172V10.1807Z" fill="#65431D"/>
<path d="M17.8172 7.63672H15.2734V10.1805H17.8172V7.63672Z" fill="#65431D"/>
<path d="M17.8172 5.09082H15.2734V7.63722H17.8172V5.09082Z" fill="#3B270F"/>
<path d="M17.8172 2.54688H15.2734V5.09067H17.8172V2.54688Z" fill="#3B270F"/>
<path d="M17.8172 0H15.2734V2.5464H17.8172V0Z" fill="#3B270F"/>
<path d="M15.273 25.4541H12.7266V28.0005H15.273V25.4541Z" fill="#3B270F"/>
<path d="M15.273 22.9072H12.7266V25.4536H15.273V22.9072Z" fill="#3B270F"/>
<path d="M15.273 20.3633H12.7266V22.9071H15.273V20.3633Z" fill="#3B270F"/>
<path d="M15.273 17.8174H12.7266V20.3638H15.273V17.8174Z" fill="#65431D"/>
<path d="M15.273 15.2734H12.7266V17.8172H15.273V15.2734Z" fill="#3B270F"/>
<path d="M15.273 12.7266H12.7266V15.273H15.273V12.7266Z" fill="#3B270F"/>
<path d="M15.273 10.1807H12.7266V12.7271H15.273V10.1807Z" fill="#3B270F"/>
<path d="M15.273 7.63672H12.7266V10.1805H15.273V7.63672Z" fill="#65431D"/>
<path d="M15.273 5.09082H12.7266V7.63722H15.273V5.09082Z" fill="#3B270F"/>
<path d="M15.273 2.54688H12.7266V5.09067H15.273V2.54688Z" fill="#3B270F"/>
<path d="M15.273 0H12.7266V2.5464H15.273V0Z" fill="#3B270F"/>
<path d="M12.7271 25.4541H10.1807V28.0005H12.7271V25.4541Z" fill="#3B270F"/>
<path d="M12.7271 22.9072H10.1807V25.4536H12.7271V22.9072Z" fill="#3B270F"/>
<path d="M12.7271 20.3633H10.1807V22.9071H12.7271V20.3633Z" fill="#3B270F"/>
<path d="M12.7271 17.8174H10.1807V20.3638H12.7271V17.8174Z" fill="#65431D"/>
<path d="M12.7271 15.2734H10.1807V17.8172H12.7271V15.2734Z" fill="#3B270F"/>
<path d="M12.7271 12.7266H10.1807V15.273H12.7271V12.7266Z" fill="#3B270F"/>
<path d="M12.7271 10.1807H10.1807V12.7271H12.7271V10.1807Z" fill="#65431D"/>
<path d="M12.7271 7.63672H10.1807V10.1805H12.7271V7.63672Z" fill="#3B270F"/>
<path d="M12.7271 5.09082H10.1807V7.63722H12.7271V5.09082Z" fill="#3B270F"/>
<path d="M12.7271 2.54688H10.1807V5.09067H12.7271V2.54688Z" fill="#3B270F"/>
<path d="M12.7271 0H10.1807V2.5464H12.7271V0Z" fill="#3B270F"/>
<path d="M10.1805 22.9072H7.63672V25.4536H10.1805V22.9072Z" fill="#3B270F"/>
<path d="M10.1805 20.3633H7.63672V22.9071H10.1805V20.3633Z" fill="#3B270F"/>
<path d="M10.1805 17.8174H7.63672V20.3638H10.1805V17.8174Z" fill="#3B270F"/>
<path d="M10.1805 15.2734H7.63672V17.8172H10.1805V15.2734Z" fill="#3B270F"/>
<path d="M10.1805 12.7266H7.63672V15.273H10.1805V12.7266Z" fill="#3B270F"/>
<path d="M10.1805 10.1807H7.63672V12.7271H10.1805V10.1807Z" fill="#3B270F"/>
<path d="M10.1805 7.63672H7.63672V10.1805H10.1805V7.63672Z" fill="#3B270F"/>
<path d="M10.1805 5.09082H7.63672V7.63722H10.1805V5.09082Z" fill="#3B270F"/>
<path d="M10.1805 2.54688H7.63672V5.09067H10.1805V2.54688Z" fill="#3B270F"/>
<path d="M7.63723 20.3633H5.09082V22.9071H7.63723V20.3633Z" fill="#3B270F"/>
<path d="M7.63723 17.8174H5.09082V20.3638H7.63723V17.8174Z" fill="#3B270F"/>
<path d="M7.63723 15.2734H5.09082V17.8172H7.63723V15.2734Z" fill="#3B270F"/>
<path d="M7.63723 12.7266H5.09082V15.273H7.63723V12.7266Z" fill="#3B270F"/>
<path d="M7.63723 10.1807H5.09082V12.7271H7.63723V10.1807Z" fill="#3B270F"/>
<path d="M7.63723 7.63672H5.09082V10.1805H7.63723V7.63672Z" fill="#3B270F"/>
<path d="M7.63723 5.09082H5.09082V7.63722H7.63723V5.09082Z" fill="#3B270F"/>
<path d="M5.09035 17.8174H2.54395V20.3638H5.09035V17.8174Z" fill="#3B270F"/>
<path d="M5.09035 15.2734H2.54395V17.8172H5.09035V15.2734Z" fill="#3B270F"/>
<path d="M5.09035 12.7266H2.54395V15.273H5.09035V12.7266Z" fill="#3B270F"/>
<path d="M5.09035 10.1807H2.54395V12.7271H5.09035V10.1807Z" fill="#3B270F"/>
<path d="M5.09035 7.63672H2.54395V10.1805H5.09035V7.63672Z" fill="#3B270F"/>
<path d="M2.54379 15.2734H0V17.8172H2.54379V15.2734Z" fill="#3B270F"/>
<path d="M2.54379 12.7266H0V15.273H2.54379V12.7266Z" fill="#3B270F"/>
<path d="M2.54379 10.1807H0V12.7271H2.54379V10.1807Z" fill="#3B270F"/>
</g>
<defs>
<clipPath id="clip0">
<rect width="30.5438" height="28" fill="white"/>
</clipPath>
</defs>
</svg>
