<svg xmlns="http://www.w3.org/2000/svg" viewBox="0 0 117.07 107.32"><polygon points="68.29 29.27 58.54 29.27 48.78 29.27 39.02 29.27 39.02 39.02 48.78 39.02 58.54 39.02 58.54 48.78 48.78 48.78 39.02 48.78 39.02 58.54 48.78 58.54 58.54 58.54 58.54 68.29 48.78 68.29 39.02 68.29 39.02 78.05 48.78 78.05 58.54 78.05 68.29 78.05 78.05 78.05 78.05 68.29 78.05 58.54 78.05 48.78 78.05 39.02 78.05 29.27 68.29 29.27" fill="#65431d"/><path d="M107.32,39V29.27H97.56V19.51H87.8V9.76H78.05V0H39V9.76H29.27v9.75H19.51v9.76H9.75V39H0V68.29H9.75v9.76h9.76V87.8h9.76v9.76H39v9.76h39V97.56H87.8V87.8h9.76V78.05h9.76V68.29h9.75V39Zm-29.27,39H39V68.29H58.54V58.54H39V48.78H58.54V39H39V29.27h39V78.05Z" fill="#3b270f"/></svg>