<svg width="61" height="68" viewBox="0 0 61 68" fill="none" xmlns="http://www.w3.org/2000/svg">
<g clip-path="url(#clip0_867:75779)">
<path d="M61.0005 64.9082H57.9492V68.0003H61.0005V64.9082Z" fill="#006788"/>
<path d="M61.0005 61.8193H57.9492V64.9082H61.0005V61.8193Z" fill="#006788"/>
<path d="M61.0005 58.7266H57.9492V61.8186H61.0005V58.7266Z" fill="#006788"/>
<path d="M61.0005 55.6348H57.9492V58.7268H61.0005V55.6348Z" fill="#006788"/>
<path d="M61.0005 52.5459H57.9492V55.6348H61.0005V52.5459Z" fill="#006788"/>
<path d="M61.0005 49.4541H57.9492V52.5462H61.0005V49.4541Z" fill="#006788"/>
<path d="M57.9485 64.9082H54.9004V68.0003H57.9485V64.9082Z" fill="#006788"/>
<path d="M57.9485 61.8193H54.9004V64.9082H57.9485V61.8193Z" fill="#006788"/>
<path d="M57.9485 58.7266H54.9004V61.8186H57.9485V58.7266Z" fill="#006788"/>
<path d="M57.9485 55.6348H54.9004V58.7268H57.9485V55.6348Z" fill="#006788"/>
<path d="M57.9485 52.5459H54.9004V55.6348H57.9485V52.5459Z" fill="#006788"/>
<path d="M57.9485 49.4541H54.9004V52.5462H57.9485V49.4541Z" fill="#006788"/>
<path d="M57.9485 46.3652H54.9004V49.4541H57.9485V46.3652Z" fill="#006788"/>
<path d="M57.9485 43.2734H54.9004V46.3655H57.9485V43.2734Z" fill="#006788"/>
<path d="M57.9485 40.1807H54.9004V43.2727H57.9485V40.1807Z" fill="#006788"/>
<path d="M54.9009 64.9082H51.8496V68.0003H54.9009V64.9082Z" fill="#006788"/>
<path d="M54.9009 61.8193H51.8496V64.9082H54.9009V61.8193Z" fill="#006788"/>
<path d="M54.9009 58.7266H51.8496V61.8186H54.9009V58.7266Z" fill="#006788"/>
<path d="M54.9009 55.6348H51.8496V58.7268H54.9009V55.6348Z" fill="#C7CC87"/>
<path d="M54.9009 52.5459H51.8496V55.6348H54.9009V52.5459Z" fill="#C7CC87"/>
<path d="M54.9009 49.4541H51.8496V52.5462H54.9009V49.4541Z" fill="#006788"/>
<path d="M54.9009 46.3652H51.8496V49.4541H54.9009V46.3652Z" fill="#006788"/>
<path d="M54.9009 43.2734H51.8496V46.3655H54.9009V43.2734Z" fill="#006788"/>
<path d="M54.9009 40.1807H51.8496V43.2727H54.9009V40.1807Z" fill="#006788"/>
<path d="M54.9009 37.0918H51.8496V40.1807H54.9009V37.0918Z" fill="#006788"/>
<path d="M54.9009 34H51.8496V37.092H54.9009V34Z" fill="#006788"/>
<path d="M54.9009 30.9111H51.8496V34H54.9009V30.9111Z" fill="#006788"/>
<path d="M54.9009 27.8193H51.8496V30.9114H54.9009V27.8193Z" fill="#006788"/>
<path d="M54.9009 24.7275H51.8496V27.8196H54.9009V24.7275Z" fill="#006788"/>
<path d="M54.9009 21.6387H51.8496V24.7276H54.9009V21.6387Z" fill="#006788"/>
<path d="M54.9009 18.5459H51.8496V21.638H54.9009V18.5459Z" fill="#006788"/>
<path d="M54.9009 15.457H51.8496V18.5459H54.9009V15.457Z" fill="#CCE9E9"/>
<path d="M51.8501 64.9082H48.7988V68.0003H51.8501V64.9082Z" fill="#006788"/>
<path d="M51.8501 61.8193H48.7988V64.9082H51.8501V61.8193Z" fill="#006788"/>
<path d="M51.8501 58.7266H48.7988V61.8186H51.8501V58.7266Z" fill="#006788"/>
<path d="M51.8501 55.6348H48.7988V58.7268H51.8501V55.6348Z" fill="#C7CC87"/>
<path d="M51.8501 52.5459H48.7988V55.6348H51.8501V52.5459Z" fill="#C7CC87"/>
<path d="M51.8501 49.4541H48.7988V52.5462H51.8501V49.4541Z" fill="#006788"/>
<path d="M51.8501 46.3652H48.7988V49.4541H51.8501V46.3652Z" fill="#006788"/>
<path d="M51.8501 43.2734H48.7988V46.3655H51.8501V43.2734Z" fill="#006788"/>
<path d="M51.8501 40.1807H48.7988V43.2727H51.8501V40.1807Z" fill="#006788"/>
<path d="M51.8501 37.0918H48.7988V40.1807H51.8501V37.0918Z" fill="#006788"/>
<path d="M51.8501 34H48.7988V37.092H51.8501V34Z" fill="#006788"/>
<path d="M51.8501 30.9111H48.7988V34H51.8501V30.9111Z" fill="#006788"/>
<path d="M51.8501 27.8193H48.7988V30.9114H51.8501V27.8193Z" fill="#006788"/>
<path d="M51.8501 24.7275H48.7988V27.8196H51.8501V24.7275Z" fill="#006788"/>
<path d="M51.8501 21.6387H48.7988V24.7276H51.8501V21.6387Z" fill="#006788"/>
<path d="M48.7981 64.9082H45.75V68.0003H48.7981V64.9082Z" fill="#006788"/>
<path d="M48.7981 61.8193H45.75V64.9082H48.7981V61.8193Z" fill="#006788"/>
<path d="M48.7981 58.7266H45.75V61.8186H48.7981V58.7266Z" fill="#006788"/>
<path d="M48.7981 55.6348H45.75V58.7268H48.7981V55.6348Z" fill="#006788"/>
<path d="M48.7981 52.5459H45.75V55.6348H48.7981V52.5459Z" fill="#006788"/>
<path d="M48.7981 49.4541H45.75V52.5462H48.7981V49.4541Z" fill="#006788"/>
<path d="M48.7981 46.3652H45.75V49.4541H48.7981V46.3652Z" fill="#006788"/>
<path d="M48.7981 43.2734H45.75V46.3655H48.7981V43.2734Z" fill="#006788"/>
<path d="M48.7981 40.1807H45.75V43.2727H48.7981V40.1807Z" fill="#006788"/>
<path d="M48.7981 12.3652H45.75V15.4573H48.7981V12.3652Z" fill="#82BDD1"/>
<path d="M48.7981 9.27344H45.75V12.3655H48.7981V9.27344Z" fill="#82BDD1"/>
<path d="M45.7505 64.9082H42.6992V68.0003H45.7505V64.9082Z" fill="#006788"/>
<path d="M45.7505 61.8193H42.6992V64.9082H45.7505V61.8193Z" fill="#006788"/>
<path d="M45.7505 58.7266H42.6992V61.8186H45.7505V58.7266Z" fill="#006788"/>
<path d="M45.7505 55.6348H42.6992V58.7268H45.7505V55.6348Z" fill="#006788"/>
<path d="M45.7505 52.5459H42.6992V55.6348H45.7505V52.5459Z" fill="#006788"/>
<path d="M45.7505 49.4541H42.6992V52.5462H45.7505V49.4541Z" fill="#006788"/>
<path d="M45.7505 12.3652H42.6992V15.4573H45.7505V12.3652Z" fill="#82BDD1"/>
<path d="M45.7505 9.27344H42.6992V12.3655H45.7505V9.27344Z" fill="#82BDD1"/>
<path d="M45.7505 6.18457H42.6992V9.27346H45.7505V6.18457Z" fill="#CCE9E9"/>
<path d="M42.6985 64.9082H39.6504V68.0003H42.6985V64.9082Z" fill="#006788"/>
<path d="M42.6985 61.8193H39.6504V64.9082H42.6985V61.8193Z" fill="#006788"/>
<path d="M42.6985 58.7266H39.6504V61.8186H42.6985V58.7266Z" fill="#006788"/>
<path d="M42.6985 55.6348H39.6504V58.7268H42.6985V55.6348Z" fill="#006788"/>
<path d="M42.6985 52.5459H39.6504V55.6348H42.6985V52.5459Z" fill="#006788"/>
<path d="M42.6985 49.4541H39.6504V52.5462H42.6985V49.4541Z" fill="#006788"/>
<path d="M42.6985 46.3652H39.6504V49.4541H42.6985V46.3652Z" fill="#006788"/>
<path d="M42.6985 43.2734H39.6504V46.3655H42.6985V43.2734Z" fill="#006788"/>
<path d="M42.6985 40.1807H39.6504V43.2727H42.6985V40.1807Z" fill="#006788"/>
<path d="M42.6985 15.457H39.6504V18.5459H42.6985V15.457Z" fill="#82BDD1"/>
<path d="M42.6985 12.3652H39.6504V15.4573H42.6985V12.3652Z" fill="#82BDD1"/>
<path d="M42.6985 9.27344H39.6504V12.3655H42.6985V9.27344Z" fill="#CCE9E9"/>
<path d="M42.6985 6.18457H39.6504V9.27346H42.6985V6.18457Z" fill="#CCE9E9"/>
<path d="M42.6985 3.0918H39.6504V6.18386H42.6985V3.0918Z" fill="#CCE9E9"/>
<path d="M39.6509 64.9082H36.5996V68.0003H39.6509V64.9082Z" fill="#006788"/>
<path d="M39.6509 61.8193H36.5996V64.9082H39.6509V61.8193Z" fill="#006788"/>
<path d="M39.6509 58.7266H36.5996V61.8186H39.6509V58.7266Z" fill="#006788"/>
<path d="M39.6509 55.6348H36.5996V58.7268H39.6509V55.6348Z" fill="#C7CC87"/>
<path d="M39.6509 52.5459H36.5996V55.6348H39.6509V52.5459Z" fill="#C7CC87"/>
<path d="M39.6509 49.4541H36.5996V52.5462H39.6509V49.4541Z" fill="#006788"/>
<path d="M39.6509 46.3652H36.5996V49.4541H39.6509V46.3652Z" fill="#006788"/>
<path d="M39.6509 43.2734H36.5996V46.3655H39.6509V43.2734Z" fill="#006788"/>
<path d="M39.6509 40.1807H36.5996V43.2727H39.6509V40.1807Z" fill="#006788"/>
<path d="M39.6509 15.457H36.5996V18.5459H39.6509V15.457Z" fill="#CCE9E9"/>
<path d="M39.6509 12.3652H36.5996V15.4573H39.6509V12.3652Z" fill="#82BDD1"/>
<path d="M39.6509 9.27344H36.5996V12.3655H39.6509V9.27344Z" fill="#CCE9E9"/>
<path d="M39.6509 6.18457H36.5996V9.27346H39.6509V6.18457Z" fill="#CCE9E9"/>
<path d="M39.6509 3.0918H36.5996V6.18386H39.6509V3.0918Z" fill="#CCE9E9"/>
<path d="M36.6001 64.9082H33.5488V68.0003H36.6001V64.9082Z" fill="#006788"/>
<path d="M36.6001 61.8193H33.5488V64.9082H36.6001V61.8193Z" fill="#006788"/>
<path d="M36.6001 58.7266H33.5488V61.8186H36.6001V58.7266Z" fill="#006788"/>
<path d="M36.6001 55.6348H33.5488V58.7268H36.6001V55.6348Z" fill="#C7CC87"/>
<path d="M36.6001 52.5459H33.5488V55.6348H36.6001V52.5459Z" fill="#C7CC87"/>
<path d="M36.6001 49.4541H33.5488V52.5462H36.6001V49.4541Z" fill="#006788"/>
<path d="M36.6001 46.3652H33.5488V49.4541H36.6001V46.3652Z" fill="#006788"/>
<path d="M36.6001 43.2734H33.5488V46.3655H36.6001V43.2734Z" fill="#006788"/>
<path d="M36.6001 18.5459H33.5488V21.638H36.6001V18.5459Z" fill="#82BDD1"/>
<path d="M36.6001 15.457H33.5488V18.5459H36.6001V15.457Z" fill="#CCE9E9"/>
<path d="M36.6001 12.3652H33.5488V15.4573H36.6001V12.3652Z" fill="#CCE9E9"/>
<path d="M36.6001 9.27344H33.5488V12.3655H36.6001V9.27344Z" fill="#CCE9E9"/>
<path d="M36.6001 6.18457H33.5488V9.27346H36.6001V6.18457Z" fill="#CCE9E9"/>
<path d="M33.5481 64.9082H30.5V68.0003H33.5481V64.9082Z" fill="#006788"/>
<path d="M33.5481 61.8193H30.5V64.9082H33.5481V61.8193Z" fill="#006788"/>
<path d="M33.5481 58.7266H30.5V61.8186H33.5481V58.7266Z" fill="#006788"/>
<path d="M33.5481 55.6348H30.5V58.7268H33.5481V55.6348Z" fill="#C7CC87"/>
<path d="M33.5481 52.5459H30.5V55.6348H33.5481V52.5459Z" fill="#C7CC87"/>
<path d="M33.5481 49.4541H30.5V52.5462H33.5481V49.4541Z" fill="#006788"/>
<path d="M33.5481 46.3652H30.5V49.4541H33.5481V46.3652Z" fill="#006788"/>
<path d="M33.5481 18.5459H30.5V21.638H33.5481V18.5459Z" fill="#82BDD1"/>
<path d="M33.5481 15.457H30.5V18.5459H33.5481V15.457Z" fill="#CCE9E9"/>
<path d="M33.5481 12.3652H30.5V15.4573H33.5481V12.3652Z" fill="#CCE9E9"/>
<path d="M33.5481 9.27344H30.5V12.3655H33.5481V9.27344Z" fill="#CCE9E9"/>
<path d="M33.5481 6.18457H30.5V9.27346H33.5481V6.18457Z" fill="#CCE9E9"/>
<path d="M33.5481 3.0918H30.5V6.18386H33.5481V3.0918Z" fill="#CCE9E9"/>
<path d="M30.5005 64.9082H27.4492V68.0003H30.5005V64.9082Z" fill="#006788"/>
<path d="M30.5005 61.8193H27.4492V64.9082H30.5005V61.8193Z" fill="#006788"/>
<path d="M30.5005 58.7266H27.4492V61.8186H30.5005V58.7266Z" fill="#006788"/>
<path d="M30.5005 55.6348H27.4492V58.7268H30.5005V55.6348Z" fill="#006788"/>
<path d="M30.5005 52.5459H27.4492V55.6348H30.5005V52.5459Z" fill="#006788"/>
<path d="M30.5005 49.4541H27.4492V52.5462H30.5005V49.4541Z" fill="#006788"/>
<path d="M30.5005 15.457H27.4492V18.5459H30.5005V15.457Z" fill="#CCE9E9"/>
<path d="M30.5005 12.3652H27.4492V15.4573H30.5005V12.3652Z" fill="#CCE9E9"/>
<path d="M30.5005 9.27344H27.4492V12.3655H30.5005V9.27344Z" fill="#CCE9E9"/>
<path d="M30.5005 6.18457H27.4492V9.27346H30.5005V6.18457Z" fill="#CCE9E9"/>
<path d="M30.5005 3.0918H27.4492V6.18386H30.5005V3.0918Z" fill="#CCE9E9"/>
<path d="M30.5005 0H27.4492V3.09206H30.5005V0Z" fill="#CCE9E9"/>
<path d="M27.4485 64.9082H24.4004V68.0003H27.4485V64.9082Z" fill="#006788"/>
<path d="M27.4485 61.8193H24.4004V64.9082H27.4485V61.8193Z" fill="#006788"/>
<path d="M27.4485 58.7266H24.4004V61.8186H27.4485V58.7266Z" fill="#006788"/>
<path d="M27.4485 55.6348H24.4004V58.7268H27.4485V55.6348Z" fill="#006788"/>
<path d="M27.4485 52.5459H24.4004V55.6348H27.4485V52.5459Z" fill="#006788"/>
<path d="M27.4485 49.4541H24.4004V52.5462H27.4485V49.4541Z" fill="#006788"/>
<path d="M27.4485 9.27344H24.4004V12.3655H27.4485V9.27344Z" fill="#CCE9E9"/>
<path d="M27.4485 6.18457H24.4004V9.27346H27.4485V6.18457Z" fill="#CCE9E9"/>
<path d="M27.4485 3.0918H24.4004V6.18386H27.4485V3.0918Z" fill="#CCE9E9"/>
<path d="M27.4485 0H24.4004V3.09206H27.4485V0Z" fill="#CCE9E9"/>
<path d="M24.4009 64.9082H21.3496V68.0003H24.4009V64.9082Z" fill="#006788"/>
<path d="M24.4009 61.8193H21.3496V64.9082H24.4009V61.8193Z" fill="#006788"/>
<path d="M24.4009 58.7266H21.3496V61.8186H24.4009V58.7266Z" fill="#006788"/>
<path d="M24.4009 55.6348H21.3496V58.7268H24.4009V55.6348Z" fill="#C7CC87"/>
<path d="M24.4009 52.5459H21.3496V55.6348H24.4009V52.5459Z" fill="#C7CC87"/>
<path d="M24.4009 49.4541H21.3496V52.5462H24.4009V49.4541Z" fill="#006788"/>
<path d="M24.4009 46.3652H21.3496V49.4541H24.4009V46.3652Z" fill="#006788"/>
<path d="M24.4009 43.2734H21.3496V46.3655H24.4009V43.2734Z" fill="#006788"/>
<path d="M24.4009 40.1807H21.3496V43.2727H24.4009V40.1807Z" fill="#006788"/>
<path d="M24.4009 21.6387H21.3496V24.7276H24.4009V21.6387Z" fill="#82BDD1"/>
<path d="M24.4009 18.5459H21.3496V21.638H24.4009V18.5459Z" fill="#CCE9E9"/>
<path d="M24.4009 9.27344H21.3496V12.3655H24.4009V9.27344Z" fill="#CCE9E9"/>
<path d="M24.4009 6.18457H21.3496V9.27346H24.4009V6.18457Z" fill="#CCE9E9"/>
<path d="M24.4009 3.0918H21.3496V6.18386H24.4009V3.0918Z" fill="#CCE9E9"/>
<path d="M21.3501 64.9082H18.2988V68.0003H21.3501V64.9082Z" fill="#006788"/>
<path d="M21.3501 61.8193H18.2988V64.9082H21.3501V61.8193Z" fill="#006788"/>
<path d="M21.3501 58.7266H18.2988V61.8186H21.3501V58.7266Z" fill="#006788"/>
<path d="M21.3501 55.6348H18.2988V58.7268H21.3501V55.6348Z" fill="#C7CC87"/>
<path d="M21.3501 52.5459H18.2988V55.6348H21.3501V52.5459Z" fill="#C7CC87"/>
<path d="M21.3501 49.4541H18.2988V52.5462H21.3501V49.4541Z" fill="#006788"/>
<path d="M21.3501 46.3652H18.2988V49.4541H21.3501V46.3652Z" fill="#006788"/>
<path d="M21.3501 43.2734H18.2988V46.3655H21.3501V43.2734Z" fill="#006788"/>
<path d="M21.3501 40.1807H18.2988V43.2727H21.3501V40.1807Z" fill="#006788"/>
<path d="M21.3501 24.7275H18.2988V27.8196H21.3501V24.7275Z" fill="#82BDD1"/>
<path d="M21.3501 21.6387H18.2988V24.7276H21.3501V21.6387Z" fill="#82BDD1"/>
<path d="M21.3501 18.5459H18.2988V21.638H21.3501V18.5459Z" fill="#CCE9E9"/>
<path d="M21.3501 15.457H18.2988V18.5459H21.3501V15.457Z" fill="#CCE9E9"/>
<path d="M21.3501 12.3652H18.2988V15.4573H21.3501V12.3652Z" fill="#CCE9E9"/>
<path d="M21.3501 6.18457H18.2988V9.27346H21.3501V6.18457Z" fill="#CCE9E9"/>
<path d="M18.2981 64.9082H15.25V68.0003H18.2981V64.9082Z" fill="#006788"/>
<path d="M18.2981 61.8193H15.25V64.9082H18.2981V61.8193Z" fill="#006788"/>
<path d="M18.2981 58.7266H15.25V61.8186H18.2981V58.7266Z" fill="#006788"/>
<path d="M18.2981 55.6348H15.25V58.7268H18.2981V55.6348Z" fill="#C7CC87"/>
<path d="M18.2981 52.5459H15.25V55.6348H18.2981V52.5459Z" fill="#C7CC87"/>
<path d="M18.2981 49.4541H15.25V52.5462H18.2981V49.4541Z" fill="#006788"/>
<path d="M18.2981 46.3652H15.25V49.4541H18.2981V46.3652Z" fill="#006788"/>
<path d="M18.2981 43.2734H15.25V46.3655H18.2981V43.2734Z" fill="#006788"/>
<path d="M18.2981 24.7275H15.25V27.8196H18.2981V24.7275Z" fill="#82BDD1"/>
<path d="M18.2981 21.6387H15.25V24.7276H18.2981V21.6387Z" fill="#82BDD1"/>
<path d="M18.2981 18.5459H15.25V21.638H18.2981V18.5459Z" fill="#CCE9E9"/>
<path d="M18.2981 15.457H15.25V18.5459H18.2981V15.457Z" fill="#CCE9E9"/>
<path d="M18.2981 12.3652H15.25V15.4573H18.2981V12.3652Z" fill="#CCE9E9"/>
<path d="M15.2505 64.9082H12.1992V68.0003H15.2505V64.9082Z" fill="#006788"/>
<path d="M15.2505 61.8193H12.1992V64.9082H15.2505V61.8193Z" fill="#006788"/>
<path d="M15.2505 58.7266H12.1992V61.8186H15.2505V58.7266Z" fill="#006788"/>
<path d="M15.2505 55.6348H12.1992V58.7268H15.2505V55.6348Z" fill="#006788"/>
<path d="M15.2505 52.5459H12.1992V55.6348H15.2505V52.5459Z" fill="#006788"/>
<path d="M15.2505 49.4541H12.1992V52.5462H15.2505V49.4541Z" fill="#006788"/>
<path d="M15.2505 46.3652H12.1992V49.4541H15.2505V46.3652Z" fill="#006788"/>
<path d="M15.2505 21.6387H12.1992V24.7276H15.2505V21.6387Z" fill="#CCE9E9"/>
<path d="M15.2505 18.5459H12.1992V21.638H15.2505V18.5459Z" fill="#CCE9E9"/>
<path d="M15.2505 15.457H12.1992V18.5459H15.2505V15.457Z" fill="#CCE9E9"/>
<path d="M15.2505 12.3652H12.1992V15.4573H15.2505V12.3652Z" fill="#CCE9E9"/>
<path d="M12.1997 64.9082H9.14844V68.0003H12.1997V64.9082Z" fill="#006788"/>
<path d="M12.1997 61.8193H9.14844V64.9082H12.1997V61.8193Z" fill="#006788"/>
<path d="M12.1997 58.7266H9.14844V61.8186H12.1997V58.7266Z" fill="#006788"/>
<path d="M12.1997 55.6348H9.14844V58.7268H12.1997V55.6348Z" fill="#006788"/>
<path d="M12.1997 52.5459H9.14844V55.6348H12.1997V52.5459Z" fill="#006788"/>
<path d="M12.1997 49.4541H9.14844V52.5462H12.1997V49.4541Z" fill="#006788"/>
<path d="M12.1997 24.7275H9.14844V27.8196H12.1997V24.7275Z" fill="#82BDD1"/>
<path d="M12.1997 21.6387H9.14844V24.7276H12.1997V21.6387Z" fill="#CCE9E9"/>
<path d="M12.1997 18.5459H9.14844V21.638H12.1997V18.5459Z" fill="#CCE9E9"/>
<path d="M12.1997 15.457H9.14844V18.5459H12.1997V15.457Z" fill="#CCE9E9"/>
<path d="M9.14773 64.9082H6.09961V68.0003H9.14773V64.9082Z" fill="#006788"/>
<path d="M9.14773 24.7275H6.09961V27.8196H9.14773V24.7275Z" fill="#82BDD1"/>
<path d="M9.14773 21.6387H6.09961V24.7276H9.14773V21.6387Z" fill="#CCE9E9"/>
<path d="M9.14773 18.5459H6.09961V21.638H9.14773V18.5459Z" fill="#CCE9E9"/>
<path d="M6.10008 64.9082H3.04883V68.0003H6.10008V64.9082Z" fill="#006788"/>
<path d="M6.10008 21.6387H3.04883V24.7276H6.10008V21.6387Z" fill="#CCE9E9"/>
<path d="M6.10008 18.5459H3.04883V21.638H6.10008V18.5459Z" fill="#CCE9E9"/>
<path d="M6.10008 15.457H3.04883V18.5459H6.10008V15.457Z" fill="#CCE9E9"/>
<path d="M3.04812 18.5459H0V21.638H3.04812V18.5459Z" fill="#CCE9E9"/>
<path d="M3.04812 15.457H0V18.5459H3.04812V15.457Z" fill="#CCE9E9"/>
</g>
<defs>
<clipPath id="clip0_867:75779">
<rect width="61" height="68" fill="white"/>
</clipPath>
</defs>
</svg>
