<svg width="61" height="68" viewBox="0 0 61 68" fill="none" xmlns="http://www.w3.org/2000/svg">
<path d="M51.8501 52.5459H48.7988V55.6348V58.7268H51.8501H54.9013V55.6348V52.5459H51.8501Z" fill="#D9E0A2"/>
<path d="M33.5481 52.5459H30.5V55.6348V58.7268H33.5481H36.5994H39.6506V55.6348V52.5459H36.5994H33.5481Z" fill="#D9E0A2"/>
<path d="M18.2981 52.5459H15.25V55.6348V58.7268H18.2981H21.3494H24.4006V55.6348V52.5459H21.3494H18.2981Z" fill="#D9E0A2"/>
<path d="M45.7502 9.27344H42.699V12.3655H39.6509H36.5996V15.4576H39.6509V18.5465H42.699V15.4576H45.7502H48.7983V12.3655V9.27344H45.7502Z" fill="#79A9BA"/>
<path d="M30.5 18.5459V21.638H33.5481H36.5994V18.5459H33.5481H30.5Z" fill="#79A9BA"/>
<path d="M18.2981 21.6377H15.25V24.7266V27.8186H18.2981H21.3494V24.7266H24.4006V21.6377H21.3494H18.2981Z" fill="#79A9BA"/>
<path d="M6.09961 24.7266V27.8186H9.14773H12.199V24.7266H9.14773H6.09961Z" fill="#79A9BA"/>
<path d="M57.9495 49.4538V40.1808H54.9013V18.5459H51.8501V21.638H48.7988V40.1808H45.7507V49.4538H42.6995V40.1808H36.6001V43.2729H33.5488V46.3649H30.5007V49.4538H24.4013V40.1808H18.2988V43.2729H15.2507V46.3649H12.1932V49.4538H9.1482V64.9078H3.04883V67.9999H61.0007V49.4538H57.9495ZM54.9013 55.6348V58.7268H48.7988V52.5459H54.9013V55.6348ZM33.5488 52.5459H39.6513V58.7268H30.5007V52.5459H33.5488ZM24.4013 55.6348V58.7268H15.2507V52.5459H24.4013V55.6348Z" fill="#107393"/>
<path d="M54.9009 15.457H51.8496V18.5459H54.9009V15.457Z" fill="#A9CBDA"/>
<path d="M42.6995 3.09206H39.6513H36.6001V6.18412H33.5488V3.09206H30.5007V0H27.4495H24.4013V3.09206H21.3501V6.18412H18.2988V9.27302H21.3501V12.3651H24.4013H27.4495V15.4571V18.546H30.5007H33.5488H36.6001H39.6513V15.4571H36.6001V12.3651H39.6513H42.6995V9.27302H45.7507V6.18412H42.6995V3.09206Z" fill="#A9CBDA"/>
<path d="M15.25 12.3652H12.1988V15.4573H9.1475V18.5462H6.09938V15.4573H3.04812H0V18.5462V21.6383H3.04812V24.7271H6.09938H9.1475H12.1988H15.25V21.6383H18.2981H21.3494H24.4006V18.5462H21.3494V15.4573V12.3652H18.2981H15.25Z" fill="#A9CBDA"/>
</svg>
