<svg width="89" height="134" viewBox="0 0 89 134" fill="none" xmlns="http://www.w3.org/2000/svg">
<g clip-path="url(#clip0_867:75781)">
<path d="M88.9999 37.2217H81.5801V44.6691H88.9999V37.2217Z" fill="#8D5F10"/>
<path d="M81.5802 67.0039H74.168V74.4437H81.5802V67.0039Z" fill="black"/>
<path d="M81.5802 59.5566H74.168V67.004H81.5802V59.5566Z" fill="black"/>
<path d="M81.5802 52.1094H74.168V59.5568H81.5802V52.1094Z" fill="black"/>
<path d="M81.5802 44.6689H74.168V52.1087H81.5802V44.6689Z" fill="black"/>
<path d="M81.5802 37.2217H74.168V44.6691H81.5802V37.2217Z" fill="#8D5F10"/>
<path d="M81.5802 29.7822H74.168V37.222H81.5802V29.7822Z" fill="#8D5F10"/>
<path d="M74.1679 104.226H66.748V111.665H74.1679V104.226Z" fill="#D8B071"/>
<path d="M74.1679 96.7783H66.748V104.226H74.1679V96.7783Z" fill="#D8B071"/>
<path d="M74.1679 74.4434H66.748V81.8908H74.1679V74.4434Z" fill="#1E1A16"/>
<path d="M74.1679 67.0039H66.748V74.4437H74.1679V67.0039Z" fill="black"/>
<path d="M74.1679 59.5566H66.748V67.004H74.1679V59.5566Z" fill="#D8B071"/>
<path d="M74.1679 52.1094H66.748V59.5568H74.1679V52.1094Z" fill="black"/>
<path d="M74.1679 44.6689H66.748V52.1087H74.1679V44.6689Z" fill="black"/>
<path d="M74.1679 37.2217H66.748V44.6691H74.1679V37.2217Z" fill="#8D5F10"/>
<path d="M74.1679 29.7822H66.748V37.222H74.1679V29.7822Z" fill="#8D5F10"/>
<path d="M74.1679 22.335H66.748V29.7824H74.1679V22.335Z" fill="#8D5F10"/>
<path d="M66.7482 119.113H59.3359V126.561H66.7482V119.113Z" fill="#4C4945"/>
<path d="M66.7482 111.665H59.3359V119.112H66.7482V111.665Z" fill="#4C4945"/>
<path d="M66.7482 104.226H59.3359V111.665H66.7482V104.226Z" fill="#D8B071"/>
<path d="M66.7482 96.7783H59.3359V104.226H66.7482V96.7783Z" fill="#D8B071"/>
<path d="M66.7482 89.3389H59.3359V96.7787H66.7482V89.3389Z" fill="#1E1A16"/>
<path d="M66.7482 81.8906H59.3359V89.338H66.7482V81.8906Z" fill="#1E1A16"/>
<path d="M66.7482 74.4434H59.3359V81.8908H66.7482V74.4434Z" fill="#1E1A16"/>
<path d="M66.7482 67.0039H59.3359V74.4437H66.7482V67.0039Z" fill="#D8B071"/>
<path d="M66.7482 59.5566H59.3359V67.004H66.7482V59.5566Z" fill="#D8B071"/>
<path d="M66.7482 52.1094H59.3359V59.5568H66.7482V52.1094Z" fill="#F2D7A2"/>
<path d="M66.7482 44.6689H59.3359V52.1087H66.7482V44.6689Z" fill="black"/>
<path d="M66.7482 37.2217H59.3359V44.6691H66.7482V37.2217Z" fill="#8D5F10"/>
<path d="M66.7482 29.7822H59.3359V37.222H66.7482V29.7822Z" fill="#8D5F10"/>
<path d="M66.7482 22.335H59.3359V29.7824H66.7482V22.335Z" fill="#8D5F10"/>
<path d="M66.7482 14.8877H59.3359V22.3351H66.7482V14.8877Z" fill="#8D5F10"/>
<path d="M59.3358 126.561H51.916V134H59.3358V126.561Z" fill="#1E1A16"/>
<path d="M59.3358 119.113H51.916V126.561H59.3358V119.113Z" fill="#4C4945"/>
<path d="M59.3358 111.665H51.916V119.112H59.3358V111.665Z" fill="#4C4945"/>
<path d="M59.3358 104.226H51.916V111.665H59.3358V104.226Z" fill="#F7EEE4"/>
<path d="M59.3358 96.7783H51.916V104.226H59.3358V96.7783Z" fill="#F7EEE4"/>
<path d="M59.3358 89.3389H51.916V96.7787H59.3358V89.3389Z" fill="#F7EEE4"/>
<path d="M59.3358 81.8906H51.916V89.338H59.3358V81.8906Z" fill="#F7EEE4"/>
<path d="M59.3358 74.4434H51.916V81.8908H59.3358V74.4434Z" fill="#D8B071"/>
<path d="M59.3358 67.0039H51.916V74.4437H59.3358V67.0039Z" fill="#D8B071"/>
<path d="M59.3358 59.5566H51.916V67.004H59.3358V59.5566Z" fill="#F2D7A2"/>
<path d="M59.3358 52.1094H51.916V59.5568H59.3358V52.1094Z" fill="#F2D7A2"/>
<path d="M59.3358 44.6689H51.916V52.1087H59.3358V44.6689Z" fill="#F2D7A2"/>
<path d="M59.3358 37.2217H51.916V44.6691H59.3358V37.2217Z" fill="#8D5F10"/>
<path d="M59.3358 29.7822H51.916V37.222H59.3358V29.7822Z" fill="#8D5F10"/>
<path d="M59.3358 22.335H51.916V29.7824H59.3358V22.335Z" fill="#8D5F10"/>
<path d="M59.3358 14.8877H51.916V22.3351H59.3358V14.8877Z" fill="#8D5F10"/>
<path d="M59.3358 7.44727H51.916V14.887H59.3358V7.44727Z" fill="#8D5F10"/>
<path d="M51.9159 119.113H44.4961V126.561H51.9159V119.113Z" fill="#4C4945"/>
<path d="M51.9159 111.665H44.4961V119.112H51.9159V111.665Z" fill="#4C4945"/>
<path d="M51.9159 104.226H44.4961V111.665H51.9159V104.226Z" fill="#F7EEE4"/>
<path d="M51.9159 96.7783H44.4961V104.226H51.9159V96.7783Z" fill="#F7EEE4"/>
<path d="M51.9159 89.3389H44.4961V96.7787H51.9159V89.3389Z" fill="#F7EEE4"/>
<path d="M51.9159 81.8906H44.4961V89.338H51.9159V81.8906Z" fill="#E0CFBF"/>
<path d="M51.9159 74.4434H44.4961V81.8908H51.9159V74.4434Z" fill="#F2D7A2"/>
<path d="M51.9159 67.0039H44.4961V74.4437H51.9159V67.0039Z" fill="#F2D7A2"/>
<path d="M51.9159 59.5566H44.4961V67.004H51.9159V59.5566Z" fill="black"/>
<path d="M51.9159 52.1094H44.4961V59.5568H51.9159V52.1094Z" fill="black"/>
<path d="M51.9159 44.6689H44.4961V52.1087H51.9159V44.6689Z" fill="#F2D7A2"/>
<path d="M51.9159 37.2217H44.4961V44.6691H51.9159V37.2217Z" fill="#8D5F10"/>
<path d="M51.9159 29.7822H44.4961V37.222H51.9159V29.7822Z" fill="#8D5F10"/>
<path d="M51.9159 22.335H44.4961V29.7824H51.9159V22.335Z" fill="#8D5F10"/>
<path d="M51.9159 14.8877H44.4961V22.3351H51.9159V14.8877Z" fill="#8D5F10"/>
<path d="M51.9159 7.44727H44.4961V14.887H51.9159V7.44727Z" fill="#8D5F10"/>
<path d="M51.9159 0H44.4961V7.44741H51.9159V0Z" fill="#8D5F10"/>
<path d="M44.4962 111.665H37.084V119.112H44.4962V111.665Z" fill="#4C4945"/>
<path d="M44.4962 104.226H37.084V111.665H44.4962V104.226Z" fill="#F7EEE4"/>
<path d="M44.4962 96.7783H37.084V104.226H44.4962V96.7783Z" fill="#E0CFBF"/>
<path d="M44.4962 89.3389H37.084V96.7787H44.4962V89.3389Z" fill="#E0CFBF"/>
<path d="M44.4962 81.8906H37.084V89.338H44.4962V81.8906Z" fill="#E0CFBF"/>
<path d="M44.4962 74.4434H37.084V81.8908H44.4962V74.4434Z" fill="#F9761E"/>
<path d="M44.4962 67.0039H37.084V74.4437H44.4962V67.0039Z" fill="#F6E4BD"/>
<path d="M44.4962 59.5566H37.084V67.004H44.4962V59.5566Z" fill="#F6E4BD"/>
<path d="M44.4962 52.1094H37.084V59.5568H44.4962V52.1094Z" fill="#F2D7A2"/>
<path d="M44.4962 44.6689H37.084V52.1087H44.4962V44.6689Z" fill="#F2D7A2"/>
<path d="M44.4962 37.2217H37.084V44.6691H44.4962V37.2217Z" fill="#8D5F10"/>
<path d="M44.4962 29.7822H37.084V37.222H44.4962V29.7822Z" fill="#8D5F10"/>
<path d="M44.4962 22.335H37.084V29.7824H44.4962V22.335Z" fill="#8D5F10"/>
<path d="M44.4962 14.8877H37.084V22.3351H44.4962V14.8877Z" fill="#8D5F10"/>
<path d="M44.4962 7.44727H37.084V14.887H44.4962V7.44727Z" fill="#8D5F10"/>
<path d="M37.0839 119.113H29.6641V126.561H37.0839V119.113Z" fill="#4C4945"/>
<path d="M37.0839 111.665H29.6641V119.112H37.0839V111.665Z" fill="#4C4945"/>
<path d="M37.0839 104.226H29.6641V111.665H37.0839V104.226Z" fill="#F7EEE4"/>
<path d="M37.0839 96.7783H29.6641V104.226H37.0839V96.7783Z" fill="#F7EEE4"/>
<path d="M37.0839 89.3389H29.6641V96.7787H37.0839V89.3389Z" fill="#F7EEE4"/>
<path d="M37.0839 81.8906H29.6641V89.338H37.0839V81.8906Z" fill="#E0CFBF"/>
<path d="M37.0839 74.4434H29.6641V81.8908H37.0839V74.4434Z" fill="#F9761E"/>
<path d="M37.0839 67.0039H29.6641V74.4437H37.0839V67.0039Z" fill="#F2D7A2"/>
<path d="M37.0839 59.5566H29.6641V67.004H37.0839V59.5566Z" fill="#F2D7A2"/>
<path d="M37.0839 52.1094H29.6641V59.5568H37.0839V52.1094Z" fill="#F2D7A2"/>
<path d="M37.0839 44.6689H29.6641V52.1087H37.0839V44.6689Z" fill="#F2D7A2"/>
<path d="M37.0839 37.2217H29.6641V44.6691H37.0839V37.2217Z" fill="#8D5F10"/>
<path d="M37.0839 29.7822H29.6641V37.222H37.0839V29.7822Z" fill="#8D5F10"/>
<path d="M37.0839 22.335H29.6641V29.7824H37.0839V22.335Z" fill="#8D5F10"/>
<path d="M37.0839 14.8877H29.6641V22.3351H37.0839V14.8877Z" fill="#8D5F10"/>
<path d="M37.0839 7.44727H29.6641V14.887H37.0839V7.44727Z" fill="#8D5F10"/>
<path d="M29.6642 126.561H22.252V134H29.6642V126.561Z" fill="#1E1A16"/>
<path d="M29.6642 119.113H22.252V126.561H29.6642V119.113Z" fill="#4C4945"/>
<path d="M29.6642 111.665H22.252V119.112H29.6642V111.665Z" fill="#4C4945"/>
<path d="M29.6642 104.226H22.252V111.665H29.6642V104.226Z" fill="#F7EEE4"/>
<path d="M29.6642 96.7783H22.252V104.226H29.6642V96.7783Z" fill="#F7EEE4"/>
<path d="M29.6642 89.3389H22.252V96.7787H29.6642V89.3389Z" fill="#F7EEE4"/>
<path d="M29.6642 81.8906H22.252V89.338H29.6642V81.8906Z" fill="#E0CFBF"/>
<path d="M29.6642 74.4434H22.252V81.8908H29.6642V74.4434Z" fill="#F2D7A2"/>
<path d="M29.6642 67.0039H22.252V74.4437H29.6642V67.0039Z" fill="#F2D7A2"/>
<path d="M29.6642 59.5566H22.252V67.004H29.6642V59.5566Z" fill="black"/>
<path d="M29.6642 52.1094H22.252V59.5568H29.6642V52.1094Z" fill="black"/>
<path d="M29.6642 44.6689H22.252V52.1087H29.6642V44.6689Z" fill="#F2D7A2"/>
<path d="M29.6642 37.2217H22.252V44.6691H29.6642V37.2217Z" fill="#8D5F10"/>
<path d="M29.6642 29.7822H22.252V37.222H29.6642V29.7822Z" fill="#8D5F10"/>
<path d="M29.6642 22.335H22.252V29.7824H29.6642V22.335Z" fill="#8D5F10"/>
<path d="M29.6642 14.8877H22.252V22.3351H29.6642V14.8877Z" fill="#8D5F10"/>
<path d="M22.2519 119.113H14.832V126.561H22.2519V119.113Z" fill="#4C4945"/>
<path d="M22.2519 111.665H14.832V119.112H22.2519V111.665Z" fill="#4C4945"/>
<path d="M22.2519 104.226H14.832V111.665H22.2519V104.226Z" fill="#F7EEE4"/>
<path d="M22.2519 96.7783H14.832V104.226H22.2519V96.7783Z" fill="#D8B071"/>
<path d="M22.2519 89.3389H14.832V96.7787H22.2519V89.3389Z" fill="#D8B071"/>
<path d="M22.2519 81.8906H14.832V89.338H22.2519V81.8906Z" fill="#1E1A16"/>
<path d="M22.2519 74.4434H14.832V81.8908H22.2519V74.4434Z" fill="black"/>
<path d="M22.2519 67.0039H14.832V74.4437H22.2519V67.0039Z" fill="#F2D7A2"/>
<path d="M22.2519 59.5566H14.832V67.004H22.2519V59.5566Z" fill="#F2D7A2"/>
<path d="M22.2519 52.1094H14.832V59.5568H22.2519V52.1094Z" fill="#F2D7A2"/>
<path d="M22.2519 44.6689H14.832V52.1087H22.2519V44.6689Z" fill="#F2D7A2"/>
<path d="M22.2519 37.2217H14.832V44.6691H22.2519V37.2217Z" fill="#8D5F10"/>
<path d="M22.2519 29.7822H14.832V37.222H22.2519V29.7822Z" fill="#8D5F10"/>
<path d="M22.2519 22.335H14.832V29.7824H22.2519V22.335Z" fill="#8D5F10"/>
<path d="M14.8319 104.226H7.41211V111.665H14.8319V104.226Z" fill="#F7EEE4"/>
<path d="M14.8319 96.7783H7.41211V104.226H14.8319V96.7783Z" fill="#D8B071"/>
<path d="M14.8319 89.3389H7.41211V96.7787H14.8319V89.3389Z" fill="#D8B071"/>
<path d="M14.8319 74.4434H7.41211V81.8908H14.8319V74.4434Z" fill="#1E1A16"/>
<path d="M14.8319 67.0039H7.41211V74.4437H14.8319V67.0039Z" fill="black"/>
<path d="M14.8319 59.5566H7.41211V67.004H14.8319V59.5566Z" fill="#D8B071"/>
<path d="M14.8319 52.1094H7.41211V59.5568H14.8319V52.1094Z" fill="#D8B071"/>
<path d="M14.8319 44.6689H7.41211V52.1087H14.8319V44.6689Z" fill="black"/>
<path d="M14.8319 37.2217H7.41211V44.6691H14.8319V37.2217Z" fill="#8D5F10"/>
<path d="M14.8319 29.7822H7.41211V37.222H14.8319V29.7822Z" fill="#8D5F10"/>
<path d="M7.41223 37.2217H0V44.6691H7.41223V37.2217Z" fill="#8D5F10"/>
</g>
<defs>
<clipPath id="clip0_867:75781">
<rect width="89" height="134" fill="white"/>
</clipPath>
</defs>
</svg>
