<svg xmlns="http://www.w3.org/2000/svg" width="220" height=" 198.87" viewBox="0 0 229 198.87"><polygon points="174.77 96.42 174.77 102.45 174.77 108.47 180.79 108.47 180.79 102.45 180.79 96.42 174.77 96.42" fill="#685f2a"/><polygon points="216.95 54.23 210.92 54.23 204.9 54.23 198.87 54.23 192.84 54.23 186.82 54.23 180.79 54.23 174.77 54.23 174.77 60.26 174.77 66.29 180.79 66.29 180.79 72.31 180.79 78.34 180.79 84.37 180.79 90.39 186.82 90.39 192.84 90.39 198.87 90.39 204.9 90.39 210.92 90.39 216.95 90.39 216.95 84.37 222.97 84.37 222.97 78.34 222.97 72.31 222.97 66.29 222.97 60.26 222.97 54.23 216.95 54.23" fill="#5c8e06"/><polygon points="222.97 96.42 216.95 96.42 210.92 96.42 204.9 96.42 198.87 96.42 192.84 96.42 186.82 96.42 180.79 96.42 180.79 102.45 180.79 108.47 186.82 108.47 186.82 114.5 186.82 120.53 192.84 120.53 198.87 120.53 204.9 120.53 210.92 120.53 216.95 120.53 222.97 120.53 229 120.53 229 114.5 229 108.47 229 102.45 229 96.42 222.97 96.42" fill="#c6c624"/><polygon points="216.95 126.55 210.92 126.55 204.9 126.55 198.87 126.55 192.84 126.55 186.82 126.55 186.82 132.58 186.82 138.61 186.82 144.63 192.84 144.63 192.84 150.66 192.84 156.69 198.87 156.69 204.9 156.69 210.92 156.69 216.95 156.69 222.97 156.69 229 156.69 229 150.66 229 144.63 229 138.61 229 132.58 229 126.55 222.97 126.55 216.95 126.55" fill="#c6c624"/><polygon points="186.82 48.21 192.84 48.21 198.87 48.21 204.9 48.21 210.92 48.21 216.95 48.21 222.97 48.21 222.97 42.18 222.97 36.15 216.95 36.15 216.95 30.13 210.92 30.13 210.92 24.1 204.9 24.1 198.87 24.1 192.84 24.1 186.82 24.1 180.79 24.1 174.77 24.1 174.77 30.13 174.77 36.15 174.77 42.18 174.77 48.21 180.79 48.21 186.82 48.21" fill="#c6c624"/><polygon points="186.82 18.08 192.84 18.08 198.87 18.08 204.9 18.08 204.9 12.05 204.9 6.02 198.87 6.02 192.84 6.02 192.84 0 186.82 0 180.79 0 174.77 0 174.77 6.02 174.77 12.05 174.77 18.08 180.79 18.08 186.82 18.08" fill="#c6c624"/><polygon points="174.77 66.29 174.77 60.26 174.77 54.23 168.74 54.23 168.74 60.26 168.74 66.29 168.74 72.31 168.74 78.34 168.74 84.37 168.74 90.39 168.74 96.42 174.77 96.42 180.79 96.42 180.79 90.39 180.79 84.37 180.79 78.34 180.79 72.31 180.79 66.29 174.77 66.29" fill="#466012"/><polygon points="156.69 72.31 150.66 72.31 144.63 72.31 138.61 72.31 132.58 72.31 132.58 66.29 132.58 60.26 126.55 60.26 126.55 66.29 126.55 72.31 126.55 78.34 126.55 84.37 126.55 90.39 132.58 90.39 132.58 84.37 138.61 84.37 144.63 84.37 144.63 78.34 150.66 78.34 156.69 78.34 162.71 78.34 162.71 72.31 156.69 72.31" fill="#efefef"/><polygon points="96.42 66.29 96.42 72.31 96.42 78.34 96.42 84.37 96.42 90.39 96.42 96.42 102.45 96.42 102.45 90.39 102.45 84.37 102.45 78.34 102.45 72.31 102.45 66.29 102.45 60.26 96.42 60.26 96.42 66.29" fill="#efefef"/><rect x="84.37" y="162.71" width="6.03" height="6.03" fill="#738254"/><polygon points="168.74 96.42 162.71 96.42 156.69 96.42 150.66 96.42 144.63 96.42 138.61 96.42 132.58 96.42 126.55 96.42 120.53 96.42 114.5 96.42 108.47 96.42 102.45 96.42 96.42 96.42 90.39 96.42 84.37 96.42 78.34 96.42 78.34 102.45 84.37 102.45 84.37 108.47 90.39 108.47 96.42 108.47 102.45 108.47 108.47 108.47 114.5 108.47 120.53 108.47 126.55 108.47 132.58 108.47 138.61 108.47 144.63 108.47 150.66 108.47 156.69 108.47 162.71 108.47 168.74 108.47 174.77 108.47 174.77 102.45 174.77 96.42 168.74 96.42" fill="#3b5116"/><polygon points="84.37 138.61 78.34 138.61 78.34 144.63 78.34 150.66 78.34 156.69 78.34 162.71 72.31 162.71 66.29 162.71 60.26 162.71 54.23 162.71 54.23 168.74 60.26 168.74 66.29 168.74 72.31 168.74 78.34 168.74 84.37 168.74 84.37 162.71 90.39 162.71 90.39 156.69 90.39 150.66 90.39 144.63 84.37 144.63 84.37 138.61" fill="#3b5116"/><rect x="48.21" y="162.71" width="6.02" height="6.03" fill="#738254"/><path d="M162.71,54.23H84.37v6h-6v6h-6V84.37h-6v6h6v6H96.42V60.26h6V96.42h66.29V54.23Zm0,24.11H144.63v6h-12v6h-6V60.26h6V72.31h30.13Z" fill="#fff"/><polygon points="72.31 132.58 66.29 132.58 66.29 126.55 60.26 126.55 60.26 132.58 54.23 132.58 54.23 138.61 48.21 138.61 48.21 144.63 48.21 150.66 48.21 156.69 48.21 162.71 54.23 162.71 60.26 162.71 66.29 162.71 72.31 162.71 78.34 162.71 78.34 156.69 78.34 150.66 78.34 144.63 78.34 138.61 72.31 138.61 72.31 132.58" fill="#fff"/><polygon points="222.97 168.74 222.97 162.71 216.95 162.71 210.92 162.71 204.9 162.71 198.87 162.71 192.84 162.71 192.84 168.74 186.82 168.74 186.82 174.77 192.84 174.77 192.84 180.79 198.87 180.79 198.87 186.82 198.87 192.84 204.9 192.84 210.92 192.84 216.95 192.84 222.97 192.84 222.97 186.82 229 186.82 229 180.79 229 174.77 229 168.74 222.97 168.74" fill="#4c6821"/><polygon points="186.82 180.79 180.79 180.79 180.79 174.77 174.77 174.77 174.77 168.74 168.74 168.74 162.71 168.74 156.69 168.74 150.66 168.74 144.63 168.74 138.61 168.74 132.58 168.74 126.55 168.74 120.53 168.74 114.5 168.74 108.47 168.74 102.45 168.74 96.42 168.74 90.39 168.74 84.37 168.74 78.34 168.74 72.31 168.74 66.29 168.74 60.26 168.74 54.23 168.74 48.21 168.74 42.18 168.74 36.16 168.74 36.16 174.77 30.13 174.77 30.13 180.79 24.1 180.79 24.1 186.82 24.1 192.84 24.1 198.87 30.13 198.87 36.16 198.87 42.18 198.87 48.21 198.87 54.23 198.87 60.26 198.87 66.29 198.87 72.31 198.87 78.34 198.87 84.37 198.87 90.39 198.87 96.42 198.87 102.45 198.87 108.47 198.87 114.5 198.87 120.53 198.87 126.55 198.87 132.58 198.87 138.61 198.87 144.63 198.87 150.66 198.87 156.69 198.87 162.71 198.87 168.74 198.87 174.77 198.87 180.79 198.87 186.82 198.87 192.84 198.87 192.84 192.84 192.84 186.82 186.82 186.82 186.82 180.79" fill="#4c6821"/><polygon points="90.39 156.69 90.39 162.71 96.42 162.71 102.45 162.71 108.47 162.71 114.5 162.71 120.53 162.71 126.55 162.71 132.58 162.71 138.61 162.71 144.63 162.71 150.66 162.71 156.69 162.71 162.71 162.71 168.74 162.71 174.77 162.71 180.79 162.71 186.82 162.71 186.82 156.69 180.79 156.69 180.79 150.66 180.79 144.63 180.79 138.61 174.77 138.61 174.77 132.58 168.74 132.58 162.71 132.58 156.69 132.58 150.66 132.58 144.63 132.58 138.61 132.58 132.58 132.58 126.55 132.58 120.53 132.58 114.5 132.58 108.47 132.58 102.45 132.58 96.42 132.58 90.39 132.58 84.37 132.58 78.34 132.58 72.31 132.58 72.31 138.61 78.34 138.61 84.37 138.61 84.37 144.63 90.39 144.63 90.39 150.66 90.39 156.69" fill="#4c6821"/><polygon points="90.39 54.23 96.42 54.23 102.45 54.23 108.47 54.23 114.5 54.23 120.53 54.23 126.55 54.23 132.58 54.23 138.61 54.23 144.63 54.23 150.66 54.23 156.69 54.23 162.71 54.23 162.71 48.21 168.74 48.21 168.74 42.18 168.74 36.15 168.74 30.13 168.74 24.1 162.71 24.1 156.69 24.1 150.66 24.1 144.63 24.1 138.61 24.1 132.58 24.1 126.55 24.1 120.53 24.1 120.53 30.13 114.5 30.13 108.47 30.13 102.45 30.13 102.45 36.15 96.42 36.15 90.39 36.15 90.39 42.18 84.37 42.18 84.37 48.21 78.34 48.21 78.34 54.23 84.37 54.23 90.39 54.23" fill="#4c6821"/><polygon points="66.29 126.55 72.31 126.55 78.34 126.55 84.37 126.55 90.39 126.55 96.42 126.55 102.45 126.55 108.47 126.55 114.5 126.55 120.53 126.55 126.55 126.55 132.58 126.55 138.61 126.55 144.63 126.55 150.66 126.55 156.69 126.55 162.71 126.55 168.74 126.55 174.77 126.55 180.79 126.55 180.79 120.53 180.79 114.5 174.77 114.5 174.77 108.47 168.74 108.47 162.71 108.47 156.69 108.47 150.66 108.47 144.63 108.47 138.61 108.47 132.58 108.47 126.55 108.47 120.53 108.47 114.5 108.47 108.47 108.47 102.45 108.47 96.42 108.47 90.39 108.47 84.37 108.47 84.37 102.45 78.34 102.45 72.31 102.45 66.29 102.45 66.29 108.47 60.26 108.47 60.26 114.5 54.23 114.5 54.23 120.53 54.23 126.55 60.26 126.55 66.29 126.55" fill="#4c6821"/><rect x="48.21" y="132.58" width="6.02" height="6.03" fill="#4c6821"/><polygon points="42.18 162.71 48.21 162.71 48.21 156.69 48.21 150.66 48.21 144.63 48.21 138.61 42.18 138.61 42.18 144.63 36.16 144.63 36.16 150.66 36.16 156.69 30.13 156.69 30.13 162.71 36.16 162.71 42.18 162.71" fill="#4c6821"/><polygon points="216.95 90.39 210.92 90.39 204.9 90.39 198.87 90.39 192.84 90.39 186.82 90.39 180.79 90.39 180.79 96.42 186.82 96.42 192.84 96.42 198.87 96.42 204.9 96.42 210.92 96.42 216.95 96.42 222.97 96.42 222.97 90.39 222.97 84.37 216.95 84.37 216.95 90.39" fill="#99a583"/><polygon points="186.82 132.58 186.82 126.55 192.84 126.55 198.87 126.55 204.9 126.55 210.92 126.55 216.95 126.55 222.97 126.55 229 126.55 229 120.53 222.97 120.53 216.95 120.53 210.92 120.53 204.9 120.53 198.87 120.53 192.84 120.53 186.82 120.53 186.82 114.5 186.82 108.47 180.79 108.47 174.77 108.47 174.77 114.5 180.79 114.5 180.79 120.53 180.79 126.55 174.77 126.55 168.74 126.55 162.71 126.55 156.69 126.55 150.66 126.55 144.63 126.55 138.61 126.55 132.58 126.55 126.55 126.55 120.53 126.55 114.5 126.55 108.47 126.55 102.45 126.55 96.42 126.55 90.39 126.55 84.37 126.55 78.34 126.55 72.31 126.55 66.29 126.55 66.29 132.58 72.31 132.58 78.34 132.58 84.37 132.58 90.39 132.58 96.42 132.58 102.45 132.58 108.47 132.58 114.5 132.58 120.53 132.58 126.55 132.58 132.58 132.58 138.61 132.58 144.63 132.58 150.66 132.58 156.69 132.58 162.71 132.58 168.74 132.58 174.77 132.58 174.77 138.61 180.79 138.61 180.79 144.63 180.79 150.66 180.79 156.69 186.82 156.69 186.82 162.71 180.79 162.71 174.77 162.71 168.74 162.71 162.71 162.71 156.69 162.71 150.66 162.71 144.63 162.71 138.61 162.71 132.58 162.71 126.55 162.71 120.53 162.71 114.5 162.71 108.47 162.71 102.45 162.71 96.42 162.71 90.39 162.71 90.39 168.74 96.42 168.74 102.45 168.74 108.47 168.74 114.5 168.74 120.53 168.74 126.55 168.74 132.58 168.74 138.61 168.74 144.63 168.74 150.66 168.74 156.69 168.74 162.71 168.74 168.74 168.74 174.77 168.74 174.77 174.77 180.79 174.77 180.79 180.79 186.82 180.79 186.82 186.82 192.84 186.82 192.84 192.84 192.84 198.87 198.87 198.87 204.9 198.87 210.92 198.87 216.95 198.87 222.97 198.87 222.97 192.84 216.95 192.84 210.92 192.84 204.9 192.84 198.87 192.84 198.87 186.82 198.87 180.79 192.84 180.79 192.84 174.77 186.82 174.77 186.82 168.74 192.84 168.74 192.84 162.71 198.87 162.71 204.9 162.71 210.92 162.71 216.95 162.71 222.97 162.71 222.97 168.74 229 168.74 229 162.71 229 156.69 222.97 156.69 216.95 156.69 210.92 156.69 204.9 156.69 198.87 156.69 192.84 156.69 192.84 150.66 192.84 144.63 186.82 144.63 186.82 138.61 186.82 132.58" fill="#99a583"/><polygon points="114.5 30.13 120.53 30.13 120.53 24.1 126.55 24.1 132.58 24.1 138.61 24.1 144.63 24.1 150.66 24.1 156.69 24.1 162.71 24.1 168.74 24.1 168.74 30.13 168.74 36.15 168.74 42.18 168.74 48.21 162.71 48.21 162.71 54.23 168.74 54.23 174.77 54.23 180.79 54.23 186.82 54.23 192.84 54.23 198.87 54.23 204.9 54.23 210.92 54.23 216.95 54.23 222.97 54.23 222.97 48.21 216.95 48.21 210.92 48.21 204.9 48.21 198.87 48.21 192.84 48.21 186.82 48.21 180.79 48.21 174.77 48.21 174.77 42.18 174.77 36.15 174.77 30.13 174.77 24.1 180.79 24.1 186.82 24.1 192.84 24.1 198.87 24.1 204.9 24.1 204.9 18.08 198.87 18.08 192.84 18.08 186.82 18.08 180.79 18.08 174.77 18.08 174.77 12.05 174.77 6.02 174.77 0 168.74 0 168.74 6.02 168.74 12.05 168.74 18.08 162.71 18.08 156.69 18.08 150.66 18.08 144.63 18.08 138.61 18.08 132.58 18.08 126.55 18.08 120.53 18.08 114.5 18.08 114.5 24.1 108.47 24.1 102.45 24.1 102.45 30.13 108.47 30.13 114.5 30.13" fill="#99a583"/><rect x="66.29" y="78.34" width="6.02" height="6.02" fill="#99a583"/><polygon points="66.29 102.45 72.31 102.45 78.34 102.45 78.34 96.42 72.31 96.42 72.31 90.39 66.29 90.39 60.26 90.39 60.26 96.42 60.26 102.45 54.23 102.45 54.23 108.47 48.21 108.47 48.21 114.5 48.21 120.53 42.18 120.53 42.18 126.55 42.18 132.58 36.16 132.58 36.16 138.61 30.13 138.61 30.13 144.63 30.13 150.66 24.1 150.66 24.1 156.69 24.1 162.71 24.1 168.74 24.1 174.77 18.08 174.77 18.08 180.79 18.08 186.82 18.08 192.84 24.1 192.84 24.1 186.82 24.1 180.79 30.13 180.79 30.13 174.77 36.16 174.77 36.16 168.74 42.18 168.74 48.21 168.74 48.21 162.71 42.18 162.71 36.16 162.71 30.13 162.71 30.13 156.69 36.16 156.69 36.16 150.66 36.16 144.63 42.18 144.63 42.18 138.61 48.21 138.61 48.21 132.58 54.23 132.58 60.26 132.58 60.26 126.55 54.23 126.55 54.23 120.53 54.23 114.5 60.26 114.5 60.26 108.47 66.29 108.47 66.29 102.45" fill="#99a583"/><polygon points="162.71 0 156.69 0 150.66 0 144.63 0 138.61 0 138.61 6.02 132.58 6.02 126.55 6.02 126.55 12.05 120.53 12.05 120.53 18.08 126.55 18.08 132.58 18.08 138.61 18.08 144.63 18.08 150.66 18.08 156.69 18.08 162.71 18.08 168.74 18.08 168.74 12.05 168.74 6.02 168.74 0 162.71 0" fill="#c5ad26"/><polygon points="72.31 54.23 72.31 60.26 66.29 60.26 66.29 66.29 60.26 66.29 60.26 72.31 54.23 72.31 54.23 78.34 48.21 78.34 48.21 84.37 42.18 84.37 42.18 90.39 36.16 90.39 36.16 96.42 30.13 96.42 30.13 102.45 24.1 102.45 24.1 108.47 18.08 108.47 12.05 108.47 12.05 114.5 6.02 114.5 6.02 120.53 0 120.53 0 126.55 0 132.58 0 138.61 0 144.63 0 150.66 0 156.69 0 162.71 0 168.74 6.02 168.74 6.02 174.77 6.02 180.79 6.02 186.82 12.05 186.82 12.05 192.84 18.08 192.84 18.08 186.82 18.08 180.79 18.08 174.77 24.1 174.77 24.1 168.74 24.1 162.71 24.1 156.69 24.1 150.66 30.13 150.66 30.13 144.63 30.13 138.61 36.16 138.61 36.16 132.58 42.18 132.58 42.18 126.55 42.18 120.53 48.21 120.53 48.21 114.5 48.21 108.47 54.23 108.47 54.23 102.45 60.26 102.45 60.26 96.42 60.26 90.39 66.29 90.39 66.29 84.37 66.29 78.34 72.31 78.34 72.31 72.31 72.31 66.29 78.34 66.29 78.34 60.26 84.37 60.26 84.37 54.23 78.34 54.23 72.31 54.23" fill="#c5ad26"/></svg>