<svg width="229" height="199" viewBox="0 0 229 199" fill="none" xmlns="http://www.w3.org/2000/svg">
<g clip-path="url(#clip0_867:76273)">
<path d="M228.999 180.908H222.971V186.941H228.999V180.908Z" fill="#4C6821"/>
<path d="M228.999 174.882H222.971V180.908H228.999V174.882Z" fill="#4C6821"/>
<path d="M228.999 168.849H222.971V174.881H228.999V168.849Z" fill="#4C6821"/>
<path d="M228.999 162.815H222.971V168.848H228.999V162.815Z" fill="#99A583"/>
<path d="M228.999 156.789H222.971V162.816H228.999V156.789Z" fill="#99A583"/>
<path d="M228.999 150.757H222.971V156.79H228.999V150.757Z" fill="#C6C624"/>
<path d="M228.999 144.724H222.971V150.756H228.999V144.724Z" fill="#C6C624"/>
<path d="M228.999 138.697H222.971V144.724H228.999V138.697Z" fill="#C6C624"/>
<path d="M228.999 132.665H222.971V138.698H228.999V132.665Z" fill="#C6C624"/>
<path d="M228.999 126.638H222.971V132.664H228.999V126.638Z" fill="#C6C624"/>
<path d="M228.999 120.605H222.971V126.638H228.999V120.605Z" fill="#99A583"/>
<path d="M228.999 114.572H222.971V120.605H228.999V114.572Z" fill="#C6C624"/>
<path d="M228.999 108.546H222.971V114.572H228.999V108.546Z" fill="#C6C624"/>
<path d="M228.999 102.514H222.971V108.546H228.999V102.514Z" fill="#C6C624"/>
<path d="M228.999 96.4873H222.971V102.514H228.999V96.4873Z" fill="#C6C624"/>
<path d="M222.972 192.967H216.949V199H222.972V192.967Z" fill="#99A583"/>
<path d="M222.972 186.94H216.949V192.967H222.972V186.94Z" fill="#4C6821"/>
<path d="M222.972 180.908H216.949V186.941H222.972V180.908Z" fill="#4C6821"/>
<path d="M222.972 174.882H216.949V180.908H222.972V174.882Z" fill="#4C6821"/>
<path d="M222.972 168.849H216.949V174.881H222.972V168.849Z" fill="#4C6821"/>
<path d="M222.972 162.815H216.949V168.848H222.972V162.815Z" fill="#4C6821"/>
<path d="M222.972 156.789H216.949V162.816H222.972V156.789Z" fill="#99A583"/>
<path d="M222.972 150.757H216.949V156.79H222.972V150.757Z" fill="#C6C624"/>
<path d="M222.972 144.724H216.949V150.756H222.972V144.724Z" fill="#C6C624"/>
<path d="M222.972 138.697H216.949V144.724H222.972V138.697Z" fill="#C6C624"/>
<path d="M222.972 132.665H216.949V138.698H222.972V132.665Z" fill="#C6C624"/>
<path d="M222.972 126.638H216.949V132.664H222.972V126.638Z" fill="#C6C624"/>
<path d="M222.972 120.605H216.949V126.638H222.972V120.605Z" fill="#99A583"/>
<path d="M222.972 114.572H216.949V120.605H222.972V114.572Z" fill="#C6C624"/>
<path d="M222.972 108.546H216.949V114.572H222.972V108.546Z" fill="#C6C624"/>
<path d="M222.972 102.514H216.949V108.546H222.972V102.514Z" fill="#C6C624"/>
<path d="M222.972 96.4873H216.949V102.514H222.972V96.4873Z" fill="#C6C624"/>
<path d="M222.972 90.4541H216.949V96.4868H222.972V90.4541Z" fill="#99A583"/>
<path d="M222.972 84.4209H216.949V90.4536H222.972V84.4209Z" fill="#99A583"/>
<path d="M222.972 78.3945H216.949V84.4211H222.972V78.3945Z" fill="#5C8E06"/>
<path d="M222.972 72.3623H216.949V78.3951H222.972V72.3623Z" fill="#5C8E06"/>
<path d="M222.972 66.335H216.949V72.3615H222.972V66.335Z" fill="#5C8E06"/>
<path d="M222.972 60.3027H216.949V66.3355H222.972V60.3027Z" fill="#5C8E06"/>
<path d="M222.972 54.2695H216.949V60.3023H222.972V54.2695Z" fill="#5C8E06"/>
<path d="M222.972 48.2432H216.949V54.2697H222.972V48.2432Z" fill="#99A583"/>
<path d="M222.972 42.2109H216.949V48.2437H222.972V42.2109Z" fill="#C6C624"/>
<path d="M222.972 36.1777H216.949V42.2105H222.972V36.1777Z" fill="#C6C624"/>
<path d="M216.949 192.967H210.92V199H216.949V192.967Z" fill="#99A583"/>
<path d="M216.949 186.94H210.92V192.967H216.949V186.94Z" fill="#4C6821"/>
<path d="M216.949 180.908H210.92V186.941H216.949V180.908Z" fill="#4C6821"/>
<path d="M216.949 174.882H210.92V180.908H216.949V174.882Z" fill="#4C6821"/>
<path d="M216.949 168.849H210.92V174.881H216.949V168.849Z" fill="#4C6821"/>
<path d="M216.949 162.815H210.92V168.848H216.949V162.815Z" fill="#4C6821"/>
<path d="M216.949 156.789H210.92V162.816H216.949V156.789Z" fill="#99A583"/>
<path d="M216.949 150.757H210.92V156.79H216.949V150.757Z" fill="#C6C624"/>
<path d="M216.949 144.724H210.92V150.756H216.949V144.724Z" fill="#C6C624"/>
<path d="M216.949 138.697H210.92V144.724H216.949V138.697Z" fill="#C6C624"/>
<path d="M216.949 132.665H210.92V138.698H216.949V132.665Z" fill="#C6C624"/>
<path d="M216.949 126.638H210.92V132.664H216.949V126.638Z" fill="#C6C624"/>
<path d="M216.949 120.605H210.92V126.638H216.949V120.605Z" fill="#99A583"/>
<path d="M216.949 114.572H210.92V120.605H216.949V114.572Z" fill="#C6C624"/>
<path d="M216.949 108.546H210.92V114.572H216.949V108.546Z" fill="#C6C624"/>
<path d="M216.949 102.514H210.92V108.546H216.949V102.514Z" fill="#C6C624"/>
<path d="M216.949 96.4873H210.92V102.514H216.949V96.4873Z" fill="#C6C624"/>
<path d="M216.949 90.4541H210.92V96.4868H216.949V90.4541Z" fill="#99A583"/>
<path d="M216.949 84.4209H210.92V90.4536H216.949V84.4209Z" fill="#5C8E06"/>
<path d="M216.949 78.3945H210.92V84.4211H216.949V78.3945Z" fill="#5C8E06"/>
<path d="M216.949 72.3623H210.92V78.3951H216.949V72.3623Z" fill="#5C8E06"/>
<path d="M216.949 66.335H210.92V72.3615H216.949V66.335Z" fill="#5C8E06"/>
<path d="M216.949 60.3027H210.92V66.3355H216.949V60.3027Z" fill="#5C8E06"/>
<path d="M216.949 54.2695H210.92V60.3023H216.949V54.2695Z" fill="#5C8E06"/>
<path d="M216.949 48.2432H210.92V54.2697H216.949V48.2432Z" fill="#99A583"/>
<path d="M216.949 42.2109H210.92V48.2437H216.949V42.2109Z" fill="#C6C624"/>
<path d="M216.949 36.1777H210.92V42.2105H216.949V36.1777Z" fill="#C6C624"/>
<path d="M216.949 30.1514H210.92V36.1779H216.949V30.1514Z" fill="#C6C624"/>
<path d="M210.919 192.967H204.896V199H210.919V192.967Z" fill="#99A583"/>
<path d="M210.919 186.94H204.896V192.967H210.919V186.94Z" fill="#4C6821"/>
<path d="M210.919 180.908H204.896V186.941H210.919V180.908Z" fill="#4C6821"/>
<path d="M210.919 174.882H204.896V180.908H210.919V174.882Z" fill="#4C6821"/>
<path d="M210.919 168.849H204.896V174.881H210.919V168.849Z" fill="#4C6821"/>
<path d="M210.919 162.815H204.896V168.848H210.919V162.815Z" fill="#4C6821"/>
<path d="M210.919 156.789H204.896V162.816H210.919V156.789Z" fill="#99A583"/>
<path d="M210.919 150.757H204.896V156.79H210.919V150.757Z" fill="#C6C624"/>
<path d="M210.919 144.724H204.896V150.756H210.919V144.724Z" fill="#C6C624"/>
<path d="M210.919 138.697H204.896V144.724H210.919V138.697Z" fill="#C6C624"/>
<path d="M210.919 132.665H204.896V138.698H210.919V132.665Z" fill="#C6C624"/>
<path d="M210.919 126.638H204.896V132.664H210.919V126.638Z" fill="#C6C624"/>
<path d="M210.919 120.605H204.896V126.638H210.919V120.605Z" fill="#99A583"/>
<path d="M210.919 114.572H204.896V120.605H210.919V114.572Z" fill="#C6C624"/>
<path d="M210.919 108.546H204.896V114.572H210.919V108.546Z" fill="#C6C624"/>
<path d="M210.919 102.514H204.896V108.546H210.919V102.514Z" fill="#C6C624"/>
<path d="M210.919 96.4873H204.896V102.514H210.919V96.4873Z" fill="#C6C624"/>
<path d="M210.919 90.4541H204.896V96.4868H210.919V90.4541Z" fill="#99A583"/>
<path d="M210.919 84.4209H204.896V90.4536H210.919V84.4209Z" fill="#5C8E06"/>
<path d="M210.919 78.3945H204.896V84.4211H210.919V78.3945Z" fill="#5C8E06"/>
<path d="M210.919 72.3623H204.896V78.3951H210.919V72.3623Z" fill="#5C8E06"/>
<path d="M210.919 66.335H204.896V72.3615H210.919V66.335Z" fill="#5C8E06"/>
<path d="M210.919 60.3027H204.896V66.3355H210.919V60.3027Z" fill="#5C8E06"/>
<path d="M210.919 54.2695H204.896V60.3023H210.919V54.2695Z" fill="#5C8E06"/>
<path d="M210.919 48.2432H204.896V54.2697H210.919V48.2432Z" fill="#99A583"/>
<path d="M210.919 42.2109H204.896V48.2437H210.919V42.2109Z" fill="#C6C624"/>
<path d="M210.919 36.1777H204.896V42.2105H210.919V36.1777Z" fill="#C6C624"/>
<path d="M210.919 30.1514H204.896V36.1779H210.919V30.1514Z" fill="#C6C624"/>
<path d="M210.919 24.1191H204.896V30.1519H210.919V24.1191Z" fill="#C6C624"/>
<path d="M204.898 192.967H198.869V199H204.898V192.967Z" fill="#99A583"/>
<path d="M204.898 186.94H198.869V192.967H204.898V186.94Z" fill="#4C6821"/>
<path d="M204.898 180.908H198.869V186.941H204.898V180.908Z" fill="#4C6821"/>
<path d="M204.898 174.882H198.869V180.908H204.898V174.882Z" fill="#4C6821"/>
<path d="M204.898 168.849H198.869V174.881H204.898V168.849Z" fill="#4C6821"/>
<path d="M204.898 162.815H198.869V168.848H204.898V162.815Z" fill="#4C6821"/>
<path d="M204.898 156.789H198.869V162.816H204.898V156.789Z" fill="#99A583"/>
<path d="M204.898 150.757H198.869V156.79H204.898V150.757Z" fill="#C6C624"/>
<path d="M204.898 144.724H198.869V150.756H204.898V144.724Z" fill="#C6C624"/>
<path d="M204.898 138.697H198.869V144.724H204.898V138.697Z" fill="#C6C624"/>
<path d="M204.898 132.665H198.869V138.698H204.898V132.665Z" fill="#C6C624"/>
<path d="M204.898 126.638H198.869V132.664H204.898V126.638Z" fill="#C6C624"/>
<path d="M204.898 120.605H198.869V126.638H204.898V120.605Z" fill="#99A583"/>
<path d="M204.898 114.572H198.869V120.605H204.898V114.572Z" fill="#C6C624"/>
<path d="M204.898 108.546H198.869V114.572H204.898V108.546Z" fill="#C6C624"/>
<path d="M204.898 102.514H198.869V108.546H204.898V102.514Z" fill="#C6C624"/>
<path d="M204.898 96.4873H198.869V102.514H204.898V96.4873Z" fill="#C6C624"/>
<path d="M204.898 90.4541H198.869V96.4868H204.898V90.4541Z" fill="#99A583"/>
<path d="M204.898 84.4209H198.869V90.4536H204.898V84.4209Z" fill="#5C8E06"/>
<path d="M204.898 78.3945H198.869V84.4211H204.898V78.3945Z" fill="#5C8E06"/>
<path d="M204.898 72.3623H198.869V78.3951H204.898V72.3623Z" fill="#5C8E06"/>
<path d="M204.898 66.335H198.869V72.3615H204.898V66.335Z" fill="#5C8E06"/>
<path d="M204.898 60.3027H198.869V66.3355H204.898V60.3027Z" fill="#5C8E06"/>
<path d="M204.898 54.2695H198.869V60.3023H204.898V54.2695Z" fill="#5C8E06"/>
<path d="M204.898 48.2432H198.869V54.2697H204.898V48.2432Z" fill="#99A583"/>
<path d="M204.898 42.2109H198.869V48.2437H204.898V42.2109Z" fill="#C6C624"/>
<path d="M204.898 36.1777H198.869V42.2105H204.898V36.1777Z" fill="#C6C624"/>
<path d="M204.898 30.1514H198.869V36.1779H204.898V30.1514Z" fill="#C6C624"/>
<path d="M204.898 24.1191H198.869V30.1519H204.898V24.1191Z" fill="#C6C624"/>
<path d="M204.898 18.0918H198.869V24.1184H204.898V18.0918Z" fill="#99A583"/>
<path d="M204.898 12.0596H198.869V18.0923H204.898V12.0596Z" fill="#C6C624"/>
<path d="M204.898 6.02637H198.869V12.0591H204.898V6.02637Z" fill="#C6C624"/>
<path d="M198.869 192.967H192.84V199H198.869V192.967Z" fill="#99A583"/>
<path d="M198.869 186.94H192.84V192.967H198.869V186.94Z" fill="#99A583"/>
<path d="M198.869 180.908H192.84V186.941H198.869V180.908Z" fill="#99A583"/>
<path d="M198.869 174.882H192.84V180.908H198.869V174.882Z" fill="#4C6821"/>
<path d="M198.869 168.849H192.84V174.881H198.869V168.849Z" fill="#4C6821"/>
<path d="M198.869 162.815H192.84V168.848H198.869V162.815Z" fill="#4C6821"/>
<path d="M198.869 156.789H192.84V162.816H198.869V156.789Z" fill="#99A583"/>
<path d="M198.869 150.757H192.84V156.79H198.869V150.757Z" fill="#C6C624"/>
<path d="M198.869 144.724H192.84V150.756H198.869V144.724Z" fill="#C6C624"/>
<path d="M198.869 138.697H192.84V144.724H198.869V138.697Z" fill="#C6C624"/>
<path d="M198.869 132.665H192.84V138.698H198.869V132.665Z" fill="#C6C624"/>
<path d="M198.869 126.638H192.84V132.664H198.869V126.638Z" fill="#C6C624"/>
<path d="M198.869 120.605H192.84V126.638H198.869V120.605Z" fill="#99A583"/>
<path d="M198.869 114.572H192.84V120.605H198.869V114.572Z" fill="#C6C624"/>
<path d="M198.869 108.546H192.84V114.572H198.869V108.546Z" fill="#C6C624"/>
<path d="M198.869 102.514H192.84V108.546H198.869V102.514Z" fill="#C6C624"/>
<path d="M198.869 96.4873H192.84V102.514H198.869V96.4873Z" fill="#C6C624"/>
<path d="M198.869 90.4541H192.84V96.4868H198.869V90.4541Z" fill="#99A583"/>
<path d="M198.869 84.4209H192.84V90.4536H198.869V84.4209Z" fill="#5C8E06"/>
<path d="M198.869 78.3945H192.84V84.4211H198.869V78.3945Z" fill="#5C8E06"/>
<path d="M198.869 72.3623H192.84V78.3951H198.869V72.3623Z" fill="#5C8E06"/>
<path d="M198.869 66.335H192.84V72.3615H198.869V66.335Z" fill="#5C8E06"/>
<path d="M198.869 60.3027H192.84V66.3355H198.869V60.3027Z" fill="#5C8E06"/>
<path d="M198.869 54.2695H192.84V60.3023H198.869V54.2695Z" fill="#5C8E06"/>
<path d="M198.869 48.2432H192.84V54.2697H198.869V48.2432Z" fill="#99A583"/>
<path d="M198.869 42.2109H192.84V48.2437H198.869V42.2109Z" fill="#C6C624"/>
<path d="M198.869 36.1777H192.84V42.2105H198.869V36.1777Z" fill="#C6C624"/>
<path d="M198.869 30.1514H192.84V36.1779H198.869V30.1514Z" fill="#C6C624"/>
<path d="M198.869 24.1191H192.84V30.1519H198.869V24.1191Z" fill="#C6C624"/>
<path d="M198.869 18.0918H192.84V24.1184H198.869V18.0918Z" fill="#99A583"/>
<path d="M198.869 12.0596H192.84V18.0923H198.869V12.0596Z" fill="#C6C624"/>
<path d="M198.869 6.02637H192.84V12.0591H198.869V6.02637Z" fill="#C6C624"/>
<path d="M192.839 192.967H186.816V199H192.839V192.967Z" fill="#4C6821"/>
<path d="M192.839 186.94H186.816V192.967H192.839V186.94Z" fill="#4C6821"/>
<path d="M192.839 180.908H186.816V186.941H192.839V180.908Z" fill="#99A583"/>
<path d="M192.839 174.882H186.816V180.908H192.839V174.882Z" fill="#99A583"/>
<path d="M192.839 168.849H186.816V174.881H192.839V168.849Z" fill="#4C6821"/>
<path d="M192.839 162.815H186.816V168.848H192.839V162.815Z" fill="#99A583"/>
<path d="M192.839 156.789H186.816V162.816H192.839V156.789Z" fill="#99A583"/>
<path d="M192.839 150.757H186.816V156.79H192.839V150.757Z" fill="#99A583"/>
<path d="M192.839 144.724H186.816V150.756H192.839V144.724Z" fill="#99A583"/>
<path d="M192.839 138.697H186.816V144.724H192.839V138.697Z" fill="#C6C624"/>
<path d="M192.839 132.665H186.816V138.698H192.839V132.665Z" fill="#C6C624"/>
<path d="M192.839 126.638H186.816V132.664H192.839V126.638Z" fill="#C6C624"/>
<path d="M192.839 120.605H186.816V126.638H192.839V120.605Z" fill="#99A583"/>
<path d="M192.839 114.572H186.816V120.605H192.839V114.572Z" fill="#C6C624"/>
<path d="M192.839 108.546H186.816V114.572H192.839V108.546Z" fill="#C6C624"/>
<path d="M192.839 102.514H186.816V108.546H192.839V102.514Z" fill="#C6C624"/>
<path d="M192.839 96.4873H186.816V102.514H192.839V96.4873Z" fill="#C6C624"/>
<path d="M192.839 90.4541H186.816V96.4868H192.839V90.4541Z" fill="#99A583"/>
<path d="M192.839 84.4209H186.816V90.4536H192.839V84.4209Z" fill="#5C8E06"/>
<path d="M192.839 78.3945H186.816V84.4211H192.839V78.3945Z" fill="#5C8E06"/>
<path d="M192.839 72.3623H186.816V78.3951H192.839V72.3623Z" fill="#5C8E06"/>
<path d="M192.839 66.335H186.816V72.3615H192.839V66.335Z" fill="#5C8E06"/>
<path d="M192.839 60.3027H186.816V66.3355H192.839V60.3027Z" fill="#5C8E06"/>
<path d="M192.839 54.2695H186.816V60.3023H192.839V54.2695Z" fill="#5C8E06"/>
<path d="M192.839 48.2432H186.816V54.2697H192.839V48.2432Z" fill="#99A583"/>
<path d="M192.839 42.2109H186.816V48.2437H192.839V42.2109Z" fill="#C6C624"/>
<path d="M192.839 36.1777H186.816V42.2105H192.839V36.1777Z" fill="#C6C624"/>
<path d="M192.839 30.1514H186.816V36.1779H192.839V30.1514Z" fill="#C6C624"/>
<path d="M192.839 24.1191H186.816V30.1519H192.839V24.1191Z" fill="#C6C624"/>
<path d="M192.839 18.0918H186.816V24.1184H192.839V18.0918Z" fill="#99A583"/>
<path d="M192.839 12.0596H186.816V18.0923H192.839V12.0596Z" fill="#C6C624"/>
<path d="M192.839 6.02637H186.816V12.0591H192.839V6.02637Z" fill="#C6C624"/>
<path d="M192.839 0H186.816V6.02656H192.839V0Z" fill="#C6C624"/>
<path d="M186.818 192.967H180.789V199H186.818V192.967Z" fill="#4C6821"/>
<path d="M186.818 186.94H180.789V192.967H186.818V186.94Z" fill="#4C6821"/>
<path d="M186.818 180.908H180.789V186.941H186.818V180.908Z" fill="#4C6821"/>
<path d="M186.818 174.882H180.789V180.908H186.818V174.882Z" fill="#99A583"/>
<path d="M186.818 168.849H180.789V174.881H186.818V168.849Z" fill="#99A583"/>
<path d="M186.818 162.815H180.789V168.848H186.818V162.815Z" fill="#99A583"/>
<path d="M186.818 156.789H180.789V162.816H186.818V156.789Z" fill="#4C6821"/>
<path d="M186.818 150.757H180.789V156.79H186.818V150.757Z" fill="#99A583"/>
<path d="M186.818 144.724H180.789V150.756H186.818V144.724Z" fill="#99A583"/>
<path d="M186.818 138.697H180.789V144.724H186.818V138.697Z" fill="#99A583"/>
<path d="M186.818 132.665H180.789V138.698H186.818V132.665Z" fill="#99A583"/>
<path d="M186.818 126.638H180.789V132.664H186.818V126.638Z" fill="#99A583"/>
<path d="M186.818 120.605H180.789V126.638H186.818V120.605Z" fill="#99A583"/>
<path d="M186.818 114.572H180.789V120.605H186.818V114.572Z" fill="#99A583"/>
<path d="M186.818 108.546H180.789V114.572H186.818V108.546Z" fill="#99A583"/>
<path d="M186.818 102.514H180.789V108.546H186.818V102.514Z" fill="#C6C624"/>
<path d="M186.818 96.4873H180.789V102.514H186.818V96.4873Z" fill="#C6C624"/>
<path d="M186.818 90.4541H180.789V96.4868H186.818V90.4541Z" fill="#99A583"/>
<path d="M186.818 84.4209H180.789V90.4536H186.818V84.4209Z" fill="#5C8E06"/>
<path d="M186.818 78.3945H180.789V84.4211H186.818V78.3945Z" fill="#5C8E06"/>
<path d="M186.818 72.3623H180.789V78.3951H186.818V72.3623Z" fill="#5C8E06"/>
<path d="M186.818 66.335H180.789V72.3615H186.818V66.335Z" fill="#5C8E06"/>
<path d="M186.818 60.3027H180.789V66.3355H186.818V60.3027Z" fill="#5C8E06"/>
<path d="M186.818 54.2695H180.789V60.3023H186.818V54.2695Z" fill="#5C8E06"/>
<path d="M186.818 48.2432H180.789V54.2697H186.818V48.2432Z" fill="#99A583"/>
<path d="M186.818 42.2109H180.789V48.2437H186.818V42.2109Z" fill="#C6C624"/>
<path d="M186.818 36.1777H180.789V42.2105H186.818V36.1777Z" fill="#C6C624"/>
<path d="M186.818 30.1514H180.789V36.1779H186.818V30.1514Z" fill="#C6C624"/>
<path d="M186.818 24.1191H180.789V30.1519H186.818V24.1191Z" fill="#C6C624"/>
<path d="M186.818 18.0918H180.789V24.1184H186.818V18.0918Z" fill="#99A583"/>
<path d="M186.818 12.0596H180.789V18.0923H186.818V12.0596Z" fill="#C6C624"/>
<path d="M186.818 6.02637H180.789V12.0591H186.818V6.02637Z" fill="#C6C624"/>
<path d="M186.818 0H180.789V6.02656H186.818V0Z" fill="#C6C624"/>
<path d="M180.788 192.967H174.766V199H180.788V192.967Z" fill="#4C6821"/>
<path d="M180.788 186.94H174.766V192.967H180.788V186.94Z" fill="#4C6821"/>
<path d="M180.788 180.908H174.766V186.941H180.788V180.908Z" fill="#4C6821"/>
<path d="M180.788 174.882H174.766V180.908H180.788V174.882Z" fill="#4C6821"/>
<path d="M180.788 168.849H174.766V174.881H180.788V168.849Z" fill="#99A583"/>
<path d="M180.788 162.815H174.766V168.848H180.788V162.815Z" fill="#99A583"/>
<path d="M180.788 156.789H174.766V162.816H180.788V156.789Z" fill="#4C6821"/>
<path d="M180.788 150.757H174.766V156.79H180.788V150.757Z" fill="#4C6821"/>
<path d="M180.788 144.724H174.766V150.756H180.788V144.724Z" fill="#4C6821"/>
<path d="M180.788 138.697H174.766V144.724H180.788V138.697Z" fill="#4C6821"/>
<path d="M180.788 132.665H174.766V138.698H180.788V132.665Z" fill="#99A583"/>
<path d="M180.788 126.638H174.766V132.664H180.788V126.638Z" fill="#99A583"/>
<path d="M180.788 120.605H174.766V126.638H180.788V120.605Z" fill="#4C6821"/>
<path d="M180.788 114.572H174.766V120.605H180.788V114.572Z" fill="#4C6821"/>
<path d="M180.788 108.546H174.766V114.572H180.788V108.546Z" fill="#99A583"/>
<path d="M180.788 102.514H174.766V108.546H180.788V102.514Z" fill="#979701"/>
<path d="M180.788 96.4873H174.766V102.514H180.788V96.4873Z" fill="#979701"/>
<path d="M180.788 90.4541H174.766V96.4868H180.788V90.4541Z" fill="#466012"/>
<path d="M180.788 84.4209H174.766V90.4536H180.788V84.4209Z" fill="#466012"/>
<path d="M180.788 78.3945H174.766V84.4211H180.788V78.3945Z" fill="#466012"/>
<path d="M180.788 72.3623H174.766V78.3951H180.788V72.3623Z" fill="#466012"/>
<path d="M180.788 66.335H174.766V72.3615H180.788V66.335Z" fill="#466012"/>
<path d="M180.788 60.3027H174.766V66.3355H180.788V60.3027Z" fill="#5C8E06"/>
<path d="M180.788 54.2695H174.766V60.3023H180.788V54.2695Z" fill="#5C8E06"/>
<path d="M180.788 48.2432H174.766V54.2697H180.788V48.2432Z" fill="#99A583"/>
<path d="M180.788 42.2109H174.766V48.2437H180.788V42.2109Z" fill="#C6C624"/>
<path d="M180.788 36.1777H174.766V42.2105H180.788V36.1777Z" fill="#C6C624"/>
<path d="M180.788 30.1514H174.766V36.1779H180.788V30.1514Z" fill="#C6C624"/>
<path d="M180.788 24.1191H174.766V30.1519H180.788V24.1191Z" fill="#C6C624"/>
<path d="M180.788 18.0918H174.766V24.1184H180.788V18.0918Z" fill="#99A583"/>
<path d="M180.788 12.0596H174.766V18.0923H180.788V12.0596Z" fill="#C6C624"/>
<path d="M180.788 6.02637H174.766V12.0591H180.788V6.02637Z" fill="#C6C624"/>
<path d="M180.788 0H174.766V6.02656H180.788V0Z" fill="#C6C624"/>
<path d="M174.765 192.967H168.736V199H174.765V192.967Z" fill="#4C6821"/>
<path d="M174.765 186.94H168.736V192.967H174.765V186.94Z" fill="#4C6821"/>
<path d="M174.765 180.908H168.736V186.941H174.765V180.908Z" fill="#4C6821"/>
<path d="M174.765 174.882H168.736V180.908H174.765V174.882Z" fill="#4C6821"/>
<path d="M174.765 168.849H168.736V174.881H174.765V168.849Z" fill="#4C6821"/>
<path d="M174.765 162.815H168.736V168.848H174.765V162.815Z" fill="#99A583"/>
<path d="M174.765 156.789H168.736V162.816H174.765V156.789Z" fill="#4C6821"/>
<path d="M174.765 150.757H168.736V156.79H174.765V150.757Z" fill="#4C6821"/>
<path d="M174.765 144.724H168.736V150.756H174.765V144.724Z" fill="#4C6821"/>
<path d="M174.765 138.697H168.736V144.724H174.765V138.697Z" fill="#4C6821"/>
<path d="M174.765 132.665H168.736V138.698H174.765V132.665Z" fill="#4C6821"/>
<path d="M174.765 126.638H168.736V132.664H174.765V126.638Z" fill="#99A583"/>
<path d="M174.765 120.605H168.736V126.638H174.765V120.605Z" fill="#4C6821"/>
<path d="M174.765 114.572H168.736V120.605H174.765V114.572Z" fill="#4C6821"/>
<path d="M174.765 108.546H168.736V114.572H174.765V108.546Z" fill="#4C6821"/>
<path d="M174.765 102.514H168.736V108.546H174.765V102.514Z" fill="#3B5116"/>
<path d="M174.765 96.4873H168.736V102.514H174.765V96.4873Z" fill="#3B5116"/>
<path d="M174.765 90.4541H168.736V96.4868H174.765V90.4541Z" fill="#466012"/>
<path d="M174.765 84.4209H168.736V90.4536H174.765V84.4209Z" fill="#466012"/>
<path d="M174.765 78.3945H168.736V84.4211H174.765V78.3945Z" fill="#466012"/>
<path d="M174.765 72.3623H168.736V78.3951H174.765V72.3623Z" fill="#466012"/>
<path d="M174.765 66.335H168.736V72.3615H174.765V66.335Z" fill="#466012"/>
<path d="M174.765 60.3027H168.736V66.3355H174.765V60.3027Z" fill="#466012"/>
<path d="M174.765 54.2695H168.736V60.3023H174.765V54.2695Z" fill="#466012"/>
<path d="M174.765 48.2432H168.736V54.2697H174.765V48.2432Z" fill="#99A583"/>
<path d="M174.765 42.2109H168.736V48.2437H174.765V42.2109Z" fill="#99A583"/>
<path d="M174.765 36.1777H168.736V42.2105H174.765V36.1777Z" fill="#99A583"/>
<path d="M174.765 30.1514H168.736V36.1779H174.765V30.1514Z" fill="#99A583"/>
<path d="M174.765 24.1191H168.736V30.1519H174.765V24.1191Z" fill="#99A583"/>
<path d="M174.765 18.0918H168.736V24.1184H174.765V18.0918Z" fill="#99A583"/>
<path d="M174.765 12.0596H168.736V18.0923H174.765V12.0596Z" fill="#99A583"/>
<path d="M174.765 6.02637H168.736V12.0591H174.765V6.02637Z" fill="#99A583"/>
<path d="M174.765 0H168.736V6.02656H174.765V0Z" fill="#99A583"/>
<path d="M168.738 192.967H162.709V199H168.738V192.967Z" fill="#4C6821"/>
<path d="M168.738 186.94H162.709V192.967H168.738V186.94Z" fill="#4C6821"/>
<path d="M168.738 180.908H162.709V186.941H168.738V180.908Z" fill="#4C6821"/>
<path d="M168.738 174.882H162.709V180.908H168.738V174.882Z" fill="#4C6821"/>
<path d="M168.738 168.849H162.709V174.881H168.738V168.849Z" fill="#4C6821"/>
<path d="M168.738 162.815H162.709V168.848H168.738V162.815Z" fill="#99A583"/>
<path d="M168.738 156.789H162.709V162.816H168.738V156.789Z" fill="#4C6821"/>
<path d="M168.738 150.757H162.709V156.79H168.738V150.757Z" fill="#4C6821"/>
<path d="M168.738 144.724H162.709V150.756H168.738V144.724Z" fill="#4C6821"/>
<path d="M168.738 138.697H162.709V144.724H168.738V138.697Z" fill="#4C6821"/>
<path d="M168.738 132.665H162.709V138.698H168.738V132.665Z" fill="#4C6821"/>
<path d="M168.738 126.638H162.709V132.664H168.738V126.638Z" fill="#99A583"/>
<path d="M168.738 120.605H162.709V126.638H168.738V120.605Z" fill="#4C6821"/>
<path d="M168.738 114.572H162.709V120.605H168.738V114.572Z" fill="#4C6821"/>
<path d="M168.738 108.546H162.709V114.572H168.738V108.546Z" fill="#4C6821"/>
<path d="M168.738 102.514H162.709V108.546H168.738V102.514Z" fill="#3B5116"/>
<path d="M168.738 96.4873H162.709V102.514H168.738V96.4873Z" fill="#3B5116"/>
<path d="M168.738 90.4541H162.709V96.4868H168.738V90.4541Z" fill="white"/>
<path d="M168.738 84.4209H162.709V90.4536H168.738V84.4209Z" fill="white"/>
<path d="M168.738 78.3945H162.709V84.4211H168.738V78.3945Z" fill="white"/>
<path d="M168.738 72.3623H162.709V78.3951H168.738V72.3623Z" fill="white"/>
<path d="M168.738 66.335H162.709V72.3615H168.738V66.335Z" fill="white"/>
<path d="M168.738 60.3027H162.709V66.3355H168.738V60.3027Z" fill="white"/>
<path d="M168.738 54.2695H162.709V60.3023H168.738V54.2695Z" fill="white"/>
<path d="M168.738 48.2432H162.709V54.2697H168.738V48.2432Z" fill="#99A583"/>
<path d="M168.738 42.2109H162.709V48.2437H168.738V42.2109Z" fill="#4C6821"/>
<path d="M168.738 36.1777H162.709V42.2105H168.738V36.1777Z" fill="#4C6821"/>
<path d="M168.738 30.1514H162.709V36.1779H168.738V30.1514Z" fill="#4C6821"/>
<path d="M168.738 24.1191H162.709V30.1519H168.738V24.1191Z" fill="#4C6821"/>
<path d="M168.738 18.0918H162.709V24.1184H168.738V18.0918Z" fill="#99A583"/>
<path d="M168.738 12.0596H162.709V18.0923H168.738V12.0596Z" fill="#C5AD26"/>
<path d="M168.738 6.02637H162.709V12.0591H168.738V6.02637Z" fill="#C5AD26"/>
<path d="M168.738 0H162.709V6.02656H168.738V0Z" fill="#C5AD26"/>
<path d="M162.708 192.967H156.686V199H162.708V192.967Z" fill="#4C6821"/>
<path d="M162.708 186.94H156.686V192.967H162.708V186.94Z" fill="#4C6821"/>
<path d="M162.708 180.908H156.686V186.941H162.708V180.908Z" fill="#4C6821"/>
<path d="M162.708 174.882H156.686V180.908H162.708V174.882Z" fill="#4C6821"/>
<path d="M162.708 168.849H156.686V174.881H162.708V168.849Z" fill="#4C6821"/>
<path d="M162.708 162.815H156.686V168.848H162.708V162.815Z" fill="#99A583"/>
<path d="M162.708 156.789H156.686V162.816H162.708V156.789Z" fill="#4C6821"/>
<path d="M162.708 150.757H156.686V156.79H162.708V150.757Z" fill="#4C6821"/>
<path d="M162.708 144.724H156.686V150.756H162.708V144.724Z" fill="#4C6821"/>
<path d="M162.708 138.697H156.686V144.724H162.708V138.697Z" fill="#4C6821"/>
<path d="M162.708 132.665H156.686V138.698H162.708V132.665Z" fill="#4C6821"/>
<path d="M162.708 126.638H156.686V132.664H162.708V126.638Z" fill="#99A583"/>
<path d="M162.708 120.605H156.686V126.638H162.708V120.605Z" fill="#4C6821"/>
<path d="M162.708 114.572H156.686V120.605H162.708V114.572Z" fill="#4C6821"/>
<path d="M162.708 108.546H156.686V114.572H162.708V108.546Z" fill="#4C6821"/>
<path d="M162.708 102.514H156.686V108.546H162.708V102.514Z" fill="#3B5116"/>
<path d="M162.708 96.4873H156.686V102.514H162.708V96.4873Z" fill="#3B5116"/>
<path d="M162.708 90.4541H156.686V96.4868H162.708V90.4541Z" fill="white"/>
<path d="M162.708 84.4209H156.686V90.4536H162.708V84.4209Z" fill="white"/>
<path d="M162.708 78.3945H156.686V84.4211H162.708V78.3945Z" fill="white"/>
<path d="M162.708 72.3623H156.686V78.3951H162.708V72.3623Z" fill="#EFEFEF"/>
<path d="M162.708 66.335H156.686V72.3615H162.708V66.335Z" fill="white"/>
<path d="M162.708 60.3027H156.686V66.3355H162.708V60.3027Z" fill="white"/>
<path d="M162.708 54.2695H156.686V60.3023H162.708V54.2695Z" fill="white"/>
<path d="M162.708 48.2432H156.686V54.2697H162.708V48.2432Z" fill="#4C6821"/>
<path d="M162.708 42.2109H156.686V48.2437H162.708V42.2109Z" fill="#4C6821"/>
<path d="M162.708 36.1777H156.686V42.2105H162.708V36.1777Z" fill="#4C6821"/>
<path d="M162.708 30.1514H156.686V36.1779H162.708V30.1514Z" fill="#4C6821"/>
<path d="M162.708 24.1191H156.686V30.1519H162.708V24.1191Z" fill="#4C6821"/>
<path d="M162.708 18.0918H156.686V24.1184H162.708V18.0918Z" fill="#99A583"/>
<path d="M162.708 12.0596H156.686V18.0923H162.708V12.0596Z" fill="#C5AD26"/>
<path d="M162.708 6.02637H156.686V12.0591H162.708V6.02637Z" fill="#C5AD26"/>
<path d="M162.708 0H156.686V6.02656H162.708V0Z" fill="#C5AD26"/>
<path d="M156.685 192.967H150.656V199H156.685V192.967Z" fill="#4C6821"/>
<path d="M156.685 186.94H150.656V192.967H156.685V186.94Z" fill="#4C6821"/>
<path d="M156.685 180.908H150.656V186.941H156.685V180.908Z" fill="#4C6821"/>
<path d="M156.685 174.882H150.656V180.908H156.685V174.882Z" fill="#4C6821"/>
<path d="M156.685 168.849H150.656V174.881H156.685V168.849Z" fill="#4C6821"/>
<path d="M156.685 162.815H150.656V168.848H156.685V162.815Z" fill="#99A583"/>
<path d="M156.685 156.789H150.656V162.816H156.685V156.789Z" fill="#4C6821"/>
<path d="M156.685 150.757H150.656V156.79H156.685V150.757Z" fill="#4C6821"/>
<path d="M156.685 144.724H150.656V150.756H156.685V144.724Z" fill="#4C6821"/>
<path d="M156.685 138.697H150.656V144.724H156.685V138.697Z" fill="#4C6821"/>
<path d="M156.685 132.665H150.656V138.698H156.685V132.665Z" fill="#4C6821"/>
<path d="M156.685 126.638H150.656V132.664H156.685V126.638Z" fill="#99A583"/>
<path d="M156.685 120.605H150.656V126.638H156.685V120.605Z" fill="#4C6821"/>
<path d="M156.685 114.572H150.656V120.605H156.685V114.572Z" fill="#4C6821"/>
<path d="M156.685 108.546H150.656V114.572H156.685V108.546Z" fill="#4C6821"/>
<path d="M156.685 102.514H150.656V108.546H156.685V102.514Z" fill="#3B5116"/>
<path d="M156.685 96.4873H150.656V102.514H156.685V96.4873Z" fill="#3B5116"/>
<path d="M156.685 90.4541H150.656V96.4868H156.685V90.4541Z" fill="white"/>
<path d="M156.685 84.4209H150.656V90.4536H156.685V84.4209Z" fill="white"/>
<path d="M156.685 78.3945H150.656V84.4211H156.685V78.3945Z" fill="white"/>
<path d="M156.685 72.3623H150.656V78.3951H156.685V72.3623Z" fill="#EFEFEF"/>
<path d="M156.685 66.335H150.656V72.3615H156.685V66.335Z" fill="white"/>
<path d="M156.685 60.3027H150.656V66.3355H156.685V60.3027Z" fill="white"/>
<path d="M156.685 54.2695H150.656V60.3023H156.685V54.2695Z" fill="white"/>
<path d="M156.685 48.2432H150.656V54.2697H156.685V48.2432Z" fill="#4C6821"/>
<path d="M156.685 42.2109H150.656V48.2437H156.685V42.2109Z" fill="#4C6821"/>
<path d="M156.685 36.1777H150.656V42.2105H156.685V36.1777Z" fill="#4C6821"/>
<path d="M156.685 30.1514H150.656V36.1779H156.685V30.1514Z" fill="#4C6821"/>
<path d="M156.685 24.1191H150.656V30.1519H156.685V24.1191Z" fill="#4C6821"/>
<path d="M156.685 18.0918H150.656V24.1184H156.685V18.0918Z" fill="#99A583"/>
<path d="M156.685 12.0596H150.656V18.0923H156.685V12.0596Z" fill="#C5AD26"/>
<path d="M156.685 6.02637H150.656V12.0591H156.685V6.02637Z" fill="#C5AD26"/>
<path d="M156.685 0H150.656V6.02656H156.685V0Z" fill="#C5AD26"/>
<path d="M150.658 192.967H144.629V199H150.658V192.967Z" fill="#4C6821"/>
<path d="M150.658 186.94H144.629V192.967H150.658V186.94Z" fill="#4C6821"/>
<path d="M150.658 180.908H144.629V186.941H150.658V180.908Z" fill="#4C6821"/>
<path d="M150.658 174.882H144.629V180.908H150.658V174.882Z" fill="#4C6821"/>
<path d="M150.658 168.849H144.629V174.881H150.658V168.849Z" fill="#4C6821"/>
<path d="M150.658 162.815H144.629V168.848H150.658V162.815Z" fill="#99A583"/>
<path d="M150.658 156.789H144.629V162.816H150.658V156.789Z" fill="#4C6821"/>
<path d="M150.658 150.757H144.629V156.79H150.658V150.757Z" fill="#4C6821"/>
<path d="M150.658 144.724H144.629V150.756H150.658V144.724Z" fill="#4C6821"/>
<path d="M150.658 138.697H144.629V144.724H150.658V138.697Z" fill="#4C6821"/>
<path d="M150.658 132.665H144.629V138.698H150.658V132.665Z" fill="#4C6821"/>
<path d="M150.658 126.638H144.629V132.664H150.658V126.638Z" fill="#99A583"/>
<path d="M150.658 120.605H144.629V126.638H150.658V120.605Z" fill="#4C6821"/>
<path d="M150.658 114.572H144.629V120.605H150.658V114.572Z" fill="#4C6821"/>
<path d="M150.658 108.546H144.629V114.572H150.658V108.546Z" fill="#4C6821"/>
<path d="M150.658 102.514H144.629V108.546H150.658V102.514Z" fill="#3B5116"/>
<path d="M150.658 96.4873H144.629V102.514H150.658V96.4873Z" fill="#3B5116"/>
<path d="M150.658 90.4541H144.629V96.4868H150.658V90.4541Z" fill="white"/>
<path d="M150.658 84.4209H144.629V90.4536H150.658V84.4209Z" fill="white"/>
<path d="M150.658 78.3945H144.629V84.4211H150.658V78.3945Z" fill="white"/>
<path d="M150.658 72.3623H144.629V78.3951H150.658V72.3623Z" fill="#EFEFEF"/>
<path d="M150.658 66.335H144.629V72.3615H150.658V66.335Z" fill="white"/>
<path d="M150.658 60.3027H144.629V66.3355H150.658V60.3027Z" fill="white"/>
<path d="M150.658 54.2695H144.629V60.3023H150.658V54.2695Z" fill="white"/>
<path d="M150.658 48.2432H144.629V54.2697H150.658V48.2432Z" fill="#4C6821"/>
<path d="M150.658 42.2109H144.629V48.2437H150.658V42.2109Z" fill="#4C6821"/>
<path d="M150.658 36.1777H144.629V42.2105H150.658V36.1777Z" fill="#4C6821"/>
<path d="M150.658 30.1514H144.629V36.1779H150.658V30.1514Z" fill="#4C6821"/>
<path d="M150.658 24.1191H144.629V30.1519H150.658V24.1191Z" fill="#4C6821"/>
<path d="M150.658 18.0918H144.629V24.1184H150.658V18.0918Z" fill="#99A583"/>
<path d="M150.658 12.0596H144.629V18.0923H150.658V12.0596Z" fill="#C5AD26"/>
<path d="M150.658 6.02637H144.629V12.0591H150.658V6.02637Z" fill="#C5AD26"/>
<path d="M150.658 0H144.629V6.02656H150.658V0Z" fill="#C5AD26"/>
<path d="M144.628 192.967H138.605V199H144.628V192.967Z" fill="#4C6821"/>
<path d="M144.628 186.94H138.605V192.967H144.628V186.94Z" fill="#4C6821"/>
<path d="M144.628 180.908H138.605V186.941H144.628V180.908Z" fill="#4C6821"/>
<path d="M144.628 174.882H138.605V180.908H144.628V174.882Z" fill="#4C6821"/>
<path d="M144.628 168.849H138.605V174.881H144.628V168.849Z" fill="#4C6821"/>
<path d="M144.628 162.815H138.605V168.848H144.628V162.815Z" fill="#99A583"/>
<path d="M144.628 156.789H138.605V162.816H144.628V156.789Z" fill="#4C6821"/>
<path d="M144.628 150.757H138.605V156.79H144.628V150.757Z" fill="#4C6821"/>
<path d="M144.628 144.724H138.605V150.756H144.628V144.724Z" fill="#4C6821"/>
<path d="M144.628 138.697H138.605V144.724H144.628V138.697Z" fill="#4C6821"/>
<path d="M144.628 132.665H138.605V138.698H144.628V132.665Z" fill="#4C6821"/>
<path d="M144.628 126.638H138.605V132.664H144.628V126.638Z" fill="#99A583"/>
<path d="M144.628 120.605H138.605V126.638H144.628V120.605Z" fill="#4C6821"/>
<path d="M144.628 114.572H138.605V120.605H144.628V114.572Z" fill="#4C6821"/>
<path d="M144.628 108.546H138.605V114.572H144.628V108.546Z" fill="#4C6821"/>
<path d="M144.628 102.514H138.605V108.546H144.628V102.514Z" fill="#3B5116"/>
<path d="M144.628 96.4873H138.605V102.514H144.628V96.4873Z" fill="#3B5116"/>
<path d="M144.628 90.4541H138.605V96.4868H144.628V90.4541Z" fill="white"/>
<path d="M144.628 84.4209H138.605V90.4536H144.628V84.4209Z" fill="white"/>
<path d="M144.628 78.3945H138.605V84.4211H144.628V78.3945Z" fill="#EFEFEF"/>
<path d="M144.628 72.3623H138.605V78.3951H144.628V72.3623Z" fill="#EFEFEF"/>
<path d="M144.628 66.335H138.605V72.3615H144.628V66.335Z" fill="white"/>
<path d="M144.628 60.3027H138.605V66.3355H144.628V60.3027Z" fill="white"/>
<path d="M144.628 54.2695H138.605V60.3023H144.628V54.2695Z" fill="white"/>
<path d="M144.628 48.2432H138.605V54.2697H144.628V48.2432Z" fill="#4C6821"/>
<path d="M144.628 42.2109H138.605V48.2437H144.628V42.2109Z" fill="#4C6821"/>
<path d="M144.628 36.1777H138.605V42.2105H144.628V36.1777Z" fill="#4C6821"/>
<path d="M144.628 30.1514H138.605V36.1779H144.628V30.1514Z" fill="#4C6821"/>
<path d="M144.628 24.1191H138.605V30.1519H144.628V24.1191Z" fill="#4C6821"/>
<path d="M144.628 18.0918H138.605V24.1184H144.628V18.0918Z" fill="#99A583"/>
<path d="M144.628 12.0596H138.605V18.0923H144.628V12.0596Z" fill="#C5AD26"/>
<path d="M144.628 6.02637H138.605V12.0591H144.628V6.02637Z" fill="#C5AD26"/>
<path d="M144.628 0H138.605V6.02656H144.628V0Z" fill="#C5AD26"/>
<path d="M138.605 192.967H132.576V199H138.605V192.967Z" fill="#4C6821"/>
<path d="M138.605 186.94H132.576V192.967H138.605V186.94Z" fill="#4C6821"/>
<path d="M138.605 180.908H132.576V186.941H138.605V180.908Z" fill="#4C6821"/>
<path d="M138.605 174.882H132.576V180.908H138.605V174.882Z" fill="#4C6821"/>
<path d="M138.605 168.849H132.576V174.881H138.605V168.849Z" fill="#4C6821"/>
<path d="M138.605 162.815H132.576V168.848H138.605V162.815Z" fill="#99A583"/>
<path d="M138.605 156.789H132.576V162.816H138.605V156.789Z" fill="#4C6821"/>
<path d="M138.605 150.757H132.576V156.79H138.605V150.757Z" fill="#4C6821"/>
<path d="M138.605 144.724H132.576V150.756H138.605V144.724Z" fill="#4C6821"/>
<path d="M138.605 138.697H132.576V144.724H138.605V138.697Z" fill="#4C6821"/>
<path d="M138.605 132.665H132.576V138.698H138.605V132.665Z" fill="#4C6821"/>
<path d="M138.605 126.638H132.576V132.664H138.605V126.638Z" fill="#99A583"/>
<path d="M138.605 120.605H132.576V126.638H138.605V120.605Z" fill="#4C6821"/>
<path d="M138.605 114.572H132.576V120.605H138.605V114.572Z" fill="#4C6821"/>
<path d="M138.605 108.546H132.576V114.572H138.605V108.546Z" fill="#4C6821"/>
<path d="M138.605 102.514H132.576V108.546H138.605V102.514Z" fill="#3B5116"/>
<path d="M138.605 96.4873H132.576V102.514H138.605V96.4873Z" fill="#3B5116"/>
<path d="M138.605 90.4541H132.576V96.4868H138.605V90.4541Z" fill="white"/>
<path d="M138.605 84.4209H132.576V90.4536H138.605V84.4209Z" fill="white"/>
<path d="M138.605 78.3945H132.576V84.4211H138.605V78.3945Z" fill="#EFEFEF"/>
<path d="M138.605 72.3623H132.576V78.3951H138.605V72.3623Z" fill="#EFEFEF"/>
<path d="M138.605 66.335H132.576V72.3615H138.605V66.335Z" fill="white"/>
<path d="M138.605 60.3027H132.576V66.3355H138.605V60.3027Z" fill="white"/>
<path d="M138.605 54.2695H132.576V60.3023H138.605V54.2695Z" fill="white"/>
<path d="M138.605 48.2432H132.576V54.2697H138.605V48.2432Z" fill="#4C6821"/>
<path d="M138.605 42.2109H132.576V48.2437H138.605V42.2109Z" fill="#4C6821"/>
<path d="M138.605 36.1777H132.576V42.2105H138.605V36.1777Z" fill="#4C6821"/>
<path d="M138.605 30.1514H132.576V36.1779H138.605V30.1514Z" fill="#4C6821"/>
<path d="M138.605 24.1191H132.576V30.1519H138.605V24.1191Z" fill="#4C6821"/>
<path d="M138.605 18.0918H132.576V24.1184H138.605V18.0918Z" fill="#99A583"/>
<path d="M138.605 12.0596H132.576V18.0923H138.605V12.0596Z" fill="#C5AD26"/>
<path d="M138.605 6.02637H132.576V12.0591H138.605V6.02637Z" fill="#C5AD26"/>
<path d="M132.577 192.967H126.555V199H132.577V192.967Z" fill="#4C6821"/>
<path d="M132.577 186.94H126.555V192.967H132.577V186.94Z" fill="#4C6821"/>
<path d="M132.577 180.908H126.555V186.941H132.577V180.908Z" fill="#4C6821"/>
<path d="M132.577 174.882H126.555V180.908H132.577V174.882Z" fill="#4C6821"/>
<path d="M132.577 168.849H126.555V174.881H132.577V168.849Z" fill="#4C6821"/>
<path d="M132.577 162.815H126.555V168.848H132.577V162.815Z" fill="#99A583"/>
<path d="M132.577 156.789H126.555V162.816H132.577V156.789Z" fill="#4C6821"/>
<path d="M132.577 150.757H126.555V156.79H132.577V150.757Z" fill="#4C6821"/>
<path d="M132.577 144.724H126.555V150.756H132.577V144.724Z" fill="#4C6821"/>
<path d="M132.577 138.697H126.555V144.724H132.577V138.697Z" fill="#4C6821"/>
<path d="M132.577 132.665H126.555V138.698H132.577V132.665Z" fill="#4C6821"/>
<path d="M132.577 126.638H126.555V132.664H132.577V126.638Z" fill="#99A583"/>
<path d="M132.577 120.605H126.555V126.638H132.577V120.605Z" fill="#4C6821"/>
<path d="M132.577 114.572H126.555V120.605H132.577V114.572Z" fill="#4C6821"/>
<path d="M132.577 108.546H126.555V114.572H132.577V108.546Z" fill="#4C6821"/>
<path d="M132.577 102.514H126.555V108.546H132.577V102.514Z" fill="#3B5116"/>
<path d="M132.577 96.4873H126.555V102.514H132.577V96.4873Z" fill="#3B5116"/>
<path d="M132.577 90.4541H126.555V96.4868H132.577V90.4541Z" fill="white"/>
<path d="M132.577 84.4209H126.555V90.4536H132.577V84.4209Z" fill="#EFEFEF"/>
<path d="M132.577 78.3945H126.555V84.4211H132.577V78.3945Z" fill="#EFEFEF"/>
<path d="M132.577 72.3623H126.555V78.3951H132.577V72.3623Z" fill="#EFEFEF"/>
<path d="M132.577 66.335H126.555V72.3615H132.577V66.335Z" fill="#EFEFEF"/>
<path d="M132.577 60.3027H126.555V66.3355H132.577V60.3027Z" fill="#EFEFEF"/>
<path d="M132.577 54.2695H126.555V60.3023H132.577V54.2695Z" fill="white"/>
<path d="M132.577 48.2432H126.555V54.2697H132.577V48.2432Z" fill="#4C6821"/>
<path d="M132.577 42.2109H126.555V48.2437H132.577V42.2109Z" fill="#4C6821"/>
<path d="M132.577 36.1777H126.555V42.2105H132.577V36.1777Z" fill="#4C6821"/>
<path d="M132.577 30.1514H126.555V36.1779H132.577V30.1514Z" fill="#4C6821"/>
<path d="M132.577 24.1191H126.555V30.1519H132.577V24.1191Z" fill="#4C6821"/>
<path d="M132.577 18.0918H126.555V24.1184H132.577V18.0918Z" fill="#99A583"/>
<path d="M132.577 12.0596H126.555V18.0923H132.577V12.0596Z" fill="#C5AD26"/>
<path d="M132.577 6.02637H126.555V12.0591H132.577V6.02637Z" fill="#C5AD26"/>
<path d="M126.554 192.967H120.525V199H126.554V192.967Z" fill="#4C6821"/>
<path d="M126.554 186.94H120.525V192.967H126.554V186.94Z" fill="#4C6821"/>
<path d="M126.554 180.908H120.525V186.941H126.554V180.908Z" fill="#4C6821"/>
<path d="M126.554 174.882H120.525V180.908H126.554V174.882Z" fill="#4C6821"/>
<path d="M126.554 168.849H120.525V174.881H126.554V168.849Z" fill="#4C6821"/>
<path d="M126.554 162.815H120.525V168.848H126.554V162.815Z" fill="#99A583"/>
<path d="M126.554 156.789H120.525V162.816H126.554V156.789Z" fill="#4C6821"/>
<path d="M126.554 150.757H120.525V156.79H126.554V150.757Z" fill="#4C6821"/>
<path d="M126.554 144.724H120.525V150.756H126.554V144.724Z" fill="#4C6821"/>
<path d="M126.554 138.697H120.525V144.724H126.554V138.697Z" fill="#4C6821"/>
<path d="M126.554 132.665H120.525V138.698H126.554V132.665Z" fill="#4C6821"/>
<path d="M126.554 126.638H120.525V132.664H126.554V126.638Z" fill="#99A583"/>
<path d="M126.554 120.605H120.525V126.638H126.554V120.605Z" fill="#4C6821"/>
<path d="M126.554 114.572H120.525V120.605H126.554V114.572Z" fill="#4C6821"/>
<path d="M126.554 108.546H120.525V114.572H126.554V108.546Z" fill="#4C6821"/>
<path d="M126.554 102.514H120.525V108.546H126.554V102.514Z" fill="#3B5116"/>
<path d="M126.554 96.4873H120.525V102.514H126.554V96.4873Z" fill="#3B5116"/>
<path d="M126.554 90.4541H120.525V96.4868H126.554V90.4541Z" fill="white"/>
<path d="M126.554 84.4209H120.525V90.4536H126.554V84.4209Z" fill="white"/>
<path d="M126.554 78.3945H120.525V84.4211H126.554V78.3945Z" fill="white"/>
<path d="M126.554 72.3623H120.525V78.3951H126.554V72.3623Z" fill="white"/>
<path d="M126.554 66.335H120.525V72.3615H126.554V66.335Z" fill="white"/>
<path d="M126.554 60.3027H120.525V66.3355H126.554V60.3027Z" fill="white"/>
<path d="M126.554 54.2695H120.525V60.3023H126.554V54.2695Z" fill="white"/>
<path d="M126.554 48.2432H120.525V54.2697H126.554V48.2432Z" fill="#4C6821"/>
<path d="M126.554 42.2109H120.525V48.2437H126.554V42.2109Z" fill="#4C6821"/>
<path d="M126.554 36.1777H120.525V42.2105H126.554V36.1777Z" fill="#4C6821"/>
<path d="M126.554 30.1514H120.525V36.1779H126.554V30.1514Z" fill="#4C6821"/>
<path d="M126.554 24.1191H120.525V30.1519H126.554V24.1191Z" fill="#4C6821"/>
<path d="M126.554 18.0918H120.525V24.1184H126.554V18.0918Z" fill="#99A583"/>
<path d="M126.554 12.0596H120.525V18.0923H126.554V12.0596Z" fill="#C5AD26"/>
<path d="M120.525 192.967H114.496V199H120.525V192.967Z" fill="#4C6821"/>
<path d="M120.525 186.94H114.496V192.967H120.525V186.94Z" fill="#4C6821"/>
<path d="M120.525 180.908H114.496V186.941H120.525V180.908Z" fill="#4C6821"/>
<path d="M120.525 174.882H114.496V180.908H120.525V174.882Z" fill="#4C6821"/>
<path d="M120.525 168.849H114.496V174.881H120.525V168.849Z" fill="#4C6821"/>
<path d="M120.525 162.815H114.496V168.848H120.525V162.815Z" fill="#99A583"/>
<path d="M120.525 156.789H114.496V162.816H120.525V156.789Z" fill="#4C6821"/>
<path d="M120.525 150.757H114.496V156.79H120.525V150.757Z" fill="#4C6821"/>
<path d="M120.525 144.724H114.496V150.756H120.525V144.724Z" fill="#4C6821"/>
<path d="M120.525 138.697H114.496V144.724H120.525V138.697Z" fill="#4C6821"/>
<path d="M120.525 132.665H114.496V138.698H120.525V132.665Z" fill="#4C6821"/>
<path d="M120.525 126.638H114.496V132.664H120.525V126.638Z" fill="#99A583"/>
<path d="M120.525 120.605H114.496V126.638H120.525V120.605Z" fill="#4C6821"/>
<path d="M120.525 114.572H114.496V120.605H120.525V114.572Z" fill="#4C6821"/>
<path d="M120.525 108.546H114.496V114.572H120.525V108.546Z" fill="#4C6821"/>
<path d="M120.525 102.514H114.496V108.546H120.525V102.514Z" fill="#3B5116"/>
<path d="M120.525 96.4873H114.496V102.514H120.525V96.4873Z" fill="#3B5116"/>
<path d="M120.525 90.4541H114.496V96.4868H120.525V90.4541Z" fill="white"/>
<path d="M120.525 84.4209H114.496V90.4536H120.525V84.4209Z" fill="white"/>
<path d="M120.525 78.3945H114.496V84.4211H120.525V78.3945Z" fill="white"/>
<path d="M120.525 72.3623H114.496V78.3951H120.525V72.3623Z" fill="white"/>
<path d="M120.525 66.335H114.496V72.3615H120.525V66.335Z" fill="white"/>
<path d="M120.525 60.3027H114.496V66.3355H120.525V60.3027Z" fill="white"/>
<path d="M120.525 54.2695H114.496V60.3023H120.525V54.2695Z" fill="white"/>
<path d="M120.525 48.2432H114.496V54.2697H120.525V48.2432Z" fill="#4C6821"/>
<path d="M120.525 42.2109H114.496V48.2437H120.525V42.2109Z" fill="#4C6821"/>
<path d="M120.525 36.1777H114.496V42.2105H120.525V36.1777Z" fill="#4C6821"/>
<path d="M120.525 30.1514H114.496V36.1779H120.525V30.1514Z" fill="#4C6821"/>
<path d="M120.525 24.1191H114.496V30.1519H120.525V24.1191Z" fill="#99A583"/>
<path d="M120.525 18.0918H114.496V24.1184H120.525V18.0918Z" fill="#99A583"/>
<path d="M114.497 192.967H108.475V199H114.497V192.967Z" fill="#4C6821"/>
<path d="M114.497 186.94H108.475V192.967H114.497V186.94Z" fill="#4C6821"/>
<path d="M114.497 180.908H108.475V186.941H114.497V180.908Z" fill="#4C6821"/>
<path d="M114.497 174.882H108.475V180.908H114.497V174.882Z" fill="#4C6821"/>
<path d="M114.497 168.849H108.475V174.881H114.497V168.849Z" fill="#4C6821"/>
<path d="M114.497 162.815H108.475V168.848H114.497V162.815Z" fill="#99A583"/>
<path d="M114.497 156.789H108.475V162.816H114.497V156.789Z" fill="#4C6821"/>
<path d="M114.497 150.757H108.475V156.79H114.497V150.757Z" fill="#4C6821"/>
<path d="M114.497 144.724H108.475V150.756H114.497V144.724Z" fill="#4C6821"/>
<path d="M114.497 138.697H108.475V144.724H114.497V138.697Z" fill="#4C6821"/>
<path d="M114.497 132.665H108.475V138.698H114.497V132.665Z" fill="#4C6821"/>
<path d="M114.497 126.638H108.475V132.664H114.497V126.638Z" fill="#99A583"/>
<path d="M114.497 120.605H108.475V126.638H114.497V120.605Z" fill="#4C6821"/>
<path d="M114.497 114.572H108.475V120.605H114.497V114.572Z" fill="#4C6821"/>
<path d="M114.497 108.546H108.475V114.572H114.497V108.546Z" fill="#4C6821"/>
<path d="M114.497 102.514H108.475V108.546H114.497V102.514Z" fill="#3B5116"/>
<path d="M114.497 96.4873H108.475V102.514H114.497V96.4873Z" fill="#3B5116"/>
<path d="M114.497 90.4541H108.475V96.4868H114.497V90.4541Z" fill="white"/>
<path d="M114.497 84.4209H108.475V90.4536H114.497V84.4209Z" fill="white"/>
<path d="M114.497 78.3945H108.475V84.4211H114.497V78.3945Z" fill="white"/>
<path d="M114.497 72.3623H108.475V78.3951H114.497V72.3623Z" fill="white"/>
<path d="M114.497 66.335H108.475V72.3615H114.497V66.335Z" fill="white"/>
<path d="M114.497 60.3027H108.475V66.3355H114.497V60.3027Z" fill="white"/>
<path d="M114.497 54.2695H108.475V60.3023H114.497V54.2695Z" fill="white"/>
<path d="M114.497 48.2432H108.475V54.2697H114.497V48.2432Z" fill="#4C6821"/>
<path d="M114.497 42.2109H108.475V48.2437H114.497V42.2109Z" fill="#4C6821"/>
<path d="M114.497 36.1777H108.475V42.2105H114.497V36.1777Z" fill="#4C6821"/>
<path d="M114.497 30.1514H108.475V36.1779H114.497V30.1514Z" fill="#4C6821"/>
<path d="M114.497 24.1191H108.475V30.1519H114.497V24.1191Z" fill="#99A583"/>
<path d="M108.474 192.967H102.445V199H108.474V192.967Z" fill="#4C6821"/>
<path d="M108.474 186.94H102.445V192.967H108.474V186.94Z" fill="#4C6821"/>
<path d="M108.474 180.908H102.445V186.941H108.474V180.908Z" fill="#4C6821"/>
<path d="M108.474 174.882H102.445V180.908H108.474V174.882Z" fill="#4C6821"/>
<path d="M108.474 168.849H102.445V174.881H108.474V168.849Z" fill="#4C6821"/>
<path d="M108.474 162.815H102.445V168.848H108.474V162.815Z" fill="#99A583"/>
<path d="M108.474 156.789H102.445V162.816H108.474V156.789Z" fill="#4C6821"/>
<path d="M108.474 150.757H102.445V156.79H108.474V150.757Z" fill="#4C6821"/>
<path d="M108.474 144.724H102.445V150.756H108.474V144.724Z" fill="#4C6821"/>
<path d="M108.474 138.697H102.445V144.724H108.474V138.697Z" fill="#4C6821"/>
<path d="M108.474 132.665H102.445V138.698H108.474V132.665Z" fill="#4C6821"/>
<path d="M108.474 126.638H102.445V132.664H108.474V126.638Z" fill="#99A583"/>
<path d="M108.474 120.605H102.445V126.638H108.474V120.605Z" fill="#4C6821"/>
<path d="M108.474 114.572H102.445V120.605H108.474V114.572Z" fill="#4C6821"/>
<path d="M108.474 108.546H102.445V114.572H108.474V108.546Z" fill="#4C6821"/>
<path d="M108.474 102.514H102.445V108.546H108.474V102.514Z" fill="#3B5116"/>
<path d="M108.474 96.4873H102.445V102.514H108.474V96.4873Z" fill="#3B5116"/>
<path d="M108.474 90.4541H102.445V96.4868H108.474V90.4541Z" fill="white"/>
<path d="M108.474 84.4209H102.445V90.4536H108.474V84.4209Z" fill="white"/>
<path d="M108.474 78.3945H102.445V84.4211H108.474V78.3945Z" fill="white"/>
<path d="M108.474 72.3623H102.445V78.3951H108.474V72.3623Z" fill="white"/>
<path d="M108.474 66.335H102.445V72.3615H108.474V66.335Z" fill="white"/>
<path d="M108.474 60.3027H102.445V66.3355H108.474V60.3027Z" fill="white"/>
<path d="M108.474 54.2695H102.445V60.3023H108.474V54.2695Z" fill="white"/>
<path d="M108.474 48.2432H102.445V54.2697H108.474V48.2432Z" fill="#4C6821"/>
<path d="M108.474 42.2109H102.445V48.2437H108.474V42.2109Z" fill="#4C6821"/>
<path d="M108.474 36.1777H102.445V42.2105H108.474V36.1777Z" fill="#4C6821"/>
<path d="M108.474 30.1514H102.445V36.1779H108.474V30.1514Z" fill="#4C6821"/>
<path d="M108.474 24.1191H102.445V30.1519H108.474V24.1191Z" fill="#99A583"/>
<path d="M102.446 192.967H96.4238V199H102.446V192.967Z" fill="#4C6821"/>
<path d="M102.446 186.94H96.4238V192.967H102.446V186.94Z" fill="#4C6821"/>
<path d="M102.446 180.908H96.4238V186.941H102.446V180.908Z" fill="#4C6821"/>
<path d="M102.446 174.882H96.4238V180.908H102.446V174.882Z" fill="#4C6821"/>
<path d="M102.446 168.849H96.4238V174.881H102.446V168.849Z" fill="#4C6821"/>
<path d="M102.446 162.815H96.4238V168.848H102.446V162.815Z" fill="#99A583"/>
<path d="M102.446 156.789H96.4238V162.816H102.446V156.789Z" fill="#4C6821"/>
<path d="M102.446 150.757H96.4238V156.79H102.446V150.757Z" fill="#4C6821"/>
<path d="M102.446 144.724H96.4238V150.756H102.446V144.724Z" fill="#4C6821"/>
<path d="M102.446 138.697H96.4238V144.724H102.446V138.697Z" fill="#4C6821"/>
<path d="M102.446 132.665H96.4238V138.698H102.446V132.665Z" fill="#4C6821"/>
<path d="M102.446 126.638H96.4238V132.664H102.446V126.638Z" fill="#99A583"/>
<path d="M102.446 120.605H96.4238V126.638H102.446V120.605Z" fill="#4C6821"/>
<path d="M102.446 114.572H96.4238V120.605H102.446V114.572Z" fill="#4C6821"/>
<path d="M102.446 108.546H96.4238V114.572H102.446V108.546Z" fill="#4C6821"/>
<path d="M102.446 102.514H96.4238V108.546H102.446V102.514Z" fill="#3B5116"/>
<path d="M102.446 96.4873H96.4238V102.514H102.446V96.4873Z" fill="#3B5116"/>
<path d="M102.446 90.4541H96.4238V96.4868H102.446V90.4541Z" fill="#EFEFEF"/>
<path d="M102.446 84.4209H96.4238V90.4536H102.446V84.4209Z" fill="#EFEFEF"/>
<path d="M102.446 78.3945H96.4238V84.4211H102.446V78.3945Z" fill="#EFEFEF"/>
<path d="M102.446 72.3623H96.4238V78.3951H102.446V72.3623Z" fill="#EFEFEF"/>
<path d="M102.446 66.335H96.4238V72.3615H102.446V66.335Z" fill="#EFEFEF"/>
<path d="M102.446 60.3027H96.4238V66.3355H102.446V60.3027Z" fill="#EFEFEF"/>
<path d="M102.446 54.2695H96.4238V60.3023H102.446V54.2695Z" fill="white"/>
<path d="M102.446 48.2432H96.4238V54.2697H102.446V48.2432Z" fill="#4C6821"/>
<path d="M102.446 42.2109H96.4238V48.2437H102.446V42.2109Z" fill="#4C6821"/>
<path d="M102.446 36.1777H96.4238V42.2105H102.446V36.1777Z" fill="#4C6821"/>
<path d="M96.4233 192.967H90.3945V199H96.4233V192.967Z" fill="#4C6821"/>
<path d="M96.4233 186.94H90.3945V192.967H96.4233V186.94Z" fill="#4C6821"/>
<path d="M96.4233 180.908H90.3945V186.941H96.4233V180.908Z" fill="#4C6821"/>
<path d="M96.4233 174.882H90.3945V180.908H96.4233V174.882Z" fill="#4C6821"/>
<path d="M96.4233 168.849H90.3945V174.881H96.4233V168.849Z" fill="#4C6821"/>
<path d="M96.4233 162.815H90.3945V168.848H96.4233V162.815Z" fill="#99A583"/>
<path d="M96.4233 156.789H90.3945V162.816H96.4233V156.789Z" fill="#4C6821"/>
<path d="M96.4233 150.757H90.3945V156.79H96.4233V150.757Z" fill="#4C6821"/>
<path d="M96.4233 144.724H90.3945V150.756H96.4233V144.724Z" fill="#4C6821"/>
<path d="M96.4233 138.697H90.3945V144.724H96.4233V138.697Z" fill="#4C6821"/>
<path d="M96.4233 132.665H90.3945V138.698H96.4233V132.665Z" fill="#4C6821"/>
<path d="M96.4233 126.638H90.3945V132.664H96.4233V126.638Z" fill="#99A583"/>
<path d="M96.4233 120.605H90.3945V126.638H96.4233V120.605Z" fill="#4C6821"/>
<path d="M96.4233 114.572H90.3945V120.605H96.4233V114.572Z" fill="#4C6821"/>
<path d="M96.4233 108.546H90.3945V114.572H96.4233V108.546Z" fill="#4C6821"/>
<path d="M96.4233 102.514H90.3945V108.546H96.4233V102.514Z" fill="#3B5116"/>
<path d="M96.4233 96.4873H90.3945V102.514H96.4233V96.4873Z" fill="#3B5116"/>
<path d="M96.4233 90.4541H90.3945V96.4868H96.4233V90.4541Z" fill="white"/>
<path d="M96.4233 84.4209H90.3945V90.4536H96.4233V84.4209Z" fill="white"/>
<path d="M96.4233 78.3945H90.3945V84.4211H96.4233V78.3945Z" fill="white"/>
<path d="M96.4233 72.3623H90.3945V78.3951H96.4233V72.3623Z" fill="white"/>
<path d="M96.4233 66.335H90.3945V72.3615H96.4233V66.335Z" fill="white"/>
<path d="M96.4233 60.3027H90.3945V66.3355H96.4233V60.3027Z" fill="white"/>
<path d="M96.4233 54.2695H90.3945V60.3023H96.4233V54.2695Z" fill="white"/>
<path d="M96.4233 48.2432H90.3945V54.2697H96.4233V48.2432Z" fill="#4C6821"/>
<path d="M96.4233 42.2109H90.3945V48.2437H96.4233V42.2109Z" fill="#4C6821"/>
<path d="M96.4233 36.1777H90.3945V42.2105H96.4233V36.1777Z" fill="#4C6821"/>
<path d="M90.394 192.967H84.3652V199H90.394V192.967Z" fill="#4C6821"/>
<path d="M90.394 186.94H84.3652V192.967H90.394V186.94Z" fill="#4C6821"/>
<path d="M90.394 180.908H84.3652V186.941H90.394V180.908Z" fill="#4C6821"/>
<path d="M90.394 174.882H84.3652V180.908H90.394V174.882Z" fill="#4C6821"/>
<path d="M90.394 168.849H84.3652V174.881H90.394V168.849Z" fill="#4C6821"/>
<path d="M90.394 162.815H84.3652V168.848H90.394V162.815Z" fill="#738254"/>
<path d="M90.394 156.789H84.3652V162.816H90.394V156.789Z" fill="#3B5116"/>
<path d="M90.394 150.757H84.3652V156.79H90.394V150.757Z" fill="#3B5116"/>
<path d="M90.394 144.724H84.3652V150.756H90.394V144.724Z" fill="#3B5116"/>
<path d="M90.394 138.697H84.3652V144.724H90.394V138.697Z" fill="#4C6821"/>
<path d="M90.394 132.665H84.3652V138.698H90.394V132.665Z" fill="#4C6821"/>
<path d="M90.394 126.638H84.3652V132.664H90.394V126.638Z" fill="#99A583"/>
<path d="M90.394 120.605H84.3652V126.638H90.394V120.605Z" fill="#4C6821"/>
<path d="M90.394 114.572H84.3652V120.605H90.394V114.572Z" fill="#4C6821"/>
<path d="M90.394 108.546H84.3652V114.572H90.394V108.546Z" fill="#4C6821"/>
<path d="M90.394 102.514H84.3652V108.546H90.394V102.514Z" fill="#3B5116"/>
<path d="M90.394 96.4873H84.3652V102.514H90.394V96.4873Z" fill="#3B5116"/>
<path d="M90.394 90.4541H84.3652V96.4868H90.394V90.4541Z" fill="white"/>
<path d="M90.394 84.4209H84.3652V90.4536H90.394V84.4209Z" fill="white"/>
<path d="M90.394 78.3945H84.3652V84.4211H90.394V78.3945Z" fill="white"/>
<path d="M90.394 72.3623H84.3652V78.3951H90.394V72.3623Z" fill="white"/>
<path d="M90.394 66.335H84.3652V72.3615H90.394V66.335Z" fill="white"/>
<path d="M90.394 60.3027H84.3652V66.3355H90.394V60.3027Z" fill="white"/>
<path d="M90.394 54.2695H84.3652V60.3023H90.394V54.2695Z" fill="white"/>
<path d="M90.394 48.2432H84.3652V54.2697H90.394V48.2432Z" fill="#4C6821"/>
<path d="M90.394 42.2109H84.3652V48.2437H90.394V42.2109Z" fill="#4C6821"/>
<path d="M84.3663 192.967H78.3438V199H84.3663V192.967Z" fill="#4C6821"/>
<path d="M84.3663 186.94H78.3438V192.967H84.3663V186.94Z" fill="#4C6821"/>
<path d="M84.3663 180.908H78.3438V186.941H84.3663V180.908Z" fill="#4C6821"/>
<path d="M84.3663 174.882H78.3438V180.908H84.3663V174.882Z" fill="#4C6821"/>
<path d="M84.3663 168.849H78.3438V174.881H84.3663V168.849Z" fill="#4C6821"/>
<path d="M84.3663 162.815H78.3438V168.848H84.3663V162.815Z" fill="#3B5116"/>
<path d="M84.3663 156.789H78.3438V162.816H84.3663V156.789Z" fill="#3B5116"/>
<path d="M84.3663 150.757H78.3438V156.79H84.3663V150.757Z" fill="#3B5116"/>
<path d="M84.3663 144.724H78.3438V150.756H84.3663V144.724Z" fill="#3B5116"/>
<path d="M84.3663 138.697H78.3438V144.724H84.3663V138.697Z" fill="#3B5116"/>
<path d="M84.3663 132.665H78.3438V138.698H84.3663V132.665Z" fill="#4C6821"/>
<path d="M84.3663 126.638H78.3438V132.664H84.3663V126.638Z" fill="#99A583"/>
<path d="M84.3663 120.605H78.3438V126.638H84.3663V120.605Z" fill="#4C6821"/>
<path d="M84.3663 114.572H78.3438V120.605H84.3663V114.572Z" fill="#4C6821"/>
<path d="M84.3663 108.546H78.3438V114.572H84.3663V108.546Z" fill="#4C6821"/>
<path d="M84.3663 102.514H78.3438V108.546H84.3663V102.514Z" fill="#4C6821"/>
<path d="M84.3663 96.4873H78.3438V102.514H84.3663V96.4873Z" fill="#3B5116"/>
<path d="M84.3663 90.4541H78.3438V96.4868H84.3663V90.4541Z" fill="white"/>
<path d="M84.3663 84.4209H78.3438V90.4536H84.3663V84.4209Z" fill="white"/>
<path d="M84.3663 78.3945H78.3438V84.4211H84.3663V78.3945Z" fill="white"/>
<path d="M84.3663 72.3623H78.3438V78.3951H84.3663V72.3623Z" fill="white"/>
<path d="M84.3663 66.335H78.3438V72.3615H84.3663V66.335Z" fill="white"/>
<path d="M84.3663 60.3027H78.3438V66.3355H84.3663V60.3027Z" fill="white"/>
<path d="M84.3663 54.2695H78.3438V60.3023H84.3663V54.2695Z" fill="#C5AD26"/>
<path d="M84.3663 48.2432H78.3438V54.2697H84.3663V48.2432Z" fill="#4C6821"/>
<path d="M78.3432 192.967H72.3145V199H78.3432V192.967Z" fill="#4C6821"/>
<path d="M78.3432 186.94H72.3145V192.967H78.3432V186.94Z" fill="#4C6821"/>
<path d="M78.3432 180.908H72.3145V186.941H78.3432V180.908Z" fill="#4C6821"/>
<path d="M78.3432 174.882H72.3145V180.908H78.3432V174.882Z" fill="#4C6821"/>
<path d="M78.3432 168.849H72.3145V174.881H78.3432V168.849Z" fill="#4C6821"/>
<path d="M78.3432 162.815H72.3145V168.848H78.3432V162.815Z" fill="#3B5116"/>
<path d="M78.3432 156.789H72.3145V162.816H78.3432V156.789Z" fill="white"/>
<path d="M78.3432 150.757H72.3145V156.79H78.3432V150.757Z" fill="white"/>
<path d="M78.3432 144.724H72.3145V150.756H78.3432V144.724Z" fill="white"/>
<path d="M78.3432 138.697H72.3145V144.724H78.3432V138.697Z" fill="white"/>
<path d="M78.3432 132.665H72.3145V138.698H78.3432V132.665Z" fill="#4C6821"/>
<path d="M78.3432 126.638H72.3145V132.664H78.3432V126.638Z" fill="#99A583"/>
<path d="M78.3432 120.605H72.3145V126.638H78.3432V120.605Z" fill="#4C6821"/>
<path d="M78.3432 114.572H72.3145V120.605H78.3432V114.572Z" fill="#4C6821"/>
<path d="M78.3432 108.546H72.3145V114.572H78.3432V108.546Z" fill="#4C6821"/>
<path d="M78.3432 102.514H72.3145V108.546H78.3432V102.514Z" fill="#4C6821"/>
<path d="M78.3432 96.4873H72.3145V102.514H78.3432V96.4873Z" fill="#99A583"/>
<path d="M78.3432 90.4541H72.3145V96.4868H78.3432V90.4541Z" fill="white"/>
<path d="M78.3432 84.4209H72.3145V90.4536H78.3432V84.4209Z" fill="white"/>
<path d="M78.3432 78.3945H72.3145V84.4211H78.3432V78.3945Z" fill="white"/>
<path d="M78.3432 72.3623H72.3145V78.3951H78.3432V72.3623Z" fill="white"/>
<path d="M78.3432 66.335H72.3145V72.3615H78.3432V66.335Z" fill="white"/>
<path d="M78.3432 60.3027H72.3145V66.3355H78.3432V60.3027Z" fill="#C5AD26"/>
<path d="M78.3432 54.2695H72.3145V60.3023H78.3432V54.2695Z" fill="#C5AD26"/>
<path d="M72.3136 192.967H66.291V199H72.3136V192.967Z" fill="#4C6821"/>
<path d="M72.3136 186.94H66.291V192.967H72.3136V186.94Z" fill="#4C6821"/>
<path d="M72.3136 180.908H66.291V186.941H72.3136V180.908Z" fill="#4C6821"/>
<path d="M72.3136 174.882H66.291V180.908H72.3136V174.882Z" fill="#4C6821"/>
<path d="M72.3136 168.849H66.291V174.881H72.3136V168.849Z" fill="#4C6821"/>
<path d="M72.3136 162.815H66.291V168.848H72.3136V162.815Z" fill="#3B5116"/>
<path d="M72.3136 156.789H66.291V162.816H72.3136V156.789Z" fill="white"/>
<path d="M72.3136 150.757H66.291V156.79H72.3136V150.757Z" fill="white"/>
<path d="M72.3136 144.724H66.291V150.756H72.3136V144.724Z" fill="white"/>
<path d="M72.3136 138.697H66.291V144.724H72.3136V138.697Z" fill="white"/>
<path d="M72.3136 132.665H66.291V138.698H72.3136V132.665Z" fill="white"/>
<path d="M72.3136 126.638H66.291V132.664H72.3136V126.638Z" fill="#99A583"/>
<path d="M72.3136 120.605H66.291V126.638H72.3136V120.605Z" fill="#4C6821"/>
<path d="M72.3136 114.572H66.291V120.605H72.3136V114.572Z" fill="#4C6821"/>
<path d="M72.3136 108.546H66.291V114.572H72.3136V108.546Z" fill="#4C6821"/>
<path d="M72.3136 102.514H66.291V108.546H72.3136V102.514Z" fill="#4C6821"/>
<path d="M72.3136 96.4873H66.291V102.514H72.3136V96.4873Z" fill="#99A583"/>
<path d="M72.3136 90.4541H66.291V96.4868H72.3136V90.4541Z" fill="#99A583"/>
<path d="M72.3136 84.4209H66.291V90.4536H72.3136V84.4209Z" fill="white"/>
<path d="M72.3136 78.3945H66.291V84.4211H72.3136V78.3945Z" fill="#99A583"/>
<path d="M72.3136 72.3623H66.291V78.3951H72.3136V72.3623Z" fill="#C5AD26"/>
<path d="M72.3136 66.335H66.291V72.3615H72.3136V66.335Z" fill="#C5AD26"/>
<path d="M72.3136 60.3027H66.291V66.3355H72.3136V60.3027Z" fill="#C5AD26"/>
<path d="M66.2924 192.967H60.2637V199H66.2924V192.967Z" fill="#4C6821"/>
<path d="M66.2924 186.94H60.2637V192.967H66.2924V186.94Z" fill="#4C6821"/>
<path d="M66.2924 180.908H60.2637V186.941H66.2924V180.908Z" fill="#4C6821"/>
<path d="M66.2924 174.882H60.2637V180.908H66.2924V174.882Z" fill="#4C6821"/>
<path d="M66.2924 168.849H60.2637V174.881H66.2924V168.849Z" fill="#4C6821"/>
<path d="M66.2924 162.815H60.2637V168.848H66.2924V162.815Z" fill="#3B5116"/>
<path d="M66.2924 156.789H60.2637V162.816H66.2924V156.789Z" fill="white"/>
<path d="M66.2924 150.757H60.2637V156.79H66.2924V150.757Z" fill="white"/>
<path d="M66.2924 144.724H60.2637V150.756H66.2924V144.724Z" fill="white"/>
<path d="M66.2924 138.697H60.2637V144.724H66.2924V138.697Z" fill="white"/>
<path d="M66.2924 132.665H60.2637V138.698H66.2924V132.665Z" fill="white"/>
<path d="M66.2924 126.638H60.2637V132.664H66.2924V126.638Z" fill="white"/>
<path d="M66.2924 120.605H60.2637V126.638H66.2924V120.605Z" fill="#4C6821"/>
<path d="M66.2924 114.572H60.2637V120.605H66.2924V114.572Z" fill="#4C6821"/>
<path d="M66.2924 108.546H60.2637V114.572H66.2924V108.546Z" fill="#4C6821"/>
<path d="M66.2924 102.514H60.2637V108.546H66.2924V102.514Z" fill="#99A583"/>
<path d="M66.2924 96.4873H60.2637V102.514H66.2924V96.4873Z" fill="#99A583"/>
<path d="M66.2924 90.4541H60.2637V96.4868H66.2924V90.4541Z" fill="#99A583"/>
<path d="M66.2924 84.4209H60.2637V90.4536H66.2924V84.4209Z" fill="#C5AD26"/>
<path d="M66.2924 78.3945H60.2637V84.4211H66.2924V78.3945Z" fill="#C5AD26"/>
<path d="M66.2924 72.3623H60.2637V78.3951H66.2924V72.3623Z" fill="#C5AD26"/>
<path d="M66.2924 66.335H60.2637V72.3615H66.2924V66.335Z" fill="#C5AD26"/>
<path d="M60.2631 192.967H54.2344V199H60.2631V192.967Z" fill="#4C6821"/>
<path d="M60.2631 186.94H54.2344V192.967H60.2631V186.94Z" fill="#4C6821"/>
<path d="M60.2631 180.908H54.2344V186.941H60.2631V180.908Z" fill="#4C6821"/>
<path d="M60.2631 174.882H54.2344V180.908H60.2631V174.882Z" fill="#4C6821"/>
<path d="M60.2631 168.849H54.2344V174.881H60.2631V168.849Z" fill="#4C6821"/>
<path d="M60.2631 162.815H54.2344V168.848H60.2631V162.815Z" fill="#3B5116"/>
<path d="M60.2631 156.789H54.2344V162.816H60.2631V156.789Z" fill="white"/>
<path d="M60.2631 150.757H54.2344V156.79H60.2631V150.757Z" fill="white"/>
<path d="M60.2631 144.724H54.2344V150.756H60.2631V144.724Z" fill="white"/>
<path d="M60.2631 138.697H54.2344V144.724H60.2631V138.697Z" fill="white"/>
<path d="M60.2631 132.665H54.2344V138.698H60.2631V132.665Z" fill="white"/>
<path d="M60.2631 126.638H54.2344V132.664H60.2631V126.638Z" fill="#99A583"/>
<path d="M60.2631 120.605H54.2344V126.638H60.2631V120.605Z" fill="#4C6821"/>
<path d="M60.2631 114.572H54.2344V120.605H60.2631V114.572Z" fill="#4C6821"/>
<path d="M60.2631 108.546H54.2344V114.572H60.2631V108.546Z" fill="#99A583"/>
<path d="M60.2631 102.514H54.2344V108.546H60.2631V102.514Z" fill="#99A583"/>
<path d="M60.2631 96.4873H54.2344V102.514H60.2631V96.4873Z" fill="#C5AD26"/>
<path d="M60.2631 90.4541H54.2344V96.4868H60.2631V90.4541Z" fill="#C5AD26"/>
<path d="M60.2631 84.4209H54.2344V90.4536H60.2631V84.4209Z" fill="#C5AD26"/>
<path d="M60.2631 78.3945H54.2344V84.4211H60.2631V78.3945Z" fill="#C5AD26"/>
<path d="M60.2631 72.3623H54.2344V78.3951H60.2631V72.3623Z" fill="#C5AD26"/>
<path d="M54.2335 192.967H48.2109V199H54.2335V192.967Z" fill="#4C6821"/>
<path d="M54.2335 186.94H48.2109V192.967H54.2335V186.94Z" fill="#4C6821"/>
<path d="M54.2335 180.908H48.2109V186.941H54.2335V180.908Z" fill="#4C6821"/>
<path d="M54.2335 174.882H48.2109V180.908H54.2335V174.882Z" fill="#4C6821"/>
<path d="M54.2335 168.849H48.2109V174.881H54.2335V168.849Z" fill="#4C6821"/>
<path d="M54.2335 162.815H48.2109V168.848H54.2335V162.815Z" fill="#738254"/>
<path d="M54.2335 156.789H48.2109V162.816H54.2335V156.789Z" fill="white"/>
<path d="M54.2335 150.757H48.2109V156.79H54.2335V150.757Z" fill="white"/>
<path d="M54.2335 144.724H48.2109V150.756H54.2335V144.724Z" fill="white"/>
<path d="M54.2335 138.697H48.2109V144.724H54.2335V138.697Z" fill="white"/>
<path d="M54.2335 132.665H48.2109V138.698H54.2335V132.665Z" fill="#4C6821"/>
<path d="M54.2335 126.638H48.2109V132.664H54.2335V126.638Z" fill="#99A583"/>
<path d="M54.2335 120.605H48.2109V126.638H54.2335V120.605Z" fill="#99A583"/>
<path d="M54.2335 114.572H48.2109V120.605H54.2335V114.572Z" fill="#99A583"/>
<path d="M54.2335 108.546H48.2109V114.572H54.2335V108.546Z" fill="#99A583"/>
<path d="M54.2335 102.514H48.2109V108.546H54.2335V102.514Z" fill="#C5AD26"/>
<path d="M54.2335 96.4873H48.2109V102.514H54.2335V96.4873Z" fill="#C5AD26"/>
<path d="M54.2335 90.4541H48.2109V96.4868H54.2335V90.4541Z" fill="#C5AD26"/>
<path d="M54.2335 84.4209H48.2109V90.4536H54.2335V84.4209Z" fill="#C5AD26"/>
<path d="M54.2335 78.3945H48.2109V84.4211H54.2335V78.3945Z" fill="#C5AD26"/>
<path d="M48.2123 192.967H42.1836V199H48.2123V192.967Z" fill="#4C6821"/>
<path d="M48.2123 186.94H42.1836V192.967H48.2123V186.94Z" fill="#4C6821"/>
<path d="M48.2123 180.908H42.1836V186.941H48.2123V180.908Z" fill="#4C6821"/>
<path d="M48.2123 174.882H42.1836V180.908H48.2123V174.882Z" fill="#4C6821"/>
<path d="M48.2123 168.849H42.1836V174.881H48.2123V168.849Z" fill="#4C6821"/>
<path d="M48.2123 162.815H42.1836V168.848H48.2123V162.815Z" fill="#99A583"/>
<path d="M48.2123 156.789H42.1836V162.816H48.2123V156.789Z" fill="#4C6821"/>
<path d="M48.2123 150.757H42.1836V156.79H48.2123V150.757Z" fill="#4C6821"/>
<path d="M48.2123 144.724H42.1836V150.756H48.2123V144.724Z" fill="#4C6821"/>
<path d="M48.2123 138.697H42.1836V144.724H48.2123V138.697Z" fill="#4C6821"/>
<path d="M48.2123 132.665H42.1836V138.698H48.2123V132.665Z" fill="#99A583"/>
<path d="M48.2123 126.638H42.1836V132.664H48.2123V126.638Z" fill="#99A583"/>
<path d="M48.2123 120.605H42.1836V126.638H48.2123V120.605Z" fill="#99A583"/>
<path d="M48.2123 114.572H42.1836V120.605H48.2123V114.572Z" fill="#C5AD26"/>
<path d="M48.2123 108.546H42.1836V114.572H48.2123V108.546Z" fill="#C5AD26"/>
<path d="M48.2123 102.514H42.1836V108.546H48.2123V102.514Z" fill="#C5AD26"/>
<path d="M48.2123 96.4873H42.1836V102.514H48.2123V96.4873Z" fill="#C5AD26"/>
<path d="M48.2123 90.4541H42.1836V96.4868H48.2123V90.4541Z" fill="#C5AD26"/>
<path d="M48.2123 84.4209H42.1836V90.4536H48.2123V84.4209Z" fill="#C5AD26"/>
<path d="M42.1827 192.967H36.1602V199H42.1827V192.967Z" fill="#4C6821"/>
<path d="M42.1827 186.94H36.1602V192.967H42.1827V186.94Z" fill="#4C6821"/>
<path d="M42.1827 180.908H36.1602V186.941H42.1827V180.908Z" fill="#4C6821"/>
<path d="M42.1827 174.882H36.1602V180.908H42.1827V174.882Z" fill="#4C6821"/>
<path d="M42.1827 168.849H36.1602V174.881H42.1827V168.849Z" fill="#4C6821"/>
<path d="M42.1827 162.815H36.1602V168.848H42.1827V162.815Z" fill="#99A583"/>
<path d="M42.1827 156.789H36.1602V162.816H42.1827V156.789Z" fill="#4C6821"/>
<path d="M42.1827 150.757H36.1602V156.79H42.1827V150.757Z" fill="#4C6821"/>
<path d="M42.1827 144.724H36.1602V150.756H42.1827V144.724Z" fill="#4C6821"/>
<path d="M42.1827 138.697H36.1602V144.724H42.1827V138.697Z" fill="#99A583"/>
<path d="M42.1827 132.665H36.1602V138.698H42.1827V132.665Z" fill="#99A583"/>
<path d="M42.1827 126.638H36.1602V132.664H42.1827V126.638Z" fill="#C5AD26"/>
<path d="M42.1827 120.605H36.1602V126.638H42.1827V120.605Z" fill="#C5AD26"/>
<path d="M42.1827 114.572H36.1602V120.605H42.1827V114.572Z" fill="#C5AD26"/>
<path d="M42.1827 108.546H36.1602V114.572H42.1827V108.546Z" fill="#C5AD26"/>
<path d="M42.1827 102.514H36.1602V108.546H42.1827V102.514Z" fill="#C5AD26"/>
<path d="M42.1827 96.4873H36.1602V102.514H42.1827V96.4873Z" fill="#C5AD26"/>
<path d="M42.1827 90.4541H36.1602V96.4868H42.1827V90.4541Z" fill="#C5AD26"/>
<path d="M36.1596 192.967H30.1309V199H36.1596V192.967Z" fill="#4C6821"/>
<path d="M36.1596 186.94H30.1309V192.967H36.1596V186.94Z" fill="#4C6821"/>
<path d="M36.1596 180.908H30.1309V186.941H36.1596V180.908Z" fill="#4C6821"/>
<path d="M36.1596 174.882H30.1309V180.908H36.1596V174.882Z" fill="#4C6821"/>
<path d="M36.1596 168.849H30.1309V174.881H36.1596V168.849Z" fill="#99A583"/>
<path d="M36.1596 162.815H30.1309V168.848H36.1596V162.815Z" fill="#99A583"/>
<path d="M36.1596 156.789H30.1309V162.816H36.1596V156.789Z" fill="#4C6821"/>
<path d="M36.1596 150.757H30.1309V156.79H36.1596V150.757Z" fill="#99A583"/>
<path d="M36.1596 144.724H30.1309V150.756H36.1596V144.724Z" fill="#99A583"/>
<path d="M36.1596 138.697H30.1309V144.724H36.1596V138.697Z" fill="#99A583"/>
<path d="M36.1596 132.665H30.1309V138.698H36.1596V132.665Z" fill="#C5AD26"/>
<path d="M36.1596 126.638H30.1309V132.664H36.1596V126.638Z" fill="#C5AD26"/>
<path d="M36.1596 120.605H30.1309V126.638H36.1596V120.605Z" fill="#C5AD26"/>
<path d="M36.1596 114.572H30.1309V120.605H36.1596V114.572Z" fill="#C5AD26"/>
<path d="M36.1596 108.546H30.1309V114.572H36.1596V108.546Z" fill="#C5AD26"/>
<path d="M36.1596 102.514H30.1309V108.546H36.1596V102.514Z" fill="#C5AD26"/>
<path d="M36.1596 96.4873H30.1309V102.514H36.1596V96.4873Z" fill="#C5AD26"/>
<path d="M30.1323 192.967H24.1035V199H30.1323V192.967Z" fill="#4C6821"/>
<path d="M30.1323 186.94H24.1035V192.967H30.1323V186.94Z" fill="#4C6821"/>
<path d="M30.1323 180.908H24.1035V186.941H30.1323V180.908Z" fill="#4C6821"/>
<path d="M30.1323 174.882H24.1035V180.908H30.1323V174.882Z" fill="#99A583"/>
<path d="M30.1323 168.849H24.1035V174.881H30.1323V168.849Z" fill="#99A583"/>
<path d="M30.1323 162.815H24.1035V168.848H30.1323V162.815Z" fill="#99A583"/>
<path d="M30.1323 156.789H24.1035V162.816H30.1323V156.789Z" fill="#99A583"/>
<path d="M30.1323 150.757H24.1035V156.79H30.1323V150.757Z" fill="#99A583"/>
<path d="M30.1323 144.724H24.1035V150.756H30.1323V144.724Z" fill="#C5AD26"/>
<path d="M30.1323 138.697H24.1035V144.724H30.1323V138.697Z" fill="#C5AD26"/>
<path d="M30.1323 132.665H24.1035V138.698H30.1323V132.665Z" fill="#C5AD26"/>
<path d="M30.1323 126.638H24.1035V132.664H30.1323V126.638Z" fill="#C5AD26"/>
<path d="M30.1323 120.605H24.1035V126.638H30.1323V120.605Z" fill="#C5AD26"/>
<path d="M30.1323 114.572H24.1035V120.605H30.1323V114.572Z" fill="#C5AD26"/>
<path d="M30.1323 108.546H24.1035V114.572H30.1323V108.546Z" fill="#C5AD26"/>
<path d="M30.1323 102.514H24.1035V108.546H30.1323V102.514Z" fill="#C5AD26"/>
<path d="M24.1027 186.94H18.0801V192.967H24.1027V186.94Z" fill="#99A583"/>
<path d="M24.1027 180.908H18.0801V186.941H24.1027V180.908Z" fill="#99A583"/>
<path d="M24.1027 174.882H18.0801V180.908H24.1027V174.882Z" fill="#99A583"/>
<path d="M24.1027 168.849H18.0801V174.881H24.1027V168.849Z" fill="#C5AD26"/>
<path d="M24.1027 162.815H18.0801V168.848H24.1027V162.815Z" fill="#C5AD26"/>
<path d="M24.1027 156.789H18.0801V162.816H24.1027V156.789Z" fill="#C5AD26"/>
<path d="M24.1027 150.757H18.0801V156.79H24.1027V150.757Z" fill="#C5AD26"/>
<path d="M24.1027 144.724H18.0801V150.756H24.1027V144.724Z" fill="#C5AD26"/>
<path d="M24.1027 138.697H18.0801V144.724H24.1027V138.697Z" fill="#C5AD26"/>
<path d="M24.1027 132.665H18.0801V138.698H24.1027V132.665Z" fill="#C5AD26"/>
<path d="M24.1027 126.638H18.0801V132.664H24.1027V126.638Z" fill="#C5AD26"/>
<path d="M24.1027 120.605H18.0801V126.638H24.1027V120.605Z" fill="#C5AD26"/>
<path d="M24.1027 114.572H18.0801V120.605H24.1027V114.572Z" fill="#C5AD26"/>
<path d="M24.1027 108.546H18.0801V114.572H24.1027V108.546Z" fill="#C5AD26"/>
<path d="M18.0795 186.94H12.0508V192.967H18.0795V186.94Z" fill="#C5AD26"/>
<path d="M18.0795 180.908H12.0508V186.941H18.0795V180.908Z" fill="#C5AD26"/>
<path d="M18.0795 174.882H12.0508V180.908H18.0795V174.882Z" fill="#C5AD26"/>
<path d="M18.0795 168.849H12.0508V174.881H18.0795V168.849Z" fill="#C5AD26"/>
<path d="M18.0795 162.815H12.0508V168.848H18.0795V162.815Z" fill="#C5AD26"/>
<path d="M18.0795 156.789H12.0508V162.816H18.0795V156.789Z" fill="#C5AD26"/>
<path d="M18.0795 150.757H12.0508V156.79H18.0795V150.757Z" fill="#C5AD26"/>
<path d="M18.0795 144.724H12.0508V150.756H18.0795V144.724Z" fill="#C5AD26"/>
<path d="M18.0795 138.697H12.0508V144.724H18.0795V138.697Z" fill="#C5AD26"/>
<path d="M18.0795 132.665H12.0508V138.698H18.0795V132.665Z" fill="#C5AD26"/>
<path d="M18.0795 126.638H12.0508V132.664H18.0795V126.638Z" fill="#C5AD26"/>
<path d="M18.0795 120.605H12.0508V126.638H18.0795V120.605Z" fill="#C5AD26"/>
<path d="M18.0795 114.572H12.0508V120.605H18.0795V114.572Z" fill="#C5AD26"/>
<path d="M18.0795 108.546H12.0508V114.572H18.0795V108.546Z" fill="#C5AD26"/>
<path d="M12.0522 180.908H6.02344V186.941H12.0522V180.908Z" fill="#C5AD26"/>
<path d="M12.0522 174.882H6.02344V180.908H12.0522V174.882Z" fill="#C5AD26"/>
<path d="M12.0522 168.849H6.02344V174.881H12.0522V168.849Z" fill="#C5AD26"/>
<path d="M12.0522 162.815H6.02344V168.848H12.0522V162.815Z" fill="#C5AD26"/>
<path d="M12.0522 156.789H6.02344V162.816H12.0522V156.789Z" fill="#C5AD26"/>
<path d="M12.0522 150.757H6.02344V156.79H12.0522V150.757Z" fill="#C5AD26"/>
<path d="M12.0522 144.724H6.02344V150.756H12.0522V144.724Z" fill="#C5AD26"/>
<path d="M12.0522 138.697H6.02344V144.724H12.0522V138.697Z" fill="#C5AD26"/>
<path d="M12.0522 132.665H6.02344V138.698H12.0522V132.665Z" fill="#C5AD26"/>
<path d="M12.0522 126.638H6.02344V132.664H12.0522V126.638Z" fill="#C5AD26"/>
<path d="M12.0522 120.605H6.02344V126.638H12.0522V120.605Z" fill="#C5AD26"/>
<path d="M12.0522 114.572H6.02344V120.605H12.0522V114.572Z" fill="#C5AD26"/>
<path d="M6.02258 162.815H0V168.848H6.02258V162.815Z" fill="#C5AD26"/>
<path d="M6.02258 156.789H0V162.816H6.02258V156.789Z" fill="#C5AD26"/>
<path d="M6.02258 150.757H0V156.79H6.02258V150.757Z" fill="#C5AD26"/>
<path d="M6.02258 144.724H0V150.756H6.02258V144.724Z" fill="#C5AD26"/>
<path d="M6.02258 138.697H0V144.724H6.02258V138.697Z" fill="#C5AD26"/>
<path d="M6.02258 132.665H0V138.698H6.02258V132.665Z" fill="#C5AD26"/>
<path d="M6.02258 126.638H0V132.664H6.02258V126.638Z" fill="#C5AD26"/>
<path d="M6.02258 120.605H0V126.638H6.02258V120.605Z" fill="#C5AD26"/>
</g>
<defs>
<clipPath id="clip0_867:76273">
<rect width="229" height="199" fill="white"/>
</clipPath>
</defs>
</svg>
