<svg width="49" height="69" viewBox="0 0 49 69" fill="none" xmlns="http://www.w3.org/2000/svg">
<g clip-path="url(#clip0_867:75782)">
<path d="M48.7795 58.5303H39.0195V68.2903H48.7795V58.5303Z" fill="#EA1818"/>
<path d="M48.7795 39.0195H39.0195V48.7795H48.7795V39.0195Z" fill="#EA1818"/>
<path d="M48.7795 29.2695H39.0195V39.0195H48.7795V29.2695Z" fill="#EA1818"/>
<path d="M48.7795 19.5098H39.0195V29.2698H48.7795V19.5098Z" fill="#EA1818"/>
<path d="M48.7795 9.75H39.0195V19.51H48.7795V9.75Z" fill="#EA1818"/>
<path d="M48.7795 0H39.0195V9.75H48.7795V0Z" fill="#EA1818"/>
<path d="M29.2698 19.5098H19.5098V29.2698H29.2698V19.5098Z" fill="#EA1818"/>
<path d="M29.2698 9.75H19.5098V19.51H29.2698V9.75Z" fill="#EA1818"/>
<path d="M19.51 58.5303H9.75V68.2903H19.51V58.5303Z" fill="#EA1818"/>
<path d="M19.51 39.0195H9.75V48.7795H19.51V39.0195Z" fill="#EA1818"/>
<path d="M19.51 29.2695H9.75V39.0195H19.51V29.2695Z" fill="#EA1818"/>
<path d="M19.51 0H9.75V9.75H19.51V0Z" fill="#EA1818"/>
<path d="M9.75 9.75H0V19.51H9.75V9.75Z" fill="#EA1818"/>
</g>
<defs>
<clipPath id="clip0_867:75782">
<rect width="48.78" height="68.29" fill="white"/>
</clipPath>
</defs>
</svg>
